<?xml version="1.0" encoding="UTF-8"?>
<svg width="1440px" height="470px" viewBox="0 0 1440 470" version="1.1" xmlns="http://www.w3.org/2000/svg" xmlns:xlink="http://www.w3.org/1999/xlink">
    <!-- Generator: Sketch 45.2 (43514) - http://www.bohemiancoding.com/sketch -->
    <title>Artboard</title>
    <desc>Created with Sketch.</desc>
    <defs>
        <rect id="path-1" x="0" y="0.653212483" width="1440" height="468.346788"></rect>
    </defs>
    <g id="redesing-v6" stroke="none" stroke-width="1" fill="none" fill-rule="evenodd">
        <g id="Artboard">
            <g id="how">
                <g id="bgn">
                    <mask id="mask-2" fill="white">
                        <use xlink:href="#path-1"></use>
                    </mask>
                    <use id="Mask" fill="#FFFFFF" xlink:href="#path-1"></use>
                    <path d="M385.390823,94.1423365 L385.390823,124.811064 L440.727902,124.811064 C452.066081,124.811064 471.527133,116.50848 472.204039,93.2951341 L472.204039,81.4343004 C472.204039,61.609764 455.958291,49.9183707 440.727902,49.9183707 L413.143976,49.9183707 L413.143976,35.6853702 L467.804149,35.6853702 L467.804149,4.84720241 L415.343921,4.84720241 C401.805798,4.84720241 383.698558,16.0302742 383.698558,36.8714535 L383.698558,47.5462039 C383.698558,68.3873832 401.636571,79.0621336 415.343921,79.0621336 C453.419893,79.2315741 406.205688,79.0621336 441.404809,79.0621336 L441.404809,93.9728961 L385.390823,94.1423365 Z M88.9059212,86.6869553 C88.9059212,86.6869553 118.520566,84.1453481 118.520566,45.8517991 C118.520566,7.55825013 82.6445391,4 82.6445391,4 L18,4 L18,124.811064 L50.4914961,124.811064 L50.4914961,95.6673009 L78.5831021,124.811064 L126.64344,124.811064 L88.9059212,86.6869553 Z M76.3831571,61.9486449 L50.4914961,61.9486449 L50.4914961,34.3298463 L76.5523836,34.3298463 C76.5523836,34.3298463 83.8291249,37.040894 83.8291249,48.0545254 C83.8291249,59.0681567 76.3831571,61.9486449 76.3831571,61.9486449 Z M198.733947,4.84720241 L165.734771,4.84720241 C142.212282,4.84720241 134.258634,26.1967032 134.258634,36.3631321 L134.258634,124.811064 L167.25781,124.811064 L167.25781,103.631004 L198.226267,103.631004 L198.226267,124.811064 L230.210084,124.811064 L230.210084,36.3631321 C230.210084,10.6081788 206.856821,4.84720241 198.733947,4.84720241 Z M198.226267,69.4040261 L167.088584,69.4040261 L167.088584,40.0908227 C167.088584,40.0908227 167.088584,33.4826439 177.411403,33.4826439 L188.749581,33.4826439 C197.887814,33.4826439 198.057041,40.0908227 198.057041,40.0908227 L198.057041,69.4040261 L198.226267,69.4040261 Z M245.332647,4 L279.685635,4 L279.685635,123.963861 L245.332647,123.963861 L245.332647,4 Z M328.936549,92.9562532 L375.135395,92.9562532 L375.135395,123.963861 L328.936549,123.963861 L294.752788,123.963861 L294.752788,92.9562532 L294.752788,4 L328.936549,4 L328.936549,92.9562532 Z" id="Combined-Shape-Copy" stroke="#E1E4E8" fill="#FFFFFF" mask="url(#mask-2)"></path>
                    <path d="M340.349841,215.091164 L340.349841,242 L388.902765,242 C398.850918,242 415.926105,234.715288 416.520025,214.347826 L416.520025,203.941094 C416.520025,186.546985 402.265955,176.28892 388.902765,176.28892 L364.700543,176.28892 L364.700543,163.800842 L412.659548,163.800842 L412.659548,136.743338 L366.630782,136.743338 C354.752391,136.743338 338.865042,146.5554 338.865042,164.841515 L338.865042,174.207574 C338.865042,192.493689 354.603911,201.859748 366.630782,201.859748 C400.038757,202.008415 358.612868,201.859748 389.496685,201.859748 L389.496685,214.942496 L340.349841,215.091164 Z M80.2130739,208.54979 C80.2130739,208.54979 106.197055,206.319776 106.197055,172.720898 C106.197055,139.12202 74.719318,136 74.719318,136 L18,136 L18,242 L46.5081389,242 L46.5081389,216.429173 L71.1558006,242 L113.324089,242 L80.2130739,208.54979 Z M69.2255621,186.84432 L46.5081389,186.84432 L46.5081389,162.611501 L69.374042,162.611501 C69.374042,162.611501 75.7586772,164.990182 75.7586772,174.653576 C75.7586772,184.316971 69.2255621,186.84432 69.2255621,186.84432 Z M176.576523,136.743338 L147.622944,136.743338 C126.984239,136.743338 120.005684,155.475456 120.005684,164.395512 L120.005684,242 L148.959263,242 L148.959263,223.41655 L176.131083,223.41655 L176.131083,242 L204.193782,242 L204.193782,164.395512 C204.193782,141.798036 183.703557,136.743338 176.576523,136.743338 Z M176.131083,193.385694 L148.810783,193.385694 L148.810783,167.666199 C148.810783,167.666199 148.810783,161.868163 157.868056,161.868163 L167.816209,161.868163 C175.834123,161.868163 175.982603,167.666199 175.982603,167.666199 L175.982603,193.385694 L176.131083,193.385694 Z M217.462366,136 L247.603783,136 L247.603783,241.256662 L217.462366,241.256662 L217.462366,136 Z M290.816687,214.050491 L331.351697,214.050491 L331.351697,241.256662 L290.816687,241.256662 L260.823749,241.256662 L260.823749,214.050491 L260.823749,136 L290.816687,136 L290.816687,214.050491 Z" id="Combined-Shape-Copy-2" stroke="#E1E4E8" fill="#FFFFFF" mask="url(#mask-2)"></path>
                    <path d="M312.980515,328.375877 L312.980515,353 L357.411021,353 C366.514519,353 382.139927,346.333801 382.683419,327.695652 L382.683419,318.172511 C382.683419,302.255259 369.639601,292.868163 357.411021,292.868163 L335.263705,292.868163 L335.263705,281.440393 L379.150718,281.440393 L379.150718,256.680224 L337.030055,256.680224 C326.160207,256.680224 311.621784,265.659187 311.621784,282.392707 L311.621784,290.963534 C311.621784,307.697055 326.024333,316.267882 337.030055,316.267882 C367.601504,316.403927 329.692907,316.267882 357.954514,316.267882 L357.954514,328.239832 L312.980515,328.375877 Z M74.9308318,322.389902 C74.9308318,322.389902 98.7086255,320.349229 98.7086255,289.603086 C98.7086255,258.856942 69.9035269,256 69.9035269,256 L18,256 L18,353 L44.0876365,353 L44.0876365,329.600281 L66.6425723,353 L105.230535,353 L74.9308318,322.389902 Z M64.8762219,302.527349 L44.0876365,302.527349 L44.0876365,280.352034 L65.012095,280.352034 C65.012095,280.352034 70.8546386,282.528752 70.8546386,291.371669 C70.8546386,300.214586 64.8762219,302.527349 64.8762219,302.527349 Z M163.112478,256.680224 L136.617222,256.680224 C117.73086,256.680224 111.344824,273.821879 111.344824,281.984572 L111.344824,353 L137.84008,353 L137.84008,335.99439 L162.704859,335.99439 L162.704859,353 L188.384876,353 L188.384876,281.984572 C188.384876,261.30575 169.634387,256.680224 163.112478,256.680224 Z M162.704859,308.513324 L137.704207,308.513324 L137.704207,284.97756 C137.704207,284.97756 137.704207,279.671809 145.992467,279.671809 L155.095965,279.671809 C162.433113,279.671809 162.568986,284.97756 162.568986,284.97756 L162.568986,308.513324 L162.704859,308.513324 Z M200.526882,256 L228.109122,256 L228.109122,352.319776 L200.526882,352.319776 L200.526882,256 Z M267.653006,327.423562 L304.746364,327.423562 L304.746364,352.319776 L267.653006,352.319776 L240.206639,352.319776 L240.206639,327.423562 L240.206639,256 L267.653006,256 L267.653006,327.423562 Z" id="Combined-Shape-Copy-5" stroke="#E1E4E8" fill="#FFFFFF" mask="url(#mask-2)"></path>
                    <path d="M273.447044,423.676017 L273.447044,445 L311.922946,445 C319.806388,445 333.337668,439.227209 333.808322,423.086957 L333.808322,414.840112 C333.808322,401.056101 322.512644,392.927069 311.922946,392.927069 L292.743827,392.927069 L292.743827,383.030856 L330.749076,383.030856 L330.749076,361.58906 L294.27345,361.58906 C284.860385,361.58906 272.270411,369.364656 272.270411,383.85554 L272.270411,391.2777 C272.270411,405.768583 284.742722,413.190743 294.27345,413.190743 C320.747694,413.308555 287.919631,413.190743 312.393599,413.190743 L312.393599,423.558205 L273.447044,423.676017 Z M67.3009265,418.492286 C67.3009265,418.492286 87.8920056,416.725105 87.8920056,390.099579 C87.8920056,363.474053 62.9473841,361 62.9473841,361 L18,361 L18,445 L40.5913553,445 L40.5913553,424.736325 L60.1234647,445 L93.5398444,445 L67.3009265,418.492286 Z M58.5938416,401.291725 L40.5913553,401.291725 L40.5913553,382.088359 L58.711505,382.088359 C58.711505,382.088359 63.7710272,383.973352 63.7710272,391.631136 C63.7710272,399.28892 58.5938416,401.291725 58.5938416,401.291725 Z M143.664414,361.58906 L120.720069,361.58906 C104.364869,361.58906 98.8346934,376.43338 98.8346934,383.502104 L98.8346934,445 L121.779039,445 L121.779039,430.273492 L143.311424,430.273492 L143.311424,445 L165.54979,445 L165.54979,383.502104 C165.54979,365.59467 149.312253,361.58906 143.664414,361.58906 Z M143.311424,406.475456 L121.661375,406.475456 L121.661375,386.093969 C121.661375,386.093969 121.661375,381.499299 128.838837,381.499299 L136.722279,381.499299 C143.076098,381.499299 143.193761,386.093969 143.193761,386.093969 L143.193761,406.475456 L143.311424,406.475456 Z M176.064516,361 L199.950168,361 L199.950168,444.41094 L176.064516,444.41094 L176.064516,361 Z M234.194356,422.851332 L266.316439,422.851332 L266.316439,444.41094 L234.194356,444.41094 L210.426367,444.41094 L210.426367,422.851332 L210.426367,361 L234.194356,361 L234.194356,422.851332 Z" id="Combined-Shape-Copy-6" stroke="#E1E4E8" fill="#FFFFFF" mask="url(#mask-2)"></path>
                    <path d="M456.600413,435.099579 L456.600413,445 L474.464225,445 C478.124394,445 484.406775,442.319776 484.625292,434.826087 L484.625292,430.997195 C484.625292,424.597475 479.38087,420.823282 474.464225,420.823282 L465.559634,420.823282 L465.559634,416.228612 L483.204928,416.228612 L483.204928,406.273492 L466.269816,406.273492 C461.899464,406.273492 456.054119,409.88359 456.054119,416.611501 L456.054119,420.057504 C456.054119,426.785414 461.844835,430.231417 466.269816,430.231417 C478.56143,430.286115 463.319829,430.231417 474.682743,430.231417 L474.682743,435.044881 L456.600413,435.099579 Z M360.889716,432.692847 C360.889716,432.692847 370.44986,431.87237 370.44986,419.510519 C370.44986,407.148668 358.868428,406 358.868428,406 L338,406 L338,445 L348.488844,445 L348.488844,435.591865 L357.557323,445 L373.072071,445 L360.889716,432.692847 Z M356.847141,424.706872 L348.488844,424.706872 L348.488844,415.791024 L356.90177,415.791024 C356.90177,415.791024 359.250834,416.666199 359.250834,420.221599 C359.250834,423.776999 356.847141,424.706872 356.847141,424.706872 Z M396.344192,406.273492 L385.691461,406.273492 C378.097975,406.273492 375.530393,413.165498 375.530393,416.447405 L375.530393,445 L386.183125,445 L386.183125,438.162693 L396.180304,438.162693 L396.180304,445 L406.505259,445 L406.505259,416.447405 C406.505259,408.13324 398.966403,406.273492 396.344192,406.273492 Z M396.180304,427.113604 L386.128496,427.113604 L386.128496,417.650771 C386.128496,417.650771 386.128496,415.517532 389.460889,415.517532 L393.121058,415.517532 C396.071045,415.517532 396.125675,417.650771 396.125675,417.650771 L396.125675,427.113604 L396.180304,427.113604 Z M411.387097,406 L422.476864,406 L422.476864,444.726508 L411.387097,444.726508 L411.387097,406 Z M438.375951,434.71669 L453.289775,434.71669 L453.289775,444.726508 L438.375951,444.726508 L427.340813,444.726508 L427.340813,434.71669 L427.340813,406 L438.375951,406 L438.375951,434.71669 Z" id="Combined-Shape-Copy-7" stroke="#E1E4E8" fill="#FFFFFF" mask="url(#mask-2)"></path>
                    <path d="M617.600413,435.099579 L617.600413,445 L635.464225,445 C639.124394,445 645.406775,442.319776 645.625292,434.826087 L645.625292,430.997195 C645.625292,424.597475 640.38087,420.823282 635.464225,420.823282 L626.559634,420.823282 L626.559634,416.228612 L644.204928,416.228612 L644.204928,406.273492 L627.269816,406.273492 C622.899464,406.273492 617.054119,409.88359 617.054119,416.611501 L617.054119,420.057504 C617.054119,426.785414 622.844835,430.231417 627.269816,430.231417 C639.56143,430.286115 624.319829,430.231417 635.682743,430.231417 L635.682743,435.044881 L617.600413,435.099579 Z M521.889716,432.692847 C521.889716,432.692847 531.44986,431.87237 531.44986,419.510519 C531.44986,407.148668 519.868428,406 519.868428,406 L499,406 L499,445 L509.488844,445 L509.488844,435.591865 L518.557323,445 L534.072071,445 L521.889716,432.692847 Z M517.847141,424.706872 L509.488844,424.706872 L509.488844,415.791024 L517.90177,415.791024 C517.90177,415.791024 520.250834,416.666199 520.250834,420.221599 C520.250834,423.776999 517.847141,424.706872 517.847141,424.706872 Z M557.344192,406.273492 L546.691461,406.273492 C539.097975,406.273492 536.530393,413.165498 536.530393,416.447405 L536.530393,445 L547.183125,445 L547.183125,438.162693 L557.180304,438.162693 L557.180304,445 L567.505259,445 L567.505259,416.447405 C567.505259,408.13324 559.966403,406.273492 557.344192,406.273492 Z M557.180304,427.113604 L547.128496,427.113604 L547.128496,417.650771 C547.128496,417.650771 547.128496,415.517532 550.460889,415.517532 L554.121058,415.517532 C557.071045,415.517532 557.125675,417.650771 557.125675,417.650771 L557.125675,427.113604 L557.180304,427.113604 Z M572.387097,406 L583.476864,406 L583.476864,444.726508 L572.387097,444.726508 L572.387097,406 Z M599.375951,434.71669 L614.289775,434.71669 L614.289775,444.726508 L599.375951,444.726508 L588.340813,444.726508 L588.340813,434.71669 L588.340813,406 L599.375951,406 L599.375951,434.71669 Z" id="Combined-Shape-Copy-8" stroke="#E1E4E8" fill="#FFFFFF" mask="url(#mask-2)"></path>
                    <path d="M779.600413,435.099579 L779.600413,445 L797.464225,445 C801.124394,445 807.406775,442.319776 807.625292,434.826087 L807.625292,430.997195 C807.625292,424.597475 802.38087,420.823282 797.464225,420.823282 L788.559634,420.823282 L788.559634,416.228612 L806.204928,416.228612 L806.204928,406.273492 L789.269816,406.273492 C784.899464,406.273492 779.054119,409.88359 779.054119,416.611501 L779.054119,420.057504 C779.054119,426.785414 784.844835,430.231417 789.269816,430.231417 C801.56143,430.286115 786.319829,430.231417 797.682743,430.231417 L797.682743,435.044881 L779.600413,435.099579 Z M683.889716,432.692847 C683.889716,432.692847 693.44986,431.87237 693.44986,419.510519 C693.44986,407.148668 681.868428,406 681.868428,406 L661,406 L661,445 L671.488844,445 L671.488844,435.591865 L680.557323,445 L696.072071,445 L683.889716,432.692847 Z M679.847141,424.706872 L671.488844,424.706872 L671.488844,415.791024 L679.90177,415.791024 C679.90177,415.791024 682.250834,416.666199 682.250834,420.221599 C682.250834,423.776999 679.847141,424.706872 679.847141,424.706872 Z M719.344192,406.273492 L708.691461,406.273492 C701.097975,406.273492 698.530393,413.165498 698.530393,416.447405 L698.530393,445 L709.183125,445 L709.183125,438.162693 L719.180304,438.162693 L719.180304,445 L729.505259,445 L729.505259,416.447405 C729.505259,408.13324 721.966403,406.273492 719.344192,406.273492 Z M719.180304,427.113604 L709.128496,427.113604 L709.128496,417.650771 C709.128496,417.650771 709.128496,415.517532 712.460889,415.517532 L716.121058,415.517532 C719.071045,415.517532 719.125675,417.650771 719.125675,417.650771 L719.125675,427.113604 L719.180304,427.113604 Z M734.387097,406 L745.476864,406 L745.476864,444.726508 L734.387097,444.726508 L734.387097,406 Z M761.375951,434.71669 L776.289775,434.71669 L776.289775,444.726508 L761.375951,444.726508 L750.340813,444.726508 L750.340813,434.71669 L750.340813,406 L761.375951,406 L761.375951,434.71669 Z" id="Combined-Shape-Copy-9" stroke="#E1E4E8" fill="#FFFFFF" mask="url(#mask-2)"></path>
                    <path d="M940.600413,435.099579 L940.600413,445 L958.464225,445 C962.124394,445 968.406775,442.319776 968.625292,434.826087 L968.625292,430.997195 C968.625292,424.597475 963.38087,420.823282 958.464225,420.823282 L949.559634,420.823282 L949.559634,416.228612 L967.204928,416.228612 L967.204928,406.273492 L950.269816,406.273492 C945.899464,406.273492 940.054119,409.88359 940.054119,416.611501 L940.054119,420.057504 C940.054119,426.785414 945.844835,430.231417 950.269816,430.231417 C962.56143,430.286115 947.319829,430.231417 958.682743,430.231417 L958.682743,435.044881 L940.600413,435.099579 Z M844.889716,432.692847 C844.889716,432.692847 854.44986,431.87237 854.44986,419.510519 C854.44986,407.148668 842.868428,406 842.868428,406 L822,406 L822,445 L832.488844,445 L832.488844,435.591865 L841.557323,445 L857.072071,445 L844.889716,432.692847 Z M840.847141,424.706872 L832.488844,424.706872 L832.488844,415.791024 L840.90177,415.791024 C840.90177,415.791024 843.250834,416.666199 843.250834,420.221599 C843.250834,423.776999 840.847141,424.706872 840.847141,424.706872 Z M880.344192,406.273492 L869.691461,406.273492 C862.097975,406.273492 859.530393,413.165498 859.530393,416.447405 L859.530393,445 L870.183125,445 L870.183125,438.162693 L880.180304,438.162693 L880.180304,445 L890.505259,445 L890.505259,416.447405 C890.505259,408.13324 882.966403,406.273492 880.344192,406.273492 Z M880.180304,427.113604 L870.128496,427.113604 L870.128496,417.650771 C870.128496,417.650771 870.128496,415.517532 873.460889,415.517532 L877.121058,415.517532 C880.071045,415.517532 880.125675,417.650771 880.125675,417.650771 L880.125675,427.113604 L880.180304,427.113604 Z M895.387097,406 L906.476864,406 L906.476864,444.726508 L895.387097,444.726508 L895.387097,406 Z M922.375951,434.71669 L937.289775,434.71669 L937.289775,444.726508 L922.375951,444.726508 L911.340813,444.726508 L911.340813,434.71669 L911.340813,406 L922.375951,406 L922.375951,434.71669 Z" id="Combined-Shape-Copy-10" stroke="#E1E4E8" fill="#FFFFFF" mask="url(#mask-2)"></path>
                    <path d="M1102.60041,435.099579 L1102.60041,445 L1120.46422,445 C1124.12439,445 1130.40677,442.319776 1130.62529,434.826087 L1130.62529,430.997195 C1130.62529,424.597475 1125.38087,420.823282 1120.46422,420.823282 L1111.55963,420.823282 L1111.55963,416.228612 L1129.20493,416.228612 L1129.20493,406.273492 L1112.26982,406.273492 C1107.89946,406.273492 1102.05412,409.88359 1102.05412,416.611501 L1102.05412,420.057504 C1102.05412,426.785414 1107.84484,430.231417 1112.26982,430.231417 C1124.56143,430.286115 1109.31983,430.231417 1120.68274,430.231417 L1120.68274,435.044881 L1102.60041,435.099579 Z M1006.88972,432.692847 C1006.88972,432.692847 1016.44986,431.87237 1016.44986,419.510519 C1016.44986,407.148668 1004.86843,406 1004.86843,406 L984,406 L984,445 L994.488844,445 L994.488844,435.591865 L1003.55732,445 L1019.07207,445 L1006.88972,432.692847 Z M1002.84714,424.706872 L994.488844,424.706872 L994.488844,415.791024 L1002.90177,415.791024 C1002.90177,415.791024 1005.25083,416.666199 1005.25083,420.221599 C1005.25083,423.776999 1002.84714,424.706872 1002.84714,424.706872 Z M1042.34419,406.273492 L1031.69146,406.273492 C1024.09797,406.273492 1021.53039,413.165498 1021.53039,416.447405 L1021.53039,445 L1032.18313,445 L1032.18313,438.162693 L1042.1803,438.162693 L1042.1803,445 L1052.50526,445 L1052.50526,416.447405 C1052.50526,408.13324 1044.9664,406.273492 1042.34419,406.273492 Z M1042.1803,427.113604 L1032.1285,427.113604 L1032.1285,417.650771 C1032.1285,417.650771 1032.1285,415.517532 1035.46089,415.517532 L1039.12106,415.517532 C1042.07105,415.517532 1042.12567,417.650771 1042.12567,417.650771 L1042.12567,427.113604 L1042.1803,427.113604 Z M1057.3871,406 L1068.47686,406 L1068.47686,444.726508 L1057.3871,444.726508 L1057.3871,406 Z M1084.37595,434.71669 L1099.28978,434.71669 L1099.28978,444.726508 L1084.37595,444.726508 L1073.34081,444.726508 L1073.34081,434.71669 L1073.34081,406 L1084.37595,406 L1084.37595,434.71669 Z" id="Combined-Shape-Copy-11" stroke="#E1E4E8" fill="#FFFFFF" mask="url(#mask-2)"></path>
                    <path d="M1263.60041,435.099579 L1263.60041,445 L1281.46422,445 C1285.12439,445 1291.40677,442.319776 1291.62529,434.826087 L1291.62529,430.997195 C1291.62529,424.597475 1286.38087,420.823282 1281.46422,420.823282 L1272.55963,420.823282 L1272.55963,416.228612 L1290.20493,416.228612 L1290.20493,406.273492 L1273.26982,406.273492 C1268.89946,406.273492 1263.05412,409.88359 1263.05412,416.611501 L1263.05412,420.057504 C1263.05412,426.785414 1268.84484,430.231417 1273.26982,430.231417 C1285.56143,430.286115 1270.31983,430.231417 1281.68274,430.231417 L1281.68274,435.044881 L1263.60041,435.099579 Z M1167.88972,432.692847 C1167.88972,432.692847 1177.44986,431.87237 1177.44986,419.510519 C1177.44986,407.148668 1165.86843,406 1165.86843,406 L1145,406 L1145,445 L1155.48884,445 L1155.48884,435.591865 L1164.55732,445 L1180.07207,445 L1167.88972,432.692847 Z M1163.84714,424.706872 L1155.48884,424.706872 L1155.48884,415.791024 L1163.90177,415.791024 C1163.90177,415.791024 1166.25083,416.666199 1166.25083,420.221599 C1166.25083,423.776999 1163.84714,424.706872 1163.84714,424.706872 Z M1203.34419,406.273492 L1192.69146,406.273492 C1185.09797,406.273492 1182.53039,413.165498 1182.53039,416.447405 L1182.53039,445 L1193.18313,445 L1193.18313,438.162693 L1203.1803,438.162693 L1203.1803,445 L1213.50526,445 L1213.50526,416.447405 C1213.50526,408.13324 1205.9664,406.273492 1203.34419,406.273492 Z M1203.1803,427.113604 L1193.1285,427.113604 L1193.1285,417.650771 C1193.1285,417.650771 1193.1285,415.517532 1196.46089,415.517532 L1200.12106,415.517532 C1203.07105,415.517532 1203.12567,417.650771 1203.12567,417.650771 L1203.12567,427.113604 L1203.1803,427.113604 Z M1218.3871,406 L1229.47686,406 L1229.47686,444.726508 L1218.3871,444.726508 L1218.3871,406 Z M1245.37595,434.71669 L1260.28978,434.71669 L1260.28978,444.726508 L1245.37595,444.726508 L1234.34081,444.726508 L1234.34081,434.71669 L1234.34081,406 L1245.37595,406 L1245.37595,434.71669 Z" id="Combined-Shape-Copy-12" stroke="#E1E4E8" fill="#FFFFFF" mask="url(#mask-2)"></path>
                    <path d="M860.390823,226.142337 L860.390823,256.811064 L915.727902,256.811064 C927.066081,256.811064 946.527133,248.50848 947.204039,225.295134 L947.204039,213.4343 C947.204039,193.609764 930.958291,181.918371 915.727902,181.918371 L888.143976,181.918371 L888.143976,167.68537 L942.804149,167.68537 L942.804149,136.847202 L890.343921,136.847202 C876.805798,136.847202 858.698558,148.030274 858.698558,168.871454 L858.698558,179.546204 C858.698558,200.387383 876.636571,211.062134 890.343921,211.062134 C928.419893,211.231574 881.205688,211.062134 916.404809,211.062134 L916.404809,225.972896 L860.390823,226.142337 Z M563.905921,218.686955 C563.905921,218.686955 593.520566,216.145348 593.520566,177.851799 C593.520566,139.55825 557.644539,136 557.644539,136 L493,136 L493,256.811064 L525.491496,256.811064 L525.491496,227.667301 L553.583102,256.811064 L601.64344,256.811064 L563.905921,218.686955 Z M551.383157,193.948645 L525.491496,193.948645 L525.491496,166.329846 L551.552384,166.329846 C551.552384,166.329846 558.829125,169.040894 558.829125,180.054525 C558.829125,191.068157 551.383157,193.948645 551.383157,193.948645 Z M673.733947,136.847202 L640.734771,136.847202 C617.212282,136.847202 609.258634,158.196703 609.258634,168.363132 L609.258634,256.811064 L642.25781,256.811064 L642.25781,235.631004 L673.226267,235.631004 L673.226267,256.811064 L705.210084,256.811064 L705.210084,168.363132 C705.210084,142.608179 681.856821,136.847202 673.733947,136.847202 Z M673.226267,201.404026 L642.088584,201.404026 L642.088584,172.090823 C642.088584,172.090823 642.088584,165.482644 652.411403,165.482644 L663.749581,165.482644 C672.887814,165.482644 673.057041,172.090823 673.057041,172.090823 L673.057041,201.404026 L673.226267,201.404026 Z M720.332647,136 L754.685635,136 L754.685635,255.963861 L720.332647,255.963861 L720.332647,136 Z M803.936549,224.956253 L850.135395,224.956253 L850.135395,255.963861 L803.936549,255.963861 L769.752788,255.963861 L769.752788,224.956253 L769.752788,136 L803.936549,136 L803.936549,224.956253 Z" id="Combined-Shape-Copy-3" stroke="#E1E4E8" fill="#FFFFFF" mask="url(#mask-2)"></path>
                    <path d="M1222.11736,233.294066 L1222.11736,255.508777 L1262.20045,255.508777 C1270.41319,255.508777 1284.50969,249.49485 1285,232.6804 L1285,224.089076 C1285,209.729291 1273.23249,201.260699 1262.20045,201.260699 L1242.22019,201.260699 L1242.22019,190.95111 L1281.81297,190.95111 L1281.81297,168.613666 L1243.81371,168.613666 C1234.00745,168.613666 1220.89158,176.714058 1220.89158,191.810242 L1220.89158,199.542434 C1220.89158,214.638619 1233.88487,222.370811 1243.81371,222.370811 C1271.39382,222.493544 1237.19449,222.370811 1262.69076,222.370811 L1262.69076,233.171333 L1222.11736,233.294066 Z M1007.36028,227.893805 C1007.36028,227.893805 1028.81148,226.052807 1028.81148,198.315102 C1028.81148,170.577397 1002.82489,168 1002.82489,168 L956,168 L956,255.508777 L979.535022,255.508777 L979.535022,234.398665 L999.88301,255.508777 L1034.69523,255.508777 L1007.36028,227.893805 Z M998.289493,209.974757 L979.535022,209.974757 L979.535022,189.969244 L998.412072,189.969244 C998.412072,189.969244 1003.68294,191.932975 1003.68294,199.910634 C1003.68294,207.888292 998.289493,209.974757 998.289493,209.974757 Z M1086.91356,168.613666 L1063.0108,168.613666 C1045.97243,168.613666 1040.21125,184.07805 1040.21125,191.442043 L1040.21125,255.508777 L1064.11401,255.508777 L1064.11401,240.167126 L1086.54583,240.167126 L1086.54583,255.508777 L1109.71311,255.508777 L1109.71311,191.442043 C1109.71311,172.786595 1092.79732,168.613666 1086.91356,168.613666 Z M1086.54583,215.375018 L1063.99143,215.375018 L1063.99143,194.142173 C1063.99143,194.142173 1063.99143,189.355578 1071.4687,189.355578 L1079.68145,189.355578 C1086.30067,189.355578 1086.42325,194.142173 1086.42325,194.142173 L1086.42325,215.375018 L1086.54583,215.375018 Z M1120.66705,168 L1145.55044,168 L1145.55044,254.895111 L1120.66705,254.895111 L1120.66705,168 Z M1181.22504,232.434934 L1214.6889,232.434934 L1214.6889,254.895111 L1181.22504,254.895111 L1156.46424,254.895111 L1156.46424,232.434934 L1156.46424,168 L1181.22504,168 L1181.22504,232.434934 Z" id="Combined-Shape-Copy-4" stroke="#E1E4E8" fill="#FFFFFF" mask="url(#mask-2)"></path>
                    <path d="M1510.69434,260.838824 L1510.69434,291.507552 L1566.03141,291.507552 C1577.36959,291.507552 1596.83065,283.204968 1597.50755,259.991622 L1597.50755,248.130788 C1597.50755,228.306252 1581.2618,216.614858 1566.03141,216.614858 L1538.44749,216.614858 L1538.44749,202.381858 L1593.10766,202.381858 L1593.10766,171.54369 L1540.64743,171.54369 C1527.10931,171.54369 1509.00207,182.726762 1509.00207,203.567941 L1509.00207,214.242692 C1509.00207,235.083871 1526.94008,245.758621 1540.64743,245.758621 C1578.72341,245.928062 1531.5092,245.758621 1566.70832,245.758621 L1566.70832,260.669384 L1510.69434,260.838824 Z M1214.20943,253.383443 C1214.20943,253.383443 1243.82408,250.841836 1243.82408,212.548287 C1243.82408,174.254738 1207.94805,170.696488 1207.94805,170.696488 L1143.30351,170.696488 L1143.30351,291.507552 L1175.79501,291.507552 L1175.79501,262.363789 L1203.88661,291.507552 L1251.94695,291.507552 L1214.20943,253.383443 Z M1201.68667,228.645133 L1175.79501,228.645133 L1175.79501,201.026334 L1201.8559,201.026334 C1201.8559,201.026334 1209.13264,203.737382 1209.13264,214.751013 C1209.13264,225.764644 1201.68667,228.645133 1201.68667,228.645133 Z M1324.03746,171.54369 L1291.03828,171.54369 C1267.51579,171.54369 1259.56215,192.893191 1259.56215,203.05962 L1259.56215,291.507552 L1292.56132,291.507552 L1292.56132,270.327491 L1323.52978,270.327491 L1323.52978,291.507552 L1355.5136,291.507552 L1355.5136,203.05962 C1355.5136,177.304667 1332.16033,171.54369 1324.03746,171.54369 Z M1323.52978,236.100514 L1292.3921,236.100514 L1292.3921,206.78731 C1292.3921,206.78731 1292.3921,200.179132 1302.71492,200.179132 L1314.05309,200.179132 C1323.19133,200.179132 1323.36055,206.78731 1323.36055,206.78731 L1323.36055,236.100514 L1323.52978,236.100514 Z M1370.63616,170.696488 L1404.98915,170.696488 L1404.98915,290.660349 L1370.63616,290.660349 L1370.63616,170.696488 Z M1454.24006,259.652741 L1500.43891,259.652741 L1500.43891,290.660349 L1454.24006,290.660349 L1420.0563,290.660349 L1420.0563,259.652741 L1420.0563,170.696488 L1454.24006,170.696488 L1454.24006,259.652741 Z" stroke="#E1E4E8" fill="#FFFFFF" transform="translate(1370.405532, 231.102020) rotate(-90.000000) translate(-1370.405532, -231.102020) "></path>
                </g>
            </g>
        </g>
    </g>
</svg>
