<?xml version="1.0" encoding="UTF-8"?>
<svg width="720px" height="444px" viewBox="0 0 720 444" version="1.1" xmlns="http://www.w3.org/2000/svg" xmlns:xlink="http://www.w3.org/1999/xlink">
    <!-- Generator: Sketch 45.2 (43514) - http://www.bohemiancoding.com/sketch -->
    <title>Artboard</title>
    <desc>Created with Sketch.</desc>
    <defs>
        <rect id="path-1" x="0" y="0" width="720" height="443.301402"></rect>
    </defs>
    <g id="redesing-v6" stroke="none" stroke-width="1" fill="none" fill-rule="evenodd">
        <g id="Artboard">
            <g id="how-">
                <g id="bgn">
                    <mask id="mask-2" fill="white">
                        <use xlink:href="#path-1"></use>
                    </mask>
                    <use id="Mask" fill="#FFFFFF" xlink:href="#path-1"></use>
                    <g id="Group" mask="url(#mask-2)" stroke="#E1E4E8" fill="#FFFFFF">
                        <g transform="translate(10.000000, 13.000000)">
                            <path d="M259.34233,63.631757 L259.34233,85.2809074 L298.404947,85.2809074 C306.408603,85.2809074 320.14622,79.4200877 320.62405,63.0337142 L320.62405,54.6611146 C320.62405,40.6669124 309.156126,32.4139213 298.404947,32.4139213 L278.933367,32.4139213 L278.933367,22.3668018 L317.518154,22.3668018 L317.518154,0.598042829 L280.486315,0.598042829 C270.929712,0.598042829 258.147755,8.49220817 258.147755,23.2040618 L258.147755,30.7394014 C258.147755,45.451255 270.810254,52.9865947 280.486315,52.9865947 C307.364263,53.1062032 274.035608,52.9865947 298.882777,52.9865947 L298.882777,63.5121484 L259.34233,63.631757 Z M50.0527113,58.3689801 C50.0527113,58.3689801 70.9577817,56.5748516 70.9577817,29.5433158 C70.9577817,2.51177988 45.6327821,0 45.6327821,0 L0,0 L0,85.2809074 L22.9358486,85.2809074 L22.9358486,64.7082341 L42.7658011,85.2809074 L76.6917438,85.2809074 L50.0527113,58.3689801 Z M41.212853,40.9061295 L22.9358486,40.9061295 L22.9358486,21.4099333 L41.3323105,21.4099333 C41.3323105,21.4099333 46.468985,23.3236703 46.468985,31.0982271 C46.468985,38.8727839 41.212853,40.9061295 41.212853,40.9061295 Z M127.580658,0.598042829 L104.286437,0.598042829 C87.6818379,0.598042829 82.0673333,15.6687221 82.0673333,22.8452361 L82.0673333,85.2809074 L105.361555,85.2809074 L105.361555,70.3298367 L127.222285,70.3298367 L127.222285,85.2809074 L149.799761,85.2809074 L149.799761,22.8452361 C149.799761,4.66473407 133.31462,0.598042829 127.580658,0.598042829 Z M127.222285,46.1689064 L105.242097,46.1689064 L105.242097,25.4766245 C105.242097,25.4766245 105.242097,20.8118904 112.529007,20.8118904 L120.532663,20.8118904 C126.98337,20.8118904 127.102828,25.4766245 127.102828,25.4766245 L127.102828,46.1689064 L127.222285,46.1689064 Z M160.474826,0 L184.724707,0 L184.724707,84.6828646 L160.474826,84.6828646 L160.474826,0 Z M219.491082,62.794497 L252.102991,62.794497 L252.102991,84.6828646 L219.491082,84.6828646 L195.360657,84.6828646 L195.360657,62.794497 L195.360657,0 L219.491082,0 L219.491082,62.794497 Z" id="Combined-Shape-Copy"></path>
                            <path d="M227.54776,157.009912 L227.54776,176.004944 L261.821421,176.004944 C268.843853,176.004944 280.897281,170.862642 281.316531,156.485188 L281.316531,149.139043 C281.316531,136.860487 271.254539,129.619287 261.821421,129.619287 L244.736997,129.619287 L244.736997,120.803913 L278.591408,120.803913 L278.591408,101.703937 L246.099558,101.703937 C237.714565,101.703937 226.499636,108.630302 226.499636,121.538528 L226.499636,128.150058 C226.499636,141.058284 237.609752,147.669814 246.099558,147.669814 C269.682352,147.774759 240.439688,147.669814 262.240671,147.669814 L262.240671,156.904967 L227.54776,157.009912 Z M43.9164033,152.392336 C43.9164033,152.392336 62.2585765,150.818162 62.2585765,127.100609 C62.2585765,103.383056 40.0383438,101.179212 40.0383438,101.179212 L0,101.179212 L0,176.004944 L20.1239843,176.004944 L20.1239843,157.954417 L37.5228458,176.004944 L67.2895726,176.004944 L43.9164033,152.392336 Z M36.1602843,137.070377 L20.1239843,137.070377 L20.1239843,119.964354 L36.2650967,119.964354 C36.2650967,119.964354 40.7720307,121.643473 40.7720307,128.464893 C40.7720307,135.286313 36.1602843,137.070377 36.1602843,137.070377 Z M111.939663,101.703937 L91.5012412,101.703937 C76.932315,101.703937 72.0061314,114.926998 72.0061314,121.223693 L72.0061314,176.004944 L92.444553,176.004944 L92.444553,162.886828 L111.625226,162.886828 L111.625226,176.004944 L131.434773,176.004944 L131.434773,121.223693 C131.434773,105.272064 116.970659,101.703937 111.939663,101.703937 Z M111.625226,141.687953 L92.3397405,141.687953 L92.3397405,123.532481 C92.3397405,123.532481 92.3397405,119.439629 98.7332981,119.439629 L105.75573,119.439629 C111.415601,119.439629 111.520413,123.532481 111.520413,123.532481 L111.520413,141.687953 L111.625226,141.687953 Z M140.801107,101.179212 L162.078028,101.179212 L162.078028,175.480219 L140.801107,175.480219 L140.801107,101.179212 Z M192.582152,156.275298 L221.195942,156.275298 L221.195942,175.480219 L192.582152,175.480219 L171.410043,175.480219 L171.410043,156.275298 L171.410043,101.179212 L192.582152,101.179212 L192.582152,156.275298 Z" id="Combined-Shape-Copy-2"></path>
                            <path d="M208.227667,245.977945 L208.227667,263.36019 L239.5913,263.36019 C246.017488,263.36019 257.047512,258.6545 257.431165,245.497772 L257.431165,238.775357 C257.431165,227.53932 248.223493,220.912939 239.5913,220.912939 L223.95744,220.912939 L223.95744,212.84604 L254.93742,212.84604 L254.93742,195.36776 L225.204313,195.36776 C217.531253,195.36776 207.268535,201.706037 207.268535,213.518282 L207.268535,219.568456 C207.268535,231.3807 217.435339,237.430874 225.204313,237.430874 C246.784794,237.526908 220.024997,237.430874 239.974953,237.430874 L239.974953,245.88191 L208.227667,245.977945 Z M40.1876521,241.752426 C40.1876521,241.752426 56.9724709,240.311909 56.9724709,218.60811 C56.9724709,196.904312 36.6388618,194.887587 36.6388618,194.887587 L0,194.887587 L0,263.36019 L18.4153441,263.36019 L18.4153441,246.842255 L34.3369438,263.36019 L61.576307,263.36019 L40.1876521,241.752426 Z M33.0900715,227.731389 L18.4153441,227.731389 L18.4153441,212.077764 L33.1859848,212.077764 C33.1859848,212.077764 37.3102545,213.614316 37.3102545,219.856559 C37.3102545,226.098802 33.0900715,227.731389 33.0900715,227.731389 Z M102.435352,195.36776 L83.7322679,195.36776 C70.400326,195.36776 65.8924032,207.468108 65.8924032,213.230178 L65.8924032,263.36019 L84.5954871,263.36019 L84.5954871,251.355877 L102.147612,251.355877 L102.147612,263.36019 L120.275216,263.36019 L120.275216,213.230178 C120.275216,198.632933 107.039188,195.36776 102.435352,195.36776 Z M102.147612,231.956907 L84.4995739,231.956907 L84.4995739,215.342937 C84.4995739,215.342937 84.4995739,211.597591 90.3502822,211.597591 L96.77647,211.597591 C101.955786,211.597591 102.051699,215.342937 102.051699,215.342937 L102.051699,231.956907 L102.147612,231.956907 Z M128.846296,194.887587 L148.316686,194.887587 L148.316686,262.880018 L128.846296,262.880018 L128.846296,194.887587 Z M176.230837,245.305703 L202.415155,245.305703 L202.415155,262.880018 L176.230837,262.880018 L156.85636,262.880018 L156.85636,245.305703 L156.85636,194.887587 L176.230837,194.887587 L176.230837,245.305703 Z" id="Combined-Shape-Copy-5"></path>
                            <path d="M180.320867,320.243196 L180.320867,335.295862 L207.481126,335.295862 C213.046072,335.295862 222.597845,331.220831 222.930081,319.827377 L222.930081,314.005903 C222.930081,304.275727 214.956427,298.537418 207.481126,298.537418 L193.942526,298.537418 L193.942526,291.55165 L220.77055,291.55165 L220.77055,276.41582 L195.022291,276.41582 C188.37758,276.41582 179.490278,281.904637 179.490278,292.133797 L179.490278,297.373123 C179.490278,307.602283 188.294521,312.841609 195.022291,312.841609 C213.710543,312.924773 190.537111,312.841609 207.813362,312.841609 L207.813362,320.160032 L180.320867,320.243196 Z M34.8016781,316.583984 C34.8016781,316.583984 49.3369851,315.336526 49.3369851,296.541484 C49.3369851,277.746442 31.7284989,276 31.7284989,276 L0,276 L0,335.295862 L15.9473083,335.295862 L15.9473083,320.991671 L29.7350853,335.295862 L53.3238122,335.295862 L34.8016781,316.583984 Z M28.6553196,304.442055 L15.9473083,304.442055 L15.9473083,290.886339 L28.7383785,290.886339 C28.7383785,290.886339 32.3099111,292.216961 32.3099111,297.622615 C32.3099111,303.028268 28.6553196,304.442055 28.6553196,304.442055 Z M88.7069026,276.41582 L72.5104175,276.41582 C60.9652308,276.41582 57.0614626,286.894471 57.0614626,291.884305 L57.0614626,335.295862 L73.2579476,335.295862 L73.2579476,324.900375 L88.4577259,324.900375 L88.4577259,335.295862 L104.155858,335.295862 L104.155858,291.884305 C104.155858,279.243392 92.6937296,276.41582 88.7069026,276.41582 Z M88.4577259,308.101266 L73.1748887,308.101266 L73.1748887,293.713911 C73.1748887,293.713911 73.1748887,290.470519 78.2414815,290.470519 L83.8064276,290.470519 C88.2916081,290.470519 88.374667,293.713911 88.374667,293.713911 L88.374667,308.101266 L88.4577259,308.101266 Z M111.578236,276 L128.439192,276 L128.439192,334.880043 L111.578236,334.880043 L111.578236,276 Z M152.612271,319.661049 L175.28735,319.661049 L175.28735,334.880043 L152.612271,334.880043 L135.834374,334.880043 L135.834374,319.661049 L135.834374,276 L152.612271,276 L152.612271,319.661049 Z" id="Combined-Shape-Copy-6"></path>
                            <path d="M180.320867,392.178868 L180.320867,407.231534 L207.481126,407.231534 C213.046072,407.231534 222.597845,403.156503 222.930081,391.763049 L222.930081,385.941575 C222.930081,376.211399 214.956427,370.47309 207.481126,370.47309 L193.942526,370.47309 L193.942526,363.487322 L220.77055,363.487322 L220.77055,348.351492 L195.022291,348.351492 C188.37758,348.351492 179.490278,353.840309 179.490278,364.069469 L179.490278,369.308795 C179.490278,379.537955 188.294521,384.777281 195.022291,384.777281 C213.710543,384.860445 190.537111,384.777281 207.813362,384.777281 L207.813362,392.095704 L180.320867,392.178868 Z M34.8016781,388.519656 C34.8016781,388.519656 49.3369851,387.272198 49.3369851,368.477156 C49.3369851,349.682114 31.7284989,347.935672 31.7284989,347.935672 L0,347.935672 L0,407.231534 L15.9473083,407.231534 L15.9473083,392.927343 L29.7350853,407.231534 L53.3238122,407.231534 L34.8016781,388.519656 Z M28.6553196,376.377727 L15.9473083,376.377727 L15.9473083,362.822011 L28.7383785,362.822011 C28.7383785,362.822011 32.3099111,364.152633 32.3099111,369.558287 C32.3099111,374.96394 28.6553196,376.377727 28.6553196,376.377727 Z M88.7069026,348.351492 L72.5104175,348.351492 C60.9652308,348.351492 57.0614626,358.830143 57.0614626,363.819977 L57.0614626,407.231534 L73.2579476,407.231534 L73.2579476,396.836047 L88.4577259,396.836047 L88.4577259,407.231534 L104.155858,407.231534 L104.155858,363.819977 C104.155858,351.179064 92.6937296,348.351492 88.7069026,348.351492 Z M88.4577259,380.036938 L73.1748887,380.036938 L73.1748887,365.649583 C73.1748887,365.649583 73.1748887,362.406191 78.2414815,362.406191 L83.8064276,362.406191 C88.2916081,362.406191 88.374667,365.649583 88.374667,365.649583 L88.374667,380.036938 L88.4577259,380.036938 Z M111.578236,347.935672 L128.439192,347.935672 L128.439192,406.815715 L111.578236,406.815715 L111.578236,347.935672 Z M152.612271,391.596721 L175.28735,391.596721 L175.28735,406.815715 L152.612271,406.815715 L135.834374,406.815715 L135.834374,391.596721 L135.834374,347.935672 L152.612271,347.935672 L152.612271,391.596721 Z" id="Combined-Shape-Copy-10"></path>
                            <path d="M328.609402,360.31454 L328.609402,367.303278 L341.219523,367.303278 C343.803248,367.303278 348.237999,365.411299 348.392252,360.121481 L348.392252,357.418654 C348.392252,352.901072 344.690198,350.236857 341.219523,350.236857 L334.933744,350.236857 L334.933744,346.993465 L347.389612,346.993465 L347.389612,339.966115 L335.435064,339.966115 C332.350019,339.966115 328.223772,342.514495 328.223772,347.263748 L328.223772,349.696292 C328.223772,354.445545 332.311456,356.878089 335.435064,356.878089 C344.111752,356.9167 333.352658,356.878089 341.373775,356.878089 L341.373775,360.275928 L328.609402,360.31454 Z M261.046922,358.61562 C261.046922,358.61562 267.795457,358.036443 267.795457,349.310174 C267.795457,340.583904 259.620089,339.773056 259.620089,339.773056 L244.889,339.773056 L244.889,367.303278 L252.293107,367.303278 L252.293107,360.662046 L258.694575,367.303278 L269.646484,367.303278 L261.046922,358.61562 Z M258.193255,352.978296 L252.293107,352.978296 L252.293107,346.68457 L258.231818,346.68457 C258.231818,346.68457 259.89003,347.302359 259.89003,349.812127 C259.89003,352.321895 258.193255,352.978296 258.193255,352.978296 Z M286.074347,339.966115 L278.554551,339.966115 C273.194286,339.966115 271.381822,344.831203 271.381822,347.147912 L271.381822,367.303278 L278.901618,367.303278 L278.901618,362.476801 L285.958658,362.476801 L285.958658,367.303278 L293.247077,367.303278 L293.247077,347.147912 C293.247077,341.278917 287.925374,339.966115 286.074347,339.966115 Z M285.958658,354.677215 L278.863055,354.677215 L278.863055,347.997372 C278.863055,347.997372 278.863055,346.491511 281.215402,346.491511 L283.799127,346.491511 C285.881532,346.491511 285.920095,347.997372 285.920095,347.997372 L285.920095,354.677215 L285.958658,354.677215 Z M296.693181,339.773056 L304.521482,339.773056 L304.521482,367.110219 L296.693181,367.110219 L296.693181,339.773056 Z M315.744697,360.044257 L326.272412,360.044257 L326.272412,367.110219 L315.744697,367.110219 L307.954959,367.110219 L307.954959,360.044257 L307.954959,339.773056 L315.744697,339.773056 L315.744697,360.044257 Z" id="Combined-Shape-Copy-7"></path>
                            <path d="M442.259805,360.31454 L442.259805,367.303278 L454.869926,367.303278 C457.453651,367.303278 461.888403,365.411299 462.042655,360.121481 L462.042655,357.418654 C462.042655,352.901072 458.340601,350.236857 454.869926,350.236857 L448.584147,350.236857 L448.584147,346.993465 L461.040015,346.993465 L461.040015,339.966115 L449.085467,339.966115 C446.000422,339.966115 441.874175,342.514495 441.874175,347.263748 L441.874175,349.696292 C441.874175,354.445545 445.961859,356.878089 449.085467,356.878089 C457.762155,356.9167 447.003062,356.878089 455.024178,356.878089 L455.024178,360.275928 L442.259805,360.31454 Z M374.697325,358.61562 C374.697325,358.61562 381.44586,358.036443 381.44586,349.310174 C381.44586,340.583904 373.270492,339.773056 373.270492,339.773056 L358.539403,339.773056 L358.539403,367.303278 L365.94351,367.303278 L365.94351,360.662046 L372.344978,367.303278 L383.296887,367.303278 L374.697325,358.61562 Z M371.843658,352.978296 L365.94351,352.978296 L365.94351,346.68457 L371.882221,346.68457 C371.882221,346.68457 373.540433,347.302359 373.540433,349.812127 C373.540433,352.321895 371.843658,352.978296 371.843658,352.978296 Z M399.72475,339.966115 L392.204954,339.966115 C386.844689,339.966115 385.032225,344.831203 385.032225,347.147912 L385.032225,367.303278 L392.552021,367.303278 L392.552021,362.476801 L399.609061,362.476801 L399.609061,367.303278 L406.89748,367.303278 L406.89748,347.147912 C406.89748,341.278917 401.575777,339.966115 399.72475,339.966115 Z M399.609061,354.677215 L392.513458,354.677215 L392.513458,347.997372 C392.513458,347.997372 392.513458,346.491511 394.865805,346.491511 L397.44953,346.491511 C399.531935,346.491511 399.570498,347.997372 399.570498,347.997372 L399.570498,354.677215 L399.609061,354.677215 Z M410.343584,339.773056 L418.171885,339.773056 L418.171885,367.110219 L410.343584,367.110219 L410.343584,339.773056 Z M429.3951,360.044257 L439.922816,360.044257 L439.922816,367.110219 L429.3951,367.110219 L421.605362,367.110219 L421.605362,360.044257 L421.605362,339.773056 L429.3951,339.773056 L429.3951,360.044257 Z" id="Combined-Shape-Copy-8"></path>
                            <path d="M556.616111,360.31454 L556.616111,367.303278 L569.226232,367.303278 C571.809957,367.303278 576.244709,365.411299 576.398961,360.121481 L576.398961,357.418654 C576.398961,352.901072 572.696907,350.236857 569.226232,350.236857 L562.940453,350.236857 L562.940453,346.993465 L575.396321,346.993465 L575.396321,339.966115 L563.441773,339.966115 C560.356728,339.966115 556.230481,342.514495 556.230481,347.263748 L556.230481,349.696292 C556.230481,354.445545 560.318165,356.878089 563.441773,356.878089 C572.118461,356.9167 561.359368,356.878089 569.380484,356.878089 L569.380484,360.275928 L556.616111,360.31454 Z M489.053631,358.61562 C489.053631,358.61562 495.802166,358.036443 495.802166,349.310174 C495.802166,340.583904 487.626798,339.773056 487.626798,339.773056 L472.895709,339.773056 L472.895709,367.303278 L480.299816,367.303278 L480.299816,360.662046 L486.701284,367.303278 L497.653193,367.303278 L489.053631,358.61562 Z M486.199965,352.978296 L480.299816,352.978296 L480.299816,346.68457 L486.238528,346.68457 C486.238528,346.68457 487.896739,347.302359 487.896739,349.812127 C487.896739,352.321895 486.199965,352.978296 486.199965,352.978296 Z M514.081057,339.966115 L506.56126,339.966115 C501.200995,339.966115 499.388531,344.831203 499.388531,347.147912 L499.388531,367.303278 L506.908328,367.303278 L506.908328,362.476801 L513.965367,362.476801 L513.965367,367.303278 L521.253786,367.303278 L521.253786,347.147912 C521.253786,341.278917 515.932084,339.966115 514.081057,339.966115 Z M513.965367,354.677215 L506.869765,354.677215 L506.869765,347.997372 C506.869765,347.997372 506.869765,346.491511 509.222111,346.491511 L511.805836,346.491511 C513.888241,346.491511 513.926804,347.997372 513.926804,347.997372 L513.926804,354.677215 L513.965367,354.677215 Z M524.69989,339.773056 L532.528191,339.773056 L532.528191,367.110219 L524.69989,367.110219 L524.69989,339.773056 Z M543.751406,360.044257 L554.279122,360.044257 L554.279122,367.110219 L543.751406,367.110219 L535.961668,367.110219 L535.961668,360.044257 L535.961668,339.773056 L543.751406,339.773056 L543.751406,360.044257 Z" id="Combined-Shape-Copy-9"></path>
                            <path d="M562.851744,159.465089 L562.851744,178.46012 L597.125405,178.46012 C604.147837,178.46012 616.201265,173.317819 616.620515,158.940364 L616.620515,151.594219 C616.620515,139.315663 606.558523,132.074463 597.125405,132.074463 L580.040981,132.074463 L580.040981,123.25909 L613.895392,123.25909 L613.895392,104.159113 L581.403542,104.159113 C573.018549,104.159113 561.80362,111.085478 561.80362,123.993704 L561.80362,130.605234 C561.80362,143.51346 572.913736,150.12499 581.403542,150.12499 C604.986336,150.229935 575.743672,150.12499 597.544655,150.12499 L597.544655,159.360144 L562.851744,159.465089 Z M379.220387,154.847512 C379.220387,154.847512 397.562561,153.273338 397.562561,129.555785 C397.562561,105.838232 375.342328,103.634389 375.342328,103.634389 L335.303984,103.634389 L335.303984,178.46012 L355.427968,178.46012 L355.427968,160.409593 L372.82683,178.46012 L402.593557,178.46012 L379.220387,154.847512 Z M371.464268,139.525553 L355.427968,139.525553 L355.427968,122.41953 L371.569081,122.41953 C371.569081,122.41953 376.076015,124.098649 376.076015,130.920069 C376.076015,137.741489 371.464268,139.525553 371.464268,139.525553 Z M447.243647,104.159113 L426.805225,104.159113 C412.236299,104.159113 407.310115,117.382174 407.310115,123.678869 L407.310115,178.46012 L427.748537,178.46012 L427.748537,165.342004 L446.92921,165.342004 L446.92921,178.46012 L466.738757,178.46012 L466.738757,123.678869 C466.738757,107.727241 452.274643,104.159113 447.243647,104.159113 Z M446.92921,144.14313 L427.643725,144.14313 L427.643725,125.987658 C427.643725,125.987658 427.643725,121.894806 434.037282,121.894806 L441.059714,121.894806 C446.719585,121.894806 446.824397,125.987658 446.824397,125.987658 L446.824397,144.14313 L446.92921,144.14313 Z M476.105091,103.634389 L497.382012,103.634389 L497.382012,177.935395 L476.105091,177.935395 L476.105091,103.634389 Z M527.886136,158.730474 L556.499926,158.730474 L556.499926,177.935395 L527.886136,177.935395 L506.714028,177.935395 L506.714028,158.730474 L506.714028,103.634389 L527.886136,103.634389 L527.886136,158.730474 Z" id="Combined-Shape-Copy-3"></path>
                            <path d="M762.670758,199.303329 L762.670758,220.952479 L801.733376,220.952479 C809.737031,220.952479 823.474649,215.091659 823.952479,198.705286 L823.952479,190.332686 C823.952479,176.338484 812.484555,168.085493 801.733376,168.085493 L782.261796,168.085493 L782.261796,158.038373 L820.846583,158.038373 L820.846583,136.269614 L783.814744,136.269614 C774.25814,136.269614 761.476183,144.16378 761.476183,158.875633 L761.476183,166.410973 C761.476183,181.122827 774.138683,188.658166 783.814744,188.658166 C810.692691,188.777775 777.364036,188.658166 802.211206,188.658166 L802.211206,199.18372 L762.670758,199.303329 Z M553.38114,194.040552 C553.38114,194.040552 574.28621,192.246423 574.28621,165.214887 C574.28621,138.183351 548.961211,135.671572 548.961211,135.671572 L503.328428,135.671572 L503.328428,220.952479 L526.264277,220.952479 L526.264277,200.379806 L546.09423,220.952479 L580.020172,220.952479 L553.38114,194.040552 Z M544.541281,176.577701 L526.264277,176.577701 L526.264277,157.081505 L544.660739,157.081505 C544.660739,157.081505 549.797413,158.995242 549.797413,166.769799 C549.797413,174.544355 544.541281,176.577701 544.541281,176.577701 Z M630.909086,136.269614 L607.614865,136.269614 C591.010266,136.269614 585.395762,151.340294 585.395762,158.516808 L585.395762,220.952479 L608.689983,220.952479 L608.689983,206.001408 L630.550714,206.001408 L630.550714,220.952479 L653.12819,220.952479 L653.12819,158.516808 C653.12819,140.336306 636.643049,136.269614 630.909086,136.269614 Z M630.550714,181.840478 L608.570526,181.840478 L608.570526,161.148196 C608.570526,161.148196 608.570526,156.483462 615.857436,156.483462 L623.861091,156.483462 C630.311799,156.483462 630.431256,161.148196 630.431256,161.148196 L630.431256,181.840478 L630.550714,181.840478 Z M663.803254,135.671572 L688.053136,135.671572 L688.053136,220.354436 L663.803254,220.354436 L663.803254,135.671572 Z M722.81951,198.466069 L755.43142,198.466069 L755.43142,220.354436 L722.81951,220.354436 L698.689086,220.354436 L698.689086,198.466069 L698.689086,135.671572 L722.81951,135.671572 L722.81951,198.466069 Z" id="Combined-Shape" transform="translate(663.640454, 178.312025) rotate(-90.000000) translate(-663.640454, -178.312025) "></path>
                        </g>
                    </g>
                </g>
            </g>
        </g>
    </g>
</svg>