<?xml version="1.0" encoding="UTF-8"?>
<svg width="454px" height="530px" viewBox="0 0 454 530" version="1.1" xmlns="http://www.w3.org/2000/svg" xmlns:xlink="http://www.w3.org/1999/xlink">
    <!-- Generator: Sketch 46 (44423) - http://www.bohemiancoding.com/sketch -->
    <title>Artboard 3</title>
    <desc>Created with Sketch.</desc>
    <defs></defs>
    <g id="redesing-v6" stroke="none" stroke-width="1" fill="none" fill-rule="evenodd">
        <g id="Artboard-3" fill-rule="nonzero">
            <g id="Group" transform="translate(4.000000, 70.000000)">
                <g id="icon_react_contour_right" stroke="#61DAFB">
                    <path d="M171.840703,60.2858509 C194.413399,68.0584894 209,80.2341734 209,92.8234237 C209,105.952993 193.411669,118.790198 169.451535,126.730298 C168.185266,127.150341 166.887549,127.55373 165.564858,127.944166 C166.036587,129.842684 166.457443,131.70697 166.818177,133.532398 C171.548417,157.431341 167.905929,177.074346 156.695427,183.565577 C145.841035,189.850488 128.298266,183.676602 110.535356,168.387606 C108.604609,166.721728 106.720661,165.00234 104.885708,163.231445 C103.428898,164.64053 101.973937,165.984852 100.524527,167.252381 C82.1862929,183.286166 63.3541309,189.938382 52.1334552,183.46658 C41.2698136,177.198324 37.8557905,158.913518 42.227146,135.885191 C42.7047986,133.382506 43.2522796,130.893661 43.8689479,128.421571 C41.9707299,127.879582 40.086312,127.290352 38.2174494,126.654432 C15.169325,118.775395 0,105.77998 0,92.8234237 C0,80.2795084 14.1315212,68.1852423 36.2583866,60.4690413 C38.7317265,59.6067512 41.3169865,58.7962726 43.9938174,58.0357549 C43.4203737,55.741139 42.9053137,53.4323184 42.4491361,51.1115285 C37.8641151,27.6761123 41.0903716,8.94720859 51.9826869,2.64009322 C63.3421064,-3.93718171 82.2602896,3.1258253 101.134075,19.8886706 C102.308075,20.9336411 103.462622,22.0002758 104.597121,23.0880259 C106.29123,21.4521657 108.02639,19.8593815 109.800939,18.3111978 C127.809888,2.6354672 145.641244,-3.92237844 156.543734,2.36715805 C167.915178,8.9250037 171.24503,28.8464953 166.152207,53.5753466 C165.83398,55.1116072 165.48737,56.6418479 165.112553,58.1652835 C167.37272,58.8155029 169.616148,59.5225831 171.840703,60.2858509 Z M166.64336,118.25358 L166.644285,118.25358 C187.330989,111.396893 200.072297,100.90508 200.072297,92.8234237 C200.072297,85.2367512 188.275372,75.3898055 168.934483,68.7311126 C166.934722,68.0418357 164.859114,67.3895669 162.721534,66.7696803 C160.150149,75.0918898 156.718551,83.884103 152.549762,92.8678335 C156.917418,102.068987 160.487759,110.975925 163.133141,119.351797 C164.328188,118.997444 165.501036,118.631988 166.64336,118.25358 Z M158.059742,135.267155 L158.059742,135.267155 C157.733231,133.617517 157.353998,131.93087 156.928517,130.20999 C148.271827,132.211206 138.726252,133.677655 128.622002,134.574177 C122.878007,142.891761 116.992494,150.382212 111.103281,156.825333 C112.862553,158.518456 114.6172,160.119059 116.358897,161.617889 C131.548571,174.692871 145.63477,179.650114 152.221402,175.836423 C155.316314,174.044303 157.819252,169.570017 159.064247,162.858588 C160.449835,155.389416 160.151074,145.834835 158.059742,135.267155 Z M71.2523544,175.177678 L71.2532794,175.177678 C78.4143108,172.647245 86.5400742,167.617837 94.6491883,160.527074 C96.0063937,159.337444 97.334112,158.11457 98.6311362,156.859565 C92.5282577,150.308196 86.4725522,142.826997 80.6906345,134.687977 C70.5623351,133.866396 61.0861318,132.503571 52.5256377,130.609678 C51.9528584,132.908747 51.4439354,135.223264 50.9994556,137.550559 C47.261697,157.243525 50.0014251,171.926512 56.5945317,175.7291 C59.6922188,177.515669 64.8174158,177.450904 71.2523544,175.177678 Z M41.1051709,118.203619 L41.1051709,118.203619 C42.8114853,118.784292 44.5318117,119.322923 46.2645913,119.819025 C48.9044239,111.210002 52.384119,102.171684 56.5778824,93.0408466 C52.4377666,84.0441633 49.0070943,75.1474021 46.3913107,66.6383013 C43.971936,67.3225832 41.5731069,68.0775646 39.1979058,68.9022754 C20.2741728,75.5017552 8.92770274,85.2117707 8.92770274,92.8234237 C8.92770274,96.4011874 11.5453363,100.809784 16.7288056,105.250763 C22.4977739,110.191352 30.9139744,114.7193 41.1051709,118.203619 Z M51.2112712,49.3962004 L51.2112712,49.3952752 C51.6359127,51.5540959 52.1148852,53.7018679 52.6477323,55.8365451 C61.2979474,53.8760379 70.7075537,52.4123653 80.5370913,51.5010394 C86.2690612,43.4092056 92.2692692,35.9844438 98.3406991,29.4626811 C97.2927207,28.4606852 96.2465923,27.4919967 95.2050886,26.5667927 C78.9091637,12.0938272 63.4484767,6.32055456 56.4557879,10.3692471 C49.891355,14.1699849 47.282971,29.3164989 51.2112712,49.3962004 Z M141.364235,71.663084 L141.364235,71.663084 C143.440507,75.2488738 145.444984,78.8757795 147.376467,82.5416321 C150.019999,76.3520176 152.264875,70.3141366 154.065769,64.5399387 C148.066486,63.1697117 141.677796,62.0502149 135.008842,61.2082793 C137.202116,64.64716 139.321072,68.1329036 141.364235,71.663084 Z M104.599896,35.844738 L104.599896,35.844738 C100.417232,40.3588081 96.2576918,45.334555 92.1971224,50.6905607 C100.426645,50.3052854 108.669724,50.3071378 116.899073,50.6961119 C112.842204,45.2901452 108.717812,40.3069967 104.599896,35.844738 Z M67.599692,71.7241474 L67.599692,71.7241474 C69.6527091,68.1636271 71.7890279,64.6518185 74.0068819,61.1916256 C67.3814017,62.0196831 61.0223097,63.1104986 55.0591,64.4455679 C56.8757192,70.302109 59.1002452,76.3668209 61.7003045,82.5351557 C63.5824173,78.8860705 65.5494153,75.2814197 67.599692,71.7241474 Z M74.1974234,125.092687 L74.1974234,125.092687 C71.9252158,121.566668 69.7373749,117.986962 67.6357654,114.356621 C65.5761679,110.797751 63.6005263,107.190926 61.710479,103.539136 C59.0549222,109.839775 56.7813734,116.034941 54.9360805,121.995104 C60.8974402,123.293166 67.352728,124.328469 74.1974234,125.092687 Z M104.84686,150.433098 C108.937028,145.92828 113.04662,140.869265 117.116439,135.336545 C112.971698,135.521586 108.76036,135.616882 104.5,135.616882 C100.35341,135.616882 96.2734161,135.537315 92.2720441,135.38003 C96.3945857,140.813753 100.615173,145.865366 104.84686,150.433098 Z M147.461563,103.21809 L147.461563,103.21809 C145.523552,106.954795 143.502634,110.64789 141.400308,114.294632 C139.332232,117.88284 137.192995,121.42954 134.983869,124.932627 C141.877587,124.105495 148.419821,122.991549 154.480151,121.608369 C152.609884,115.749052 150.254939,109.587194 147.461563,103.21809 Z M133.665802,109.833298 L133.666727,109.833298 C136.860089,104.301066 139.855462,98.6568287 142.647153,92.911318 C139.826447,87.2237547 136.821517,81.6294803 133.637128,76.1373703 C130.470629,70.6596144 127.111864,65.2953363 123.567102,60.0545499 C117.353228,59.5808455 110.971937,59.3328908 104.500925,59.3328908 C98.0585866,59.3328908 91.6856202,59.5789951 85.4698968,60.0489987 C81.8889136,65.2978621 78.5085275,70.6808778 75.3360477,76.1864061 L75.3360477,76.1845557 C72.1625723,81.6889118 69.1972161,87.3107247 66.4462683,93.038071 C69.204231,98.7637019 72.1785752,104.382505 75.3628715,109.882334 C78.5621216,115.411499 81.9693312,120.81763 85.577192,126.089132 C91.6698959,126.484194 97.9966144,126.686814 104.5,126.686814 C111.030209,126.686814 117.438324,126.458288 123.639248,126.015116 C127.155901,120.731311 130.499853,115.33452 133.665802,109.833298 Z M152.084508,10.1037135 L152.084508,10.1037135 C145.5136,6.31315293 131.092567,11.616422 115.662403,25.048533 C114.024114,26.4783349 112.421591,27.9486292 110.856317,29.4580551 C116.829701,35.8956242 122.779962,43.3333388 128.523031,51.513067 C138.381242,52.438271 147.797323,53.9278493 156.467888,55.9290655 C156.806125,54.5494981 157.119429,53.1639335 157.407646,51.7730493 C161.8049,30.4221176 159.082746,14.1413036 152.084508,10.1037135 Z" ></path>
                    <path d="M104.5,74 C114.717773,74 123,82.2829389 123,92.4995416 C123,102.717061 114.717773,111 104.5,111 C94.2831442,111 86,102.717061 86,92.4995416 C86,82.2829389 94.2831442,74 104.5,74" ></path>
                </g>
                <g id="icon_react_contour_top" transform="translate(299.000000, 1.000000)" stroke="#64AFDD">
                    <path d="M99.4867231,34.6805702 C112.555126,39.1519267 121,46.156218 121,53.3984211 C121,60.951453 111.975177,68.3362966 98.1035202,72.9039888 C97.3704172,73.1456262 96.6191073,73.3776833 95.8533387,73.602289 C96.126445,74.6944475 96.3700986,75.766913 96.5789446,76.8170245 C99.3175043,90.5653414 97.2086955,101.86535 90.7184054,105.599553 C84.4342837,109.215066 74.2779435,105.663421 63.9941537,96.8681392 C62.8763527,95.9098115 61.7856461,94.920701 60.7233045,93.9019601 C59.8798881,94.7125632 59.0375427,95.4859093 58.1984103,96.2150795 C47.581538,105.438816 36.6787074,109.265628 30.1825267,105.542603 C23.89305,101.93667 21.9165103,91.4179915 24.447295,78.1705133 C24.7238308,76.7307963 25.0407935,75.2990414 25.397812,73.8769253 C24.2988437,73.5651358 23.2078648,73.2261704 22.1258918,72.860345 C8.78224079,68.3277808 0,60.8519239 0,53.3984211 C0,46.1822979 8.181407,39.2248437 20.9916975,34.7859539 C22.4236311,34.2899053 23.9203606,33.8236622 25.4701048,33.3861601 C25.1381111,32.0661391 24.8399185,30.7379466 24.5758156,29.4028685 C21.9213298,15.9212044 23.7891625,5.1470501 30.0952398,1.5187633 C36.6717458,-2.26493786 47.6243782,1.79818982 58.5513064,11.441332 C59.2309908,12.0424709 59.8994126,12.6560726 60.5562278,13.2818213 C61.537028,12.340762 62.5415942,11.4244829 63.5689648,10.5338611 C73.9951982,1.5161021 84.3186151,-2.25642201 90.6305829,1.36175221 C97.2140505,5.13427632 99.1418595,16.5944892 96.1933828,30.8202263 C96.0091465,31.7039891 95.8084772,32.5842888 95.591478,33.4606738 C96.8999955,33.8347248 98.1988227,34.241486 99.4867231,34.6805702 Z M96.4777346,68.0275969 L96.4782701,68.0275969 C108.454783,64.0831589 115.83133,58.0475461 115.83133,53.3984211 C115.83133,49.0340451 109.001531,43.3694042 97.8041743,39.5388659 C96.6464179,39.1423463 95.4447503,38.7671164 94.2072041,38.410515 C92.7185071,43.1980226 90.7317929,48.2559087 88.3182832,53.4239687 C90.846926,58.7171053 92.9139656,63.8409893 94.4455027,68.6593669 C95.1373719,68.4555186 95.816389,68.2452834 96.4777346,68.0275969 Z M91.5082715,77.8149764 L91.5082715,77.8149764 C91.3192391,76.8659907 91.0996831,75.8957154 90.853352,74.9057471 C85.8415842,76.0569844 80.3151985,76.9005863 74.4653694,77.4163279 C71.1398989,82.2011743 67.7324966,86.5101973 64.3229523,90.2167236 C65.341478,91.1907246 66.3573262,92.1115015 67.3656774,92.9737319 C76.1596992,100.495361 84.3148666,103.347109 88.1281798,101.153211 C89.9199711,100.122261 91.3690409,97.5483431 92.0898272,93.687467 C92.8920099,89.3906856 92.7190426,83.8942329 91.5082715,77.8149764 Z M41.2513631,100.774256 L41.2518986,100.774256 C45.3977589,99.3185767 50.1021482,96.4253147 54.7968985,92.3462197 C55.582649,91.6618628 56.351328,90.9583819 57.1022367,90.2364165 C53.5689913,86.4676181 50.0630565,82.1639174 46.7156305,77.4817935 C40.8518782,77.0091635 35.3656553,76.2251725 30.4095797,75.1356752 C30.0779707,76.4582579 29.783331,77.789727 29.5260006,79.1285471 C27.3620351,90.4572965 28.9481935,98.9039609 32.7652552,101.091471 C34.558653,102.119229 37.5258723,102.081972 41.2513631,100.774256 Z M23.7977305,67.9988559 L23.7977305,67.9988559 C24.7855968,68.332899 25.7815752,68.6427569 26.7847634,68.9281486 C28.3130875,63.9756462 30.3276479,58.7761841 32.7556161,53.5234978 C30.358707,48.3479864 28.3725283,43.2299571 26.8581272,38.3349368 C25.4574366,38.7285828 24.0686408,39.1629001 22.6935244,39.6373305 C11.737679,43.4338054 5.16867001,49.0196746 5.16867001,53.3984211 C5.16867001,55.456597 6.68414205,57.9927253 9.68509798,60.5474821 C13.025027,63.3896489 17.8975641,65.9944363 23.7977305,67.9988559 Z M29.6486307,28.4160938 L29.6486307,28.4155615 C29.8944758,29.6574638 30.1717756,30.89301 30.4802661,32.1210233 C35.4882853,30.9932046 40.9359521,30.1511994 46.6267371,29.626942 C49.945246,24.9719623 53.4190506,20.7007284 56.9340889,16.9489617 C56.3273646,16.3725447 55.7217113,15.8152884 55.1187355,15.2830474 C45.6842527,6.9572017 36.7333286,3.63601794 32.6849298,5.9651045 C28.8844687,8.15155047 27.3743516,16.8648676 29.6486307,28.4160938 Z M81.8424516,41.2255376 L81.8424516,41.2255376 C83.0445039,43.2883306 84.2049907,45.3747764 85.3232178,47.4836271 C86.8536839,43.9229349 88.1533484,40.4495302 89.1959718,37.1278142 C85.7227027,36.3395653 82.023987,35.6955537 78.163014,35.2112144 C79.4328041,37.1894953 80.6595679,39.1947348 81.8424516,41.2255376 Z M60.5578343,20.62036 L60.5578343,20.62036 C58.136292,23.2171638 55.7281373,26.0795558 53.3772814,29.1606989 C58.141742,28.939062 62.914051,28.9401277 67.6784108,29.1638923 C65.3296969,26.0540083 62.9418913,23.1873583 60.5578343,20.62036 Z M39.1366638,41.2606655 L39.1366638,41.2606655 C40.3252526,39.2124091 41.5620688,37.1921752 42.8460895,35.2016341 C39.0102852,35.6779898 35.3287056,36.3055019 31.8763211,37.0735256 C32.9280479,40.4426111 34.2159314,43.9314507 35.7212289,47.4799014 C36.8108732,45.3806965 37.9496615,43.3070533 39.1366638,41.2606655 Z M42.956403,71.9619222 L42.956403,71.9619222 C41.6409144,69.933513 40.3742697,67.8742198 39.1575484,65.7857978 C37.9651498,63.7384912 36.8213573,61.6635971 35.7271194,59.5628362 C34.1896918,63.1873973 32.8734267,66.751283 31.8050992,70.1799794 C35.2564128,70.9267135 38.9936846,71.5222912 42.956403,71.9619222 Z M60.7008134,86.5394706 C63.0688054,83.9479892 65.448043,81.0376955 67.8042539,77.8548944 C65.4046673,77.9613426 62.9665245,78.0161634 60.5,78.0161634 C58.0993423,78.0161634 55.7372409,77.9703907 53.4206571,77.8799098 C55.8073917,81.0057611 58.2508896,83.9117968 60.7008134,86.5394706 Z M85.372484,59.3781486 L85.372484,59.3781486 C84.2504777,61.5277584 83.0804721,63.6522809 81.8633362,65.7501377 C80.6660289,67.814322 79.4275236,69.8546279 78.1485555,71.8698445 C82.1396555,71.3940211 85.9272646,70.753203 89.4358769,69.9575027 C88.3530909,66.5868205 86.9897015,63.0420956 85.372484,59.3781486 Z M77.3854644,63.1836717 L77.3859999,63.1836717 C79.2347882,60.0011509 80.9689519,56.7541972 82.5851936,53.448984 C80.9521535,50.1771062 79.2124569,46.9588946 77.3688638,43.799455 C75.5356275,40.6482728 73.591079,37.5623709 71.5388483,34.5475099 C67.9413426,34.2750025 64.2469109,34.1323619 60.5005355,34.1323619 C56.7707607,34.1323619 53.0811485,34.273938 49.4825718,34.5443165 C47.409371,37.5638239 45.4523054,40.660505 43.6156066,43.8276637 L43.6156066,43.8265993 C41.7783314,46.9930837 40.0615462,50.2271373 38.4688922,53.521901 C40.0656074,56.815678 41.7875962,60.0480002 43.6311362,63.2118804 C45.4833335,66.3926365 47.4559286,69.5026152 49.5446901,72.5351458 C53.072045,72.7624127 56.734882,72.8789735 60.5,72.8789735 C64.2806476,72.8789735 67.9906088,72.7475099 71.5806175,72.4925665 C73.6165745,69.4529587 75.5525465,66.3483532 77.3854644,63.1836717 Z M88.0489255,5.81235134 L88.0489255,5.81235134 C84.2447158,3.63176002 75.8956965,6.68256535 66.962444,14.40964 C66.0139608,15.2321604 65.0861842,16.0779749 64.1799731,16.9463005 C67.6382482,20.6496333 71.0831357,24.9283186 74.4080706,29.6338611 C80.1154561,30.1661021 85.5668714,31.0230101 90.5866717,32.1742474 C90.7824936,31.3806253 90.96388,30.5835531 91.1307423,29.7834208 C93.6765211,17.5008956 92.1005373,8.135051 88.0489255,5.81235134 Z" ></path>
                    <path d="M61,42 C67.0754324,42 72,46.9249907 72,52.9997274 C72,59.0750093 67.0754324,64 61,64 C54.9251128,64 50,59.0750093 50,52.9997274 C50,46.9249907 54.9251128,42 61,42" ></path>
                </g>
                <g id="icon_react_contour_left" transform="translate(345.955081, 348.074029) rotate(30.000000) translate(-345.955081, -348.074029) translate(236.955081, 251.074029)" stroke="#63388A">
                    <path d="M179.102004,62.6071762 C202.628532,70.6791025 217.831504,83.323615 217.831504,96.3976182 C217.831504,110.032746 201.584472,123.364251 176.611879,131.610087 C175.292103,132.046304 173.939549,132.465225 172.560967,132.870695 C173.052629,134.842317 173.491269,136.778388 173.867246,138.674104 C178.797367,163.493283 175.000962,183.892649 163.31675,190.633826 C152.003694,197.160739 133.719638,190.749126 115.206139,174.871423 C113.193806,173.1414 111.23025,171.355806 109.317758,169.516722 C107.799389,170.980065 106.282948,172.37615 104.772291,173.692486 C85.659157,190.343656 66.0312231,197.252018 54.3364065,190.531018 C43.0137109,184.0214 39.4554248,165.032532 44.0114963,141.117493 C44.5093326,138.51844 45.079948,135.933762 45.7226742,133.366483 C43.7442451,132.803625 41.7801992,132.191707 39.832366,131.531299 C15.81032,123.348878 0,109.853071 0,96.3976182 C0,83.3706956 14.7286628,70.8107361 37.790521,62.7974204 C40.3683744,61.9019276 43.0628771,61.0602412 45.8528202,60.2704395 C45.255145,57.8874687 44.7183207,55.4897463 44.2428668,53.0795937 C39.4641012,28.7417895 42.8266863,9.29172362 54.1792674,2.74175082 C66.0186905,-4.0887841 85.7362805,3.24618616 105.407596,20.65449 C106.631205,21.7396974 107.834538,22.8474032 109.016977,23.9770374 C110.782672,22.278188 112.591153,20.6240731 114.440688,19.0162762 C133.210622,2.73694668 151.795461,-4.07341083 163.158646,2.4583062 C175.010602,9.26866371 178.48116,29.9572385 173.173134,55.6382819 C172.841461,57.2336966 172.480204,58.8228597 172.089549,60.4049556 C174.445221,61.080212 176.783448,61.8145185 179.102004,62.6071762 Z M173.685042,122.80697 L173.686006,122.80697 C195.246848,115.686265 208.526552,104.790461 208.526552,96.3976182 C208.526552,88.5188186 196.231136,78.2927132 176.072978,71.3776253 C173.988716,70.6618076 171.825401,69.984423 169.597496,69.3406674 C166.917454,77.9833262 163.340851,87.1140863 158.995905,96.443738 C163.54812,105.999185 167.26933,115.249088 170.026495,123.947474 C171.27204,123.579477 172.494447,123.199949 173.685042,122.80697 Z M164.738714,140.475659 L164.738714,140.475659 C164.398407,138.7625 164.003149,137.010909 163.559689,135.223766 C154.537202,137.30204 144.588269,138.824954 134.057053,139.755998 C128.07034,148.393852 121.936129,156.172726 115.798062,162.86394 C117.631673,164.622258 119.460464,166.284492 121.275759,167.841036 C137.107288,181.419474 151.788713,186.567597 158.653669,182.607059 C161.87936,180.745933 164.488063,176.099363 165.785666,169.129508 C167.229804,161.372733 166.918418,151.45025 164.738714,140.475659 Z M74.263194,181.922949 L74.264158,181.922949 C81.7277859,179.295081 90.1969116,174.072013 98.6486845,166.708218 C100.06324,165.472781 101.447062,164.202821 102.798894,162.899491 C96.4381318,156.095859 90.1265364,148.326594 84.100298,139.87418 C73.5440172,139.020963 63.6673874,137.605662 54.7451611,135.638844 C54.1481784,138.02644 53.6177504,140.430077 53.1544887,142.846985 C49.2587873,163.298235 52.1142853,178.546595 58.9859903,182.495603 C62.2145733,184.350964 67.5563405,184.283706 74.263194,181.922949 Z M42.8421111,122.755085 L42.8421111,122.755085 C44.6205275,123.358118 46.413548,123.917489 48.2195479,124.432693 C50.9709292,115.492177 54.5976624,106.105837 58.9686375,96.6234131 C54.653577,87.2803097 51.0779381,78.040976 48.351622,69.2042296 C45.8300141,69.91486 43.3298201,70.6989122 40.8542525,71.5553787 C21.1308783,78.4089736 9.30495175,88.4928762 9.30495175,96.3976182 C9.30495175,100.113145 12.033196,104.691496 17.435698,109.303476 C23.4484399,114.434304 32.2202753,119.136603 42.8421111,122.755085 Z M53.3752547,51.2982163 L53.3752547,51.2972555 C53.8178399,53.5392023 54.3170518,55.7696749 54.8724149,57.9865485 C63.8881535,55.9505514 73.6953721,54.4305195 83.9402667,53.4841028 C89.9144467,45.0806904 96.1681995,37.3700359 102.496184,30.5971507 C101.403922,29.5565727 100.313588,28.5505845 99.2280749,27.5897553 C82.2435494,12.5595038 66.1295556,6.56392946 58.8413837,10.7685181 C51.9995641,14.7156046 49.2809603,30.4453397 53.3752547,51.2982163 Z M147.337722,74.4224931 L147.337722,74.4224931 C149.501729,78.1463549 151.590907,81.9129158 153.604007,85.7199231 C156.359245,79.2919756 158.698979,73.0216041 160.575973,67.025069 C154.323184,65.6020809 147.664533,64.4394775 140.713776,63.5651229 C142.999729,67.1364188 145.208223,70.756382 147.337722,74.4224931 Z M109.019869,37.2249507 L109.019869,37.2249507 C104.660462,41.9128365 100.325157,47.080176 96.0930041,52.6424164 C104.670274,52.2423059 113.261672,52.2442297 121.838761,52.6481813 C117.610464,47.0340562 113.311792,41.85903 109.019869,37.2249507 Z M70.4561846,74.4859078 L70.4561846,74.4859078 C72.595954,70.7882885 74.8225451,67.1412567 77.1341167,63.547828 C70.2286702,64.4077702 63.6008684,65.5405878 57.3856774,66.9270644 C59.2790596,73.0091133 61.5975852,79.3073489 64.3075126,85.7131973 C66.269156,81.923603 68.3192715,78.180154 70.4561846,74.4859078 Z M77.3327098,129.90942 L77.3327098,129.90942 C74.9644878,126.24763 72.6841974,122.530086 70.4937823,118.759957 C68.3471545,115.064053 66.2880302,111.318345 64.3181171,107.525942 C61.550347,114.069189 59.1807271,120.502902 57.2574595,126.692564 C63.4707225,128.040607 70.1987849,129.115775 77.3327098,129.90942 Z M109.277269,156.225571 C113.540271,151.547294 117.823518,146.29348 122.065311,140.547721 C117.74543,140.739887 113.356138,140.838852 108.915752,140.838852 C104.593943,140.838852 100.341546,140.756221 96.1710917,140.59288 C100.467835,146.23583 104.866768,151.481957 109.277269,156.225571 Z M153.692699,107.192534 L153.692699,107.192534 C151.672796,111.073122 149.566481,114.908421 147.37532,118.695582 C145.219855,122.421955 142.990223,126.105222 140.687747,129.743196 C147.872766,128.884215 154.691449,127.727377 161.007864,126.290937 C159.058568,120.206005 156.604112,113.806883 153.692699,107.192534 Z M139.313984,114.062463 L139.314948,114.062463 C142.643249,108.317211 145.765195,102.45564 148.674851,96.488897 C145.734953,90.5823322 142.603047,84.7726486 139.284099,79.0690632 C135.983796,73.3803847 132.483103,67.8095533 128.788553,62.3669689 C122.312106,61.8750243 115.661167,61.6175221 108.916716,61.6175221 C102.20215,61.6175221 95.5598878,61.8731027 89.0815128,62.3612039 C85.3492116,67.8121764 81.8259838,73.4024668 78.5194478,79.1199872 L78.5194478,79.1180655 C75.2118741,84.8343685 72.1212137,90.6726511 69.2540219,96.6205306 C72.128525,102.566629 75.2285532,108.401785 78.5474051,114.113387 C81.8818426,119.855454 85.4330273,125.46975 89.1933419,130.944233 C95.5434991,131.354507 102.137559,131.564928 108.915752,131.564928 C115.721902,131.564928 122.400798,131.327604 128.863749,130.867366 C132.529001,125.380108 136.014255,119.775512 139.313984,114.062463 Z M158.510991,10.4927601 L158.510991,10.4927601 C151.662423,6.55624283 136.632014,12.0637159 120.549834,26.0130345 C118.842317,27.4978913 117.172078,29.0247998 115.540662,30.5923466 C121.766457,37.2777963 127.968152,45.0019024 133.9539,53.4965935 C144.22868,54.4574228 154.042647,56.0043578 163.079595,58.0826314 C163.432125,56.6499434 163.758668,55.2110272 164.059063,53.7665865 C168.642128,31.5935306 165.804947,14.6858189 158.510991,10.4927601 Z" ></path>
                    <path d="M109.293932,76.735584 C120.155338,76.735584 128.959276,85.4516543 128.959276,96.2025035 C128.959276,106.954317 120.155338,115.670388 109.293932,115.670388 C98.4335001,115.670388 89.6285876,106.954317 89.6285876,96.2025035 C89.6285876,85.4516543 98.4335001,76.735584 109.293932,76.735584" ></path>
                </g>
            </g>
        </g>
    </g>
</svg>