<?xml version="1.0" encoding="UTF-8"?>
<svg width="1610px" height="737px" viewBox="0 0 1610 737" version="1.1" xmlns="http://www.w3.org/2000/svg" xmlns:xlink="http://www.w3.org/1999/xlink">
    <!-- Generator: Sketch 46 (44423) - http://www.bohemiancoding.com/sketch -->
    <title>Artboard Copy 2</title>
    <desc>Created with Sketch.</desc>
    <defs></defs>
    <g id="redesing-v6" stroke="none" stroke-width="1" fill="none" fill-rule="evenodd">
        <g id="Artboard-Copy-2" fill-rule="nonzero">
            <g id="hero">
                <g id="bgn">
                    <g id="icon_react_contour_right" stroke="#61DAFB">
                        <path d="M345.325816,120.895819 C390.687213,136.482885 420,160.899713 420,186.145898 C420,212.475626 388.674167,238.219053 340.524615,254.141942 C337.979961,254.984286 335.372108,255.793232 332.714068,256.576204 C333.66204,260.383448 334.50778,264.122043 335.2327,267.782712 C344.738445,315.709087 337.418612,355.100705 314.890333,368.118066 C293.077679,380.721677 257.824267,368.340712 222.128467,337.680522 C218.248497,334.33981 214.462573,330.89179 210.775107,327.340478 C207.847546,330.166225 204.923702,332.862095 202.011011,335.403969 C165.159058,367.557741 127.314521,380.897938 104.765795,367.91954 C82.9345536,355.349326 76.0738374,318.68141 84.8583795,272.500948 C85.8182556,267.482122 86.9184567,262.491051 88.1576944,257.533581 C84.3430937,256.446688 80.556225,255.265061 76.800616,253.989801 C30.483811,238.189367 0,212.128669 0,186.145898 C0,160.990627 28.3982722,136.737072 72.8637434,121.263185 C77.8340916,119.533969 83.0293508,117.908654 88.4086282,116.38353 C87.2562533,111.781962 86.2212046,107.151907 85.3044841,102.49785 C76.0905663,55.5010209 82.5739525,17.9425205 104.462816,5.29438049 C127.290357,-7.89553106 165.307759,6.26845611 203.23594,39.8842695 C205.595175,41.9798286 207.915316,44.1188327 210.195171,46.3001809 C213.599601,43.0196657 217.086525,39.8255338 220.652605,36.720843 C256.842837,5.28510358 292.676185,-7.86584494 314.585495,4.74704276 C337.4372,17.8979913 344.128768,57.8480793 333.894387,107.438733 C333.254889,110.519513 332.558351,113.588222 331.80513,116.643283 C336.347092,117.947218 340.855418,119.36518 345.325816,120.895819 Z M334.881393,237.142931 L334.883252,237.142931 C376.454619,223.392694 402.059162,202.352661 402.059162,186.145898 C402.059162,170.931765 378.352423,151.184933 339.485564,137.831747 C335.466905,136.449488 331.295828,135.141443 327.000212,133.898337 C321.832835,150.5875 314.936802,168.219196 306.55933,186.234956 C315.336437,204.686732 322.511285,222.548495 327.827365,239.34527 C330.228894,238.634658 332.585813,237.901782 334.881393,237.142931 Z M317.632017,271.261553 L317.632017,271.261553 C316.975871,267.953407 316.213776,264.571045 315.358742,261.120034 C297.962524,265.133226 278.780028,268.074007 258.474836,269.871872 C246.931881,286.551757 235.104534,301.572931 223.269752,314.493812 C226.80513,317.889161 230.331215,321.098972 233.831277,324.104691 C264.355981,350.324952 292.663173,360.266089 305.899467,352.618204 C312.118908,349.024329 317.148737,340.051701 319.65064,326.592759 C322.435076,311.614259 321.834693,292.453728 317.632017,271.261553 Z M143.18655,351.297172 L143.188408,351.297172 C157.578998,346.222702 173.908283,336.136845 190.204111,321.917196 C192.931509,319.531541 195.599651,317.079219 198.206111,314.562461 C185.941953,301.4245 173.772593,286.42188 162.153428,270.100084 C141.799908,268.452505 122.75682,265.719527 105.553913,261.921559 C104.402873,266.532058 103.380157,271.173534 102.486944,275.840636 C94.975659,315.332445 100.481333,344.777359 113.730638,352.40298 C119.955655,355.985723 130.255094,355.855846 143.18655,351.297172 Z M82.6036928,237.042741 L82.6036928,237.042741 C86.0326499,238.207209 89.4897652,239.287367 92.971906,240.282238 C98.2768327,223.017907 105.269521,204.892679 113.69718,186.581913 C105.37733,168.540177 98.483156,150.698822 93.2265574,133.634873 C88.3646561,135.007116 83.5440425,136.521138 78.7709112,138.174993 C40.7423569,151.409434 17.940838,170.881669 17.940838,186.145898 C17.940838,193.320661 23.2011542,202.161557 33.6176955,211.067391 C45.2108375,220.975131 62.1237763,230.055371 82.6036928,237.042741 Z M102.912602,99.0579717 L102.912602,99.0561163 C103.765949,103.385364 104.728477,107.692456 105.799271,111.973287 C123.182478,108.041732 142.091735,105.106517 161.844872,103.278966 C173.363664,87.0517939 185.421498,72.1623524 197.622457,59.0837637 C195.516472,57.0743849 193.414205,55.1317998 191.321231,53.2764177 C158.573439,24.2526751 127.504116,12.6750906 113.451822,20.7942428 C100.260139,28.4161526 95.0184107,58.7906134 102.912602,99.0579717 Z M284.081237,143.711453 L284.081237,143.711453 C288.25365,150.902311 292.281786,158.175622 296.163235,165.527036 C301.475597,153.11453 305.986829,141.006306 309.605852,129.426866 C297.549877,126.679045 284.71136,124.434033 271.309636,122.745635 C275.717171,129.641885 279.97536,136.632113 284.081237,143.711453 Z M210.200747,71.8821897 L210.200747,71.8821897 C201.795394,80.9345991 193.43651,90.9128441 185.276514,101.653651 C201.814311,100.881029 218.379351,100.884744 234.916798,101.664784 C226.764237,90.8237858 218.475986,80.8306977 210.200747,71.8821897 Z M135.846271,143.833909 L135.846271,143.833909 C139.971951,136.693725 144.265032,129.651227 148.721964,122.712238 C135.407601,124.372805 122.628565,126.560301 110.645081,129.237617 C114.295704,140.982186 118.766043,153.144216 123.991043,165.514049 C127.773279,158.19626 131.726098,150.967578 135.846271,143.833909 Z M149.10487,250.857916 L149.10487,250.857916 C144.538711,243.786919 140.142093,236.608262 135.918763,229.328062 C131.779859,222.191189 127.80967,214.958147 124.011489,207.634934 C118.674963,220.270086 114.106109,232.693725 110.397865,244.646096 C122.377631,247.249198 135.34998,249.32537 149.10487,250.857916 Z M210.697038,301.674977 C218.916515,292.641121 227.175025,282.495892 235.353609,271.400707 C227.024465,271.771783 218.56149,271.962888 210,271.962888 C201.667139,271.962888 193.468109,271.803325 185.427074,271.48791 C193.711608,282.384569 202.19317,292.514955 210.697038,301.674977 Z M296.334242,206.991116 L296.334242,206.991116 C292.439675,214.484616 288.378498,221.890661 284.153729,229.203751 C279.997786,236.399459 275.698842,243.511927 271.259449,250.536935 C285.112854,248.878223 298.259927,246.644343 310.438581,243.870547 C306.68015,232.120412 301.947724,219.763567 296.334242,206.991116 Z M268.610703,220.257098 L268.612562,220.257098 C275.029843,209.162891 281.049254,197.84407 286.65935,186.322159 C280.990946,174.916454 274.95233,163.697829 268.553081,152.684081 C262.189782,141.699119 255.440109,130.941723 248.316663,120.431974 C235.829454,119.482018 223.005806,118.984776 210.001859,118.984776 C197.055533,118.984776 184.248615,119.478307 171.757687,120.420842 C164.561453,130.946788 157.768333,141.74176 151.393015,152.782417 L151.393015,152.778706 C145.015696,163.817011 139.056607,175.090862 133.528386,186.576347 C139.070703,198.058391 145.047855,209.326206 151.446919,220.355434 C157.876034,231.44349 164.723058,242.284818 171.973305,252.856162 C184.217016,253.648411 196.930995,254.054739 210,254.054739 C223.122909,254.054739 236.00046,253.59646 248.461647,252.707732 C255.528606,242.111716 262.248508,231.289119 268.610703,220.257098 Z M305.624369,20.2617481 L305.624369,20.2617481 C292.419675,12.6602475 263.439608,23.2952979 232.431624,50.2317356 C229.139368,53.0990264 225.918987,56.0475198 222.77346,59.0744868 C234.77739,71.9842357 246.734851,86.8996526 258.275948,103.303086 C278.086707,105.158468 297.008975,108.145633 314.433075,112.158825 C315.112788,109.392273 315.742394,106.613695 316.321585,103.824448 C325.158172,61.007795 319.687815,28.3586357 305.624369,20.2617481 Z" ></path>
                        <path d="M210.5,149 C231.211701,149 248,165.789741 248,186.499071 C248,207.210259 231.211701,224 210.5,224 C189.790157,224 173,207.210259 173,186.499071 C173,165.789741 189.790157,149 210.5,149" ></path>
                    </g>
                    <g id="icon_react_contour_top" transform="translate(902.000000, 0.000000)" stroke="#64AFDD">
                        <path d="M219.528554,76.8158423 C248.365443,86.7196881 267,102.233866 267,118.275008 C267,135.00462 247.08572,151.361704 216.476363,161.478928 C214.858689,162.014144 213.20084,162.52814 211.511086,163.025631 C212.113726,165.444711 212.651375,167.820172 213.112217,170.14612 C219.155154,200.597999 214.501832,225.62699 200.180283,233.898074 C186.313667,241.906267 163.90257,234.039541 141.21024,214.558402 C138.743687,212.435751 136.336922,210.244917 133.992746,207.988454 C132.131654,209.783902 130.272925,211.496827 128.421286,213.111905 C104.993972,233.54205 80.93566,242.018261 66.6011126,233.771933 C52.7226805,225.784961 48.3612252,202.486579 53.9456841,173.144034 C54.555891,169.955128 55.2553046,166.783858 56.0431057,163.633937 C53.6181095,162.943338 51.210743,162.192546 48.8232488,161.38226 C19.3789941,151.342842 0,134.784168 0,118.275008 C0,102.291632 18.0531873,86.8811958 46.3205226,77.0492623 C49.4802439,75.9505378 52.7829445,74.9178312 56.2026279,73.9487845 C55.4700468,71.0249997 54.8120515,68.0831154 54.2292792,65.1259799 C48.37186,35.2647237 52.4934412,11.4004755 66.4085043,3.36398975 C80.9202986,-5.01673153 105.088504,3.98290643 129.19999,25.3420157 C130.69979,26.6735104 132.174737,28.0326095 133.624073,29.4186136 C135.788318,27.3342112 138.005005,25.3046958 140.272013,23.3320101 C163.27866,3.3580953 186.058432,-4.99786931 199.986493,3.01621752 C214.513649,11.3721821 218.767574,36.7560182 212.261431,68.265361 C211.854894,70.2228543 211.412094,72.1726772 210.933261,74.1138289 C213.820651,74.9423344 216.686658,75.8432914 219.528554,76.8158423 Z M212.888885,150.677948 L212.890067,150.677948 C239.31758,141.941202 255.594753,128.572602 255.594753,118.275008 C255.594753,108.608118 240.52404,96.0612038 215.815823,87.5767403 C213.261104,86.6984681 210.60949,85.8673514 207.878706,85.0774958 C204.593731,95.6816016 200.209824,106.884583 194.884146,118.331594 C200.463878,130.055644 205.025031,141.404808 208.404539,152.077289 C209.931226,151.625775 211.429553,151.160114 212.888885,150.677948 Z M201.923211,172.356536 L201.923211,172.356536 C201.50609,170.254577 201.021615,168.105463 200.478058,165.91273 C189.419033,168.462666 177.224446,170.331205 164.316146,171.473549 C156.978124,182.07176 149.459311,191.616045 141.935771,199.825827 C144.183261,201.983194 146.424844,204.022671 148.649883,205.932472 C168.054874,222.59253 186.05016,228.909016 194.464661,224.049636 C198.418449,221.766128 201.615983,216.065022 203.206478,207.513362 C204.976584,197.996191 204.594912,185.821806 201.923211,172.356536 Z M91.0257351,223.210267 L91.0269167,223.210267 C100.17522,219.986006 110.55598,213.577566 120.91547,204.542561 C122.649316,203.026743 124.345492,201.468566 126.002456,199.869446 C118.205956,191.521733 110.46972,181.989238 103.083251,171.618552 C90.1442272,170.571699 78.0382641,168.835195 67.1021305,166.42201 C66.3703981,169.351468 65.7202428,172.30061 65.1524146,175.266034 C60.3773832,200.358685 63.8774186,219.067652 72.3001912,223.912885 C76.2575236,226.18932 82.805024,226.106797 91.0257351,223.210267 Z M52.5123475,150.614288 L52.5123475,150.614288 C54.6921846,151.354178 56.8899221,152.040499 59.1035688,152.672628 C62.4759865,141.703067 66.9213387,130.186501 72.2789216,118.552046 C66.9898741,107.088531 62.6071492,95.7523349 59.2654543,84.9100936 C56.1746742,85.7820012 53.1101413,86.7439936 50.0757935,87.7948347 C25.9004983,96.2038494 11.405247,108.576288 11.405247,118.275008 C11.405247,122.833771 14.7493052,128.451177 21.3712493,134.109843 C28.7411753,140.40511 39.4929721,146.174593 52.5123475,150.614288 Z M65.4230116,62.9403198 L65.4230116,62.9391409 C65.9654962,65.6898964 66.5773892,68.4265737 67.2581078,71.1465655 C78.308861,68.6484999 90.3297456,66.7834977 102.887097,65.6222921 C110.209758,55.3117297 117.875095,45.8511461 125.631419,37.5411582 C124.292614,36.2644215 122.956173,35.0301248 121.62564,33.8512359 C100.807401,15.4098767 81.0561879,8.05360984 72.1229443,13.2124277 C63.7368027,18.0553034 60.4045611,37.3548938 65.4230116,62.9403198 Z M180.594501,91.3126393 L180.594501,91.3126393 C183.246963,95.8816295 185.807707,100.503009 188.2752,105.174015 C191.652344,97.2872483 194.520199,89.5938192 196.820863,82.2363735 C189.156708,80.490439 180.995079,79.0639835 172.475411,77.9911946 C175.277345,82.3729942 177.984336,86.8145061 180.594501,91.3126393 Z M133.627618,45.6731339 L133.627618,45.6731339 C128.284215,51.4249329 122.970353,57.7649975 117.782927,64.5895854 C128.296241,64.0986701 138.826873,64.1010304 149.339964,64.5966587 C144.157265,57.7084108 138.888306,51.3589151 133.627618,45.6731339 Z M86.3594151,91.3904459 L86.3594151,91.3904459 C88.982169,86.8536538 91.7113418,82.3789301 94.5446768,77.9699746 C86.0805467,79.0250801 77.9567305,80.4149902 70.3386589,82.1161269 C72.6594116,89.5784937 75.5012702,97.3061105 78.822877,105.165763 C81.2272986,100.516122 83.7401622,95.9230993 86.3594151,91.3904459 Z M94.7880959,159.392295 L94.7880959,159.392295 C91.8853236,154.899463 89.0903306,150.338225 86.4054993,145.712468 C83.7743389,141.17778 81.2504331,136.581986 78.8358751,131.928899 C75.4433695,139.957132 72.5388837,147.850973 70.1814999,155.445375 C77.7972083,157.099356 86.0439156,158.418533 94.7880959,159.392295 Z M133.943117,191.680883 C139.168356,185.940873 144.418409,179.494709 149.617651,172.444953 C144.322696,172.680731 138.942661,172.802156 133.5,172.802156 C128.202681,172.802156 122.990441,172.700772 117.87864,172.500361 C123.145236,179.423975 128.537087,185.860709 133.943117,191.680883 Z M188.383911,131.519824 L188.383911,131.519824 C185.908079,136.28111 183.326331,140.986828 180.640585,145.633483 C177.998593,150.205554 175.265693,154.724737 172.443507,159.188347 C181.250314,158.134421 189.608096,156.715038 197.350241,154.952599 C194.960953,147.486696 191.952482,139.635296 188.383911,131.519824 Z M170.759661,139.94888 L170.760843,139.94888 C174.8404,132.899745 178.667026,125.707895 182.233444,118.387002 C178.629959,111.139945 174.791124,104.011757 170.72303,97.013746 C166.67779,90.0340248 162.386926,83.1988962 157.85845,76.5211201 C149.920153,75.917529 141.767977,75.6015867 133.501182,75.6015867 C125.271017,75.6015867 117.129477,75.9151712 109.188816,76.5140467 C104.614067,83.2021146 100.295583,90.0611185 96.2427021,97.0762272 L96.2427021,97.0738694 C92.1885494,104.087484 88.4002713,111.250762 84.8859026,118.54851 C88.4092329,125.844072 92.2089932,133.003514 96.2769699,140.011361 C100.36405,147.056587 104.716801,153.945045 109.325886,160.661958 C117.109389,161.165344 125.191847,161.423521 133.5,161.423521 C141.842421,161.423521 150.028864,161.132335 157.950619,160.567647 C162.443185,153.835058 166.715123,146.958502 170.759661,139.94888 Z M194.289778,12.8740866 L194.289778,12.8740866 C185.895365,8.04417873 167.472322,14.80157 147.760104,31.9166792 C145.66717,33.7385235 143.619927,35.611963 141.620271,37.5352638 C149.251341,45.7379728 156.85287,55.2150608 164.18971,65.6376176 C176.783692,66.8165066 188.812849,68.7145177 199.889598,71.2644544 C200.321701,69.5066186 200.72195,67.7411411 201.09015,65.9688854 C206.707695,38.763666 203.230111,18.0187578 194.289778,12.8740866 Z" ></path>
                        <path d="M134,94 C147.255489,94 158,104.745434 158,117.999405 C158,131.254566 147.255489,142 134,142 C120.745701,142 110,131.254566 110,117.999405 C110,104.745434 120.745701,94 134,94" ></path>
                    </g>
                    <g id="icon_react_contour_left" transform="translate(1361.001240, 457.761730) rotate(30.000000) translate(-1361.001240, -457.761730) translate(1083.001240, 211.261730)" stroke="#63388A">
                        <path d="M456.847317,159.76888 C516.857986,180.367839 555.637212,212.635699 555.637212,245.999587 C555.637212,280.795423 514.194834,314.816439 450.49559,335.859203 C447.12915,336.972395 443.679102,338.041452 440.16266,339.076181 C441.416776,344.107613 442.535644,349.048323 443.494673,353.88605 C456.070258,417.222759 446.386517,469.280429 416.582825,486.483416 C387.725867,503.139615 341.087516,486.777652 293.86391,446.258929 C288.73092,441.844039 283.722348,437.287335 278.84403,432.594128 C274.971025,436.328471 271.102939,439.891176 267.249607,443.250368 C218.496472,485.742923 168.430204,503.372552 138.599463,486.221056 C109.717915,469.608993 100.641559,421.150807 112.263032,360.121397 C113.532896,353.488808 114.988402,346.892899 116.627846,340.341395 C111.581337,338.905021 106.571515,337.343452 101.603048,335.658142 C40.328428,314.777207 0,280.336906 0,245.999587 C0,212.755845 37.5693733,180.703758 96.3947791,160.254369 C102.97028,157.969138 109.843326,155.821216 116.959818,153.805701 C115.435289,147.724536 114.065975,141.605726 112.853204,135.455195 C100.663691,73.3469197 109.240859,23.711791 138.198637,6.99674518 C168.398236,-10.4342744 218.693196,8.28402684 268.870121,52.7087298 C271.991261,55.4780987 275.060682,58.3048821 278.076806,61.1876249 C282.580683,56.8522869 287.193694,52.6311082 291.911424,48.5281293 C339.789137,6.98448536 387.194712,-10.395043 416.179541,6.27341549 C446.411107,23.6529438 455.263689,76.4486555 441.724157,141.984778 C440.878136,146.056158 439.956654,150.111584 438.960184,154.148976 C444.968953,155.87218 450.933224,157.746076 456.847317,159.76888 Z M443.029913,313.394299 L443.032372,313.394299 C498.029036,295.222786 531.902456,267.417502 531.902456,245.999587 C531.902456,225.893474 500.539726,199.79721 449.120981,182.150417 C443.804514,180.323703 438.286404,178.595068 432.603539,176.952251 C425.767378,199.007677 416.644301,222.308701 405.561361,246.117282 C417.172997,270.502074 426.664932,294.107142 433.697816,316.304781 C436.874909,315.365679 439.992985,314.397153 443.029913,313.394299 Z M420.209924,358.483484 L420.209924,358.483484 C419.341879,354.111631 418.333669,349.641698 417.202506,345.081043 C394.188252,350.384644 368.810851,354.271008 341.948183,356.646963 C326.67748,378.690128 311.030542,398.541237 295.373767,415.616722 C300.050881,420.103818 304.7157,424.345718 309.346092,428.317901 C349.728619,462.969071 387.177499,476.1067 404.688398,465.9997 C412.916381,461.250244 419.570571,449.392541 422.880453,431.605986 C426.564111,411.811272 425.769837,386.489829 420.209924,358.483484 Z M189.428036,464.253901 L189.430495,464.253901 C208.468464,457.547777 230.071223,444.218895 251.629718,425.427034 C255.237918,422.274291 258.767725,419.033446 262.215931,415.707445 C245.991115,398.34508 229.891712,378.518491 214.520187,356.948554 C187.593584,354.771209 162.400612,351.159465 139.6421,346.140292 C138.119337,352.233259 136.766339,358.367164 135.584667,364.534934 C125.647644,416.72501 132.931351,455.637696 150.459463,465.715272 C158.694823,470.450017 172.320422,470.278379 189.428036,464.253901 Z M109.280204,313.261893 L109.280204,313.261893 C113.816528,314.800786 118.390104,316.228261 122.996787,317.543024 C130.014917,294.727489 139.265865,270.774242 150.4152,246.575799 C139.40849,222.732891 130.287872,199.154795 123.333677,176.604072 C116.901645,178.417548 110.524235,180.418392 104.209642,182.604031 C53.8999276,200.093897 23.7347553,225.827271 23.7347553,245.999587 C23.7347553,255.481336 30.6938682,267.16495 44.4743871,278.934382 C59.811485,292.027875 82.1863854,304.027792 109.280204,313.261893 Z M136.147789,130.909251 L136.147789,130.906799 C137.27672,136.628082 138.550093,142.320083 139.966695,147.97738 C162.963735,142.781666 187.979655,138.902657 214.111985,136.487472 C229.350721,115.042585 245.302581,95.3655659 261.443789,78.0816642 C258.657684,75.426186 255.876498,72.8589786 253.107608,70.4070136 C209.784056,32.0509242 168.681027,16.7506622 150.090605,27.4804613 C132.638724,37.5531337 125.704202,77.6942537 136.147789,130.909251 Z M375.824063,189.920694 L375.824063,189.920694 C381.343939,199.423714 386.672944,209.035699 391.807891,218.7509 C398.835857,202.347253 404.803973,186.345729 409.591744,171.043015 C393.642343,167.411655 376.657681,164.444777 358.927927,162.213489 C364.758858,171.327172 370.39221,180.56505 375.824063,189.920694 Z M278.084183,94.9953192 L278.084183,94.9953192 C266.964357,106.958457 255.906007,120.145125 245.110775,134.33955 C266.989383,133.318498 288.904032,133.323408 310.782178,134.354262 C299.996782,120.02743 289.031876,106.821147 278.084183,94.9953192 Z M179.717246,190.082524 L179.717246,190.082524 C185.175297,180.646473 190.85481,171.339518 196.751088,162.169354 C179.13691,164.363863 162.230938,167.254729 146.377439,170.792915 C151.207014,186.313854 157.121031,202.386485 164.033422,218.733736 C169.037115,209.062972 174.26648,199.509967 179.717246,190.082524 Z M197.257653,331.519225 L197.257653,331.519225 C191.216873,322.174607 185.400385,312.687711 179.813149,303.066622 C174.337603,293.634947 169.085259,284.076179 164.060471,274.398247 C157.000537,291.096129 150.956191,307.514487 146.050386,323.310046 C161.898966,326.750153 179.060679,329.493901 197.257653,331.519225 Z M278.74075,398.676096 C289.614671,386.737478 300.540232,373.330133 311.360054,358.667382 C300.341049,359.157775 289.144992,359.410327 277.818606,359.410327 C266.794683,359.410327 255.947811,359.199458 245.309958,358.782624 C256.269946,373.183015 267.490594,386.570744 278.74075,398.676096 Z M392.034124,273.547415 L392.034124,273.547415 C386.881823,283.450388 381.509106,293.237787 375.919966,302.90234 C370.421879,312.411769 364.734609,321.811194 358.861533,331.095035 C377.188836,328.902978 394.5817,325.950812 410.693399,322.285124 C405.721199,306.756829 399.460456,290.426742 392.034124,273.547415 Z M355.357386,291.078965 L355.359845,291.078965 C363.84956,276.417505 371.812914,261.459211 379.234766,246.232524 C371.735776,231.159408 363.747014,216.333525 355.281155,201.778397 C346.862855,187.261311 337.933404,173.044962 328.509473,159.155889 C311.989571,157.900483 295.024582,157.243356 277.821065,157.243356 C260.693778,157.243356 243.75092,157.895579 227.226101,159.141177 C217.705874,173.051655 208.718944,187.317663 200.284744,201.908352 L200.284744,201.903448 C191.847897,216.49103 183.964345,231.389895 176.65081,246.568443 C183.982995,261.742445 191.890442,276.633334 200.356056,291.208919 C208.861427,305.862249 217.919668,320.189517 227.511351,334.159991 C243.709117,335.20698 260.529022,335.74396 277.818606,335.74396 C295.179502,335.74396 312.215804,335.138325 328.701279,333.963834 C338.050481,319.960755 346.940548,305.658241 355.357386,291.078965 Z M404.324458,26.7767473 L404.324458,26.7767473 C386.855363,16.7310465 348.516307,30.7857102 307.494427,66.3833389 C303.138951,70.1725835 298.878561,74.0691409 294.717201,78.0694044 C310.597749,95.1301772 326.416821,114.841524 341.685065,136.519347 C367.893625,138.971312 392.926759,142.918976 415.977898,148.222577 C416.877121,144.566463 417.710055,140.894455 418.476294,137.20835 C430.16662,80.624352 422.929634,37.4771228 404.324458,26.7767473 Z" ></path>
                        <path d="M278.783254,195.823531 C306.488161,195.823531 328.944947,218.066298 328.944947,245.501669 C328.944947,272.939502 306.488161,295.182269 278.783254,295.182269 C251.080833,295.182269 228.621561,272.939502 228.621561,245.501669 C228.621561,218.066298 251.080833,195.823531 278.783254,195.823531" ></path>
                    </g>
                </g>
            </g>
        </g>
    </g>
</svg>