<?xml version="1.0" encoding="UTF-8"?>
<svg width="320px" height="563px" viewBox="0 0 320 563" version="1.1" xmlns="http://www.w3.org/2000/svg" xmlns:xlink="http://www.w3.org/1999/xlink">
    <!-- Generator: Sketch 45.2 (43514) - http://www.bohemiancoding.com/sketch -->
    <title>Artboard</title>
    <desc>Created with Sketch.</desc>
    <defs>
        <rect id="path-1" x="0" y="0" width="320" height="563"></rect>
    </defs>
    <g id="redesing-v6" stroke="none" stroke-width="1" fill="none" fill-rule="evenodd">
        <g id="Artboard">
            <g id="how-and-where-we-use-rails">
                <g id="bgn_rails">
                    <mask id="mask-2" fill="white">
                        <use xlink:href="#path-1"></use>
                    </mask>
                    <use id="Mask" fill="#FFFFFF" xlink:href="#path-1"></use>
                    <path d="M254.990524,85.3372152 L254.990524,106.205704 L292.644555,106.205704 C300.359601,106.205704 313.601845,100.556223 314.062444,84.7607376 L314.062444,76.6900514 C314.062444,63.2004759 303.00805,55.2450852 292.644555,55.2450852 L273.875115,55.2450852 L273.875115,45.5602617 L311.068546,45.5602617 L311.068546,24.5764776 L275.372064,24.5764776 C266.160069,24.5764776 253.839025,32.1859817 253.839025,46.3673303 L253.839025,53.6309479 C253.839025,67.8122965 266.044919,75.0759141 275.372064,75.0759141 C301.280801,75.1912096 269.153967,75.0759141 293.105155,75.0759141 L293.105155,85.2219196 L254.990524,85.3372152 Z M53.2478257,80.2642124 C53.2478257,80.2642124 73.3990656,78.5347796 73.3990656,52.4779928 C73.3990656,26.4212059 48.9872779,24 48.9872779,24 L5,24 L5,106.205704 L27.1087889,106.205704 L27.1087889,86.3748748 L46.2236793,106.205704 L78.9262628,106.205704 L53.2478257,80.2642124 Z M44.72673,63.4310669 L27.1087889,63.4310669 L27.1087889,44.6378976 L44.84188,44.6378976 C44.84188,44.6378976 49.7933275,46.4826259 49.7933275,53.9768345 C49.7933275,61.4710431 44.72673,63.4310669 44.72673,63.4310669 Z M127.980138,24.5764776 L105.525899,24.5764776 C89.5200575,24.5764776 84.1080102,39.1037128 84.1080102,46.0214438 L84.1080102,106.205704 L106.562249,106.205704 L106.562249,91.7937641 L127.634688,91.7937641 L127.634688,106.205704 L149.398027,106.205704 L149.398027,46.0214438 C149.398027,28.4965252 133.507335,24.5764776 127.980138,24.5764776 Z M127.634688,68.5040696 L106.447099,68.5040696 L106.447099,48.5579452 C106.447099,48.5579452 106.447099,44.06142 113.471245,44.06142 L121.186292,44.06142 C127.404388,44.06142 127.519538,48.5579452 127.519538,48.5579452 L127.519538,68.5040696 L127.634688,68.5040696 Z M159.688152,24 L183.06359,24 L183.06359,105.629226 L159.688152,105.629226 L159.688152,24 Z M216.5763,84.5301465 L248.012234,84.5301465 L248.012234,105.629226 L216.5763,105.629226 L193.316011,105.629226 L193.316011,84.5301465 L193.316011,24 L216.5763,24 L216.5763,84.5301465 Z" id="Combined-Shape-Copy" stroke="#E1E4E8" fill="#FFFFFF" mask="url(#mask-2)"></path>
                    <path d="M153.362763,157.628805 L153.362763,170.431087 L176.462543,170.431087 C181.195526,170.431087 189.319302,166.965276 189.601868,157.275151 L189.601868,152.323993 C189.601868,144.048485 182.820281,139.168057 176.462543,139.168057 L164.947974,139.168057 L164.947974,133.226667 L187.765188,133.226667 L187.765188,120.353654 L165.866314,120.353654 C160.214991,120.353654 152.656347,125.021889 152.656347,133.721782 L152.656347,138.177825 C152.656347,146.877718 160.14435,151.333761 165.866314,151.333761 C181.760658,151.404492 162.051671,151.333761 176.745109,151.333761 L176.745109,157.558074 L153.362763,157.628805 Z M29.5988013,154.516648 C29.5988013,154.516648 41.9610691,153.455686 41.9610691,137.470517 C41.9610691,121.485348 26.9850646,120 26.9850646,120 L0,120 L0,170.431087 L13.5631738,170.431087 L13.5631738,158.265383 L25.2896679,170.431087 L45.3518626,170.431087 L29.5988013,154.516648 Z M24.371328,144.189946 L13.5631738,144.189946 L13.5631738,132.66082 L24.4419695,132.66082 C24.4419695,132.66082 27.4795553,133.792513 27.4795553,138.390018 C27.4795553,142.987522 24.371328,144.189946 24.371328,144.189946 Z M75.4451545,120.353654 L61.6700561,120.353654 C51.8508834,120.353654 48.5307314,129.26574 48.5307314,133.50959 L48.5307314,170.431087 L62.3058299,170.431087 L62.3058299,161.589732 L75.2332299,161.589732 L75.2332299,170.431087 L88.5844792,170.431087 L88.5844792,133.50959 C88.5844792,122.758503 78.835948,120.353654 75.4451545,120.353654 Z M75.2332299,147.302103 L62.2351883,147.302103 L62.2351883,135.065668 C62.2351883,135.065668 62.2351883,132.307166 66.5443217,132.307166 L71.2773042,132.307166 C75.0919469,132.307166 75.1625884,135.065668 75.1625884,135.065668 L75.1625884,147.302103 L75.2332299,147.302103 Z M94.8972064,120 L109.237437,120 L109.237437,170.077433 L94.8972064,170.077433 L94.8972064,120 Z M129.796623,157.133689 L149.081761,157.133689 L149.081761,170.077433 L129.796623,170.077433 L115.527034,170.077433 L115.527034,157.133689 L115.527034,120 L129.796623,120 L129.796623,157.133689 Z" id="Combined-Shape-Copy-8" stroke="#E1E4E8" fill="#FFFFFF" mask="url(#mask-2)"></path>
                    <path d="M270.362763,225.663203 L270.362763,238.465484 L293.462543,238.465484 C298.195526,238.465484 306.319302,234.999673 306.601868,225.309549 L306.601868,220.35839 C306.601868,212.082882 299.820281,207.202454 293.462543,207.202454 L281.947974,207.202454 L281.947974,201.261064 L304.765188,201.261064 L304.765188,188.388052 L282.866314,188.388052 C277.214991,188.388052 269.656347,193.056287 269.656347,201.75618 L269.656347,206.212223 C269.656347,214.912116 277.14435,219.368158 282.866314,219.368158 C298.760658,219.438889 279.051671,219.368158 293.745109,219.368158 L293.745109,225.592472 L270.362763,225.663203 Z M146.598801,222.551046 C146.598801,222.551046 158.961069,221.490084 158.961069,205.504914 C158.961069,189.519745 143.985065,188.034398 143.985065,188.034398 L117,188.034398 L117,238.465484 L130.563174,238.465484 L130.563174,226.29978 L142.289668,238.465484 L162.351863,238.465484 L146.598801,222.551046 Z M141.371328,212.224344 L130.563174,212.224344 L130.563174,200.695217 L141.44197,200.695217 C141.44197,200.695217 144.479555,201.826911 144.479555,206.424415 C144.479555,211.02192 141.371328,212.224344 141.371328,212.224344 Z M192.445155,188.388052 L178.670056,188.388052 C168.850883,188.388052 165.530731,197.300137 165.530731,201.543987 L165.530731,238.465484 L179.30583,238.465484 L179.30583,229.62413 L192.23323,229.62413 L192.23323,238.465484 L205.584479,238.465484 L205.584479,201.543987 C205.584479,190.7929 195.835948,188.388052 192.445155,188.388052 Z M192.23323,215.336501 L179.235188,215.336501 L179.235188,203.100066 C179.235188,203.100066 179.235188,200.341563 183.544322,200.341563 L188.277304,200.341563 C192.091947,200.341563 192.162588,203.100066 192.162588,203.100066 L192.162588,215.336501 L192.23323,215.336501 Z M211.897206,188.034398 L226.237437,188.034398 L226.237437,238.11183 L211.897206,238.11183 L211.897206,188.034398 Z M246.796623,225.168087 L266.081761,225.168087 L266.081761,238.11183 L246.796623,238.11183 L232.527034,238.11183 L232.527034,225.168087 L232.527034,188.034398 L246.796623,188.034398 L246.796623,225.168087 Z" id="Combined-Shape-Copy-9" stroke="#E1E4E8" fill="#FFFFFF" mask="url(#mask-2)"></path>
                    <path d="M74.7339073,244.109783 L74.7339073,249.930969 L85.2373563,249.930969 C87.3894391,249.930969 91.0833126,248.355068 91.2117952,243.948977 L91.2117952,241.69769 C91.2117952,237.934824 88.1282138,235.715698 85.2373563,235.715698 L80.0016921,235.715698 L80.0016921,233.014153 L90.3766586,233.014153 L90.3766586,227.160806 L80.4192605,227.160806 C77.8496093,227.160806 74.412701,229.283449 74.412701,233.239282 L74.412701,235.26544 C74.412701,239.221274 77.8174887,241.247432 80.4192605,241.247432 C87.6464042,241.279594 78.6847459,241.247432 85.3658389,241.247432 L85.3658389,244.077622 L74.7339073,244.109783 Z M18.4585478,242.694688 C18.4585478,242.694688 24.0796596,242.21227 24.0796596,234.943828 C24.0796596,227.675386 17.2700841,227 17.2700841,227 L5,227 L5,249.930969 L11.1671627,249.930969 L11.1671627,244.399234 L16.4991888,249.930969 L25.6214503,249.930969 L18.4585478,242.694688 Z M16.0816205,237.999146 L11.1671627,237.999146 L11.1671627,232.756863 L16.1137411,232.756863 C16.1137411,232.756863 17.4949286,233.271443 17.4949286,235.361924 C17.4949286,237.452405 16.0816205,237.999146 16.0816205,237.999146 Z M39.3048425,227.160806 L33.0413179,227.160806 C28.5765491,227.160806 27.066879,231.213123 27.066879,233.142798 L27.066879,249.930969 L33.3304036,249.930969 L33.3304036,245.910813 L39.2084806,245.910813 L39.2084806,249.930969 L45.2792814,249.930969 L45.2792814,233.142798 C45.2792814,228.254289 40.8466332,227.160806 39.3048425,227.160806 Z M39.2084806,239.414241 L33.298283,239.414241 L33.298283,233.850346 C33.298283,233.850346 33.298283,232.596057 35.257642,232.596057 L37.4097248,232.596057 C39.1442393,232.596057 39.1763599,233.850346 39.1763599,233.850346 L39.1763599,239.414241 L39.2084806,239.414241 Z M48.1496726,227 L54.6701623,227 L54.6701623,249.770163 L48.1496726,249.770163 L48.1496726,227 Z M64.0184053,243.884655 L72.7873398,243.884655 L72.7873398,249.770163 L64.0184053,249.770163 L57.5300362,249.770163 L57.5300362,243.884655 L57.5300362,227 L64.0184053,227 L64.0184053,243.884655 Z" id="Combined-Shape-Copy-3" stroke="#E1E4E8" fill="#FFFFFF" mask="url(#mask-2)"></path>
                    <path d="M121.733907,276.109783 L121.733907,281.930969 L132.237356,281.930969 C134.389439,281.930969 138.083313,280.355068 138.211795,275.948977 L138.211795,273.69769 C138.211795,269.934824 135.128214,267.715698 132.237356,267.715698 L127.001692,267.715698 L127.001692,265.014153 L137.376659,265.014153 L137.376659,259.160806 L127.41926,259.160806 C124.849609,259.160806 121.412701,261.283449 121.412701,265.239282 L121.412701,267.26544 C121.412701,271.221274 124.817489,273.247432 127.41926,273.247432 C134.646404,273.279594 125.684746,273.247432 132.365839,273.247432 L132.365839,276.077622 L121.733907,276.109783 Z M65.4585478,274.694688 C65.4585478,274.694688 71.0796596,274.21227 71.0796596,266.943828 C71.0796596,259.675386 64.2700841,259 64.2700841,259 L52,259 L52,281.930969 L58.1671627,281.930969 L58.1671627,276.399234 L63.4991888,281.930969 L72.6214503,281.930969 L65.4585478,274.694688 Z M63.0816205,269.999146 L58.1671627,269.999146 L58.1671627,264.756863 L63.1137411,264.756863 C63.1137411,264.756863 64.4949286,265.271443 64.4949286,267.361924 C64.4949286,269.452405 63.0816205,269.999146 63.0816205,269.999146 Z M86.3048425,259.160806 L80.0413179,259.160806 C75.5765491,259.160806 74.066879,263.213123 74.066879,265.142798 L74.066879,281.930969 L80.3304036,281.930969 L80.3304036,277.910813 L86.2084806,277.910813 L86.2084806,281.930969 L92.2792814,281.930969 L92.2792814,265.142798 C92.2792814,260.254289 87.8466332,259.160806 86.3048425,259.160806 Z M86.2084806,271.414241 L80.298283,271.414241 L80.298283,265.850346 C80.298283,265.850346 80.298283,264.596057 82.257642,264.596057 L84.4097248,264.596057 C86.1442393,264.596057 86.1763599,265.850346 86.1763599,265.850346 L86.1763599,271.414241 L86.2084806,271.414241 Z M95.1496726,259 L101.670162,259 L101.670162,281.770163 L95.1496726,281.770163 L95.1496726,259 Z M111.018405,275.884655 L119.78734,275.884655 L119.78734,281.770163 L111.018405,281.770163 L104.530036,281.770163 L104.530036,275.884655 L104.530036,259 L111.018405,259 L111.018405,275.884655 Z" id="Combined-Shape-Copy-4" stroke="#E1E4E8" fill="#FFFFFF" mask="url(#mask-2)"></path>
                    <path d="M148.140078,375.847588 L148.140078,387.379124 L168.94699,387.379124 C173.21018,387.379124 180.527595,384.257327 180.782114,375.529037 L180.782114,371.069327 C180.782114,363.615241 174.673663,359.219241 168.94699,359.219241 L158.575349,359.219241 L158.575349,353.867589 L179.127742,353.867589 L179.127742,342.272343 L159.402535,342.272343 C154.312159,342.272343 147.503781,346.477213 147.503781,354.31356 L147.503781,358.327299 C147.503781,366.163647 154.248529,370.177385 159.402535,370.177385 C173.719218,370.241096 155.966531,370.177385 169.201509,370.177385 L169.201509,375.783878 L148.140078,375.847588 Z M36.6608442,373.044342 C36.6608442,373.044342 47.7960417,372.08869 47.7960417,357.690198 C47.7960417,343.291706 34.3065453,341.953793 34.3065453,341.953793 L10,341.953793 L10,387.379124 L22.2169024,387.379124 L22.2169024,376.420979 L32.7794325,387.379124 L50.8502673,387.379124 L36.6608442,373.044342 Z M31.9522464,363.742661 L22.2169024,363.742661 L22.2169024,353.357908 L32.0158761,353.357908 C32.0158761,353.357908 34.7519532,354.37727 34.7519532,358.518429 C34.7519532,362.659589 31.9522464,363.742661 31.9522464,363.742661 Z M77.9565194,342.272343 L65.5487279,342.272343 C56.7041997,342.272343 53.7136038,350.299821 53.7136038,354.12243 L53.7136038,387.379124 L66.1213952,387.379124 L66.1213952,379.415356 L77.7656303,379.415356 L77.7656303,387.379124 L89.7916435,387.379124 L89.7916435,354.12243 C89.7916435,344.438488 81.010745,342.272343 77.9565194,342.272343 Z M77.7656303,366.545907 L66.0577655,366.545907 L66.0577655,355.524053 C66.0577655,355.524053 66.0577655,353.039357 69.9391772,353.039357 L74.2023671,353.039357 C77.6383709,353.039357 77.7020006,355.524053 77.7020006,355.524053 L77.7020006,366.545907 L77.7656303,366.545907 Z M95.4777737,341.953793 L108.394603,341.953793 L108.394603,387.060573 L95.4777737,387.060573 L95.4777737,341.953793 Z M126.913098,375.401617 L144.284006,375.401617 L144.284006,387.060573 L126.913098,387.060573 L114.059898,387.060573 L114.059898,375.401617 L114.059898,341.953793 L126.913098,341.953793 L126.913098,375.401617 Z" id="Combined-Shape-Copy-2" stroke="#E1E4E8" fill="#FFFFFF" mask="url(#mask-2)"></path>
                    <path d="M196.233307,455.662042 L196.233307,471.208262 L224.284109,471.208262 C230.031521,471.208262 239.896482,466.999617 240.239612,455.232589 L240.239612,449.220238 C240.239612,439.171024 232.004514,433.244565 224.284109,433.244565 L210.301599,433.244565 L210.301599,426.029745 L238.009273,426.029745 L238.009273,410.397634 L211.416769,410.397634 C204.554187,410.397634 195.375485,416.066421 195.375485,426.63098 L195.375485,432.042095 C195.375485,442.606653 204.468405,448.017768 211.416769,448.017768 C230.71778,448.103659 206.784526,448.017768 224.627238,448.017768 L224.627238,455.576151 L196.233307,455.662042 Z M45.9427709,451.882851 C45.9427709,451.882851 60.9546681,450.59449 60.9546681,431.183188 C60.9546681,411.771886 42.768827,409.96818 42.768827,409.96818 L10,409.96818 L10,471.208262 L26.4701958,471.208262 L26.4701958,456.435059 L40.7100525,471.208262 L65.0722171,471.208262 L45.9427709,451.882851 Z M39.594883,439.342806 L26.4701958,439.342806 L26.4701958,425.342619 L39.6806653,425.342619 C39.6806653,425.342619 43.3693029,426.71687 43.3693029,432.299767 C43.3693029,437.882664 39.594883,439.342806 39.594883,439.342806 Z M101.615464,410.397634 L84.8879213,410.397634 C72.9641859,410.397634 68.9324192,421.219864 68.9324192,426.373307 L68.9324192,471.208262 L85.6599618,471.208262 L85.6599618,460.471922 L101.358117,460.471922 L101.358117,471.208262 L117.570966,471.208262 L117.570966,426.373307 C117.570966,413.317918 105.733013,410.397634 101.615464,410.397634 Z M101.358117,443.121997 L85.5741795,443.121997 L85.5741795,428.262903 C85.5741795,428.262903 85.5741795,424.913165 90.8068979,424.913165 L96.55431,424.913165 C101.186553,424.913165 101.272335,428.262903 101.272335,428.262903 L101.272335,443.121997 L101.358117,443.121997 Z M125.236713,409.96818 L142.650513,409.96818 L142.650513,470.778808 L125.236713,470.778808 L125.236713,409.96818 Z M167.61619,455.060807 L191.03475,455.060807 L191.03475,470.778808 L167.61619,470.778808 L150.288172,470.778808 L150.288172,455.060807 L150.288172,409.96818 L167.61619,409.96818 L167.61619,455.060807 Z" id="Combined-Shape-Copy-5" stroke="#E1E4E8" fill="#FFFFFF" mask="url(#mask-2)"></path>
                    <path d="M120.726998,531.167773 L120.726998,540.410943 L137.404902,540.410943 C140.822087,540.410943 146.687404,537.908648 146.891416,530.912436 L146.891416,527.337729 C146.891416,521.362862 141.99515,517.839223 137.404902,517.839223 L129.091451,517.839223 L129.091451,513.549574 L145.565344,513.549574 L145.565344,504.255336 L129.754487,504.255336 C125.674266,504.255336 120.216971,507.625774 120.216971,513.907045 L120.216971,517.124281 C120.216971,523.405552 125.623263,526.622788 129.754487,526.622788 C141.230109,526.673855 127.000338,526.622788 137.608913,526.622788 L137.608913,531.116705 L120.726998,531.167773 Z M31.3701576,528.920814 C31.3701576,528.920814 40.2956411,528.154805 40.2956411,516.613609 C40.2956411,505.072412 29.4830554,504 29.4830554,504 L10,504 L10,540.410943 L19.7925305,540.410943 L19.7925305,531.627378 L28.2589891,540.410943 L42.7437738,540.410943 L31.3701576,528.920814 Z M27.5959532,521.464997 L19.7925305,521.464997 L19.7925305,513.141036 L27.6469559,513.141036 C27.6469559,513.141036 29.8400748,513.958112 29.8400748,517.277483 C29.8400748,520.596854 27.5959532,521.464997 27.5959532,521.464997 Z M64.4709507,504.255336 L54.525412,504.255336 C47.4360279,504.255336 45.0388981,510.689809 45.0388981,513.753843 L45.0388981,540.410943 L54.9844368,540.410943 L54.9844368,534.027538 L64.3179424,534.027538 L64.3179424,540.410943 L73.9574646,540.410943 L73.9574646,513.753843 C73.9574646,505.991622 66.9190833,504.255336 64.4709507,504.255336 Z M64.3179424,523.711955 L54.9334341,523.711955 L54.9334341,514.877322 C54.9334341,514.877322 54.9334341,512.8857 58.0446026,512.8857 L61.4617877,512.8857 C64.2159369,512.8857 64.2669397,514.877322 64.2669397,514.877322 L64.2669397,523.711955 L64.3179424,523.711955 Z M78.5152159,504 L88.8687768,504 L88.8687768,540.155607 L78.5152159,540.155607 L78.5152159,504 Z M103.712386,530.810302 L117.63614,530.810302 L117.63614,540.155607 L103.712386,540.155607 L93.4098281,540.155607 L93.4098281,530.810302 L93.4098281,504 L103.712386,504 L103.712386,530.810302 Z" id="Combined-Shape-Copy-6" stroke="#E1E4E8" fill="#FFFFFF" mask="url(#mask-2)"></path>
                    <path d="M346.216166,452.011306 L346.216166,466.892515 L373.067057,466.892515 C378.568616,466.892515 388.01159,462.863901 388.340041,451.600223 L388.340041,445.845059 C388.340041,436.225714 380.45721,430.552767 373.067057,430.552767 L359.682668,430.552767 L359.682668,423.64657 L386.205108,423.64657 L386.205108,408.683145 L360.750135,408.683145 C354.181109,408.683145 345.395038,414.109442 345.395038,424.222087 L345.395038,429.401734 C345.395038,439.514379 354.098996,444.694026 360.750135,444.694026 C379.225518,444.776243 356.316042,444.694026 373.395508,444.694026 L373.395508,451.929089 L346.216166,452.011306 Z M202.354512,448.393775 C202.354512,448.393775 216.724255,447.160525 216.724255,428.579568 C216.724255,409.998611 199.316338,408.272062 199.316338,408.272062 L167.949242,408.272062 L167.949242,466.892515 L183.714903,466.892515 L183.714903,452.751256 L197.34563,466.892515 L220.66567,466.892515 L202.354512,448.393775 Z M196.278163,436.390147 L183.714903,436.390147 L183.714903,422.988837 L196.360276,422.988837 C196.360276,422.988837 199.891127,424.304303 199.891127,429.648384 C199.891127,434.992465 196.278163,436.390147 196.278163,436.390147 Z M255.64573,408.683145 L239.63373,408.683145 C228.220049,408.683145 224.360747,419.042439 224.360747,423.975437 L224.360747,466.892515 L240.372746,466.892515 L240.372746,456.615437 L255.399391,456.615437 L255.399391,466.892515 L270.918714,466.892515 L270.918714,423.975437 C270.918714,411.47851 259.587145,408.683145 255.64573,408.683145 Z M255.399391,440.007679 L240.290633,440.007679 L240.290633,425.784203 C240.290633,425.784203 240.290633,422.577754 245.299515,422.577754 L250.801074,422.577754 C255.235166,422.577754 255.317278,425.784203 255.317278,425.784203 L255.317278,440.007679 L255.399391,440.007679 Z M278.256547,408.272062 L294.925449,408.272062 L294.925449,466.481432 L278.256547,466.481432 L278.256547,408.272062 Z M318.823185,451.43579 L341.239984,451.43579 L341.239984,466.481432 L318.823185,466.481432 L302.236396,466.481432 L302.236396,451.43579 L302.236396,408.272062 L318.823185,408.272062 L318.823185,451.43579 Z" id="Combined-Shape-Copy-7" stroke="#E1E4E8" fill="#FFFFFF" transform="translate(278.144641, 437.582288) rotate(-90.000000) translate(-278.144641, -437.582288) "></path>
                </g>
            </g>
        </g>
    </g>
</svg>
