<?xml version="1.0" encoding="UTF-8"?>
<svg width="24px" height="22px" viewBox="0 0 24 22" version="1.1" xmlns="http://www.w3.org/2000/svg" xmlns:xlink="http://www.w3.org/1999/xlink">
    <!-- Generator: Sketch 45.2 (43514) - http://www.bohemiancoding.com/sketch -->
    <title>Group 2</title>
    <desc>Created with Sketch.</desc>
    <defs></defs>
    <g id="redesing-v6" stroke="none" stroke-width="1" fill="none" fill-rule="evenodd">
        <g id="desktop_services_react" transform="translate(-157.000000, -1464.000000)" fill-rule="nonzero" fill="#61DAFB">
            <g id="Group-2" transform="translate(156.065244, 1463.815556)">
                <path d="M24.5834495,11.6044885 C24.5834495,10.0271618 22.6275983,8.53234147 19.6289468,7.60535873 C20.3209433,4.51865178 20.0133893,2.0628755 18.6582295,1.27663883 C18.34587,1.09221294 17.9806497,1.00485331 17.5817906,1.00485331 L17.5817906,2.08714207 C17.802845,2.08714207 17.9806497,2.13082188 18.1296211,2.2133282 C18.7831734,2.5918866 19.0666997,4.0333205 18.8456453,5.88728599 C18.7927844,6.3434974 18.7062849,6.82397536 18.6005632,7.31415996 C17.6586791,7.08120094 16.6302954,6.90162837 15.5490509,6.78514886 C14.9003042,5.88728599 14.2275298,5.07192944 13.5499499,4.35849246 C15.1165531,2.88793868 16.5870456,2.08228876 17.5865961,2.08228876 L17.5865961,1 C16.265075,1 14.5350838,1.95124931 12.7858705,3.60137566 C11.0366571,1.96095594 9.30666592,1.01941325 7.98514486,1.01941325 L7.98514486,2.10170201 C8.9798898,2.10170201 10.4551879,2.90249862 12.021791,4.36334577 C11.3490167,5.07678276 10.6762423,5.88728599 10.0371067,6.78514886 C8.95105662,6.90162837 7.92267295,7.08120094 6.98078884,7.31901327 C6.87026163,6.83368199 6.7885676,6.36291065 6.73090122,5.91155256 C6.50504126,4.05758707 6.78376207,2.61615316 7.43250877,2.23274145 C7.57667471,2.14538182 7.76409042,2.10655532 7.98514486,2.10655532 L7.98514486,1.02426656 C7.58148024,1.02426656 7.21625987,1.11162619 6.89909482,1.29605208 C5.54874056,2.08228876 5.2459921,4.53321172 5.94279412,7.61021204 C2.95375374,8.5420481 1.00751362,10.0320151 1.00751362,11.6044885 C1.00751362,13.1818151 2.9633648,14.6766355 5.96201624,15.6036182 C5.27001975,18.6903252 5.57757375,21.1461014 6.93273353,21.9323381 C7.24509306,22.116764 7.61031343,22.2041236 8.01397804,22.2041236 C9.33549911,22.2041236 11.0654903,21.2528743 12.8147037,19.602748 C14.563917,21.2431677 16.2939082,22.1847104 17.6154293,22.1847104 C18.0190939,22.1847104 18.3843143,22.0973508 18.7014793,21.9129249 C20.0518336,21.1266882 20.354582,18.6757652 19.65778,15.5987649 C22.6372093,14.6717822 24.5834495,13.1769618 24.5834495,11.6044885 Z M18.3266479,8.36732884 C18.1488432,8.99340619 17.9277888,9.63889679 17.6779012,10.2843874 C17.4808744,9.89612237 17.2742366,9.50785735 17.0483766,9.11959232 C16.8273222,8.7313273 16.5918512,8.3527689 16.3563801,7.98391713 C17.0387655,8.08583669 17.6971233,8.21202283 18.3266479,8.36732884 Z M16.1257146,13.536107 C15.7508832,14.1913042 15.3664407,14.8125282 14.9675816,15.3900725 C14.2515575,15.4531655 13.5259223,15.4871387 12.7954815,15.4871387 C12.0698463,15.4871387 11.3442111,15.4531655 10.6329925,15.3949258 C10.2341334,14.8173816 9.84488541,14.2010108 9.47005398,13.5506669 C9.10483361,12.9148829 8.77325197,12.2693923 8.4705035,11.6190484 C8.76844643,10.9687045 9.10483361,10.3183606 9.46524845,9.68257661 C9.84007988,9.02737938 10.2245224,8.40615534 10.6233815,7.82861112 C11.3394056,7.76551805 12.0650408,7.73154486 12.7954815,7.73154486 C13.5211167,7.73154486 14.2467519,7.76551805 14.9579706,7.8237578 C15.3568296,8.40130203 15.7460777,9.01767275 16.1209091,9.66801667 C16.4861295,10.3038006 16.8177111,10.9492912 17.1204596,11.5996352 C16.8177111,12.2499791 16.4861295,12.900323 16.1257146,13.536107 Z M17.6779012,12.9051763 C17.9373999,13.5555202 18.1584543,14.2058641 18.3410645,14.8367948 C17.7115399,14.9921008 17.0483766,15.1231403 16.3611857,15.2250598 C16.5966567,14.8513547 16.8321277,14.467943 17.0531821,14.0748247 C17.2742366,13.6865597 17.4808744,13.2934413 17.6779012,12.9051763 Z M12.8050926,18.0836611 C12.3581782,17.617743 11.9112638,17.0984386 11.4691549,16.530601 C11.9016527,16.5500142 12.3437616,16.5645742 12.790676,16.5645742 C13.2423959,16.5645742 13.6893103,16.5548675 14.1266137,16.530601 C13.6941159,17.0984386 13.2472015,17.617743 12.8050926,18.0836611 Z M9.22977742,15.2250598 C8.547392,15.1231403 7.88903423,14.9969541 7.25950965,14.8416481 C7.4373143,14.2155708 7.65836874,13.5700802 7.90825636,12.9245896 C8.10528313,13.3128546 8.31192097,13.7011196 8.53778094,14.0893846 C8.7636409,14.4776497 8.9943064,14.8562081 9.22977742,15.2250598 Z M12.7810649,5.12531588 C13.2279793,5.59123391 13.6748937,6.11053838 14.1170026,6.67837598 C13.6845048,6.65896273 13.2423959,6.64440279 12.7954815,6.64440279 C12.3437616,6.64440279 11.8968472,6.65410942 11.4595439,6.67837598 C11.8920417,6.11053838 12.3389561,5.59123391 12.7810649,5.12531588 Z M9.22497189,7.98391713 C8.98950087,8.35762221 8.75402984,8.74103392 8.53297541,9.13415226 C8.31192097,9.52241728 8.10528313,9.91068231 7.90825636,10.2989473 C7.64875768,9.64860342 7.42770324,8.9982595 7.24509306,8.36732884 C7.87461764,8.21687614 8.53778094,8.08583669 9.22497189,7.98391713 Z M4.8759662,14.0602648 C3.17480817,13.3274145 2.07434154,12.3664586 2.07434154,11.6044885 C2.07434154,10.8425184 3.17480817,9.87670912 4.8759662,9.1487122 C5.28924188,8.96913962 5.74096181,8.8089803 6.20709833,8.6585276 C6.4810136,9.60977691 6.84142844,10.5998527 7.28834284,11.6141951 C6.84623397,12.6236842 6.49062467,13.6089067 6.22151492,14.5553027 C5.74576734,14.40485 5.29404741,14.2398373 4.8759662,14.0602648 Z M7.46134196,20.9956488 C6.80778972,20.6170904 6.52426339,19.1756565 6.74531782,17.321691 C6.79817866,16.8654796 6.88467822,16.3850016 6.99039991,15.894817 C7.93228401,16.127776 8.96066768,16.3073486 10.0419122,16.4238281 C10.6906589,17.321691 11.3634333,18.1370475 12.0410131,18.8504845 C10.47441,20.3210383 9.00391746,21.1266882 8.00436698,21.1266882 C7.78811808,21.1218349 7.60550789,21.0781551 7.46134196,20.9956488 Z M18.8600619,17.2974244 C19.0859218,19.1513899 18.807201,20.5928238 18.1584543,20.9762355 C18.0142884,21.0635951 17.8268727,21.1024216 17.6058182,21.1024216 C16.6110733,21.1024216 15.1357752,20.301625 13.5691721,18.8407779 C14.2419464,18.1273409 14.9147208,17.3168376 15.5538564,16.4189748 C16.6399065,16.3024953 17.6682901,16.1229227 18.6101742,15.8851104 C18.7207015,16.375295 18.807201,16.8460663 18.8600619,17.2974244 Z M20.7101914,14.0602648 C20.2969157,14.2398373 19.8451957,14.3999967 19.3790592,14.5504493 C19.1051439,13.5992 18.7447291,12.6091242 18.2978147,11.5947819 C18.7399236,10.5852928 19.0955329,9.60007029 19.3646426,8.65367429 C19.8403902,8.80412699 20.2921101,8.96913962 20.7149969,9.1487122 C22.4161549,9.88156243 23.5166215,10.8425184 23.5166215,11.6044885 C23.511816,12.3664586 22.4113494,13.3322678 20.7101914,14.0602648 Z" ></path>
                <ellipse id="Oval" cx="12.790676" cy="11.6044885" rx="2.19612774" ry="2.21796395"></ellipse>
            </g>
        </g>
    </g>
</svg>