<?xml version="1.0" encoding="UTF-8"?>
<svg width="24px" height="21px" viewBox="0 0 24 21" version="1.1" xmlns="http://www.w3.org/2000/svg" xmlns:xlink="http://www.w3.org/1999/xlink">
    <!-- Generator: Sketch 45.2 (43514) - http://www.bohemiancoding.com/sketch -->
    <title>React-icon Copy</title>
    <desc>Created with Sketch.</desc>
    <defs></defs>
    <g id="redesing-v6" stroke="none" stroke-width="1" fill="none" fill-rule="evenodd">
        <g id="desktop_services_react_native" transform="translate(-157.000000, -1509.000000)" fill-rule="nonzero" fill="#122689">
            <g id="how" transform="translate(0.000000, 1332.000000)">
                <g id="viñetas" transform="translate(157.000000, 133.000000)">
                    <g id="React-icon-Copy" transform="translate(0.000000, 44.000000)">
                        <path d="M23.9658537,10.5 C23.9658537,8.9382151 21.9804878,7.45812357 18.9365854,6.5402746 C19.6390244,3.48398169 19.3268293,1.05240275 17.9512195,0.273913043 C17.6341463,0.0913043478 17.2634146,0.00480549199 16.8585366,0.00480549199 L16.8585366,1.07643021 C17.0829268,1.07643021 17.2634146,1.11967963 17.4146341,1.201373 C18.0780488,1.57620137 18.3658537,3.00343249 18.1414634,4.83913043 C18.0878049,5.29084668 18,5.76659039 17.8926829,6.25194508 C16.9365854,6.02128146 15.8926829,5.84347826 14.795122,5.72814645 C14.1365854,4.83913043 13.4536585,4.03180778 12.7658537,3.32540046 C14.3560976,1.86933638 15.8487805,1.07162471 16.8634146,1.07162471 L16.8634146,0 C16.8634146,0 16.8634146,0 16.8634146,0 C15.5219512,0 13.7658537,0.94187643 11.9902439,2.57574371 C10.2146341,0.951487414 8.45853659,0.019221968 7.11707317,0.019221968 L7.11707317,1.09084668 C8.12682927,1.09084668 9.62439024,1.88375286 11.2146341,3.33020595 C10.5317073,4.03661327 9.84878049,4.83913043 9.2,5.72814645 C8.09756098,5.84347826 7.05365854,6.02128146 6.09756098,6.25675057 C5.98536585,5.77620137 5.90243902,5.31006865 5.84390244,4.86315789 C5.61463415,3.02745995 5.89756098,1.60022883 6.55609756,1.22059497 C6.70243902,1.13409611 6.89268293,1.09565217 7.11707317,1.09565217 L7.11707317,0.02402746 C7.11707317,0.02402746 7.11707317,0.02402746 7.11707317,0.02402746 C6.70731707,0.02402746 6.33658537,0.110526316 6.01463415,0.293135011 C4.64390244,1.07162471 4.33658537,3.49839817 5.04390244,6.54508009 C2.0097561,7.46773455 0.0341463415,8.94302059 0.0341463415,10.5 C0.0341463415,12.0617849 2.0195122,13.5418764 5.06341463,14.4597254 C4.36097561,17.5160183 4.67317073,19.9475973 6.04878049,20.726087 C6.36585366,20.9086957 6.73658537,20.9951945 7.14634146,20.9951945 C8.48780488,20.9951945 10.2439024,20.0533181 12.0195122,18.4194508 C13.795122,20.0437071 15.5512195,20.9759725 16.8926829,20.9759725 C17.302439,20.9759725 17.6731707,20.8894737 17.995122,20.706865 C19.3658537,19.9283753 19.6731707,17.5016018 18.9658537,14.4549199 C21.9902439,13.5370709 23.9658537,12.0569794 23.9658537,10.5 Z M17.6146341,7.29473684 C17.4341463,7.91464531 17.2097561,8.55377574 16.9560976,9.19290618 C16.7560976,8.80846682 16.5463415,8.42402746 16.3170732,8.0395881 C16.0926829,7.65514874 15.8536585,7.28032037 15.6146341,6.91510297 C16.3073171,7.01601831 16.9756098,7.1409611 17.6146341,7.29473684 Z M15.3804878,12.4125858 C15,13.0613272 14.6097561,13.6764302 14.204878,14.2482838 C13.4780488,14.3107551 12.7414634,14.3443936 12,14.3443936 C11.2634146,14.3443936 10.5268293,14.3107551 9.80487805,14.2530892 C9.4,13.6812357 9.00487805,13.0709382 8.62439024,12.4270023 C8.25365854,11.7974828 7.91707317,11.1583524 7.6097561,10.5144165 C7.91219512,9.87048055 8.25365854,9.22654462 8.6195122,8.59702517 C9,7.94828375 9.3902439,7.33318078 9.79512195,6.76132723 C10.5219512,6.69885584 11.2585366,6.66521739 12,6.66521739 C12.7365854,6.66521739 13.4731707,6.69885584 14.195122,6.75652174 C14.6,7.32837529 14.995122,7.93867277 15.3756098,8.5826087 C15.7463415,9.21212815 16.0829268,9.85125858 16.3902439,10.4951945 C16.0829268,11.1391304 15.7463415,11.7830664 15.3804878,12.4125858 Z M16.9560976,11.7878719 C17.2195122,12.4318078 17.4439024,13.0757437 17.6292683,13.7004577 C16.9902439,13.8542334 16.3170732,13.9839817 15.6195122,14.084897 C15.8585366,13.7148741 16.097561,13.3352403 16.3219512,12.9459954 C16.5463415,12.5615561 16.7560976,12.1723112 16.9560976,11.7878719 Z M12.0097561,16.9153318 C11.5560976,16.4540046 11.102439,15.9398169 10.6536585,15.3775744 C11.0926829,15.3967963 11.5414634,15.4112128 11.995122,15.4112128 C12.4536585,15.4112128 12.9073171,15.4016018 13.3512195,15.3775744 C12.9121951,15.9398169 12.4585366,16.4540046 12.0097561,16.9153318 Z M8.3804878,14.084897 C7.68780488,13.9839817 7.0195122,13.8590389 6.3804878,13.7052632 C6.56097561,13.0853547 6.78536585,12.4462243 7.03902439,11.8070938 C7.23902439,12.1915332 7.44878049,12.5759725 7.67804878,12.9604119 C7.90731707,13.3448513 8.14146341,13.7196796 8.3804878,14.084897 Z M11.9853659,4.08466819 C12.4390244,4.54599542 12.8926829,5.06018307 13.3414634,5.62242563 C12.902439,5.60320366 12.4536585,5.58878719 12,5.58878719 C11.5414634,5.58878719 11.0878049,5.59839817 10.6439024,5.62242563 C11.0829268,5.06018307 11.5365854,4.54599542 11.9853659,4.08466819 Z M8.37560976,6.91510297 C8.13658537,7.28512586 7.89756098,7.66475973 7.67317073,8.05400458 C7.44878049,8.43844394 7.23902439,8.8228833 7.03902439,9.20732265 C6.77560976,8.56338673 6.55121951,7.9194508 6.36585366,7.29473684 C7.00487805,7.14576659 7.67804878,7.01601831 8.37560976,6.91510297 Z M3.96097561,12.9315789 C2.23414634,12.2059497 1.11707317,11.2544622 1.11707317,10.5 C1.11707317,9.74553776 2.23414634,8.78924485 3.96097561,8.06842105 C4.3804878,7.89061785 4.83902439,7.73203661 5.31219512,7.58306636 C5.5902439,8.52494279 5.95609756,9.50526316 6.4097561,10.509611 C5.96097561,11.5091533 5.6,12.4846682 5.32682927,13.4217391 C4.84390244,13.2727689 4.38536585,13.1093822 3.96097561,12.9315789 Z M6.58536585,19.798627 C5.92195122,19.4237986 5.63414634,17.9965675 5.85853659,16.1608696 C5.91219512,15.7091533 6,15.2334096 6.10731707,14.7480549 C7.06341463,14.9787185 8.10731707,15.1565217 9.20487805,15.2718535 C9.86341463,16.1608696 10.5463415,16.9681922 11.2341463,17.6745995 C9.64390244,19.1306636 8.15121951,19.9283753 7.13658537,19.9283753 C6.91707317,19.9235698 6.73170732,19.8803204 6.58536585,19.798627 Z M18.1560976,16.1368421 C18.3853659,17.97254 18.102439,19.3997712 17.4439024,19.779405 C17.297561,19.8659039 17.1073171,19.9043478 16.8829268,19.9043478 C15.8731707,19.9043478 14.3756098,19.1114416 12.7853659,17.6649886 C13.4682927,16.9585812 14.1512195,16.1560641 14.8,15.2670481 C15.902439,15.1517162 16.9463415,14.973913 17.902439,14.7384439 C18.0146341,15.2237986 18.102439,15.6899314 18.1560976,16.1368421 Z M20.0341463,12.9315789 C19.6146341,13.1093822 19.1560976,13.2679634 18.6829268,13.4169336 C18.404878,12.4750572 18.0390244,11.4947368 17.5853659,10.490389 C18.0341463,9.49084668 18.395122,8.51533181 18.6682927,7.57826087 C19.1512195,7.72723112 19.6097561,7.89061785 20.0390244,8.06842105 C21.7658537,8.79405034 22.8829268,9.74553776 22.8829268,10.5 C22.8780488,11.2544622 21.7609756,12.2107551 20.0341463,12.9315789 Z" ></path>
                        <ellipse id="Oval" cx="11.995122" cy="10.5" rx="2.22926829" ry="2.19610984"></ellipse>
                    </g>
                </g>
            </g>
        </g>
    </g>
</svg>