<?xml version="1.0" encoding="UTF-8"?>
<svg width="25px" height="16px" viewBox="0 0 25 16" version="1.1" xmlns="http://www.w3.org/2000/svg" xmlns:xlink="http://www.w3.org/1999/xlink">
    <!-- Generator: Sketch 45.2 (43514) - http://www.bohemiancoding.com/sketch -->
    <title>Group 3</title>
    <desc>Created with Sketch.</desc>
    <defs></defs>
    <g id="redesing-v6" stroke="none" stroke-width="1" fill="none" fill-rule="evenodd">
        <g id="desktop_services_rails" transform="translate(-156.000000, -1467.000000)" fill="#CC0000">
            <g id="how" transform="translate(0.000000, 1332.000000)">
                <g id="viñetas" transform="translate(156.000000, 135.000000)">
                    <g id="Group-3">
                        <path d="M0.769230769,15.9009524 L9.43958819,15.9009524 C9.43958819,15.9009524 7.78234266,8.02666667 13.2699106,4.83809524 C14.4662005,4.23238095 18.2745726,1.96952381 24.5084499,6.76952381 C24.7060023,6.59809524 24.8925796,6.46095238 24.8925796,6.46095238 C24.8925796,6.46095238 19.1855089,0.52952381 12.8309052,1.19238095 C9.6261655,1.48952381 5.69706682,4.51809524 3.39228827,8.51809524 C1.08750971,12.5180952 0.769230769,15.9009524 0.769230769,15.9009524 Z M18.8343046,1.83238095 L18.8782051,1.06666667 C18.7794289,1.00952381 18.5050505,0.872380952 17.8136169,0.666666667 L17.7697164,1.42095238 C18.1318959,1.54666667 18.4831002,1.68380952 18.8343046,1.83238095 Z" ></path>
                        <path d="M17.7906954,4.26285714 L17.7467949,4.98285714 C18.1089744,4.99428571 18.4711538,5.04 18.8333333,5.12 L18.8772339,4.41142857 C18.5040793,4.33142857 18.1418998,4.28571429 17.7906954,4.26285714 Z M13.7298951,0.697142857 L13.8396465,0.697142857 L13.6201437,0 C13.2799145,0 12.9287102,0.0228571429 12.5665307,0.0685714286 L12.7750583,0.742857143 C13.0933372,0.708571429 13.4116162,0.697142857 13.7298951,0.697142857 Z M14.2567016,4.90285714 L14.5091298,5.69142857 C14.8274087,5.53142857 15.1456876,5.39428571 15.4639666,5.29142857 L15.2225136,4.53714286 C14.849359,4.65142857 14.53108,4.77714286 14.2567016,4.90285714 Z M9.2739899,1.89714286 L8.78010878,1.10857143 C8.50573038,1.25714286 8.22037685,1.41714286 7.92404817,1.6 L8.42890443,2.4 C8.71425796,2.21714286 8.98863636,2.04571429 9.2739899,1.89714286 Z M11.5238928,7.04 L12.0506993,7.86285714 C12.2372766,7.57714286 12.4567793,7.31428571 12.6982323,7.05142857 L12.2043512,6.27428571 C11.9519231,6.51428571 11.7214452,6.77714286 11.5238928,7.04 Z M9.93249806,10.72 L10.8214841,11.4514286 C10.8653846,11.0057143 10.9422106,10.56 11.0519619,10.1142857 L10.2617521,9.46285714 C10.1190754,9.88571429 10.0202991,10.3085714 9.93249806,10.72 Z M5.1253885,5.29142857 L4.34615385,4.58285714 C4.06080031,4.86857143 3.78642191,5.15428571 3.53399378,5.44 L4.37907925,6.19428571 C4.60955711,5.88571429 4.86198524,5.57714286 5.1253885,5.29142857 Z M1.81089744,10.4 L0.548756799,9.92 C0.340229215,10.4114286 0.10975136,10.9828571 0,11.2914286 L1.26214064,11.7714286 C1.4048174,11.3828571 1.63529526,10.8228571 1.81089744,10.4 Z M9.76787102,13.6228571 C9.78982129,14.2285714 9.84469697,14.72 9.89957265,15.0628571 L11.216589,15.5542857 C11.1178127,15.1085714 11.0190365,14.6057143 10.9531857,14.0685714 L9.76787102,13.6228571 Z" ></path>
                    </g>
                </g>
            </g>
        </g>
    </g>
</svg>