<svg xmlns="http://www.w3.org/2000/svg" width="34" height="34" viewBox="0 0 34 34">
    <g fill="#0FAFD3" fill-rule="evenodd">
        <path d="M14.679 14.02a.52.52 0 0 0-.734.02l-2.342 2.486a.521.521 0 0 0 0 .714l2.342 2.487a.517.517 0 0 0 .734.022.521.521 0 0 0 .021-.736l-2.005-2.13 2.005-2.128a.523.523 0 0 0-.021-.736zM21.97 16.528l-2.342-2.487a.52.52 0 0 0-.755.714l2.005 2.13-2.006 2.128a.522.522 0 0 0 .378.878.518.518 0 0 0 .378-.163l2.342-2.486a.522.522 0 0 0 0-.714zM17.444 13.892a.52.52 0 0 0-.627.383l-1.187 4.907a.521.521 0 0 0 .505.644.52.52 0 0 0 .504-.398l1.188-4.908a.52.52 0 0 0-.383-.628z"/>
        <path d="M12 0h10a4 4 0 0 1 4 4v26a4 4 0 0 1-4 4H12a4 4 0 0 1-4-4V4a4 4 0 0 1 4-4zM9.385 4.857v23.939h15.23V4.857H9.385zm7.442 28.102a1.56 1.56 0 0 0 1.558-1.561 1.56 1.56 0 0 0-1.558-1.561 1.56 1.56 0 0 0-1.558 1.561 1.56 1.56 0 0 0 1.558 1.561zM14.232 2.082a.347.347 0 1 0 0 .694h3.806a.347.347 0 1 0 0-.694h-3.806zm5.191.694a.347.347 0 1 0 0-.694.347.347 0 0 0 0 .694z"/>
    </g>
</svg>
