<?xml version="1.0" encoding="UTF-8"?>
<svg width="43px" height="16px" viewBox="0 0 43 16" version="1.1" xmlns="http://www.w3.org/2000/svg" xmlns:xlink="http://www.w3.org/1999/xlink">
    <!-- Generator: Sketch 46 (44423) - http://www.bohemiancoding.com/sketch -->
    <title>logo_aws</title>
    <desc>Created with Sketch.</desc>
    <defs></defs>
    <g id="redesing-v6" stroke="none" stroke-width="1" fill="none" fill-rule="evenodd">
        <g id="desktop_ourwork" transform="translate(-834.000000, -1990.000000)">
            <g id="yummly" transform="translate(151.000000, 1447.000000)">
                <g id="text" transform="translate(580.000000, 0.000000)">
                    <g id="logo_aws" transform="translate(103.000000, 543.000000)">
                        <g id="cubs" fill-rule="nonzero" fill="#F68D11">
                            <polyline id="path14" transform="translate(10.490917, 3.302752) scale(-1, 1) rotate(-180.000000) translate(-10.490917, -3.302752) " points="11.7141306 1.10091743 9.26470588 1.9266055 9.26470588 5.50458716 11.717128 4.7706422 11.7141306 1.10091743"></polyline>
                            <polyline id="path16" transform="translate(13.579152, 3.302752) scale(-1, 1) rotate(-180.000000) translate(-13.579152, -3.302752) " points="12.3529412 4.7706422 14.8053633 5.50458716 14.7968253 1.92908257 12.3529412 1.10091743 12.3529412 4.7706422"></polyline>
                            <polyline id="path18" transform="translate(12.035035, 0.662569) scale(-1, 1) rotate(-180.000000) translate(-12.035035, -0.662569) " points="14.3057958 0.611651376 12.0201384 1.32513761 9.76427336 0.611651376 12.0234083 -2.84217094e-14 14.3057958 0.611651376"></polyline>
                            <polyline id="path20" transform="translate(16.667388, 3.302752) scale(-1, 1) rotate(-180.000000) translate(-16.667388, -3.302752) " points="17.8906012 1.10091743 15.4411765 1.9266055 15.4411765 5.50458716 17.8935986 4.7706422 17.8906012 1.10091743"></polyline>
                            <polyline id="path22" transform="translate(19.755623, 3.302752) scale(-1, 1) rotate(-180.000000) translate(-19.755623, -3.302752) " points="18.5294118 4.7706422 20.9818339 5.50458716 20.9732958 1.92908257 18.5294118 1.10091743 18.5294118 4.7706422"></polyline>
                            <polyline id="path24" transform="translate(18.211505, 0.662569) scale(-1, 1) rotate(-180.000000) translate(-18.211505, -0.662569) " points="20.4822664 0.611651376 18.196609 1.32513761 15.9407439 0.611651376 18.1998789 -2.84217094e-14 20.4822664 0.611651376"></polyline>
                            <polyline id="path26" transform="translate(1.226211, 8.532110) scale(-1, 1) rotate(-180.000000) translate(-1.226211, -8.532110) " points="2.45242215 10 -1.0658141e-14 10.733945 -1.0658141e-14 7.1559633 2.44944291 6.33027523 2.45242215 10"></polyline>
                            <polyline id="path28" transform="translate(4.314446, 8.532110) scale(-1, 1) rotate(-180.000000) translate(-4.314446, -8.532110) " points="3.08823529 10 5.54065744 10.733945 5.53214663 7.15836697 3.08823529 6.33027523 3.08823529 10"></polyline>
                            <polyline id="path30" transform="translate(2.770329, 5.891927) scale(-1, 1) rotate(-180.000000) translate(-2.770329, -5.891927) " points="5.04108997 5.84100917 2.75542344 6.55449541 0.499567474 5.84100917 2.75872967 5.2293578 5.04108997 5.84100917"></polyline>
                            <polyline id="path32" transform="translate(7.402682, 8.532110) scale(-1, 1) rotate(-180.000000) translate(-7.402682, -8.532110) " points="8.62591349 6.33027523 6.17647059 7.1559633 6.17647059 10.733945 8.62889273 10 8.62591349 6.33027523"></polyline>
                            <polyline id="path34" transform="translate(10.490917, 8.532110) scale(-1, 1) rotate(-180.000000) translate(-10.490917, -8.532110) " points="9.26470588 10 11.717128 10.733945 11.70859 7.15836697 9.26470588 6.33027523 9.26470588 10"></polyline>
                            <polyline id="path36" transform="translate(8.946799, 5.891927) scale(-1, 1) rotate(-180.000000) translate(-8.946799, -5.891927) " points="11.2175606 5.84100917 8.93189403 6.55449541 6.67603806 5.84100917 8.93520026 5.2293578 11.2175606 5.84100917"></polyline>
                            <polyline id="path38" transform="translate(4.314446, 13.761468) scale(-1, 1) rotate(-180.000000) translate(-4.314446, -13.761468) " points="5.5376782 11.559633 3.08823529 12.3853211 3.08823529 15.9633028 5.54065744 15.2293578 5.5376782 11.559633"></polyline>
                            <polyline id="path40" transform="translate(7.402682, 13.761468) scale(-1, 1) rotate(-180.000000) translate(-7.402682, -13.761468) " points="6.17647059 15.2293578 8.62889273 15.9633028 8.62038192 12.387722 6.17647059 11.559633 6.17647059 15.2293578"></polyline>
                            <polyline id="path42" transform="translate(5.858564, 11.121289) scale(-1, 1) rotate(-180.000000) translate(-5.858564, -11.121289) " points="8.12932526 11.0703761 5.84365874 11.7838624 3.58780277 11.0703761 5.84696497 10.4587156 8.12932526 11.0703761"></polyline>
                        </g>
                        <g id="letter" transform="translate(13.000000, 6.000000)" fill="#100F0D">
                            <path d="M3.67481436,9.93702981 L3.49065594,9.93638167 C3.42308168,9.93638167 3.33694307,9.89084463 3.3157797,9.81702056 L2.7570854,7.85358537 L2.20451733,9.81275204 C2.18790223,9.8741687 2.12988861,9.93638167 2.0509901,9.93638167 L1.83295173,9.93638167 C1.7544245,9.93638167 1.69715347,9.87333537 1.68128094,9.81148352 L1.16723391,7.87268722 L0.636107673,9.81749278 C0.61512995,9.88860389 0.526856436,9.93638167 0.457611386,9.93638167 L0.192605198,9.93684463 C0.135983911,9.93684463 0.0833539604,9.91257611 0.0551361386,9.87352056 C0.0360148515,9.84703907 0.0307240099,9.81702056 0.0395420792,9.79090944 L0.860086634,6.89315667 C0.878186881,6.83221213 0.931095297,6.77083333 1.00850866,6.77083333 L1.2720297,6.77083333 C1.34322401,6.77083333 1.40560025,6.8225912 1.42360767,6.89601407 L1.92865099,8.82627981 L2.47824876,6.89380759 C2.49477104,6.83463546 2.54795792,6.77083333 2.62574257,6.77083333 L2.88499381,6.77083333 C2.95711634,6.77083333 3.01782178,6.82081889 3.03564356,6.8940613 L3.82546411,9.789715 C3.83474629,9.81760389 3.82936262,9.84859463 3.8105198,9.874715 C3.78276609,9.91315944 3.73078589,9.93702981 3.67481436,9.93702981" id="path44" fill-rule="nonzero" transform="translate(1.932655, 8.353932) scale(-1, 1) rotate(-180.000000) translate(-1.932655, -8.353932) "></path>
                            <path d="M5.95340347,8.68175259 L4.56126238,8.68175259 C4.59328589,9.07147481 4.84696782,9.47554889 5.27673267,9.49110444 C5.73406559,9.4762063 5.94328589,9.08138222 5.95340347,8.68175259 Z M5.27571163,9.93276185 C4.33533416,9.93276185 3.90705446,9.10344704 3.90705446,8.33297481 C3.90705446,7.37138593 4.4394802,6.75011111 5.26345916,6.75011111 C5.85315594,6.75011111 6.30269183,7.04731185 6.496875,7.56658963 C6.50727104,7.59628407 6.50402228,7.62851093 6.48777847,7.65741 C6.46800743,7.69249333 6.43050743,7.71896556 6.38613861,7.72869704 L6.12512376,7.77850259 C6.05504332,7.78946556 5.97475248,7.74804889 5.94820545,7.68797481 C5.82141089,7.39945259 5.59028465,7.23575167 5.30021658,7.22721648 C5.02110149,7.23582481 4.76482054,7.40122481 4.64740099,7.64833593 C4.5519802,7.85018778 4.53787129,8.04916 4.53629332,8.25148407 L6.42623762,8.25213222 C6.46587252,8.25213222 6.50689975,8.26953037 6.53586015,8.29879889 C6.56008663,8.32306741 6.57326733,8.35322481 6.57298886,8.38342852 C6.56834777,9.13249333 6.22518564,9.93276185 5.27571163,9.93276185 L5.27571163,9.93276185 Z" id="path46" fill-rule="nonzero" transform="translate(5.240024, 8.341436) scale(-1, 1) rotate(-180.000000) translate(-5.240024, -8.341436) "></path>
                            <path d="M8.89808168,7.30982324 C8.89808168,7.13241583 8.86587252,6.24656306 8.23496287,6.22388528 C8.02351485,6.23195102 7.80983911,6.35593806 7.6904703,6.53924269 C7.60256807,6.6778788 7.55123762,6.8695362 7.53805693,7.10666583 L7.53805693,7.62786028 C7.54836015,8.0271288 7.83007426,8.46527694 8.23292079,8.48223991 C8.86596535,8.45732324 8.89808168,7.50130472 8.89808168,7.30982324 Z M8.33391089,8.94111954 L8.28387995,8.94111954 C7.9717203,8.94111954 7.72639233,8.81177694 7.53805693,8.54665657 L7.53777847,9.76823065 C7.53777847,9.83684176 7.4667698,9.89934176 7.3883354,9.89934176 L7.11655322,9.89934176 C7.04554455,9.89934176 6.96608911,9.84323991 6.96590347,9.76823065 L6.96590347,5.95489639 C6.96618193,5.8856325 7.03719059,5.82269917 7.11553218,5.82269917 L7.19535891,5.8231325 C7.2707302,5.8231325 7.32438119,5.88371583 7.34248144,5.93999454 L7.42750619,6.20916398 C7.62503094,5.9293612 7.92252475,5.76500926 8.24090347,5.76500926 L8.2896349,5.76500926 C9.1282797,5.76500926 9.50365099,6.57870287 9.50365099,7.38509176 C9.50365099,7.78648991 9.4044245,8.1702862 9.23149752,8.43804546 C9.03165223,8.7483325 8.6876547,8.94111954 8.33391089,8.94111954 L8.33391089,8.94111954 Z" id="path48" fill-rule="nonzero" transform="translate(8.234777, 7.832176) scale(-1, 1) rotate(-180.000000) translate(-8.234777, -7.832176) "></path>
                            <path d="M12.4796101,8.41955704 C12.3028775,8.5462237 12.0904084,8.58853852 11.8775681,8.63093667 L11.4694307,8.70641815 C11.176578,8.75444593 11.0070854,8.83278852 11.0070854,9.0905663 C11.0070854,9.3630663 11.2901918,9.46723296 11.530229,9.47370519 C11.8233601,9.46632556 12.0438119,9.33586259 12.1508354,9.10640889 C12.1762686,9.05233481 12.2326114,9.01595519 12.2911819,9.01595519 C12.3012067,9.01595519 12.3114171,9.01707556 12.3210705,9.01916815 L12.5757735,9.07530704 C12.6173577,9.08445519 12.6561572,9.11288111 12.6769493,9.14985333 C12.6935644,9.17918667 12.6971844,9.2112237 12.6872525,9.23983481 C12.5314047,9.69270519 12.1357054,9.93203852 11.5370978,9.93203852 C10.9962252,9.93084407 10.418224,9.69093667 10.418224,9.02087185 C10.418224,8.56289963 10.7067141,8.2720663 11.2762686,8.15632556 L11.7331374,8.06948296 C11.9839418,8.02159407 12.2404084,7.93641815 12.2404084,7.66778852 C12.2404084,7.27011074 11.7764851,7.22956537 11.6362314,7.22667185 C11.3215656,7.23343574 10.9653156,7.37344593 10.8788057,7.66992741 C10.861448,7.73510333 10.7792079,7.78121444 10.7070854,7.76624222 L10.4406869,7.71140889 C10.4005879,7.70298296 10.3639233,7.6769737 10.3425743,7.64185611 C10.3246597,7.612595 10.3195545,7.57982648 10.3278156,7.54991444 C10.4652847,7.05798019 10.9413676,6.76132213 11.6013304,6.75633074 L11.6159963,6.75622222 C12.2054146,6.75622222 12.8352104,7.007995 12.8352104,7.71427 C12.8352104,8.00177 12.7055384,8.25882556 12.4796101,8.41955704" id="path50" fill-rule="nonzero" transform="translate(11.579590, 8.344130) scale(-1, 1) rotate(-180.000000) translate(-11.579590, -8.344130) "></path>
                            <path d="M15.1740408,8.68409926 L13.7815285,8.68409926 C13.8133663,9.07418259 14.0670483,9.47844185 14.4968131,9.49327519 C14.9539604,9.47880296 15.1634592,9.08402519 15.1740408,8.68409926 Z M14.4960705,9.9352937 C13.5555074,9.9352937 13.1271349,9.10594185 13.1271349,8.33550667 C13.1271349,7.37398907 13.6596535,6.75278704 14.4837252,6.75278704 C15.0735149,6.75278704 15.5230507,7.05002333 15.7174196,7.5691937 C15.7277228,7.59892426 15.724474,7.63122333 15.7081374,7.66019185 C15.6883663,7.69531222 15.6507735,7.7217937 15.6064975,7.73134 L15.3451114,7.78114556 C15.2839418,7.79105296 15.1986386,7.75947889 15.1685644,7.69050667 C15.041677,7.402165 14.8104579,7.23846407 14.5206683,7.22956685 C14.2412748,7.23846407 13.9850866,7.40382889 13.8681312,7.65086315 C13.7725248,7.85224741 13.758323,8.05139556 13.7569307,8.25420111 L15.6466894,8.25466407 C15.6860458,8.25466407 15.7267946,8.27196037 15.755755,8.30103444 C15.7800743,8.32541407 15.793255,8.35558074 15.7929765,8.38596037 C15.7886139,9.13495111 15.4457302,9.9352937 14.4960705,9.9352937 L14.4960705,9.9352937 Z" id="path52" fill-rule="nonzero" transform="translate(14.460058, 8.344040) scale(-1, 1) rotate(-180.000000) translate(-14.460058, -8.344040) "></path>
                            <path d="M17.5775681,9.91743028 C17.5407178,9.92147657 17.5052599,9.92343028 17.470823,9.92343028 C17.153651,9.92343028 16.8960705,9.75141176 16.7172958,9.42278213 L16.7179455,9.71057843 C16.7176671,9.78027287 16.6479579,9.84150435 16.5687809,9.84150435 L16.3327351,9.84150435 C16.2553218,9.84150435 16.187005,9.78002287 16.186448,9.70945806 L16.1860767,6.91380991 C16.1860767,6.84364231 16.2543936,6.7820463 16.3323639,6.7820463 L16.6077661,6.78215481 C16.6794245,6.78215481 16.7600866,6.8382525 16.7607364,6.91380991 L16.760922,8.32324509 C16.760922,8.55566176 16.7826423,8.73075435 16.8939356,8.9379025 C17.0529394,9.23296731 17.2749691,9.37771731 17.5727413,9.38003213 C17.64737,9.38056917 17.7129022,9.44556917 17.7129022,9.51917102 L17.7129022,9.78067102 C17.7129022,9.8491062 17.6534035,9.90918028 17.5775681,9.91743028" id="path54" fill-rule="nonzero" transform="translate(16.949489, 8.352738) scale(-1, 1) rotate(-180.000000) translate(-16.949489, -8.352738) "></path>
                            <path d="M20.4690594,9.92176213 L20.251578,9.92166028 C20.1834468,9.92166028 20.0961015,9.87286398 20.0749381,9.80128991 L19.3699567,7.5910362 L18.6500309,9.79907694 C18.6287748,9.87239176 18.5412438,9.92166028 18.4727413,9.92166028 L18.1621597,9.92194731 C18.1051671,9.92194731 18.0500309,9.89659546 18.0218131,9.85741954 C18.0028775,9.83119731 17.9976795,9.80146583 18.0070545,9.77372509 L18.9923577,6.85807139 C19.0112933,6.80038157 19.0615099,6.73296296 19.1409653,6.73296296 L19.5168007,6.73296296 C19.5857673,6.73296296 19.6422958,6.77980176 19.6681931,6.85832509 L20.6238861,9.77278065 C20.6334468,9.80045657 20.6283416,9.83028991 20.6094988,9.8565862 C20.5810953,9.89612324 20.526052,9.92176213 20.4690594,9.92176213" id="path56" fill-rule="nonzero" transform="translate(19.315548, 8.327455) scale(-1, 1) rotate(-180.000000) translate(-19.315548, -8.327455) "></path>
                            <path d="M21.1836015,6.06589815 C20.9832921,6.06589815 20.8203899,5.90296296 20.8203899,5.70247222 C20.8203899,5.50202778 20.9832921,5.33915741 21.1836015,5.33915741 C21.3840037,5.33915741 21.5470916,5.50202778 21.5470916,5.70247222 C21.5470916,5.90296296 21.3840037,6.06589815 21.1836015,6.06589815" id="path58" fill-rule="nonzero" transform="translate(21.320390, 5.839157) scale(-1, 1) rotate(-180.000000) translate(-21.320390, -5.839157) "></path>
                            <path d="M21.3331374,9.9569158 L21.034901,9.95721209 C20.9537748,9.95721209 20.8798886,9.89173987 20.8798886,9.81998061 L20.8784035,6.85155839 C20.8784035,6.81564265 20.8969678,6.77997978 20.9290842,6.75350404 C20.9585087,6.72945172 20.9961015,6.71556279 21.03388,6.71556279 L21.3342512,6.71509259 L21.3344369,6.71509259 C21.4167698,6.71581597 21.489078,6.77950959 21.489078,6.85137691 L21.489078,9.81998061 C21.489078,9.89293431 21.41612,9.9569158 21.3331374,9.9569158" id="path60" fill-rule="nonzero" transform="translate(21.378403, 8.336152) scale(-1, 1) rotate(-180.000000) translate(-21.378403, -8.336152) "></path>
                            <path d="M24.120297,7.95963602 L23.8712562,7.95869157 C23.8017327,7.95869157 23.7434406,7.91702491 23.7175433,7.84465454 C23.626578,7.45316009 23.4205136,7.2502888 23.1080755,7.24131843 C22.4995359,7.25936657 22.4522896,8.10546935 22.4522896,8.3643675 C22.4522896,8.88064528 22.6315285,9.43778417 23.1319307,9.45250639 C23.4339728,9.44324713 23.6536819,9.22721009 23.7195854,8.87518231 C23.7320235,8.80334898 23.7873453,8.74898787 23.8629022,8.73954343 L24.1293936,8.73694157 C24.2090347,8.74555269 24.2715037,8.8056638 24.2709468,8.88021009 C24.1766399,9.51638602 23.7347153,9.92758972 23.1440903,9.92758972 L23.1236696,9.92704343 L23.1005569,9.92758972 C22.2415842,9.92758972 21.8570235,9.12789528 21.8570235,8.33539528 C21.8570235,7.60879528 22.18125,6.76037963 23.0957302,6.76037963 L23.1395421,6.76037963 C23.7154084,6.76037963 24.1500928,7.16304898 24.2745668,7.81593231 C24.2773515,7.84704343 24.2665842,7.87814528 24.2444926,7.90343231 C24.2159035,7.93620083 24.170328,7.95721009 24.120297,7.95963602" id="path62" fill-rule="nonzero" transform="translate(23.066011, 8.343985) scale(-1, 1) rotate(-180.000000) translate(-23.066011, -8.343985) "></path>
                            <path d="M26.5798886,8.68409926 L25.1871906,8.68409926 C25.2190285,9.0742937 25.4728032,9.47844185 25.9028465,9.49327519 C26.3600866,9.47880296 26.5694926,9.08402519 26.5798886,8.68409926 Z M25.9019183,9.9352937 C24.961448,9.9352937 24.5331683,9.10594185 24.5331683,8.33550667 C24.5331683,7.37398907 25.0656869,6.75278704 25.8897587,6.75278704 C26.4792698,6.75278704 26.92862,7.04984278 27.1231745,7.56908444 C27.1332921,7.59899648 27.1299505,7.63140389 27.1137067,7.66019185 C27.0936572,7.69557148 27.0571782,7.72143259 27.0121597,7.73134 L26.7511448,7.78114556 C26.6896968,7.79105296 26.604672,7.75947889 26.5745978,7.69050667 C26.4473391,7.402165 26.2160272,7.23846407 25.9263304,7.22945852 C25.6470297,7.23846407 25.3909344,7.40382889 25.273979,7.65086315 C25.1782797,7.8525437 25.164078,8.05169185 25.1625928,8.25420111 L27.0525371,8.25448815 C27.0922649,8.25448815 27.1332921,8.27196037 27.1623453,8.30132148 C27.186479,8.32584926 27.199474,8.35605296 27.1990099,8.38596037 C27.1946473,9.13495111 26.8516708,9.9352937 25.9019183,9.9352937 L25.9019183,9.9352937 Z" id="path64" fill-rule="nonzero" transform="translate(25.866095, 8.344040) scale(-1, 1) rotate(-180.000000) translate(-25.866095, -8.344040) "></path>
                            <path d="M29.5666151,8.41955704 C29.389604,8.54633481 29.1768564,8.58861259 28.9643874,8.63093667 L28.55625,8.70641815 C28.2636757,8.75444593 28.094276,8.83278852 28.094276,9.0905663 C28.094276,9.44205704 28.5315594,9.47142741 28.6168626,9.47370519 C28.9102723,9.46632556 29.130724,9.33586259 29.2375619,9.10629778 C29.2631807,9.05223296 29.3197092,9.01595519 29.3783725,9.01595519 C29.3884901,9.01595519 29.3986077,9.01707556 29.4084468,9.01916815 L29.6629641,9.07530704 C29.7045483,9.08445519 29.743255,9.11299222 29.764047,9.14991815 C29.7805693,9.17928852 29.7841894,9.2112237 29.7742574,9.23983481 C29.6185953,9.69270519 29.2228032,9.93203852 28.6239171,9.93203852 C28.0832302,9.93084407 27.5054146,9.69093667 27.5054146,9.02087185 C27.5054146,8.56278852 27.7938119,8.27195519 28.3632735,8.15632556 L28.820328,8.06948296 C29.0711324,8.02159407 29.327599,7.93641815 29.327599,7.66778852 C29.327599,7.27011074 28.8636757,7.22956537 28.723422,7.22667185 C28.4316832,7.23289315 28.0582611,7.35308296 27.9660891,7.66955704 C27.9491955,7.73510333 27.8670483,7.78114037 27.7936262,7.76624222 L27.5276918,7.71140889 C27.4874072,7.70287185 27.4506498,7.67668667 27.4293007,7.64149407 C27.4115718,7.61216167 27.4064666,7.579645 27.4148205,7.54991444 C27.5519183,7.05798019 28.0279084,6.76132213 28.6879641,6.75633074 L28.70263,6.75622222 C29.2921411,6.75622222 29.9220297,7.007995 29.9220297,7.71427 C29.9220297,8.00195519 29.7924505,8.25907556 29.5666151,8.41955704" id="path66" fill-rule="nonzero" transform="translate(28.666468, 8.344130) scale(-1, 1) rotate(-180.000000) translate(-28.666468, -8.344130) "></path>
                            <path d="M17.4426052,4.24248589 L17.4426052,4.91655997 C17.4429765,5.01878219 17.5207611,5.0873933 17.6141399,5.08730071 L20.6415223,5.0873933 C20.7381498,5.0873933 20.81612,5.01711552 20.81612,4.91730071 L20.81612,4.33924515 C20.8151918,4.24248589 20.7332302,4.11596737 20.5880569,3.91505071 L19.0200186,1.68165256 C19.6018255,1.69543034 20.2177908,1.60852293 20.7465037,1.31200441 C20.8659653,1.24517108 20.8977104,1.14599515 20.9074567,1.04917108 L20.9074567,0.329911818 C20.9074567,0.230735892 20.7986696,0.116115522 20.6844988,0.175828485 C19.7526609,0.662847003 18.5159963,0.71601367 17.485396,0.170189596 C17.380229,0.114161818 17.2699567,0.22701367 17.2699567,0.326189596 L17.2699567,1.00963404 C17.2699567,1.11868034 17.2721844,1.30600441 17.3825495,1.472847 L19.1995359,4.07268034 L17.6177599,4.07304145 C17.5209468,4.07304145 17.4435334,4.14176367 17.4426052,4.24248589" id="path68" transform="translate(19.088707, 2.621336) scale(-1, 1) rotate(-180.000000) translate(-19.088707, -2.621336) "></path>
                            <path d="M6.39959777,0.0687962963 L5.47834158,0.0687962963 C5.39081064,0.0745092593 5.3207302,0.14037037 5.31376856,0.224361111 L5.31441832,4.93989815 C5.31441832,5.03425 5.39405941,5.10962037 5.49207921,5.10962037 L6.3498453,5.11008333 C6.43969678,5.10508333 6.51154084,5.03749074 6.51766708,4.95175 L6.51766708,4.33561111 L6.53474629,4.33561111 C6.7580755,4.93128704 7.17939356,5.20869444 7.7467203,5.20869444 C8.32267946,5.20869444 8.68384901,4.93128704 8.94180074,4.33561111 C9.16550124,4.93128704 9.67258663,5.20869444 10.2146658,5.20869444 C10.601547,5.20869444 11.0223082,5.05017593 11.2802599,4.69313889 C11.5725557,4.29600926 11.5123144,3.72085185 11.5123144,3.21455556 L11.5117574,0.238685185 C11.5117574,0.144601852 11.4322092,0.0687962963 11.3342822,0.0687962963 L10.4144183,0.0687962963 C10.3217822,0.0745092593 10.2489171,0.148222222 10.2489171,0.23825 L10.2489171,2.73832407 C10.2489171,2.93666667 10.2659035,3.43301852 10.2230198,3.62138889 C10.1540532,3.9392037 9.94761757,4.028 9.68149752,4.028 C9.45770421,4.028 9.22546411,3.87915741 9.13087871,3.64152778 C9.03638614,3.403 9.04511139,3.00611111 9.04511139,2.73832407 L9.04511139,0.238685185 C9.04511139,0.144601852 8.96556312,0.0687962963 8.8674505,0.0687962963 L7.94740099,0.0687962963 C7.85522896,0.0745092593 7.78217822,0.148222222 7.78217822,0.23825 L7.78097153,2.73832407 C7.78097153,3.26428704 7.86720297,4.03794444 7.21392327,4.03794444 C6.55191832,4.03794444 6.57772277,3.284 6.57772277,2.73832407 L6.57716584,0.238685185 C6.57753713,0.144601852 6.49789604,0.0687962963 6.39959777,0.0687962963" id="path70" transform="translate(8.415608, 2.638745) scale(-1, 1) rotate(-180.000000) translate(-8.415608, -2.638745) "></path>
                            <path d="M23.4309097,4.34559259 C22.7513614,4.34559259 22.7085705,3.42285185 22.7085705,2.84711111 C22.7085705,2.2717037 22.7000309,1.04137963 23.4225557,1.04137963 C24.1362624,1.04137963 24.1705136,2.03367593 24.1705136,2.63888889 C24.1705136,3.03573148 24.1535272,3.51189815 24.0331374,3.889 C23.9296411,4.21658333 23.7234839,4.34559259 23.4309097,4.34559259 L23.4309097,4.34559259 Z M23.4225557,5.30775926 C24.7894493,5.30775926 25.5289604,4.13700926 25.5289604,2.64912963 C25.5289604,1.21 24.7118502,0.0687962963 23.4225557,0.0687962963 C22.0811881,0.0687962963 21.3502166,1.23987037 21.3502166,2.6985 C21.3502166,4.16702778 22.0894493,5.30775926 23.4225557,5.30775926 L23.4225557,5.30775926 Z" id="path72" transform="translate(23.439588, 2.688278) scale(-1, 1) rotate(-180.000000) translate(-23.439588, -2.688278) "></path>
                            <path d="M27.3018564,0.0687962963 L26.3841275,0.0687962963 C26.291677,0.0745092593 26.2188119,0.148222222 26.2188119,0.23825 L26.2175124,4.95591667 C26.2251238,5.04184259 26.3016089,5.10962037 26.3940594,5.10962037 L27.2486696,5.11008333 C27.3292389,5.10563889 27.395328,5.05100926 27.4122215,4.9779537 L27.4122215,4.25640741 L27.429672,4.25640741 C27.6872525,4.90147222 28.0486077,5.20869444 28.6845297,5.20869444 C29.0973082,5.20869444 29.5016399,5.06026852 29.7594059,4.65332407 C30,4.27640741 30,3.64152778 30,3.18500926 L30,0.217490741 C29.9896968,0.133861111 29.9149752,0.0687962963 29.8240099,0.0687962963 L28.9002475,0.0687962963 C28.8150371,0.0743333333 28.7465347,0.13712037 28.7362314,0.217490741 L28.7362314,2.778 C28.7362314,3.29394444 28.7965656,4.04825 28.1600866,4.04825 C27.9366646,4.04825 27.7306002,3.89905556 27.6272896,3.67112037 C27.4981745,3.38346296 27.4810953,3.09574074 27.4810953,2.778 L27.4810953,0.238685185 C27.4795173,0.144601852 27.3998762,0.0687962963 27.3018564,0.0687962963" id="path74" transform="translate(28.108756, 2.638745) scale(-1, 1) rotate(-180.000000) translate(-28.108756, -2.638745) "></path>
                            <path d="M15.957828,0.0995277778 C15.8967512,0.0451666667 15.8093131,0.0415462963 15.7404394,0.0781481481 C15.4345916,0.331768519 15.3796411,0.449351852 15.2124691,0.690564815 C14.7068688,0.176861111 14.3488552,0.0227777778 13.6941832,0.0227777778 C12.9184715,0.0227777778 12.3155012,0.500175926 12.3155012,1.45481481 C12.3155012,2.20043519 12.720297,2.70763889 13.2975557,2.95640741 C13.7973082,3.17523148 14.495328,3.21508333 15.0294245,3.27494444 L15.0294245,3.39412037 C15.0294245,3.61276852 15.0465965,3.87144444 14.917203,4.06028704 C14.8055384,4.22934259 14.590099,4.29878704 14.4002785,4.29878704 C14.048948,4.29878704 13.7367884,4.11912963 13.6599319,3.7469537 C13.6443379,3.66430556 13.5834468,3.5822037 13.5,3.57822222 L12.6075186,3.67468519 C12.5319616,3.69161111 12.4483292,3.75173148 12.4701423,3.86649074 C12.6752785,4.94702778 13.6532488,5.27350926 14.5297649,5.27350926 C14.9775371,5.27350926 15.5637067,5.15425 15.9169864,4.81619444 C16.3648515,4.39835185 16.3216894,3.84153704 16.3216894,3.23487037 L16.3216894,1.80351852 C16.3216894,1.37296296 16.5011139,1.18398148 16.669771,0.951925926 C16.7281559,0.868231481 16.7413366,0.769055556 16.6663366,0.707675926 C16.4782797,0.550444444 16.1440285,0.261092593 15.9603342,0.0975 L15.957828,0.0995277778 L15.957828,0.0995277778 Z M15.0294245,2.33990741 C15.0294245,1.98183333 15.0379641,1.68322222 14.8569616,1.36525926 C14.7104889,1.10647222 14.4776918,0.947509259 14.2191832,0.947509259 C13.8662748,0.947509259 13.6595606,1.21591667 13.6595606,1.61388889 C13.6595606,2.39622222 14.3633354,2.53865741 15.0294245,2.53865741 L15.0294245,2.33990741 L15.0294245,2.33990741 Z" id="path76" transform="translate(14.516820, 2.648144) scale(-1, 1) rotate(-180.000000) translate(-14.516820, -2.648144) "></path>
                            <path d="M3.88412748,0.0995277778 C3.82323639,0.0451666667 3.73514851,0.0415462963 3.66627475,0.0781481481 C3.36042698,0.331768519 3.30566213,0.449351852 3.13830446,0.690564815 C2.63298267,0.176861111 2.27478342,0.0227777778 1.6197401,0.0227777778 C0.844306931,0.0227777778 0.24115099,0.500175926 0.24115099,1.45481481 C0.24115099,2.20043519 0.646318069,2.70763889 1.22357673,2.95640741 C1.72342203,3.17523148 2.42134901,3.21508333 2.95544554,3.27494444 L2.95544554,3.39412037 C2.95544554,3.61276852 2.97280322,3.87144444 2.84340965,4.06028704 C2.73146658,4.22934259 2.51584158,4.29878704 2.32657797,4.29878704 C1.97524752,4.29878704 1.66271658,4.11912963 1.58613861,3.7469537 C1.57017327,3.66430556 1.50956064,3.5822037 1.42620668,3.57822222 L0.53335396,3.67468519 C0.457982673,3.69161111 0.374257426,3.75173148 0.395884901,3.86649074 C0.60102104,4.94702778 1.57908416,5.27350926 2.45550743,5.27350926 C2.90383663,5.27350926 3.48954208,5.15425 3.8429146,4.81619444 C4.29096535,4.39835185 4.2477104,3.84153704 4.2477104,3.23487037 L4.2477104,1.80351852 C4.2477104,1.37296296 4.42722772,1.18398148 4.59542079,0.951925926 C4.65408416,0.868231481 4.66735767,0.769055556 4.59254332,0.707675926 C4.40430074,0.550444444 4.06986386,0.261092593 3.88626238,0.0975 L3.88412748,0.0995277778 Z M2.95544554,2.33990741 C2.95544554,1.98183333 2.96389233,1.68322222 2.78326114,1.36525926 C2.63688119,1.10647222 2.40389851,0.947509259 2.14576114,0.947509259 C1.79211015,0.947509259 1.58548886,1.21591667 1.58548886,1.61388889 C1.58548886,2.39622222 2.28907797,2.53865741 2.95544554,2.53865741 L2.95544554,2.33990741 L2.95544554,2.33990741 Z" id="path78" transform="translate(2.442631, 2.648144) scale(-1, 1) rotate(-180.000000) translate(-2.442631, -2.648144) "></path>
                        </g>
                    </g>
                </g>
            </g>
        </g>
    </g>
</svg>