<?xml version="1.0" encoding="UTF-8"?>
<svg width="146px" height="209px" viewBox="0 0 146 209" version="1.1" xmlns="http://www.w3.org/2000/svg" xmlns:xlink="http://www.w3.org/1999/xlink">
    <!-- Generator: Sketch 45.2 (43514) - http://www.bohemiancoding.com/sketch -->
    <title>icon_iphone_contour</title>
    <desc>Created with Sketch.</desc>
    <defs></defs>
    <g id="redesing-v6" stroke="none" stroke-width="1" fill="none" fill-rule="evenodd" opacity="0.7">
        <g id="Artboard-Copy" transform="translate(-2.000000, -2.000000)" stroke-width="1.5" stroke="#0FAFD3">
            <g id="Group">
                <g id="icon_iphone_contour" transform="translate(75.256284, 106.576359) rotate(-14.000000) translate(-75.256284, -106.576359) translate(21.756284, 10.076359)">
                    <path d="M39.5571751,79.4871595 C38.3244412,78.3733727 36.3916614,78.4302386 35.2283198,79.6067739 L21.4233331,93.6546048 C20.3089743,94.7880004 20.3069333,96.558686 21.4233331,97.6940425 L35.2283198,111.749717 C35.8304001,112.363476 36.6426983,112.673297 37.4570374,112.673297 C38.210148,112.673297 38.9652995,112.406616 39.5571751,111.871292 C40.7858271,110.757506 40.8429737,108.894658 39.681673,107.714201 L27.8604898,95.6762846 L39.681673,83.6481725 C40.8388918,82.4637936 40.7858271,80.6029071 39.5571751,79.4871595 Z" id="Path"></path>
                    <path d="M82.54343,93.66566 L68.7343614,79.6099855 C67.5771427,78.4295284 65.63824,78.3726626 64.409588,79.4884102 C63.1768542,80.6021969 63.1217485,82.4650444 64.2810082,83.6455014 L76.1042323,95.683418 L64.2810082,107.71153 C63.1217485,108.893948 63.1768542,110.754835 64.4075471,111.870582 C64.9994226,112.405906 65.7545742,112.672587 66.5076848,112.672587 C67.3199829,112.672587 68.1322811,112.362766 68.7343614,111.750968 L82.54343,97.7031368 C83.6557479,96.5717021 83.6557479,94.7990556 82.54343,93.66566 Z" id="Path"></path>
                    <path d="M55.8608471,78.7675983 C54.2097184,78.3930679 52.5647126,79.3558659 52.1646864,80.9324231 L45.1642274,108.669242 C44.7682831,110.249721 45.7765124,111.838043 47.4194773,112.222378 C47.6623504,112.277283 47.9031825,112.304736 48.1419736,112.304736 C49.5236969,112.304736 50.7768403,111.402725 51.115638,110.057553 L58.116097,82.3207347 C58.5140823,80.7402557 57.5058529,79.1519331 55.8608471,78.7675983 Z" id="Path"></path>
                    <path d="M9.17729706,1.00113774 C4.62094787,1.00113774 0.92729706,4.69478856 0.92729706,9.25113774 L0.92729706,183.418563 C0.92729706,187.974912 4.62094787,191.668563 9.17729706,191.668563 L97.3067043,191.668563 C101.863054,191.668563 105.556704,187.974912 105.556704,183.418563 L105.556704,9.25113774 C105.556704,4.69478856 101.863054,1.00113774 97.3067043,1.00113774 L9.17729706,1.00113774 Z M7.59109762,163.755181 L7.59109762,26.953627 L98.8929038,26.953627 L98.8929038,163.755181 L7.59109762,163.755181 Z M52.2215256,187.285886 C46.7415426,187.285886 42.28725,183.006317 42.28725,177.711872 C42.28725,172.417427 46.7415426,168.137858 52.2215256,168.137858 C57.7015087,168.137858 62.1558013,172.417427 62.1558013,177.711872 C62.1558013,183.006317 57.7015087,187.285886 52.2215256,187.285886 Z M36.8343415,11.2664903 L59.4449092,11.2664903 C60.9420935,11.2664903 62.1558013,12.480198 62.1558013,13.9773824 C62.1558013,15.4745667 60.9420935,16.6882745 59.4449092,16.6882745 L36.8343415,16.6882745 C35.3371572,16.6882745 34.1234494,15.4745667 34.1234494,13.9773824 C34.1234494,12.480198 35.3371572,11.2664903 36.8343415,11.2664903 Z M67.5286517,16.6882745 C65.9938184,16.6882745 64.7377015,15.4814299 64.7377015,13.9773824 C64.7377015,12.4733349 65.9938184,11.2664903 67.5286517,11.2664903 C69.063485,11.2664903 70.3196018,12.4733349 70.3196018,13.9773824 C70.3196018,15.4814299 69.063485,16.6882745 67.5286517,16.6882745 Z" ></path>
                </g>
            </g>
        </g>
    </g>
</svg>