<?xml version="1.0" encoding="UTF-8"?>
<svg width="21px" height="20px" viewBox="0 0 21 20" version="1.1" xmlns="http://www.w3.org/2000/svg" xmlns:xlink="http://www.w3.org/1999/xlink">
    <!-- Generator: Sketch 46.1 (44463) - http://www.bohemiancoding.com/sketch -->
    <title>logo_js_label</title>
    <desc>Created with Sketch.</desc>
    <defs></defs>
    <g id="redesing-v6" stroke="none" stroke-width="1" fill="none" fill-rule="evenodd">
        <g id="Artboard-2" transform="translate(-315.000000, -123.000000)">
            <g id="logo_js_label" transform="translate(315.000000, 123.000000)">
                <g id="logo_js">
                    <rect id="Rectangle-2" fill="#FFFFFF" x="0" y="0" width="21" height="20"></rect>
                    <path d="M-2.84217094e-14,20 L-2.84217094e-14,0 L20.9746518,0.0052673163 C21.0243155,0.147484856 20.9856882,2.15959968 20.9856882,2.49670793 L20.9856882,15.0013168 C20.9856882,15.3226231 21.0187973,19.8051093 20.9746518,20 L-2.84217094e-14,20 Z M14.093465,15.6281275 L12.5042254,16.502502 C12.5814802,16.7553332 12.9953446,17.2293916 13.1332995,17.3663418 C13.9831012,18.1880432 15.263322,18.5304188 16.5711337,18.4092705 C18.3148827,18.251251 19.6061399,17.1925204 19.3247121,15.3120885 C18.9715477,12.9997366 15.8427322,12.889123 15.1971037,12.0252831 C14.9322304,11.6723729 15.0039669,11.2088491 15.2688402,10.9507506 C15.5281952,10.6926521 16.035869,10.624177 16.4662881,10.7716618 C16.6594248,10.840137 16.808416,10.9507506 16.9132617,11.0613642 C17.1119166,11.2667896 17.1560622,11.3932052 17.2498715,11.4932842 L18.7673746,10.5715038 C18.7397836,10.4556229 18.5576832,10.2238609 18.4804285,10.1290492 C18.3645465,9.98156439 18.2486644,9.87621807 18.121746,9.75506979 C16.9905164,8.67526995 13.8396282,8.70160653 13.1884814,10.8296023 C12.9346445,11.6671056 13.1608904,12.588886 13.5913095,13.1524888 C14.5901024,14.4324467 16.7421977,14.5746642 17.2609079,15.3752963 C17.5092265,15.7598104 17.3657535,16.2127996 17.1063985,16.4340269 C16.8194524,16.6815907 16.4276607,16.7764024 15.9199869,16.7606005 C15.4619769,16.7447985 15.0867398,16.602581 14.805312,16.3918883 C14.3417837,16.0600474 14.1983107,15.7176718 14.093465,15.6281275 Z M7.12950542,15.7914143 C7.03569614,15.8230182 6.46180406,16.1653937 6.32936743,16.2444035 L5.53474763,16.7079273 C5.56233859,16.8554122 5.84928463,17.2504609 5.93757572,17.3505399 C6.46732225,17.9668159 7.14054181,18.3302607 8.07863462,18.4145378 C9.31470987,18.5251514 10.4956032,18.1933105 11.0860498,17.1293126 C11.3619595,16.6289176 11.4226596,16.0389781 11.4226596,15.3858309 L11.4226596,10.2027917 C11.4226596,9.87621807 11.4447324,9.49170398 11.4226596,9.16513037 L9.45266469,9.16513037 C9.43059192,9.5970503 9.45266469,10.0763761 9.45266469,10.508296 L9.45266469,14.5430603 C9.45266469,15.3647617 9.61821048,16.4392942 8.87325442,16.686858 C8.47594452,16.818541 8.02897089,16.7553332 7.73650665,16.5551751 C7.460597,16.3655518 7.32264218,16.086384 7.12950542,15.7914143 Z" fill="#F8DC3D"></path>
                </g>
            </g>
        </g>
    </g>
</svg>