<?xml version="1.0" encoding="UTF-8"?>
<svg width="533px" height="766px" viewBox="0 0 533 766" version="1.1" xmlns="http://www.w3.org/2000/svg" xmlns:xlink="http://www.w3.org/1999/xlink">
    <!-- Generator: Sketch 45.2 (43514) - http://www.bohemiancoding.com/sketch -->
    <title>Artboard</title>
    <desc>Created with Sketch.</desc>
    <defs></defs>
    <g id="redesing-v6" stroke="none" stroke-width="1" fill="none" fill-rule="evenodd" opacity="0.7">
        <g id="Artboard" stroke="#0FAFD3">
            <g id="icon_iphone_contour" transform="translate(267.000000, 383.000000) rotate(-14.000000) translate(-267.000000, -383.000000) translate(83.000000, 35.000000)">
                <g id="Group-5" transform="translate(0.000000, 0.000000)">
                    <path d="M136.548347,286.98033 C132.273885,282.946371 125.572039,283.15233 121.538193,287.413555 L73.6698852,338.292575 C69.8058852,342.397555 69.7988083,348.810698 73.6698852,352.922779 L121.538193,403.830208 C123.625885,406.053147 126.442501,407.175269 129.266193,407.175269 C131.877578,407.175269 134.496039,406.209392 136.548347,404.270534 C140.808654,400.236575 141.006808,393.489636 136.980039,389.214208 L95.9905006,345.614779 L136.980039,302.050861 C140.992654,297.761228 140.808654,291.021392 136.548347,286.98033 Z" id="Path"></path>
                    <path d="M285.601679,338.332615 L237.719218,287.425187 C233.706602,283.149758 226.983525,282.943799 222.723218,286.98486 C218.448756,291.018819 218.257679,297.765758 222.277372,302.041187 L263.273987,345.640615 L222.277372,389.204534 C218.257679,393.487064 218.448756,400.226901 222.716141,404.267962 C224.768448,406.206819 227.38691,407.172697 229.998295,407.172697 C232.81491,407.172697 235.631525,406.050575 237.719218,403.834738 L285.601679,352.955717 C289.458602,348.85784 289.458602,342.437595 285.601679,338.332615 Z" id="Path"></path>
                    <path d="M193.080758,284.374194 C187.355527,283.017704 181.651527,286.504806 180.26445,292.214847 L155.990604,392.673214 C154.617681,398.397459 158.113681,404.150112 163.810604,405.542112 C164.652758,405.740969 165.487835,405.840398 166.315835,405.840398 C171.106912,405.840398 175.452143,402.573459 176.626912,397.701459 L200.900758,297.243092 C202.280758,291.518847 198.784758,285.766194 193.080758,284.374194 Z" id="Path"></path>
                    <path d="M44,0.5 C19.9756134,0.5 0.5,19.9756134 0.5,44 L0.5,652 C0.5,676.024387 19.9756134,695.5 44,695.5 L324,695.5 C348.024387,695.5 367.5,676.024387 367.5,652 L367.5,44 C367.5,19.9756134 348.024387,0.5 324,0.5 L44,0.5 Z M27.8076923,589.969388 L27.8076923,98.9285714 L340.192308,98.9285714 L340.192308,589.969388 L27.8076923,589.969388 Z M180.461538,675.193878 C162.596854,675.193878 148.115385,660.66101 148.115385,642.734694 C148.115385,624.808378 162.596854,610.27551 180.461538,610.27551 C198.326223,610.27551 212.807692,624.808378 212.807692,642.734694 C212.807692,660.66101 198.326223,675.193878 180.461538,675.193878 Z M127.409733,42.1122449 L205.205651,42.1122449 C209.404143,42.1122449 212.807692,45.5157945 212.807692,49.7142857 C212.807692,53.9127769 209.404143,57.3163265 205.205651,57.3163265 L127.409733,57.3163265 C123.211242,57.3163265 119.807692,53.9127769 119.807692,49.7142857 C119.807692,45.5157945 123.211242,42.1122449 127.409733,42.1122449 Z M233.538462,57.3163265 C229.353445,57.3163265 225.961538,53.9123811 225.961538,49.7142857 C225.961538,45.5161903 229.353445,42.1122449 233.538462,42.1122449 C237.723478,42.1122449 241.115385,45.5161903 241.115385,49.7142857 C241.115385,53.9123811 237.723478,57.3163265 233.538462,57.3163265 Z" ></path>
                </g>
            </g>
        </g>
    </g>
</svg>