<?xml version="1.0" encoding="UTF-8"?>
<svg width="23px" height="20px" viewBox="0 0 23 20" version="1.1" xmlns="http://www.w3.org/2000/svg" xmlns:xlink="http://www.w3.org/1999/xlink">
    <!-- Generator: Sketch 46 (44423) - http://www.bohemiancoding.com/sketch -->
    <title>icon_label_react_native</title>
    <desc>Created with Sketch.</desc>
    <defs></defs>
    <g id="redesing-v6" stroke="none" stroke-width="1" fill="none" fill-rule="evenodd">
        <g id="Artboard-2" transform="translate(-202.000000, -123.000000)" fill-rule="nonzero" fill="#122689">
            <g id="react_native_label" transform="translate(116.000000, 117.000000)">
                <g id="icon_label_react_native" transform="translate(86.000000, 6.000000)">
                    <g id="logo_react_native">
                        <path d="M23,10.0022889 C23,8.51453422 21.0919283,7.1046006 18.1665308,6.23025864 C18.8416225,3.31883726 18.5415817,1.00251774 17.2195271,0.260929274 C16.9147982,0.0869764248 16.5584998,0.00457770657 16.1693844,0.00457770657 L16.1693844,1.02540627 C16.3850387,1.02540627 16.5584998,1.06660563 16.703832,1.14442664 C17.3414187,1.50148775 17.6180188,2.86106661 17.4023645,4.60975051 C17.3507949,5.04005493 17.2664085,5.49324788 17.1632695,5.95559625 C16.2443946,5.73586633 15.2411333,5.56649119 14.1863025,5.45662623 C13.553404,4.60975051 12.8970648,3.84069581 12.2360375,3.16777295 C13.7643702,1.78072786 15.1989401,1.02082856 16.1740726,1.02082856 L16.1740726,0 C14.8848349,0 13.1971056,0.897230488 11.4906237,2.45365072 C9.78414187,0.906385901 8.09641256,0.0183108263 6.80717489,0.0183108263 L6.80717489,1.03913939 C7.77761924,1.03913939 9.21687729,1.79446098 10.7452099,3.17235065 C10.0888708,3.84527352 9.43253159,4.60975051 8.80900938,5.45662623 C7.74949042,5.56649119 6.74622911,5.73586633 5.82735426,5.96017395 C5.71952711,5.5024033 5.63982878,5.05836576 5.58357114,4.63263905 C5.3632287,2.88395514 5.63514064,1.52437629 6.26803914,1.16273747 C6.40868325,1.08033875 6.59152059,1.0437171 6.80717489,1.0437171 L6.80717489,0.0228885328 C6.41337138,0.0228885328 6.05707297,0.105287251 5.74765593,0.279240101 C4.43028944,1.02082856 4.13493681,3.33257038 4.81471667,6.23483635 C1.89869547,7.11375601 0,8.51911192 0,10.0022889 C0,11.4900435 1.90807175,12.8999771 4.83346922,13.7743191 C4.1583775,16.6857404 4.45841826,19.00206 5.78047289,19.7436484 C6.08520179,19.9176013 6.4415002,20 6.83530371,20 C8.12454138,20 9.81227069,19.1027695 11.5187525,17.5463493 C13.2252344,19.0936141 14.9129637,19.9816892 16.2022014,19.9816892 C16.5960049,19.9816892 16.9523033,19.8992905 17.2617203,19.7253376 C18.5790868,18.9837491 18.8744395,16.6720073 18.1946596,13.7697414 C21.1013045,12.8953994 23,11.4854658 23,10.0022889 Z M16.8960457,6.94895857 C16.7225846,7.53948272 16.5069303,8.14831769 16.2631472,8.75715267 C16.0709336,8.39093614 15.8693437,8.02471962 15.6490012,7.65850309 C15.4333469,7.29228656 15.2036282,6.93522545 14.9739095,6.58731975 C15.6396249,6.68345159 16.2818997,6.80247196 16.8960457,6.94895857 Z M14.7488789,11.8242161 C14.3832042,12.4422065 14.0081533,13.0281529 13.6190379,13.5729 C12.9205055,13.6324102 12.2125968,13.6644541 11.5,13.6644541 C10.7920913,13.6644541 10.0841826,13.6324102 9.39033836,13.5774777 C9.00122299,13.0327306 8.6214839,12.4513619 8.25580921,11.8379492 C7.8995108,11.2382696 7.57602935,10.6294347 7.28067672,10.016022 C7.57134121,9.40260929 7.8995108,8.78919661 8.25112108,8.18951705 C8.61679576,7.57152667 8.99184672,6.98558022 9.38096209,6.44083314 C10.0794945,6.38132296 10.7874032,6.34927901 11.5,6.34927901 C12.2079087,6.34927901 12.9158174,6.38132296 13.6096616,6.43625544 C13.998777,6.98100252 14.3785161,7.56237125 14.7441908,8.17578393 C15.1004892,8.77546349 15.4239706,9.38429847 15.7193233,9.99771115 C15.4239706,10.6111238 15.1004892,11.2245365 14.7488789,11.8242161 Z M16.2631472,11.2291142 C16.5163066,11.8425269 16.7319609,12.4559396 16.9101101,13.0510414 C16.2959641,13.197528 15.6490012,13.3211261 14.9785976,13.417258 C15.2083163,13.0647745 15.4380351,12.7031357 15.6536894,12.3323415 C15.8693437,11.966125 16.0709336,11.5953307 16.2631472,11.2291142 Z M11.5093763,16.1135271 C11.0733795,15.6740673 10.6373828,15.1842527 10.2060742,14.648661 C10.6280065,14.6669718 11.0593151,14.680705 11.4953119,14.680705 C11.9359967,14.680705 12.3719935,14.6715496 12.7986139,14.648661 C12.3766816,15.1842527 11.9406849,15.6740673 11.5093763,16.1135271 Z M8.02140236,13.417258 C7.35568691,13.3211261 6.71341215,13.2021057 6.0992662,13.0556191 C6.27272727,12.465095 6.48838157,11.85626 6.7321647,11.247425 C6.92437831,11.6136416 7.1259682,11.9798581 7.34631064,12.3460746 C7.56665308,12.7122911 7.79168365,13.0693523 8.02140236,13.417258 Z M11.4859356,3.89105058 C11.9219323,4.33051041 12.3579291,4.82032502 12.7892377,5.35591669 C12.3673053,5.33760586 11.9359967,5.32387274 11.5,5.32387274 C11.0593151,5.32387274 10.6233184,5.33302815 10.1966979,5.35591669 C10.6186302,4.82032502 11.054627,4.33051041 11.4859356,3.89105058 Z M8.01671423,6.58731975 C7.78699552,6.93980316 7.5572768,7.30144198 7.3416225,7.67223621 C7.1259682,8.03845274 6.92437831,8.40466926 6.7321647,8.77088579 C6.4790053,8.15747311 6.263351,7.54406043 6.08520179,6.94895857 C6.69934774,6.80704967 7.34631064,6.68345159 8.01671423,6.58731975 Z M3.77395026,12.3186084 C2.11434978,11.6273747 1.04076641,10.7209888 1.04076641,10.0022889 C1.04076641,9.28358892 2.11434978,8.37262531 3.77395026,7.68596933 C4.17713004,7.51659419 4.61781492,7.36552987 5.07256421,7.22362097 C5.33978801,8.12085145 5.69139829,9.05470359 6.12739503,10.0114443 C5.69608642,10.9636072 5.34916429,11.8928817 5.08662862,12.7855344 C4.62250306,12.6436255 4.18181818,12.4879835 3.77395026,12.3186084 Z M6.29616796,18.8601511 C5.65858133,18.50309 5.38198125,17.1435111 5.59763555,15.3948272 C5.64920506,14.9645228 5.73359152,14.5113298 5.83673053,14.0489815 C6.75560538,14.2687114 7.75886669,14.4380865 8.81369751,14.5479515 C9.446596,15.3948272 10.1029352,16.1638819 10.7639625,16.8368048 C9.23562984,18.2238499 7.80105993,18.9837491 6.82592744,18.9837491 C6.61496127,18.9791714 6.43681207,18.9379721 6.29616796,18.8601511 Z M17.4164289,15.3719387 C17.6367713,17.1206226 17.3648594,18.4802014 16.7319609,18.8418402 C16.5913168,18.924239 16.4084794,18.9608606 16.1928251,18.9608606 C15.2223808,18.9608606 13.7831227,18.205539 12.2547901,16.8276493 C12.9111292,16.1547265 13.5674684,15.3902495 14.1909906,14.5433738 C15.2505096,14.4335088 16.2537709,14.2641337 17.1726457,14.039826 C17.2804729,14.5021744 17.3648594,14.9462119 17.4164289,15.3719387 Z M19.2213616,12.3186084 C18.8181818,12.4879835 18.3774969,12.6390478 17.9227477,12.7809567 C17.6555238,11.8837263 17.3039136,10.9498741 16.8679168,9.99313344 C17.2992254,9.04097047 17.6461476,8.11169604 17.9086832,7.21904326 C18.3728088,7.36095216 18.8134937,7.51659419 19.2260497,7.68596933 C20.8856502,8.37720302 21.9592336,9.28358892 21.9592336,10.0022889 C21.9545455,10.7209888 20.8809621,11.6319524 19.2213616,12.3186084 Z" id="Shape"></path>
                        <path d="M11.6535183,12 C12.7580878,12 13.6535183,11.1045695 13.6535183,10 C13.6535183,8.8954305 12.7580878,8 11.6535183,8 C10.5489488,8 9.65351833,8.8954305 9.65351833,10 C9.65351833,11.1045695 10.5489488,12 11.6535183,12 Z" id="Oval"></path>
                    </g>
                </g>
            </g>
        </g>
    </g>
</svg>