<?xml version="1.0" encoding="UTF-8"?>
<svg width="36px" height="13px" viewBox="0 0 36 13" version="1.1" xmlns="http://www.w3.org/2000/svg" xmlns:xlink="http://www.w3.org/1999/xlink">
    <!-- Generator: Sketch 46 (44423) - http://www.bohemiancoding.com/sketch -->
    <title>icon_label_rails</title>
    <desc>Created with Sketch.</desc>
    <defs></defs>
    <g id="redesing-v6" stroke="none" stroke-width="1" fill="none" fill-rule="evenodd">
        <g id="Artboard-2" transform="translate(-133.000000, -42.000000)" fill="#B10419">
            <g id="rails_label-" transform="translate(85.000000, 33.000000)">
                <g id="icon_label_rails" transform="translate(48.000000, 9.000000)">
                    <g id="logo_rails" transform="translate(0.416498, 0.009412)">
                        <path d="M30.5448206,11.2880536 L30.5448206,12.9696484 L33.4432989,12.9696484 C34.0371767,12.9696484 35.0565192,12.51441 35.0919746,11.2416007 L35.0919746,10.5912601 C35.0919746,9.5042624 34.2410452,8.86321244 33.4432989,8.86321244 L31.9984917,8.86321244 L31.9984917,8.0828038 L34.8615146,8.0828038 L34.8615146,6.3919184 L32.1137217,6.3919184 C31.4046138,6.3919184 30.4561821,7.00509662 30.4561821,8.14783785 L30.4561821,8.73314433 C30.4561821,9.87588556 31.39575,10.461192 32.1137217,10.461192 C34.1080875,10.4704826 31.6350739,10.461192 33.4787543,10.461192 L33.4787543,11.278763 L30.5448206,11.2880536 Z M15.0153587,10.8792681 C15.0153587,10.8792681 16.5665321,10.7399094 16.5665321,8.64023854 C16.5665321,6.54056767 14.6873963,6.34546551 14.6873963,6.34546551 L11.3014063,6.34546551 L11.3014063,12.9696484 L13.0032652,12.9696484 L13.0032652,11.3716688 L14.474664,12.9696484 L16.9919968,12.9696484 L15.0153587,10.8792681 Z M14.3594339,9.52284355 L13.0032652,9.52284355 L13.0032652,8.00847916 L14.3682978,8.00847916 C14.3682978,8.00847916 14.7494432,8.15712843 14.7494432,8.76101607 C14.7494432,9.36490371 14.3594339,9.52284355 14.3594339,9.52284355 Z M20.7679961,6.3919184 L19.0395457,6.3919184 C17.8074708,6.3919184 17.39087,7.56253137 17.39087,8.11996611 L17.39087,12.9696484 L19.1193204,12.9696484 L19.1193204,11.808326 L20.7414046,11.808326 L20.7414046,12.9696484 L22.4166719,12.9696484 L22.4166719,8.11996611 C22.4166719,6.70779809 21.1934608,6.3919184 20.7679961,6.3919184 Z M20.7414046,9.93162903 L19.1104565,9.93162903 L19.1104565,8.32435885 C19.1104565,8.32435885 19.1104565,7.96202627 19.6511512,7.96202627 L20.2450291,7.96202627 C20.7236769,7.96202627 20.7325407,8.32435885 20.7325407,8.32435885 L20.7325407,9.93162903 L20.7414046,9.93162903 Z" ></path>
                        <rect id="Rectangle-path" x="23.2055543" y="6.3919184" width="1.79936117" height="6.57772999"></rect>
                        <polygon  points="27.5311122 11.2694724 27.5311122 6.3919184 25.7406149 6.3919184 25.7406149 11.2694724 25.7406149 12.9696484 27.5311122 12.9696484 29.9509427 12.9696484 29.9509427 11.2694724"></polygon>
                        <path d="M0.620469367,12.9696484 L7.62290937,12.9696484 C7.62290937,12.9696484 6.28446831,6.56843941 10.7163924,3.97636784 C11.6825518,3.48396715 14.7583071,1.6444325 19.7929728,5.54647571 C19.9525221,5.40711702 20.1032075,5.29563007 20.1032075,5.29563007 C20.1032075,5.29563007 15.4940065,0.473819533 10.3618384,1.01267312 C7.78245864,1.25422818 4.60920101,3.71623163 2.74779291,6.96793431 C0.88638481,10.219637 0.620469367,12.9696484 0.620469367,12.9696484 Z" ></path>
                        <path d="M0.620469367,12.9696484 L7.62290937,12.9696484 C7.62290937,12.9696484 6.28446831,6.56843941 10.7163924,3.97636784 C11.6825518,3.48396715 14.7583071,1.6444325 19.7929728,5.54647571 C19.9525221,5.40711702 20.1032075,5.29563007 20.1032075,5.29563007 C20.1032075,5.29563007 15.4940065,0.473819533 10.3618384,1.01267312 C7.78245864,1.25422818 4.60920101,3.71623163 2.74779291,6.96793431 C0.88638481,10.219637 0.620469367,12.9696484 0.620469367,12.9696484 Z" ></path>
                        <path d="M0.620469367,12.9696484 L7.62290937,12.9696484 C7.62290937,12.9696484 6.28446831,6.56843941 10.7163924,3.97636784 C11.6825518,3.48396715 14.7583071,1.6444325 19.7929728,5.54647571 C19.9525221,5.40711702 20.1032075,5.29563007 20.1032075,5.29563007 C20.1032075,5.29563007 15.4940065,0.473819533 10.3618384,1.01267312 C7.77359479,1.25422818 4.60033717,3.71623163 2.73892906,6.96793431 C0.877520962,10.219637 0.620469367,12.9696484 0.620469367,12.9696484 Z M15.2103633,1.53294555 L15.2458187,0.91047675 C15.1660441,0.864023854 14.9444479,0.752536905 14.3860255,0.585306482 L14.3505701,1.1984847 C14.6430771,1.30068107 14.9267202,1.41216802 15.2103633,1.53294555 Z" ></path>
                        <path d="M14.3682978,3.50254831 L14.3328424,4.08785479 C14.6253494,4.09714537 14.9178564,4.13430769 15.2103633,4.19934174 L15.2458187,3.62332584 C14.9444479,3.55829179 14.6519409,3.52112947 14.3682978,3.50254831 Z M11.088674,0.60388764 L11.1773125,0.60388764 L11.0000355,0.0371623163 C10.7252562,0.0371623163 10.4416131,0.0557434745 10.1491061,0.0929057908 L10.3175192,0.641049956 C10.5745708,0.613178219 10.8316224,0.60388764 11.088674,0.60388764 Z M11.5141387,4.02282074 L11.7180072,4.6638707 C11.9750588,4.53380259 12.2321104,4.42231564 12.489162,4.33870043 L12.2941573,3.72552221 C11.9927865,3.818428 11.7357349,3.92062437 11.5141387,4.02282074 Z M7.48995165,1.57939844 L7.09107848,0.938348487 C6.86948228,1.05912601 6.63902223,1.18919412 6.39969833,1.33784339 L6.80743534,1.98818392 C7.03789539,1.83953466 7.2594916,1.70017597 7.48995165,1.57939844 Z M9.30704051,5.76015903 L9.73250522,6.42908072 C9.88319064,6.19681624 10.0604676,5.98313293 10.2554723,5.76944961 L9.85659909,5.13769023 C9.65273058,5.33279239 9.46658977,5.54647571 9.30704051,5.76015903 Z M8.02178253,8.75172549 L8.73975423,9.34632255 C8.77520962,8.98398997 8.83725656,8.62165738 8.92589504,8.2593248 L8.28769798,7.72976179 C8.17246795,8.07351322 8.09269332,8.41726464 8.02178253,8.75172549 Z M4.13941706,4.33870043 L3.51008385,3.76268453 C3.2796238,3.994949 3.0580276,4.22721348 2.85415909,4.45947796 L3.53667539,5.07265618 C3.7228162,4.82181054 3.92668471,4.57096491 4.13941706,4.33870043 Z M1.46253494,8.49158928 L0.443192405,8.10138495 C0.274779291,8.50087986 0.088638481,8.96540881 0,9.21625444 L1.01934253,9.60645877 C1.13457256,9.29057908 1.32071337,8.8353407 1.46253494,8.49158928 Z M7.88882481,11.1115326 C7.90655251,11.6039333 7.95087175,12.0034282 7.99519099,12.2821455 L9.05885276,12.6816404 C8.97907813,12.3193079 8.8993035,11.9105224 8.84612041,11.4738652 L7.88882481,11.1115326 Z" ></path>
                    </g>
                </g>
            </g>
        </g>
    </g>
</svg>