<?xml version="1.0" encoding="UTF-8"?>
<svg width="19px" height="20px" viewBox="0 0 19 20" version="1.1" xmlns="http://www.w3.org/2000/svg" xmlns:xlink="http://www.w3.org/1999/xlink">
    <!-- Generator: Sketch 46 (44423) - http://www.bohemiancoding.com/sketch -->
    <title>logo_rabbitmq</title>
    <desc>Created with Sketch.</desc>
    <defs></defs>
    <g id="redesing-v6" stroke="none" stroke-width="1" fill="none" fill-rule="evenodd">
        <g id="desktop_ourwork" transform="translate(-763.000000, -1988.000000)" fill-rule="nonzero" fill="#FF6600">
            <g id="yummly" transform="translate(151.000000, 1447.000000)">
                <g id="text" transform="translate(580.000000, 0.000000)">
                    <g id="logo_rabbitmq" transform="translate(32.000000, 541.000000)">
                        <path d="M18.21625,8 L11.9009766,8 C11.5839997,7.99987774 11.3270584,7.74419958 11.3268945,7.42874026 L11.3268945,0.878531595 C11.3268945,0.393470473 10.9316797,0 10.4445078,0 L8.19011328,0 C7.70264453,0 7.30765234,0.393470473 7.30765234,0.878531595 L7.30765234,7.3890756 C7.30765234,7.72685305 7.03326562,8.00140341 6.69386328,8.00288067 L4.62427344,8.01270451 C4.28197656,8.0145511 4.00387891,7.73815415 4.00454687,7.39779148 L4.01738672,0.880008864 C4.0185,0.394209107 3.62313672,0 3.135,0 L0.882460937,0 C0.394917969,0 0,0.393470473 0,0.878531595 L0,19.2200022 C0,19.6509214 0.350757812,20 0.783378906,20 L18.21625,20 C18.6492422,20 19,19.6509214 19,19.2200022 L19,8.77999778 C19,8.34907855 18.6492422,8 18.21625,8 Z M15.2547734,14.8865088 C15.2547734,15.4511947 14.7947656,15.9090741 14.2273633,15.9090741 L12.4457422,15.9090741 C11.8782656,15.9090741 11.4182578,15.4511947 11.4182578,14.8865088 L11.4182578,13.1134173 C11.4182578,12.5486575 11.8782656,12.090852 12.4457422,12.090852 L14.2273633,12.090852 C14.7947656,12.090852 15.2547734,12.5486575 15.2547734,13.1134173 L15.2547734,14.8865088 L15.2547734,14.8865088 Z" ></path>
                    </g>
                </g>
            </g>
        </g>
    </g>
</svg>