<svg xmlns="http://www.w3.org/2000/svg" width="407" height="429" viewBox="0 0 407 429">
    <g fill="none" fill-rule="evenodd">
        <rect width="252" height="429" x="84" fill="#3E3E3E" rx="28"/>
        <path fill="#000" d="M210.5 417c-9.665 0-17.5-7.835-17.5-17.5s7.835-17.5 17.5-17.5 17.5 7.835 17.5 17.5-7.835 17.5-17.5 17.5zm0-5c6.904 0 12.5-5.596 12.5-12.5s-5.596-12.5-12.5-12.5-12.5 5.596-12.5 12.5 5.596 12.5 12.5 12.5z"/>
        <g fill="#000" transform="translate(178 24)">
            <circle cx="3.751" cy="3.751" r="3.751"/>
            <rect width="43" height="8" x="22" rx="4"/>
        </g>
        <path fill="#FFF" d="M100 52h220.87v317.888H100z"/>
        <path fill="#110E2A" d="M395.204 161.008h11.6v11.6h-11.6v-11.6zm-34.8 11.6h-11.6v-11.6h11.6v11.6zm11.6-11.6h11.6v11.6h-11.6v-11.6zm-11.6-34.8h-11.6v-11.6h11.6v11.6zm23.2 0h-11.6v-11.6h11.6v11.6zm23.2 0h-11.6v-11.6h11.6v11.6zm0 23.2h-11.6v-11.6h11.6v11.6z"/>
        <path fill="#FF5824" d="M295.374 160.918h11.577v11.577h-11.577v-11.577zm0-23.155h11.577v11.577h-11.577v-11.577zm11.577-11.577h-11.577v-11.578h11.577v11.578z"/>
        <path fill="#000" d="M47.2 280.2H59V292H47.2v-11.8zm-23.6 0h11.8V292H23.6v-11.8zM11.8 292H0v-11.8h11.8V292zm0-23.6H0v-11.8h11.8v11.8zm0-23.6H0V233h11.8v11.8zm23.6 0H23.6V233h11.8v11.8zm23.6 0H47.2V233H59v11.8zm-11.8 11.8H59v11.8H47.2v-11.8z"/>
        <path fill="#FF5824" d="M100 330h220.87v40H100z"/>
        <text fill="#FFF" font-family="Montserrat-Regular, Montserrat" font-size="14" transform="translate(100 330)">
            <tspan x="91.131" y="25">NEXT</tspan>
        </text>
        <path fill="#000" d="M241.793 234.766v-27.87H214.08v-55.501H151.08v63.002h55.423v55.581h63.002v-35.29h-27.711v.078zm-55.423-27.87v-14.684h-7.58v14.685h-20.132v-47.923h20.211v14.685h7.58v-14.685h20.211v47.923h-20.29zm75.634 55.424h-47.923v-47.923h20.212v27.87h27.711v20.053z"/>
        <g>
            <path fill="#FFF" d="M100 52h220.87v42H100z"/>
            <path fill="#FF5824" d="M129.117 77.813V72.86h-4.923V63H113v11.194h9.847v9.875h11.194v-6.27h-4.924v.014zm-9.847-4.952v-2.609h-1.346v2.61h-3.577v-8.515h3.59v2.609h1.347v-2.61h3.591v8.515h-3.605zm13.438 9.847h-8.514v-8.514h3.59v4.951h4.924v3.563z"/>
            <g fill="#FF5824">
                <path d="M287 68h22v2h-22zM291 73h18v2h-18zM295 78h14v2h-14z"/>
            </g>
        </g>
    </g>
</svg>
