<?xml version="1.0" encoding="UTF-8"?>
<svg width="669px" height="380px" viewBox="0 0 669 380" version="1.1" xmlns="http://www.w3.org/2000/svg" xmlns:xlink="http://www.w3.org/1999/xlink">
    <!-- Generator: Sketch 45.2 (43514) - http://www.bohemiancoding.com/sketch -->
    <title>image_roadmap</title>
    <desc>Created with Sketch.</desc>
    <defs></defs>
    <g id="animacio" stroke="none" stroke-width="1" fill="none" fill-rule="evenodd">
        <g id="Artboard-2">
            <g id="roadmap">
                <rect id="Rectangle-13" fill="#EFF1F3" x="0" y="0" width="668.197981" height="379.849297" rx="2"></rect>
                <g id="content" transform="translate(23.000000, 31.000000)">
                    <path d="M126.069231,277.179611 L126.932719,277.179611 L126.932719,278.906587 L126.069231,278.906587 L126.069231,277.179611 Z M126.069231,256.455902 L126.932719,256.455902 L126.932719,258.182878 L126.069231,258.182878 L126.069231,256.455902 Z M126.069231,235.732193 L126.932719,235.732193 L126.932719,237.459168 L126.069231,237.459168 L126.069231,235.732193 Z M126.069231,215.008483 L126.932719,215.008483 L126.932719,216.735459 L126.069231,216.735459 L126.069231,215.008483 Z M126.069231,194.284774 L126.932719,194.284774 L126.932719,196.01175 L126.069231,196.01175 L126.069231,194.284774 Z M126.069231,173.561065 L126.932719,173.561065 L126.932719,175.288041 L126.069231,175.288041 L126.069231,173.561065 Z M126.069231,152.837356 L126.932719,152.837356 L126.932719,154.564331 L126.069231,154.564331 L126.069231,152.837356 Z M126.069231,132.113646 L126.932719,132.113646 L126.932719,133.840622 L126.069231,133.840622 L126.069231,132.113646 Z M126.069231,111.389937 L126.932719,111.389937 L126.932719,113.116913 L126.069231,113.116913 L126.069231,111.389937 Z M126.069231,90.666228 L126.932719,90.666228 L126.932719,92.3932037 L126.069231,92.3932037 L126.069231,90.666228 Z M126.069231,287.541466 L126.932719,287.541466 L126.932719,289.268442 L126.069231,289.268442 L126.069231,287.541466 Z M126.069231,266.817757 L126.932719,266.817757 L126.932719,268.544732 L126.069231,268.544732 L126.069231,266.817757 Z M126.069231,246.094047 L126.932719,246.094047 L126.932719,247.821023 L126.069231,247.821023 L126.069231,246.094047 Z M126.069231,225.370338 L126.932719,225.370338 L126.932719,227.097314 L126.069231,227.097314 L126.069231,225.370338 Z M126.069231,204.646629 L126.932719,204.646629 L126.932719,206.373605 L126.069231,206.373605 L126.069231,204.646629 Z M126.069231,183.92292 L126.932719,183.92292 L126.932719,185.649895 L126.069231,185.649895 L126.069231,183.92292 Z M126.069231,163.19921 L126.932719,163.19921 L126.932719,164.926186 L126.069231,164.926186 L126.069231,163.19921 Z M126.069231,142.475501 L126.932719,142.475501 L126.932719,144.202477 L126.069231,144.202477 L126.069231,142.475501 Z M126.069231,121.751792 L126.932719,121.751792 L126.932719,123.478768 L126.069231,123.478768 L126.069231,121.751792 Z M126.069231,101.028083 L126.932719,101.028083 L126.932719,102.755058 L126.069231,102.755058 L126.069231,101.028083 Z M126.069231,80.3043733 L126.932719,80.3043733 L126.932719,82.0313491 L126.069231,82.0313491 L126.069231,80.3043733 Z M126.069231,294.449369 L126.932719,294.449369 L126.932719,296.176345 L126.069231,296.176345 L126.069231,294.449369 Z M126.069231,273.72566 L126.932719,273.72566 L126.932719,275.452635 L126.069231,275.452635 L126.069231,273.72566 Z M126.069231,253.00195 L126.932719,253.00195 L126.932719,254.728926 L126.069231,254.728926 L126.069231,253.00195 Z M126.069231,232.278241 L126.932719,232.278241 L126.932719,234.005217 L126.069231,234.005217 L126.069231,232.278241 Z M126.069231,211.554532 L126.932719,211.554532 L126.932719,213.281508 L126.069231,213.281508 L126.069231,211.554532 Z M126.069231,190.830823 L126.932719,190.830823 L126.932719,192.557798 L126.069231,192.557798 L126.069231,190.830823 Z M126.069231,170.107113 L126.932719,170.107113 L126.932719,171.834089 L126.069231,171.834089 L126.069231,170.107113 Z M126.069231,149.383404 L126.932719,149.383404 L126.932719,151.11038 L126.069231,151.11038 L126.069231,149.383404 Z M126.069231,128.659695 L126.932719,128.659695 L126.932719,130.386671 L126.069231,130.386671 L126.069231,128.659695 Z M126.069231,107.935986 L126.932719,107.935986 L126.932719,109.662961 L126.069231,109.662961 L126.069231,107.935986 Z M126.069231,87.2122764 L126.932719,87.2122764 L126.932719,88.9392522 L126.069231,88.9392522 L126.069231,87.2122764 Z M126.069231,284.087514 L126.932719,284.087514 L126.932719,285.81449 L126.069231,285.81449 L126.069231,284.087514 Z M126.069231,263.363805 L126.932719,263.363805 L126.932719,265.090781 L126.069231,265.090781 L126.069231,263.363805 Z M126.069231,242.640096 L126.932719,242.640096 L126.932719,244.367072 L126.069231,244.367072 L126.069231,242.640096 Z M126.069231,221.916387 L126.932719,221.916387 L126.932719,223.643362 L126.069231,223.643362 L126.069231,221.916387 Z M126.069231,201.192677 L126.932719,201.192677 L126.932719,202.919653 L126.069231,202.919653 L126.069231,201.192677 Z M126.069231,180.468968 L126.932719,180.468968 L126.932719,182.195944 L126.069231,182.195944 L126.069231,180.468968 Z M126.069231,159.745259 L126.932719,159.745259 L126.932719,161.472235 L126.069231,161.472235 L126.069231,159.745259 Z M126.069231,139.02155 L126.932719,139.02155 L126.932719,140.748525 L126.069231,140.748525 L126.069231,139.02155 Z M126.069231,118.29784 L126.932719,118.29784 L126.932719,120.024816 L126.069231,120.024816 L126.069231,118.29784 Z M126.069231,97.574131 L126.932719,97.574131 L126.932719,99.3011068 L126.069231,99.3011068 L126.069231,97.574131 Z M126.069231,290.995417 L126.932719,290.995417 L126.932719,292.722393 L126.069231,292.722393 L126.069231,290.995417 Z M126.069231,270.271708 L126.932719,270.271708 L126.932719,271.998684 L126.069231,271.998684 L126.069231,270.271708 Z M126.069231,249.547999 L126.932719,249.547999 L126.932719,251.274975 L126.069231,251.274975 L126.069231,249.547999 Z M126.069231,228.82429 L126.932719,228.82429 L126.932719,230.551265 L126.069231,230.551265 L126.069231,228.82429 Z M126.069231,208.10058 L126.932719,208.10058 L126.932719,209.827556 L126.069231,209.827556 L126.069231,208.10058 Z M126.069231,187.376871 L126.932719,187.376871 L126.932719,189.103847 L126.069231,189.103847 L126.069231,187.376871 Z M126.069231,166.653162 L126.932719,166.653162 L126.932719,168.380138 L126.069231,168.380138 L126.069231,166.653162 Z M126.069231,145.929453 L126.932719,145.929453 L126.932719,147.656428 L126.069231,147.656428 L126.069231,145.929453 Z M126.069231,125.205743 L126.932719,125.205743 L126.932719,126.932719 L126.069231,126.932719 L126.069231,125.205743 Z M126.069231,104.482034 L126.932719,104.482034 L126.932719,106.20901 L126.069231,106.20901 L126.069231,104.482034 Z M126.069231,83.7583249 L126.932719,83.7583249 L126.932719,85.4853007 L126.069231,85.4853007 L126.069231,83.7583249 Z M126.069231,280.633563 L126.932719,280.633563 L126.932719,282.360539 L126.069231,282.360539 L126.069231,280.633563 Z M126.069231,259.909854 L126.932719,259.909854 L126.932719,261.636829 L126.069231,261.636829 L126.069231,259.909854 Z M126.069231,239.186144 L126.932719,239.186144 L126.932719,240.91312 L126.069231,240.91312 L126.069231,239.186144 Z M126.069231,218.462435 L126.932719,218.462435 L126.932719,220.189411 L126.069231,220.189411 L126.069231,218.462435 Z M126.069231,197.738726 L126.932719,197.738726 L126.932719,199.465702 L126.069231,199.465702 L126.069231,197.738726 Z M126.069231,177.015017 L126.932719,177.015017 L126.932719,178.741992 L126.069231,178.741992 L126.069231,177.015017 Z M126.069231,156.291307 L126.932719,156.291307 L126.932719,158.018283 L126.069231,158.018283 L126.069231,156.291307 Z M126.069231,135.567598 L126.932719,135.567598 L126.932719,137.294574 L126.069231,137.294574 L126.069231,135.567598 Z M126.069231,114.843889 L126.932719,114.843889 L126.932719,116.570865 L126.069231,116.570865 L126.069231,114.843889 Z M126.069231,94.1201795 L126.932719,94.1201795 L126.932719,95.8471553 L126.069231,95.8471553 L126.069231,94.1201795 Z" fill="#C2C2C2"></path>
                    <path d="M29.3585881,277.179611 L30.222076,277.179611 L30.222076,278.906587 L29.3585881,278.906587 L29.3585881,277.179611 Z M29.3585881,256.455902 L30.222076,256.455902 L30.222076,258.182878 L29.3585881,258.182878 L29.3585881,256.455902 Z M29.3585881,235.732193 L30.222076,235.732193 L30.222076,237.459168 L29.3585881,237.459168 L29.3585881,235.732193 Z M29.3585881,215.008483 L30.222076,215.008483 L30.222076,216.735459 L29.3585881,216.735459 L29.3585881,215.008483 Z M29.3585881,194.284774 L30.222076,194.284774 L30.222076,196.01175 L29.3585881,196.01175 L29.3585881,194.284774 Z M29.3585881,173.561065 L30.222076,173.561065 L30.222076,175.288041 L29.3585881,175.288041 L29.3585881,173.561065 Z M29.3585881,152.837356 L30.222076,152.837356 L30.222076,154.564331 L29.3585881,154.564331 L29.3585881,152.837356 Z M29.3585881,132.113646 L30.222076,132.113646 L30.222076,133.840622 L29.3585881,133.840622 L29.3585881,132.113646 Z M29.3585881,111.389937 L30.222076,111.389937 L30.222076,113.116913 L29.3585881,113.116913 L29.3585881,111.389937 Z M29.3585881,90.666228 L30.222076,90.666228 L30.222076,92.3932037 L29.3585881,92.3932037 L29.3585881,90.666228 Z M29.3585881,287.541466 L30.222076,287.541466 L30.222076,289.268442 L29.3585881,289.268442 L29.3585881,287.541466 Z M29.3585881,266.817757 L30.222076,266.817757 L30.222076,268.544732 L29.3585881,268.544732 L29.3585881,266.817757 Z M29.3585881,246.094047 L30.222076,246.094047 L30.222076,247.821023 L29.3585881,247.821023 L29.3585881,246.094047 Z M29.3585881,225.370338 L30.222076,225.370338 L30.222076,227.097314 L29.3585881,227.097314 L29.3585881,225.370338 Z M29.3585881,204.646629 L30.222076,204.646629 L30.222076,206.373605 L29.3585881,206.373605 L29.3585881,204.646629 Z M29.3585881,183.92292 L30.222076,183.92292 L30.222076,185.649895 L29.3585881,185.649895 L29.3585881,183.92292 Z M29.3585881,163.19921 L30.222076,163.19921 L30.222076,164.926186 L29.3585881,164.926186 L29.3585881,163.19921 Z M29.3585881,142.475501 L30.222076,142.475501 L30.222076,144.202477 L29.3585881,144.202477 L29.3585881,142.475501 Z M29.3585881,121.751792 L30.222076,121.751792 L30.222076,123.478768 L29.3585881,123.478768 L29.3585881,121.751792 Z M29.3585881,101.028083 L30.222076,101.028083 L30.222076,102.755058 L29.3585881,102.755058 L29.3585881,101.028083 Z M29.3585881,80.3043733 L30.222076,80.3043733 L30.222076,82.0313491 L29.3585881,82.0313491 L29.3585881,80.3043733 Z M29.3585881,294.449369 L30.222076,294.449369 L30.222076,296.176345 L29.3585881,296.176345 L29.3585881,294.449369 Z M29.3585881,273.72566 L30.222076,273.72566 L30.222076,275.452635 L29.3585881,275.452635 L29.3585881,273.72566 Z M29.3585881,253.00195 L30.222076,253.00195 L30.222076,254.728926 L29.3585881,254.728926 L29.3585881,253.00195 Z M29.3585881,232.278241 L30.222076,232.278241 L30.222076,234.005217 L29.3585881,234.005217 L29.3585881,232.278241 Z M29.3585881,211.554532 L30.222076,211.554532 L30.222076,213.281508 L29.3585881,213.281508 L29.3585881,211.554532 Z M29.3585881,190.830823 L30.222076,190.830823 L30.222076,192.557798 L29.3585881,192.557798 L29.3585881,190.830823 Z M29.3585881,170.107113 L30.222076,170.107113 L30.222076,171.834089 L29.3585881,171.834089 L29.3585881,170.107113 Z M29.3585881,149.383404 L30.222076,149.383404 L30.222076,151.11038 L29.3585881,151.11038 L29.3585881,149.383404 Z M29.3585881,128.659695 L30.222076,128.659695 L30.222076,130.386671 L29.3585881,130.386671 L29.3585881,128.659695 Z M29.3585881,107.935986 L30.222076,107.935986 L30.222076,109.662961 L29.3585881,109.662961 L29.3585881,107.935986 Z M29.3585881,87.2122764 L30.222076,87.2122764 L30.222076,88.9392522 L29.3585881,88.9392522 L29.3585881,87.2122764 Z M29.3585881,284.087514 L30.222076,284.087514 L30.222076,285.81449 L29.3585881,285.81449 L29.3585881,284.087514 Z M29.3585881,263.363805 L30.222076,263.363805 L30.222076,265.090781 L29.3585881,265.090781 L29.3585881,263.363805 Z M29.3585881,242.640096 L30.222076,242.640096 L30.222076,244.367072 L29.3585881,244.367072 L29.3585881,242.640096 Z M29.3585881,221.916387 L30.222076,221.916387 L30.222076,223.643362 L29.3585881,223.643362 L29.3585881,221.916387 Z M29.3585881,201.192677 L30.222076,201.192677 L30.222076,202.919653 L29.3585881,202.919653 L29.3585881,201.192677 Z M29.3585881,180.468968 L30.222076,180.468968 L30.222076,182.195944 L29.3585881,182.195944 L29.3585881,180.468968 Z M29.3585881,159.745259 L30.222076,159.745259 L30.222076,161.472235 L29.3585881,161.472235 L29.3585881,159.745259 Z M29.3585881,139.02155 L30.222076,139.02155 L30.222076,140.748525 L29.3585881,140.748525 L29.3585881,139.02155 Z M29.3585881,118.29784 L30.222076,118.29784 L30.222076,120.024816 L29.3585881,120.024816 L29.3585881,118.29784 Z M29.3585881,97.574131 L30.222076,97.574131 L30.222076,99.3011068 L29.3585881,99.3011068 L29.3585881,97.574131 Z M29.3585881,290.995417 L30.222076,290.995417 L30.222076,292.722393 L29.3585881,292.722393 L29.3585881,290.995417 Z M29.3585881,270.271708 L30.222076,270.271708 L30.222076,271.998684 L29.3585881,271.998684 L29.3585881,270.271708 Z M29.3585881,249.547999 L30.222076,249.547999 L30.222076,251.274975 L29.3585881,251.274975 L29.3585881,249.547999 Z M29.3585881,228.82429 L30.222076,228.82429 L30.222076,230.551265 L29.3585881,230.551265 L29.3585881,228.82429 Z M29.3585881,208.10058 L30.222076,208.10058 L30.222076,209.827556 L29.3585881,209.827556 L29.3585881,208.10058 Z M29.3585881,187.376871 L30.222076,187.376871 L30.222076,189.103847 L29.3585881,189.103847 L29.3585881,187.376871 Z M29.3585881,166.653162 L30.222076,166.653162 L30.222076,168.380138 L29.3585881,168.380138 L29.3585881,166.653162 Z M29.3585881,145.929453 L30.222076,145.929453 L30.222076,147.656428 L29.3585881,147.656428 L29.3585881,145.929453 Z M29.3585881,125.205743 L30.222076,125.205743 L30.222076,126.932719 L29.3585881,126.932719 L29.3585881,125.205743 Z M29.3585881,104.482034 L30.222076,104.482034 L30.222076,106.20901 L29.3585881,106.20901 L29.3585881,104.482034 Z M29.3585881,83.7583249 L30.222076,83.7583249 L30.222076,85.4853007 L29.3585881,85.4853007 L29.3585881,83.7583249 Z M29.3585881,280.633563 L30.222076,280.633563 L30.222076,282.360539 L29.3585881,282.360539 L29.3585881,280.633563 Z M29.3585881,259.909854 L30.222076,259.909854 L30.222076,261.636829 L29.3585881,261.636829 L29.3585881,259.909854 Z M29.3585881,239.186144 L30.222076,239.186144 L30.222076,240.91312 L29.3585881,240.91312 L29.3585881,239.186144 Z M29.3585881,218.462435 L30.222076,218.462435 L30.222076,220.189411 L29.3585881,220.189411 L29.3585881,218.462435 Z M29.3585881,197.738726 L30.222076,197.738726 L30.222076,199.465702 L29.3585881,199.465702 L29.3585881,197.738726 Z M29.3585881,177.015017 L30.222076,177.015017 L30.222076,178.741992 L29.3585881,178.741992 L29.3585881,177.015017 Z M29.3585881,156.291307 L30.222076,156.291307 L30.222076,158.018283 L29.3585881,158.018283 L29.3585881,156.291307 Z M29.3585881,135.567598 L30.222076,135.567598 L30.222076,137.294574 L29.3585881,137.294574 L29.3585881,135.567598 Z M29.3585881,114.843889 L30.222076,114.843889 L30.222076,116.570865 L29.3585881,116.570865 L29.3585881,114.843889 Z M29.3585881,94.1201795 L30.222076,94.1201795 L30.222076,95.8471553 L29.3585881,95.8471553 L29.3585881,94.1201795 Z" id="Combined-Shape-Copy-9" fill="#C2C2C2"></path>
                    <path d="M225.370338,277.179611 L226.233826,277.179611 L226.233826,278.906587 L225.370338,278.906587 L225.370338,277.179611 Z M225.370338,256.455902 L226.233826,256.455902 L226.233826,258.182878 L225.370338,258.182878 L225.370338,256.455902 Z M225.370338,235.732193 L226.233826,235.732193 L226.233826,237.459168 L225.370338,237.459168 L225.370338,235.732193 Z M225.370338,215.008483 L226.233826,215.008483 L226.233826,216.735459 L225.370338,216.735459 L225.370338,215.008483 Z M225.370338,194.284774 L226.233826,194.284774 L226.233826,196.01175 L225.370338,196.01175 L225.370338,194.284774 Z M225.370338,173.561065 L226.233826,173.561065 L226.233826,175.288041 L225.370338,175.288041 L225.370338,173.561065 Z M225.370338,152.837356 L226.233826,152.837356 L226.233826,154.564331 L225.370338,154.564331 L225.370338,152.837356 Z M225.370338,132.113646 L226.233826,132.113646 L226.233826,133.840622 L225.370338,133.840622 L225.370338,132.113646 Z M225.370338,111.389937 L226.233826,111.389937 L226.233826,113.116913 L225.370338,113.116913 L225.370338,111.389937 Z M225.370338,90.666228 L226.233826,90.666228 L226.233826,92.3932037 L225.370338,92.3932037 L225.370338,90.666228 Z M225.370338,287.541466 L226.233826,287.541466 L226.233826,289.268442 L225.370338,289.268442 L225.370338,287.541466 Z M225.370338,266.817757 L226.233826,266.817757 L226.233826,268.544732 L225.370338,268.544732 L225.370338,266.817757 Z M225.370338,246.094047 L226.233826,246.094047 L226.233826,247.821023 L225.370338,247.821023 L225.370338,246.094047 Z M225.370338,225.370338 L226.233826,225.370338 L226.233826,227.097314 L225.370338,227.097314 L225.370338,225.370338 Z M225.370338,204.646629 L226.233826,204.646629 L226.233826,206.373605 L225.370338,206.373605 L225.370338,204.646629 Z M225.370338,183.92292 L226.233826,183.92292 L226.233826,185.649895 L225.370338,185.649895 L225.370338,183.92292 Z M225.370338,163.19921 L226.233826,163.19921 L226.233826,164.926186 L225.370338,164.926186 L225.370338,163.19921 Z M225.370338,142.475501 L226.233826,142.475501 L226.233826,144.202477 L225.370338,144.202477 L225.370338,142.475501 Z M225.370338,121.751792 L226.233826,121.751792 L226.233826,123.478768 L225.370338,123.478768 L225.370338,121.751792 Z M225.370338,101.028083 L226.233826,101.028083 L226.233826,102.755058 L225.370338,102.755058 L225.370338,101.028083 Z M225.370338,80.3043733 L226.233826,80.3043733 L226.233826,82.0313491 L225.370338,82.0313491 L225.370338,80.3043733 Z M225.370338,294.449369 L226.233826,294.449369 L226.233826,296.176345 L225.370338,296.176345 L225.370338,294.449369 Z M225.370338,273.72566 L226.233826,273.72566 L226.233826,275.452635 L225.370338,275.452635 L225.370338,273.72566 Z M225.370338,253.00195 L226.233826,253.00195 L226.233826,254.728926 L225.370338,254.728926 L225.370338,253.00195 Z M225.370338,232.278241 L226.233826,232.278241 L226.233826,234.005217 L225.370338,234.005217 L225.370338,232.278241 Z M225.370338,211.554532 L226.233826,211.554532 L226.233826,213.281508 L225.370338,213.281508 L225.370338,211.554532 Z M225.370338,190.830823 L226.233826,190.830823 L226.233826,192.557798 L225.370338,192.557798 L225.370338,190.830823 Z M225.370338,170.107113 L226.233826,170.107113 L226.233826,171.834089 L225.370338,171.834089 L225.370338,170.107113 Z M225.370338,149.383404 L226.233826,149.383404 L226.233826,151.11038 L225.370338,151.11038 L225.370338,149.383404 Z M225.370338,128.659695 L226.233826,128.659695 L226.233826,130.386671 L225.370338,130.386671 L225.370338,128.659695 Z M225.370338,107.935986 L226.233826,107.935986 L226.233826,109.662961 L225.370338,109.662961 L225.370338,107.935986 Z M225.370338,87.2122764 L226.233826,87.2122764 L226.233826,88.9392522 L225.370338,88.9392522 L225.370338,87.2122764 Z M225.370338,284.087514 L226.233826,284.087514 L226.233826,285.81449 L225.370338,285.81449 L225.370338,284.087514 Z M225.370338,263.363805 L226.233826,263.363805 L226.233826,265.090781 L225.370338,265.090781 L225.370338,263.363805 Z M225.370338,242.640096 L226.233826,242.640096 L226.233826,244.367072 L225.370338,244.367072 L225.370338,242.640096 Z M225.370338,221.916387 L226.233826,221.916387 L226.233826,223.643362 L225.370338,223.643362 L225.370338,221.916387 Z M225.370338,201.192677 L226.233826,201.192677 L226.233826,202.919653 L225.370338,202.919653 L225.370338,201.192677 Z M225.370338,180.468968 L226.233826,180.468968 L226.233826,182.195944 L225.370338,182.195944 L225.370338,180.468968 Z M225.370338,159.745259 L226.233826,159.745259 L226.233826,161.472235 L225.370338,161.472235 L225.370338,159.745259 Z M225.370338,139.02155 L226.233826,139.02155 L226.233826,140.748525 L225.370338,140.748525 L225.370338,139.02155 Z M225.370338,118.29784 L226.233826,118.29784 L226.233826,120.024816 L225.370338,120.024816 L225.370338,118.29784 Z M225.370338,97.574131 L226.233826,97.574131 L226.233826,99.3011068 L225.370338,99.3011068 L225.370338,97.574131 Z M225.370338,290.995417 L226.233826,290.995417 L226.233826,292.722393 L225.370338,292.722393 L225.370338,290.995417 Z M225.370338,270.271708 L226.233826,270.271708 L226.233826,271.998684 L225.370338,271.998684 L225.370338,270.271708 Z M225.370338,249.547999 L226.233826,249.547999 L226.233826,251.274975 L225.370338,251.274975 L225.370338,249.547999 Z M225.370338,228.82429 L226.233826,228.82429 L226.233826,230.551265 L225.370338,230.551265 L225.370338,228.82429 Z M225.370338,208.10058 L226.233826,208.10058 L226.233826,209.827556 L225.370338,209.827556 L225.370338,208.10058 Z M225.370338,187.376871 L226.233826,187.376871 L226.233826,189.103847 L225.370338,189.103847 L225.370338,187.376871 Z M225.370338,166.653162 L226.233826,166.653162 L226.233826,168.380138 L225.370338,168.380138 L225.370338,166.653162 Z M225.370338,145.929453 L226.233826,145.929453 L226.233826,147.656428 L225.370338,147.656428 L225.370338,145.929453 Z M225.370338,125.205743 L226.233826,125.205743 L226.233826,126.932719 L225.370338,126.932719 L225.370338,125.205743 Z M225.370338,104.482034 L226.233826,104.482034 L226.233826,106.20901 L225.370338,106.20901 L225.370338,104.482034 Z M225.370338,83.7583249 L226.233826,83.7583249 L226.233826,85.4853007 L225.370338,85.4853007 L225.370338,83.7583249 Z M225.370338,280.633563 L226.233826,280.633563 L226.233826,282.360539 L225.370338,282.360539 L225.370338,280.633563 Z M225.370338,259.909854 L226.233826,259.909854 L226.233826,261.636829 L225.370338,261.636829 L225.370338,259.909854 Z M225.370338,239.186144 L226.233826,239.186144 L226.233826,240.91312 L225.370338,240.91312 L225.370338,239.186144 Z M225.370338,218.462435 L226.233826,218.462435 L226.233826,220.189411 L225.370338,220.189411 L225.370338,218.462435 Z M225.370338,197.738726 L226.233826,197.738726 L226.233826,199.465702 L225.370338,199.465702 L225.370338,197.738726 Z M225.370338,177.015017 L226.233826,177.015017 L226.233826,178.741992 L225.370338,178.741992 L225.370338,177.015017 Z M225.370338,156.291307 L226.233826,156.291307 L226.233826,158.018283 L225.370338,158.018283 L225.370338,156.291307 Z M225.370338,135.567598 L226.233826,135.567598 L226.233826,137.294574 L225.370338,137.294574 L225.370338,135.567598 Z M225.370338,114.843889 L226.233826,114.843889 L226.233826,116.570865 L225.370338,116.570865 L225.370338,114.843889 Z M225.370338,94.1201795 L226.233826,94.1201795 L226.233826,95.8471553 L225.370338,95.8471553 L225.370338,94.1201795 Z" id="Combined-Shape-Copy" fill="#C2C2C2"></path>
                    <path d="M323.807957,277.179611 L324.671445,277.179611 L324.671445,278.906587 L323.807957,278.906587 L323.807957,277.179611 Z M323.807957,256.455902 L324.671445,256.455902 L324.671445,258.182878 L323.807957,258.182878 L323.807957,256.455902 Z M323.807957,235.732193 L324.671445,235.732193 L324.671445,237.459168 L323.807957,237.459168 L323.807957,235.732193 Z M323.807957,215.008483 L324.671445,215.008483 L324.671445,216.735459 L323.807957,216.735459 L323.807957,215.008483 Z M323.807957,194.284774 L324.671445,194.284774 L324.671445,196.01175 L323.807957,196.01175 L323.807957,194.284774 Z M323.807957,173.561065 L324.671445,173.561065 L324.671445,175.288041 L323.807957,175.288041 L323.807957,173.561065 Z M323.807957,152.837356 L324.671445,152.837356 L324.671445,154.564331 L323.807957,154.564331 L323.807957,152.837356 Z M323.807957,132.113646 L324.671445,132.113646 L324.671445,133.840622 L323.807957,133.840622 L323.807957,132.113646 Z M323.807957,111.389937 L324.671445,111.389937 L324.671445,113.116913 L323.807957,113.116913 L323.807957,111.389937 Z M323.807957,90.666228 L324.671445,90.666228 L324.671445,92.3932037 L323.807957,92.3932037 L323.807957,90.666228 Z M323.807957,287.541466 L324.671445,287.541466 L324.671445,289.268442 L323.807957,289.268442 L323.807957,287.541466 Z M323.807957,266.817757 L324.671445,266.817757 L324.671445,268.544732 L323.807957,268.544732 L323.807957,266.817757 Z M323.807957,246.094047 L324.671445,246.094047 L324.671445,247.821023 L323.807957,247.821023 L323.807957,246.094047 Z M323.807957,225.370338 L324.671445,225.370338 L324.671445,227.097314 L323.807957,227.097314 L323.807957,225.370338 Z M323.807957,204.646629 L324.671445,204.646629 L324.671445,206.373605 L323.807957,206.373605 L323.807957,204.646629 Z M323.807957,183.92292 L324.671445,183.92292 L324.671445,185.649895 L323.807957,185.649895 L323.807957,183.92292 Z M323.807957,163.19921 L324.671445,163.19921 L324.671445,164.926186 L323.807957,164.926186 L323.807957,163.19921 Z M323.807957,142.475501 L324.671445,142.475501 L324.671445,144.202477 L323.807957,144.202477 L323.807957,142.475501 Z M323.807957,121.751792 L324.671445,121.751792 L324.671445,123.478768 L323.807957,123.478768 L323.807957,121.751792 Z M323.807957,101.028083 L324.671445,101.028083 L324.671445,102.755058 L323.807957,102.755058 L323.807957,101.028083 Z M323.807957,80.3043733 L324.671445,80.3043733 L324.671445,82.0313491 L323.807957,82.0313491 L323.807957,80.3043733 Z M323.807957,294.449369 L324.671445,294.449369 L324.671445,296.176345 L323.807957,296.176345 L323.807957,294.449369 Z M323.807957,273.72566 L324.671445,273.72566 L324.671445,275.452635 L323.807957,275.452635 L323.807957,273.72566 Z M323.807957,253.00195 L324.671445,253.00195 L324.671445,254.728926 L323.807957,254.728926 L323.807957,253.00195 Z M323.807957,232.278241 L324.671445,232.278241 L324.671445,234.005217 L323.807957,234.005217 L323.807957,232.278241 Z M323.807957,211.554532 L324.671445,211.554532 L324.671445,213.281508 L323.807957,213.281508 L323.807957,211.554532 Z M323.807957,190.830823 L324.671445,190.830823 L324.671445,192.557798 L323.807957,192.557798 L323.807957,190.830823 Z M323.807957,170.107113 L324.671445,170.107113 L324.671445,171.834089 L323.807957,171.834089 L323.807957,170.107113 Z M323.807957,149.383404 L324.671445,149.383404 L324.671445,151.11038 L323.807957,151.11038 L323.807957,149.383404 Z M323.807957,128.659695 L324.671445,128.659695 L324.671445,130.386671 L323.807957,130.386671 L323.807957,128.659695 Z M323.807957,107.935986 L324.671445,107.935986 L324.671445,109.662961 L323.807957,109.662961 L323.807957,107.935986 Z M323.807957,87.2122764 L324.671445,87.2122764 L324.671445,88.9392522 L323.807957,88.9392522 L323.807957,87.2122764 Z M323.807957,284.087514 L324.671445,284.087514 L324.671445,285.81449 L323.807957,285.81449 L323.807957,284.087514 Z M323.807957,263.363805 L324.671445,263.363805 L324.671445,265.090781 L323.807957,265.090781 L323.807957,263.363805 Z M323.807957,242.640096 L324.671445,242.640096 L324.671445,244.367072 L323.807957,244.367072 L323.807957,242.640096 Z M323.807957,221.916387 L324.671445,221.916387 L324.671445,223.643362 L323.807957,223.643362 L323.807957,221.916387 Z M323.807957,201.192677 L324.671445,201.192677 L324.671445,202.919653 L323.807957,202.919653 L323.807957,201.192677 Z M323.807957,180.468968 L324.671445,180.468968 L324.671445,182.195944 L323.807957,182.195944 L323.807957,180.468968 Z M323.807957,159.745259 L324.671445,159.745259 L324.671445,161.472235 L323.807957,161.472235 L323.807957,159.745259 Z M323.807957,139.02155 L324.671445,139.02155 L324.671445,140.748525 L323.807957,140.748525 L323.807957,139.02155 Z M323.807957,118.29784 L324.671445,118.29784 L324.671445,120.024816 L323.807957,120.024816 L323.807957,118.29784 Z M323.807957,97.574131 L324.671445,97.574131 L324.671445,99.3011068 L323.807957,99.3011068 L323.807957,97.574131 Z M323.807957,290.995417 L324.671445,290.995417 L324.671445,292.722393 L323.807957,292.722393 L323.807957,290.995417 Z M323.807957,270.271708 L324.671445,270.271708 L324.671445,271.998684 L323.807957,271.998684 L323.807957,270.271708 Z M323.807957,249.547999 L324.671445,249.547999 L324.671445,251.274975 L323.807957,251.274975 L323.807957,249.547999 Z M323.807957,228.82429 L324.671445,228.82429 L324.671445,230.551265 L323.807957,230.551265 L323.807957,228.82429 Z M323.807957,208.10058 L324.671445,208.10058 L324.671445,209.827556 L323.807957,209.827556 L323.807957,208.10058 Z M323.807957,187.376871 L324.671445,187.376871 L324.671445,189.103847 L323.807957,189.103847 L323.807957,187.376871 Z M323.807957,166.653162 L324.671445,166.653162 L324.671445,168.380138 L323.807957,168.380138 L323.807957,166.653162 Z M323.807957,145.929453 L324.671445,145.929453 L324.671445,147.656428 L323.807957,147.656428 L323.807957,145.929453 Z M323.807957,125.205743 L324.671445,125.205743 L324.671445,126.932719 L323.807957,126.932719 L323.807957,125.205743 Z M323.807957,104.482034 L324.671445,104.482034 L324.671445,106.20901 L323.807957,106.20901 L323.807957,104.482034 Z M323.807957,83.7583249 L324.671445,83.7583249 L324.671445,85.4853007 L323.807957,85.4853007 L323.807957,83.7583249 Z M323.807957,280.633563 L324.671445,280.633563 L324.671445,282.360539 L323.807957,282.360539 L323.807957,280.633563 Z M323.807957,259.909854 L324.671445,259.909854 L324.671445,261.636829 L323.807957,261.636829 L323.807957,259.909854 Z M323.807957,239.186144 L324.671445,239.186144 L324.671445,240.91312 L323.807957,240.91312 L323.807957,239.186144 Z M323.807957,218.462435 L324.671445,218.462435 L324.671445,220.189411 L323.807957,220.189411 L323.807957,218.462435 Z M323.807957,197.738726 L324.671445,197.738726 L324.671445,199.465702 L323.807957,199.465702 L323.807957,197.738726 Z M323.807957,177.015017 L324.671445,177.015017 L324.671445,178.741992 L323.807957,178.741992 L323.807957,177.015017 Z M323.807957,156.291307 L324.671445,156.291307 L324.671445,158.018283 L323.807957,158.018283 L323.807957,156.291307 Z M323.807957,135.567598 L324.671445,135.567598 L324.671445,137.294574 L323.807957,137.294574 L323.807957,135.567598 Z M323.807957,114.843889 L324.671445,114.843889 L324.671445,116.570865 L323.807957,116.570865 L323.807957,114.843889 Z M323.807957,94.1201795 L324.671445,94.1201795 L324.671445,95.8471553 L323.807957,95.8471553 L323.807957,94.1201795 Z" id="Combined-Shape-Copy-2" fill="#C2C2C2"></path>
                    <path d="M423.109064,277.179611 L423.972552,277.179611 L423.972552,278.906587 L423.109064,278.906587 L423.109064,277.179611 Z M423.109064,256.455902 L423.972552,256.455902 L423.972552,258.182878 L423.109064,258.182878 L423.109064,256.455902 Z M423.109064,235.732193 L423.972552,235.732193 L423.972552,237.459168 L423.109064,237.459168 L423.109064,235.732193 Z M423.109064,215.008483 L423.972552,215.008483 L423.972552,216.735459 L423.109064,216.735459 L423.109064,215.008483 Z M423.109064,194.284774 L423.972552,194.284774 L423.972552,196.01175 L423.109064,196.01175 L423.109064,194.284774 Z M423.109064,173.561065 L423.972552,173.561065 L423.972552,175.288041 L423.109064,175.288041 L423.109064,173.561065 Z M423.109064,152.837356 L423.972552,152.837356 L423.972552,154.564331 L423.109064,154.564331 L423.109064,152.837356 Z M423.109064,132.113646 L423.972552,132.113646 L423.972552,133.840622 L423.109064,133.840622 L423.109064,132.113646 Z M423.109064,111.389937 L423.972552,111.389937 L423.972552,113.116913 L423.109064,113.116913 L423.109064,111.389937 Z M423.109064,90.666228 L423.972552,90.666228 L423.972552,92.3932037 L423.109064,92.3932037 L423.109064,90.666228 Z M423.109064,287.541466 L423.972552,287.541466 L423.972552,289.268442 L423.109064,289.268442 L423.109064,287.541466 Z M423.109064,266.817757 L423.972552,266.817757 L423.972552,268.544732 L423.109064,268.544732 L423.109064,266.817757 Z M423.109064,246.094047 L423.972552,246.094047 L423.972552,247.821023 L423.109064,247.821023 L423.109064,246.094047 Z M423.109064,225.370338 L423.972552,225.370338 L423.972552,227.097314 L423.109064,227.097314 L423.109064,225.370338 Z M423.109064,204.646629 L423.972552,204.646629 L423.972552,206.373605 L423.109064,206.373605 L423.109064,204.646629 Z M423.109064,183.92292 L423.972552,183.92292 L423.972552,185.649895 L423.109064,185.649895 L423.109064,183.92292 Z M423.109064,163.19921 L423.972552,163.19921 L423.972552,164.926186 L423.109064,164.926186 L423.109064,163.19921 Z M423.109064,142.475501 L423.972552,142.475501 L423.972552,144.202477 L423.109064,144.202477 L423.109064,142.475501 Z M423.109064,121.751792 L423.972552,121.751792 L423.972552,123.478768 L423.109064,123.478768 L423.109064,121.751792 Z M423.109064,101.028083 L423.972552,101.028083 L423.972552,102.755058 L423.109064,102.755058 L423.109064,101.028083 Z M423.109064,80.3043733 L423.972552,80.3043733 L423.972552,82.0313491 L423.109064,82.0313491 L423.109064,80.3043733 Z M423.109064,294.449369 L423.972552,294.449369 L423.972552,296.176345 L423.109064,296.176345 L423.109064,294.449369 Z M423.109064,273.72566 L423.972552,273.72566 L423.972552,275.452635 L423.109064,275.452635 L423.109064,273.72566 Z M423.109064,253.00195 L423.972552,253.00195 L423.972552,254.728926 L423.109064,254.728926 L423.109064,253.00195 Z M423.109064,232.278241 L423.972552,232.278241 L423.972552,234.005217 L423.109064,234.005217 L423.109064,232.278241 Z M423.109064,211.554532 L423.972552,211.554532 L423.972552,213.281508 L423.109064,213.281508 L423.109064,211.554532 Z M423.109064,190.830823 L423.972552,190.830823 L423.972552,192.557798 L423.109064,192.557798 L423.109064,190.830823 Z M423.109064,170.107113 L423.972552,170.107113 L423.972552,171.834089 L423.109064,171.834089 L423.109064,170.107113 Z M423.109064,149.383404 L423.972552,149.383404 L423.972552,151.11038 L423.109064,151.11038 L423.109064,149.383404 Z M423.109064,128.659695 L423.972552,128.659695 L423.972552,130.386671 L423.109064,130.386671 L423.109064,128.659695 Z M423.109064,107.935986 L423.972552,107.935986 L423.972552,109.662961 L423.109064,109.662961 L423.109064,107.935986 Z M423.109064,87.2122764 L423.972552,87.2122764 L423.972552,88.9392522 L423.109064,88.9392522 L423.109064,87.2122764 Z M423.109064,284.087514 L423.972552,284.087514 L423.972552,285.81449 L423.109064,285.81449 L423.109064,284.087514 Z M423.109064,263.363805 L423.972552,263.363805 L423.972552,265.090781 L423.109064,265.090781 L423.109064,263.363805 Z M423.109064,242.640096 L423.972552,242.640096 L423.972552,244.367072 L423.109064,244.367072 L423.109064,242.640096 Z M423.109064,221.916387 L423.972552,221.916387 L423.972552,223.643362 L423.109064,223.643362 L423.109064,221.916387 Z M423.109064,201.192677 L423.972552,201.192677 L423.972552,202.919653 L423.109064,202.919653 L423.109064,201.192677 Z M423.109064,180.468968 L423.972552,180.468968 L423.972552,182.195944 L423.109064,182.195944 L423.109064,180.468968 Z M423.109064,159.745259 L423.972552,159.745259 L423.972552,161.472235 L423.109064,161.472235 L423.109064,159.745259 Z M423.109064,139.02155 L423.972552,139.02155 L423.972552,140.748525 L423.109064,140.748525 L423.109064,139.02155 Z M423.109064,118.29784 L423.972552,118.29784 L423.972552,120.024816 L423.109064,120.024816 L423.109064,118.29784 Z M423.109064,97.574131 L423.972552,97.574131 L423.972552,99.3011068 L423.109064,99.3011068 L423.109064,97.574131 Z M423.109064,290.995417 L423.972552,290.995417 L423.972552,292.722393 L423.109064,292.722393 L423.109064,290.995417 Z M423.109064,270.271708 L423.972552,270.271708 L423.972552,271.998684 L423.109064,271.998684 L423.109064,270.271708 Z M423.109064,249.547999 L423.972552,249.547999 L423.972552,251.274975 L423.109064,251.274975 L423.109064,249.547999 Z M423.109064,228.82429 L423.972552,228.82429 L423.972552,230.551265 L423.109064,230.551265 L423.109064,228.82429 Z M423.109064,208.10058 L423.972552,208.10058 L423.972552,209.827556 L423.109064,209.827556 L423.109064,208.10058 Z M423.109064,187.376871 L423.972552,187.376871 L423.972552,189.103847 L423.109064,189.103847 L423.109064,187.376871 Z M423.109064,166.653162 L423.972552,166.653162 L423.972552,168.380138 L423.109064,168.380138 L423.109064,166.653162 Z M423.109064,145.929453 L423.972552,145.929453 L423.972552,147.656428 L423.109064,147.656428 L423.109064,145.929453 Z M423.109064,125.205743 L423.972552,125.205743 L423.972552,126.932719 L423.109064,126.932719 L423.109064,125.205743 Z M423.109064,104.482034 L423.972552,104.482034 L423.972552,106.20901 L423.109064,106.20901 L423.109064,104.482034 Z M423.109064,83.7583249 L423.972552,83.7583249 L423.972552,85.4853007 L423.109064,85.4853007 L423.109064,83.7583249 Z M423.109064,280.633563 L423.972552,280.633563 L423.972552,282.360539 L423.109064,282.360539 L423.109064,280.633563 Z M423.109064,259.909854 L423.972552,259.909854 L423.972552,261.636829 L423.109064,261.636829 L423.109064,259.909854 Z M423.109064,239.186144 L423.972552,239.186144 L423.972552,240.91312 L423.109064,240.91312 L423.109064,239.186144 Z M423.109064,218.462435 L423.972552,218.462435 L423.972552,220.189411 L423.109064,220.189411 L423.109064,218.462435 Z M423.109064,197.738726 L423.972552,197.738726 L423.972552,199.465702 L423.109064,199.465702 L423.109064,197.738726 Z M423.109064,177.015017 L423.972552,177.015017 L423.972552,178.741992 L423.109064,178.741992 L423.109064,177.015017 Z M423.109064,156.291307 L423.972552,156.291307 L423.972552,158.018283 L423.109064,158.018283 L423.109064,156.291307 Z M423.109064,135.567598 L423.972552,135.567598 L423.972552,137.294574 L423.109064,137.294574 L423.109064,135.567598 Z M423.109064,114.843889 L423.972552,114.843889 L423.972552,116.570865 L423.109064,116.570865 L423.109064,114.843889 Z M423.109064,94.1201795 L423.972552,94.1201795 L423.972552,95.8471553 L423.109064,95.8471553 L423.109064,94.1201795 Z" id="Combined-Shape-Copy-3" fill="#C2C2C2"></path>
                    <path d="M521.546683,277.179611 L522.410171,277.179611 L522.410171,278.906587 L521.546683,278.906587 L521.546683,277.179611 Z M521.546683,256.455902 L522.410171,256.455902 L522.410171,258.182878 L521.546683,258.182878 L521.546683,256.455902 Z M521.546683,235.732193 L522.410171,235.732193 L522.410171,237.459168 L521.546683,237.459168 L521.546683,235.732193 Z M521.546683,215.008483 L522.410171,215.008483 L522.410171,216.735459 L521.546683,216.735459 L521.546683,215.008483 Z M521.546683,194.284774 L522.410171,194.284774 L522.410171,196.01175 L521.546683,196.01175 L521.546683,194.284774 Z M521.546683,173.561065 L522.410171,173.561065 L522.410171,175.288041 L521.546683,175.288041 L521.546683,173.561065 Z M521.546683,152.837356 L522.410171,152.837356 L522.410171,154.564331 L521.546683,154.564331 L521.546683,152.837356 Z M521.546683,132.113646 L522.410171,132.113646 L522.410171,133.840622 L521.546683,133.840622 L521.546683,132.113646 Z M521.546683,111.389937 L522.410171,111.389937 L522.410171,113.116913 L521.546683,113.116913 L521.546683,111.389937 Z M521.546683,90.666228 L522.410171,90.666228 L522.410171,92.3932037 L521.546683,92.3932037 L521.546683,90.666228 Z M521.546683,287.541466 L522.410171,287.541466 L522.410171,289.268442 L521.546683,289.268442 L521.546683,287.541466 Z M521.546683,266.817757 L522.410171,266.817757 L522.410171,268.544732 L521.546683,268.544732 L521.546683,266.817757 Z M521.546683,246.094047 L522.410171,246.094047 L522.410171,247.821023 L521.546683,247.821023 L521.546683,246.094047 Z M521.546683,225.370338 L522.410171,225.370338 L522.410171,227.097314 L521.546683,227.097314 L521.546683,225.370338 Z M521.546683,204.646629 L522.410171,204.646629 L522.410171,206.373605 L521.546683,206.373605 L521.546683,204.646629 Z M521.546683,183.92292 L522.410171,183.92292 L522.410171,185.649895 L521.546683,185.649895 L521.546683,183.92292 Z M521.546683,163.19921 L522.410171,163.19921 L522.410171,164.926186 L521.546683,164.926186 L521.546683,163.19921 Z M521.546683,142.475501 L522.410171,142.475501 L522.410171,144.202477 L521.546683,144.202477 L521.546683,142.475501 Z M521.546683,121.751792 L522.410171,121.751792 L522.410171,123.478768 L521.546683,123.478768 L521.546683,121.751792 Z M521.546683,101.028083 L522.410171,101.028083 L522.410171,102.755058 L521.546683,102.755058 L521.546683,101.028083 Z M521.546683,80.3043733 L522.410171,80.3043733 L522.410171,82.0313491 L521.546683,82.0313491 L521.546683,80.3043733 Z M521.546683,294.449369 L522.410171,294.449369 L522.410171,296.176345 L521.546683,296.176345 L521.546683,294.449369 Z M521.546683,273.72566 L522.410171,273.72566 L522.410171,275.452635 L521.546683,275.452635 L521.546683,273.72566 Z M521.546683,253.00195 L522.410171,253.00195 L522.410171,254.728926 L521.546683,254.728926 L521.546683,253.00195 Z M521.546683,232.278241 L522.410171,232.278241 L522.410171,234.005217 L521.546683,234.005217 L521.546683,232.278241 Z M521.546683,211.554532 L522.410171,211.554532 L522.410171,213.281508 L521.546683,213.281508 L521.546683,211.554532 Z M521.546683,190.830823 L522.410171,190.830823 L522.410171,192.557798 L521.546683,192.557798 L521.546683,190.830823 Z M521.546683,170.107113 L522.410171,170.107113 L522.410171,171.834089 L521.546683,171.834089 L521.546683,170.107113 Z M521.546683,149.383404 L522.410171,149.383404 L522.410171,151.11038 L521.546683,151.11038 L521.546683,149.383404 Z M521.546683,128.659695 L522.410171,128.659695 L522.410171,130.386671 L521.546683,130.386671 L521.546683,128.659695 Z M521.546683,107.935986 L522.410171,107.935986 L522.410171,109.662961 L521.546683,109.662961 L521.546683,107.935986 Z M521.546683,87.2122764 L522.410171,87.2122764 L522.410171,88.9392522 L521.546683,88.9392522 L521.546683,87.2122764 Z M521.546683,284.087514 L522.410171,284.087514 L522.410171,285.81449 L521.546683,285.81449 L521.546683,284.087514 Z M521.546683,263.363805 L522.410171,263.363805 L522.410171,265.090781 L521.546683,265.090781 L521.546683,263.363805 Z M521.546683,242.640096 L522.410171,242.640096 L522.410171,244.367072 L521.546683,244.367072 L521.546683,242.640096 Z M521.546683,221.916387 L522.410171,221.916387 L522.410171,223.643362 L521.546683,223.643362 L521.546683,221.916387 Z M521.546683,201.192677 L522.410171,201.192677 L522.410171,202.919653 L521.546683,202.919653 L521.546683,201.192677 Z M521.546683,180.468968 L522.410171,180.468968 L522.410171,182.195944 L521.546683,182.195944 L521.546683,180.468968 Z M521.546683,159.745259 L522.410171,159.745259 L522.410171,161.472235 L521.546683,161.472235 L521.546683,159.745259 Z M521.546683,139.02155 L522.410171,139.02155 L522.410171,140.748525 L521.546683,140.748525 L521.546683,139.02155 Z M521.546683,118.29784 L522.410171,118.29784 L522.410171,120.024816 L521.546683,120.024816 L521.546683,118.29784 Z M521.546683,97.574131 L522.410171,97.574131 L522.410171,99.3011068 L521.546683,99.3011068 L521.546683,97.574131 Z M521.546683,290.995417 L522.410171,290.995417 L522.410171,292.722393 L521.546683,292.722393 L521.546683,290.995417 Z M521.546683,270.271708 L522.410171,270.271708 L522.410171,271.998684 L521.546683,271.998684 L521.546683,270.271708 Z M521.546683,249.547999 L522.410171,249.547999 L522.410171,251.274975 L521.546683,251.274975 L521.546683,249.547999 Z M521.546683,228.82429 L522.410171,228.82429 L522.410171,230.551265 L521.546683,230.551265 L521.546683,228.82429 Z M521.546683,208.10058 L522.410171,208.10058 L522.410171,209.827556 L521.546683,209.827556 L521.546683,208.10058 Z M521.546683,187.376871 L522.410171,187.376871 L522.410171,189.103847 L521.546683,189.103847 L521.546683,187.376871 Z M521.546683,166.653162 L522.410171,166.653162 L522.410171,168.380138 L521.546683,168.380138 L521.546683,166.653162 Z M521.546683,145.929453 L522.410171,145.929453 L522.410171,147.656428 L521.546683,147.656428 L521.546683,145.929453 Z M521.546683,125.205743 L522.410171,125.205743 L522.410171,126.932719 L521.546683,126.932719 L521.546683,125.205743 Z M521.546683,104.482034 L522.410171,104.482034 L522.410171,106.20901 L521.546683,106.20901 L521.546683,104.482034 Z M521.546683,83.7583249 L522.410171,83.7583249 L522.410171,85.4853007 L521.546683,85.4853007 L521.546683,83.7583249 Z M521.546683,280.633563 L522.410171,280.633563 L522.410171,282.360539 L521.546683,282.360539 L521.546683,280.633563 Z M521.546683,259.909854 L522.410171,259.909854 L522.410171,261.636829 L521.546683,261.636829 L521.546683,259.909854 Z M521.546683,239.186144 L522.410171,239.186144 L522.410171,240.91312 L521.546683,240.91312 L521.546683,239.186144 Z M521.546683,218.462435 L522.410171,218.462435 L522.410171,220.189411 L521.546683,220.189411 L521.546683,218.462435 Z M521.546683,197.738726 L522.410171,197.738726 L522.410171,199.465702 L521.546683,199.465702 L521.546683,197.738726 Z M521.546683,177.015017 L522.410171,177.015017 L522.410171,178.741992 L521.546683,178.741992 L521.546683,177.015017 Z M521.546683,156.291307 L522.410171,156.291307 L522.410171,158.018283 L521.546683,158.018283 L521.546683,156.291307 Z M521.546683,135.567598 L522.410171,135.567598 L522.410171,137.294574 L521.546683,137.294574 L521.546683,135.567598 Z M521.546683,114.843889 L522.410171,114.843889 L522.410171,116.570865 L521.546683,116.570865 L521.546683,114.843889 Z M521.546683,94.1201795 L522.410171,94.1201795 L522.410171,95.8471553 L521.546683,95.8471553 L521.546683,94.1201795 Z" id="Combined-Shape-Copy-4" fill="#C2C2C2"></path>
                    <rect id="Rectangle-11" fill="#C2C2C2" x="618.599453" y="78.5713069" width="3.45395154" height="219"></rect>
                    <rect id="Rectangle-4" fill="#C2C2C2" x="0" y="76.7139097" width="622" height="3.45395154"></rect>
                    <rect id="Rectangle-4-Copy" fill="#C2C2C2" x="0" y="149.246892" width="622" height="3.45395154"></rect>
                    <rect id="Rectangle-4-Copy-2" fill="#C2C2C2" x="0" y="222.643362" width="622" height="3.45395154"></rect>
                    <rect id="Rectangle-4-Copy-3" fill="#C2C2C2" x="0" y="296.039833" width="622" height="3.45395154"></rect>
                    <rect id="Rectangle-5" fill="#FF5824" x="0" y="79.4408855" width="27.6316123" height="69.0790308" rx="2"></rect>
                    <rect id="Rectangle-5-Copy" fill="#0FAFD3" x="0" y="152.837356" width="27.6316123" height="69.0790308" rx="2"></rect>
                    <rect id="Rectangle-5-Copy-2" fill="#54277C" x="0" y="226.233826" width="27.6316123" height="69.0790308" rx="2"></rect>
                    <rect id="Rectangle-9" fill="#C2C2C2" x="0" y="0" width="108.799474" height="22.450685" rx="2"></rect>
                    <rect id="Rectangle-9-Copy-8" fill="#C2C2C2" x="535.195858" y="0" width="85.7608013" height="22.450685" rx="2"></rect>
                    <polygon id="Rectangle-8" fill="#717171" points="608.073592 9.10971674 614.981495 9.10971674 611.611734 12.5636683"></polygon>
                    <rect id="Rectangle-9-Copy" fill="#C2C2C2" x="56.1267126" y="45.9902004" width="43.1743943" height="15.5427819" rx="2"></rect>
                    <rect id="Rectangle-9-Copy-2" fill="#C2C2C2" x="154.564331" y="45.9902004" width="43.1743943" height="15.5427819" rx="2"></rect>
                    <rect id="Rectangle-9-Copy-3" fill="#C2C2C2" x="253.00195" y="45.9902004" width="43.1743943" height="15.5427819" rx="2"></rect>
                    <rect id="Rectangle-9-Copy-4" fill="#C2C2C2" x="352.303057" y="45.9902004" width="43.1743943" height="15.5427819" rx="2"></rect>
                    <rect id="Rectangle-9-Copy-5" fill="#C2C2C2" x="450.740676" y="45.9902004" width="43.1743943" height="15.5427819" rx="2"></rect>
                    <rect id="Rectangle-9-Copy-6" fill="#C2C2C2" x="550.041783" y="45.9902004" width="43.1743943" height="15.5427819" rx="2"></rect>
                    <path d="M-3.79071182,114.878428 L-2.44367072,110.535084 L-1.52837356,110.535084 L-0.181332456,114.878428 L1.33840622,110.535084 L2.43503584,110.535084 L0.328125396,116.570865 L-0.682155429,116.570865 L-1.95148262,112.434758 L-2.02056165,112.434758 L-3.28988884,116.570865 L-4.30016967,116.570865 L-6.40708011,110.535084 L-5.3104505,110.535084 L-3.79071182,114.878428 Z M7.61596315,110.535084 L7.61596315,111.493556 L4.39515334,111.493556 L4.39515334,113.091008 L7.28783775,113.091008 L7.28783775,113.997671 L4.39515334,113.997671 L4.39515334,115.612393 L7.7195817,115.612393 L7.7195817,116.570865 L3.37623763,116.570865 L3.37623763,110.535084 L7.61596315,110.535084 Z M11.6657213,116.570865 L9.0234484,116.570865 L9.0234484,110.535084 L11.3721355,110.535084 C11.7808551,110.535084 12.1334425,110.584015 12.4299081,110.681877 C12.7263738,110.77974 12.946561,110.91214 13.0904763,111.079082 C13.3667938,111.389939 13.5049505,111.741087 13.5049505,112.132537 C13.5049505,112.604579 13.3552808,112.955727 13.0559368,113.185992 C12.9465611,113.266585 12.8717263,113.316954 12.83143,113.337102 C12.7911337,113.357251 12.7191771,113.390351 12.615558,113.436404 C12.989738,113.516996 13.2876383,113.685375 13.509268,113.941544 C13.7308976,114.197713 13.8417108,114.515761 13.8417108,114.895698 C13.8417108,115.315931 13.6977976,115.687227 13.4099669,116.009597 C13.0703266,116.383777 12.4889172,116.570865 11.6657213,116.570865 Z M10.0423641,113.039199 L11.3375959,113.039199 C12.0744426,113.039199 12.4428604,112.78879 12.4428604,112.287965 C12.4428604,112.000134 12.3536342,111.792899 12.1751792,111.666253 C11.9967241,111.539608 11.7204108,111.476286 11.3462308,111.476286 L10.0423641,111.476286 L10.0423641,113.039199 Z M10.0423641,115.629663 L11.6398167,115.629663 C12.0139966,115.629663 12.3003839,115.570658 12.4989871,115.452648 C12.6975903,115.334637 12.7968905,115.111572 12.7968905,114.783445 C12.7968905,114.248079 12.3680291,113.980401 11.5102935,113.980401 L10.0423641,113.980401 L10.0423641,115.629663 Z M16.2163025,111.510826 C16.0263342,111.631714 15.9313515,111.814484 15.9313515,112.05914 C15.9313515,112.303796 16.0263342,112.490884 16.2163025,112.620407 C16.4062708,112.749931 16.8106669,112.889527 17.429503,113.039199 C18.048339,113.188871 18.5146178,113.398984 18.8283533,113.669545 C19.1420888,113.940106 19.2989542,114.338746 19.2989542,114.865476 C19.2989542,115.392206 19.100354,115.819628 18.7031476,116.147755 C18.3059412,116.475883 17.7849754,116.639944 17.1402345,116.639944 C16.1961497,116.639944 15.3585748,116.3147 14.6274848,115.664202 L15.2664658,114.895698 C15.876667,115.425307 16.5098851,115.690107 17.1661392,115.690107 C17.4942662,115.690107 17.7547491,115.619589 17.9475957,115.478552 C18.1404423,115.337515 18.2368641,115.150428 18.2368641,114.917285 C18.2368641,114.684142 18.1461988,114.502812 17.9648655,114.373288 C17.7835321,114.243764 17.4712404,114.125755 17.0279811,114.019258 C16.5847218,113.91276 16.2479649,113.814899 16.0177003,113.725672 C15.7874357,113.636444 15.5830789,113.519875 15.4046239,113.375959 C15.0477138,113.105398 14.8692614,112.690928 14.8692614,112.132537 C14.8692614,111.574145 15.072179,111.143845 15.4780203,110.841622 C15.8838617,110.5394 16.3861188,110.388291 16.9848067,110.388291 C17.3704999,110.388291 17.753309,110.451613 18.1332456,110.578259 C18.5131822,110.704904 18.8413043,110.883357 19.1176218,111.113621 L18.5736244,111.882125 C18.3951694,111.72094 18.1533952,111.58854 17.8482946,111.484921 C17.543194,111.381302 17.2424154,111.329493 16.9459498,111.329493 C16.6494841,111.329493 16.4062708,111.389937 16.2163025,111.510826 Z M20.5596466,110.535084 L21.5785623,110.535084 L21.5785623,116.570865 L20.5596466,116.570865 L20.5596466,110.535084 Z M25.5333368,111.467651 L25.5333368,116.570865 L24.5144211,116.570865 L24.5144211,111.467651 L22.6838267,111.467651 L22.6838267,110.535084 L27.3639311,110.535084 L27.3639311,111.467651 L25.5333368,111.467651 Z M32.7089211,110.535084 L32.7089211,111.493556 L29.4881113,111.493556 L29.4881113,113.091008 L32.3807957,113.091008 L32.3807957,113.997671 L29.4881113,113.997671 L29.4881113,115.612393 L32.8125396,115.612393 L32.8125396,116.570865 L28.4691956,116.570865 L28.4691956,110.535084 L32.7089211,110.535084 Z" id="WEBSITE" fill="#E1E4E8" transform="translate(13.202730, 113.514117) rotate(-90.000000) translate(-13.202730, -113.514117) "></path>
                    <path d="M-2.29256034,189.967335 L-3.31147604,189.967335 L-3.31147604,183.931554 L-1.72265833,183.931554 L0.0993011068,187.722266 L1.92126055,183.931554 L3.50144338,183.931554 L3.50144338,189.967335 L2.48252767,189.967335 L2.48252767,185.252691 L0.37561723,189.440607 L-0.194284774,189.440607 L-2.29256034,185.252691 L-2.29256034,189.967335 Z M7.96567574,184.717328 C7.36698782,184.717328 6.86185245,184.93032 6.4502545,185.356309 C6.03865655,185.782299 5.83286067,186.298947 5.83286067,186.90627 C5.83286067,187.513593 6.03865655,188.030242 6.4502545,188.456231 C6.86185245,188.88222 7.36698782,189.095212 7.96567574,189.095212 C8.56436367,189.095212 9.06949903,188.88222 9.48109698,188.456231 C9.89269493,188.030242 10.0984908,187.513593 10.0984908,186.90627 C10.0984908,186.298947 9.89269493,185.782299 9.48109698,185.356309 C9.06949903,184.93032 8.56436367,184.717328 7.96567574,184.717328 Z M7.96567574,190.027779 C7.06764385,190.027779 6.31353864,189.729879 5.70333748,189.134069 C5.09313633,188.538259 4.78804032,187.795667 4.78804032,186.90627 C4.78804032,186.016873 5.09313633,185.274281 5.70333748,184.678471 C6.31353864,184.082662 7.06764385,183.784762 7.96567574,183.784762 C8.86370763,183.784762 9.61781285,184.082662 10.228014,184.678471 C10.8382152,185.274281 11.1433112,186.016873 11.1433112,186.90627 C11.1433112,187.795667 10.8382152,188.538259 10.228014,189.134069 C9.61781285,189.729879 8.86370763,190.027779 7.96567574,190.027779 Z M15.072181,189.967335 L12.4299081,189.967335 L12.4299081,183.931554 L14.7785952,183.931554 C15.1873148,183.931554 15.5399022,183.980485 15.8363678,184.078347 C16.1328335,184.17621 16.3530207,184.30861 16.4969361,184.475552 C16.7732536,184.786409 16.9114102,185.137557 16.9114102,185.529007 C16.9114102,186.001049 16.7617405,186.352198 16.4623965,186.582462 C16.3530209,186.663055 16.278186,186.713425 16.2378897,186.733573 C16.1975934,186.753721 16.1256368,186.786821 16.0220177,186.832874 C16.3961977,186.913466 16.694098,187.081845 16.9157277,187.338014 C17.1373573,187.594184 17.2481705,187.912232 17.2481705,188.292168 C17.2481705,188.712401 17.1042573,189.083697 16.8164266,189.406068 C16.4767863,189.780248 15.8953769,189.967335 15.072181,189.967335 Z M13.4488238,186.435669 L14.7440556,186.435669 C15.4809023,186.435669 15.8493201,186.18526 15.8493201,185.684435 C15.8493201,185.396604 15.7600939,185.189369 15.5816389,185.062724 C15.4031838,184.936078 15.1268705,184.872756 14.7526905,184.872756 L13.4488238,184.872756 L13.4488238,186.435669 Z M13.4488238,189.026133 L15.0462764,189.026133 C15.4204564,189.026133 15.7068436,188.967129 15.9054468,188.849118 C16.1040501,188.731107 16.2033502,188.508042 16.2033502,188.179915 C16.2033502,187.64455 15.7744888,187.376871 14.9167532,187.376871 L13.4488238,187.376871 L13.4488238,189.026133 Z M18.5261326,183.931554 L19.5450483,183.931554 L19.5450483,189.967335 L18.5261326,189.967335 L18.5261326,183.931554 Z M21.2202148,189.967335 L21.2202148,183.931554 L22.2391305,183.931554 L22.2391305,189.000228 L24.9936568,189.000228 L24.9936568,189.967335 L21.2202148,189.967335 Z M30.3472817,183.931554 L30.3472817,184.890026 L27.1264719,184.890026 L27.1264719,186.487479 L30.0191563,186.487479 L30.0191563,187.394141 L27.1264719,187.394141 L27.1264719,189.008863 L30.4509003,189.008863 L30.4509003,189.967335 L26.1075562,189.967335 L26.1075562,183.931554 L30.3472817,183.931554 Z" id="MOBILE" fill="#E1E4E8" transform="translate(13.569712, 186.906270) rotate(-90.000000) translate(-13.569712, -186.906270) "></path>
                    <path d="M-6.29482668,257.854752 C-5.87459381,258.205906 -5.66448053,258.747019 -5.66448053,259.47811 C-5.66448053,260.2092 -5.87891121,260.744557 -6.307779,261.084197 C-6.7366468,261.423837 -7.39433016,261.593655 -8.28084882,261.593655 L-9.3515738,261.593655 L-9.3515738,263.363805 L-10.3704895,263.363805 L-10.3704895,257.328025 L-8.29811858,257.328025 C-7.38281684,257.328025 -6.71505956,257.503599 -6.29482668,257.854752 Z M-7.01583907,260.345915 C-6.81147925,260.130042 -6.70930087,259.813433 -6.70930087,259.396078 C-6.70930087,258.978724 -6.83882276,258.683702 -7.09787042,258.511003 C-7.35691808,258.338305 -7.76275333,258.251957 -8.31538834,258.251957 L-9.3515738,258.251957 L-9.3515738,260.669723 L-8.1685954,260.669723 C-7.60444716,260.669723 -7.22019889,260.561788 -7.01583907,260.345915 Z M-4.46423237,263.363805 L-4.46423237,257.328025 L-3.44531666,257.328025 L-3.44531666,262.396699 L-0.690790308,262.396699 L-0.690790308,263.363805 L-4.46423237,263.363805 Z M1.27796207,261.990859 L0.673520551,263.363805 L-0.414474185,263.363805 L2.2450685,257.328025 L3.33306324,257.328025 L5.99260592,263.363805 L4.90461119,263.363805 L4.30016967,261.990859 L1.27796207,261.990859 Z M3.88569548,261.049658 L2.78906587,258.562812 L1.69243626,261.049658 L3.88569548,261.049658 Z M8.63487885,258.260592 L8.63487885,263.363805 L7.61596315,263.363805 L7.61596315,258.260592 L5.78536883,258.260592 L5.78536883,257.328025 L10.4654732,257.328025 L10.4654732,258.260592 L8.63487885,258.260592 Z M12.5896534,258.277861 L12.5896534,259.935758 L15.2664658,259.935758 L15.2664658,260.87696 L12.5896534,260.87696 L12.5896534,263.363805 L11.5707377,263.363805 L11.5707377,257.328025 L15.5945912,257.328025 L15.5859563,258.277861 L12.5896534,258.277861 Z M19.5752704,258.113799 C18.9765824,258.113799 18.4714471,258.32679 18.0598491,258.75278 C17.6482512,259.178769 17.4424553,259.695418 17.4424553,260.30274 C17.4424553,260.910063 17.6482512,261.426712 18.0598491,261.852701 C18.4714471,262.278691 18.9765824,262.491682 19.5752704,262.491682 C20.1739583,262.491682 20.6790937,262.278691 21.0906916,261.852701 C21.5022896,261.426712 21.7080854,260.910063 21.7080854,260.30274 C21.7080854,259.695418 21.5022896,259.178769 21.0906916,258.75278 C20.6790937,258.32679 20.1739583,258.113799 19.5752704,258.113799 Z M19.5752704,263.424249 C18.6772385,263.424249 17.9231333,263.126349 17.3129321,262.530539 C16.7027309,261.93473 16.3976349,261.192137 16.3976349,260.30274 C16.3976349,259.413344 16.7027309,258.670751 17.3129321,258.074942 C17.9231333,257.479132 18.6772385,257.181232 19.5752704,257.181232 C20.4733023,257.181232 21.2274075,257.479132 21.8376086,258.074942 C22.4478098,258.670751 22.7529058,259.413344 22.7529058,260.30274 C22.7529058,261.192137 22.4478098,261.93473 21.8376086,262.530539 C21.2274075,263.126349 20.4733023,263.424249 19.5752704,263.424249 Z M28.8577651,259.288142 C28.8577651,260.284037 28.4231472,260.911498 27.5538984,261.170546 L29.1340813,263.363805 L27.8388494,263.363805 L26.3968247,261.334609 L25.0584184,261.334609 L25.0584184,263.363805 L24.0395027,263.363805 L24.0395027,257.328025 L26.2845712,257.328025 C27.2056296,257.328025 27.8647521,257.483451 28.2619585,257.794308 C28.6591649,258.105165 28.8577651,258.603105 28.8577651,259.288142 Z M27.5020891,260.142995 C27.7093273,259.96454 27.8129448,259.678153 27.8129448,259.283825 C27.8129448,258.889497 27.706449,258.61894 27.4934543,258.472146 C27.2804595,258.325353 26.9005287,258.251957 26.3536503,258.251957 L25.0584184,258.251957 L25.0584184,260.410676 L26.3277456,260.410676 C26.9034071,260.410676 27.294851,260.32145 27.5020891,260.142995 Z M31.3446102,263.363805 L30.3256945,263.363805 L30.3256945,257.328025 L31.9145122,257.328025 L33.7364717,261.118737 L35.5584311,257.328025 L37.138614,257.328025 L37.138614,263.363805 L36.1196982,263.363805 L36.1196982,258.649161 L34.0127878,262.837077 L33.4428858,262.837077 L31.3446102,258.649161 L31.3446102,263.363805 Z" id="PLATFORM" fill="#E1E4E8" transform="translate(13.384062, 260.302740) rotate(-90.000000) translate(-13.384062, -260.302740) "></path>
                    <rect id="Rectangle-12" fill="#F5B39F" x="32.8125396" y="87.3487885" width="194.284774" height="24.1776608" rx="2"></rect>
                    <rect id="Rectangle-12-Copy-3" fill="#F5B39F" x="232.278241" y="87.3487885" width="382.846813" height="24.1776608" rx="2"></rect>
                    <rect id="Rectangle-12-Copy-4" fill="#8ECEDD" x="193.421286" y="160.745259" width="71.6694945" height="24.1776608" rx="2"></rect>
                    <rect id="Rectangle-12-Copy-7" fill="#8ECEDD" x="270.271708" y="160.745259" width="128.659695" height="24.1776608" rx="2"></rect>
                    <rect id="Rectangle-12-Copy-10" fill="#8E6EAA" x="164.926186" y="234.141729" width="128.659695" height="24.1776608" rx="2"></rect>
                    <rect id="Rectangle-12-Copy-8" fill="#8ECEDD" x="404.11233" y="160.745259" width="211.012724" height="24.1776608" rx="2"></rect>
                    <rect id="Rectangle-12-Copy" fill="#F5B39F" x="204.646629" y="117.570865" width="272.073764" height="24.1776608" rx="2"></rect>
                    <rect id="Rectangle-12-Copy-5" fill="#8ECEDD" x="324.946672" y="190.967335" width="290.178382" height="24.1776608" rx="2"></rect>
                    <rect id="Rectangle-12-Copy-12" fill="#8E6EAA" x="296.176345" y="264.363805" width="85.4853007" height="24.1776608" rx="2"></rect>
                    <rect id="Rectangle-12-Copy-14" fill="#8E6EAA" x="389.440391" y="264.043071" width="80.5954723" height="24.1776608" rx="2"></rect>
                    <rect id="Rectangle-12-Copy-2" fill="#F5B39F" x="483.953702" y="117.148888" width="131.171352" height="24.1776608" rx="2"></rect>
                    <rect id="Rectangle-12-Copy-6" fill="#8ECEDD" x="72.5329824" y="190.967335" width="152.617227" height="24.1776608" rx="2"></rect>
                    <rect id="Rectangle-12-Copy-13" fill="#8E6EAA" x="489.647275" y="264.043071" width="125.477779" height="24.1776608" rx="2"></rect>
                    <g id="beta_line" transform="translate(96.000000, 78.000000)" fill="#6EBE15">
                        <rect id="Rectangle-10" x="14" y="0" width="4" height="228.083196" rx="2"></rect>
                        <path d="M3.6991821,242.450092 L0,242.450092 L0,234 L3.28816187,234 C3.86036937,234 4.35399167,234.068503 4.76904359,234.20551 C5.18409551,234.342518 5.49638717,234.527878 5.70592795,234.761596 C6.08471319,235.196796 6.27410298,235.688404 6.27410298,236.236434 C6.27410298,236.897293 6.06053577,237.388901 5.63339496,237.711271 C5.48832827,237.824101 5.38758903,237.894618 5.3311742,237.922825 C5.27475938,237.951033 5.17402013,237.997373 5.02895344,238.061847 C5.55280538,238.174677 5.96986586,238.410406 6.28014739,238.769044 C6.59042892,239.127681 6.74556736,239.572948 6.74556736,240.104859 C6.74556736,240.693185 6.54408887,241.213 6.14112584,241.664318 C5.67368873,242.18817 4.85971562,242.450092 3.6991821,242.450092 Z M1.88585754,237.421139 L2.78043099,237.421139 C3.30428293,237.421139 3.69313642,237.364725 3.94700312,237.251895 C4.20086983,237.139066 4.32780128,236.895277 4.32780128,236.520521 C4.32780128,236.145766 4.21094376,235.897947 3.9772252,235.777058 C3.74350664,235.656169 3.3486088,235.595726 2.79251982,235.595726 L1.88585754,235.595726 L1.88585754,237.421139 Z M1.88585754,240.854367 L3.17936239,240.854367 C3.71933285,240.854367 4.12430462,240.787879 4.39428985,240.654901 C4.66427508,240.521923 4.79926567,240.260001 4.79926567,239.869127 C4.79926567,239.478253 4.65621594,239.220361 4.37011219,239.095442 C4.08400844,238.970523 3.62665226,238.908065 2.99802994,238.908065 L1.88585754,238.908065 L1.88585754,240.854367 Z M14.4219747,234 L14.4219747,235.680347 L10.2150617,235.680347 L10.2150617,237.421139 L13.9988656,237.421139 L13.9988656,239.028953 L10.2150617,239.028953 L10.2150617,240.781834 L14.5549518,240.781834 L14.5549518,242.450092 L8.32920414,242.450092 L8.32920414,234 L14.4219747,234 Z M19.813593,235.631992 L19.813593,242.450092 L17.9277355,242.450092 L17.9277355,235.631992 L15.5341471,235.631992 L15.5341471,234 L22.2071814,234 L22.2071814,235.631992 L19.813593,235.631992 Z M28.9890153,242.450092 L28.2032413,240.624679 L24.661214,240.624679 L23.87544,242.450092 L21.8686942,242.450092 L25.519521,234 L27.3449344,234 L30.9957611,242.450092 L28.9890153,242.450092 Z M26.4382721,236.514477 L25.374455,238.968509 L27.4900003,238.968509 L26.4382721,236.514477 Z" id="BETA"></path>
                    </g>
                </g>
            </g>
        </g>
    </g>
</svg>