<?xml version="1.0" encoding="UTF-8"?>
<svg width="152px" height="278px" viewBox="0 0 152 278" version="1.1" xmlns="http://www.w3.org/2000/svg" xmlns:xlink="http://www.w3.org/1999/xlink">
    <!-- Generator: Sketch 46 (44423) - http://www.bohemiancoding.com/sketch -->
    <title>Artboard 4</title>
    <desc>Created with Sketch.</desc>
    <defs>
        <linearGradient x1="68.3542371%" y1="1.79310867%" x2="50%" y2="100%" id="linearGradient-1">
            <stop stop-color="#0F2085" offset="0%"></stop>
            <stop stop-color="#61DAFB" offset="100%"></stop>
        </linearGradient>
    </defs>
    <g id="redesing-v6" stroke="none" stroke-width="1" fill="none" fill-rule="evenodd">
        <g id="Artboard-4">
            <g id="mobile" transform="translate(1.000000, 1.000000)">
                <rect id="Rectangle-5" fill="#333333" x="0" y="0" width="150.852495" height="276.858697" rx="18"></rect>
                <rect id="Rectangle-8" fill="url(#linearGradient-1)" x="6.28552063" y="34.6073371" width="138.281454" height="204.497901"></rect>
                <path d="M50.2841651,25.1689725 C52.0198637,25.1689725 53.4269254,23.7604059 53.4269254,22.0228509 C53.4269254,20.2852959 52.0198637,18.8767293 50.2841651,18.8767293 C48.5484665,18.8767293 47.1414047,20.2852959 47.1414047,22.0228509 C47.1414047,23.7604059 48.5484665,25.1689725 50.2841651,25.1689725 Z" id="Oval-3" fill="#5F6268"></path>
                <path d="M76.9976277,267.420332 C83.0725728,267.420332 87.9972889,262.490349 87.9972889,256.408907 C87.9972889,250.327465 83.0725728,245.397481 76.9976277,245.397481 C70.9226827,245.397481 65.9979666,250.327465 65.9979666,256.408907 C65.9979666,262.490349 70.9226827,267.420332 76.9976277,267.420332 Z" id="Oval-3-Copy" fill="#5F6268"></path>
                <rect id="Rectangle-9" fill="#5F6268" x="59.712446" y="18.8767293" width="31.4276032" height="3.14612156" rx="1.57306078"></rect>
                <rect id="Rectangle-9-Copy" fill="#5F6268" x="65.9979666" y="9.43836467" width="18.8565619" height="3.14612156" rx="1.57306078"></rect>
                <g id="React-icon" transform="translate(12.423147, 79.271507)" fill-rule="nonzero" fill="#FFFFFF">
                    <path d="M124.054715,55.0167924 C124.054715,46.8335166 113.777843,39.0782891 98.0216572,34.2690409 C101.6577,18.2549998 100.041681,5.51426889 92.921097,1.43522067 C91.2798276,0.47840689 89.360805,0.02517931 87.2650302,0.02517931 L87.2650302,5.64016544 C88.4265439,5.64016544 89.360805,5.86677923 90.1435642,6.2948275 C93.5776047,8.25881368 95.0673723,15.7370688 93.9058586,25.3555652 C93.6281053,27.7224203 93.1736,30.215172 92.6180934,32.7582823 C87.669035,31.5496754 82.2654712,30.618041 76.5841541,30.0137375 C73.1753639,25.3555652 69.6403221,21.1254411 66.0800301,17.4240825 C74.3116273,9.79475159 82.0382185,5.61498613 87.2902805,5.61498613 L87.2902805,0 C87.2902805,0 87.2902805,0 87.2902805,0 C80.3464485,0 71.2563412,4.93514476 62.0652327,13.4961102 C52.8741242,4.98550338 43.7840169,0.10071724 36.8401849,0.10071724 L36.8401849,5.71570337 C42.0669966,5.71570337 49.8188381,9.87028952 58.0504353,17.4492618 C54.5153936,21.1506204 50.9803519,25.3555652 47.6220622,30.0137375 C41.9154948,30.618041 36.511931,31.5496754 31.5628726,32.7834616 C30.9821158,30.2655306 30.5528607,27.8231376 30.2498571,25.4814617 C29.0630931,15.8629653 30.5276104,8.38471023 33.9364006,6.39554474 C34.6939096,5.94231716 35.6786712,5.74088268 36.8401849,5.74088268 L36.8401849,0.12589655 C36.8401849,0.12589655 36.8401849,0.12589655 36.8401849,0.12589655 C34.7191599,0.12589655 32.8001372,0.57912413 31.1336175,1.53593791 C24.0382838,5.61498613 22.447515,18.3305377 26.1088082,34.2942202 C10.4031228,39.1286477 0.176752087,46.8586959 0.176752087,55.0167924 C0.176752087,63.2000681 10.4536234,70.9552956 26.2098094,75.7645438 C22.5737665,91.778585 24.1897856,104.519316 31.3103696,108.598364 C32.951639,109.555178 34.8706617,110.008405 36.9916867,110.008405 C43.9355187,110.008405 53.025626,105.073261 62.2167345,96.5122952 C71.407843,105.022902 80.4979503,109.907688 87.4417823,109.907688 C89.5628073,109.907688 91.48183,109.454461 93.1483497,108.497647 C100.243683,104.418599 101.834452,91.703047 98.173159,75.7393645 C113.828344,70.9301163 124.054715,63.1748888 124.054715,55.0167924 Z M91.1788264,38.2221926 C90.2445654,41.4703236 89.0830517,44.8191718 87.7700362,48.16802 C86.734774,46.1536752 85.6490111,44.1393304 84.4622471,42.1249856 C83.3007334,40.1106408 82.0634688,38.1466547 80.8262042,36.2330271 C84.4117465,36.7617926 87.8710374,37.4164547 91.1788264,38.2221926 Z M79.6141899,65.0381577 C77.6446666,68.4373646 75.6246428,71.6603163 73.528868,74.6566542 C69.7665736,74.9839852 65.9537786,75.1602404 62.1157333,75.1602404 C58.3029383,75.1602404 54.4901433,74.9839852 50.7530992,74.6818335 C48.6573244,71.6854956 46.6120503,68.4877232 44.642527,65.1136957 C42.7235044,61.8152061 40.9812338,58.4663578 39.390465,55.0923303 C40.9559835,51.7183027 42.7235044,48.3442752 44.6172767,45.0457856 C46.5868,41.6465787 48.6068238,38.4236271 50.7025986,35.4272892 C54.464893,35.0999581 58.277688,34.923703 62.1157333,34.923703 C65.9285283,34.923703 69.7413233,35.0999581 73.4783675,35.4021099 C75.5741422,38.3984478 77.6194163,41.5962201 79.5889396,44.9702477 C81.5079622,48.2687373 83.2502328,51.6175855 84.8410016,54.991613 C83.2502328,58.3656406 81.5079622,61.7396681 79.6141899,65.0381577 Z M87.7700362,61.7648474 C89.1335523,65.138875 90.295066,68.5129025 91.2545773,71.7862128 C87.9467883,72.5919507 84.4622471,73.2717921 80.8514545,73.8005576 C82.0887191,71.8617508 83.3259837,69.8725853 84.4874974,67.8330612 C85.6490111,65.8187164 86.734774,63.7791922 87.7700362,61.7648474 Z M62.1662339,88.6311712 C59.8179562,86.2139575 57.4696785,83.5197713 55.146651,80.573792 C57.4191779,80.6745093 59.7422053,80.7500472 62.090483,80.7500472 C64.464011,80.7500472 66.8122888,80.6996886 69.1100659,80.573792 C66.8375391,83.5197713 64.4892613,86.2139575 62.1662339,88.6311712 Z M43.3800121,73.8005576 C39.7944698,73.2717921 36.335179,72.6171301 33.0273899,71.8113921 C33.9616509,68.5632611 35.1231646,65.2144129 36.4361801,61.8655647 C37.4714424,63.8799095 38.5572052,65.8942543 39.7439692,67.9085991 C40.9307332,69.9229439 42.1427475,71.8869301 43.3800121,73.8005576 Z M62.0399824,21.4024135 C64.3882601,23.8196273 66.7365379,26.5138134 69.0595653,29.4597927 C66.7870385,29.3590755 64.464011,29.2835375 62.1157333,29.2835375 C59.7422053,29.2835375 57.3939276,29.3338962 55.0961504,29.4597927 C57.3686773,26.5138134 59.716955,23.8196273 62.0399824,21.4024135 Z M43.3547618,36.2330271 C42.1174972,38.171834 40.8802326,40.1609995 39.7187189,42.2005236 C38.5572052,44.2148684 37.4714424,46.2292132 36.4361801,48.243558 C35.0726641,44.8695304 33.9111503,41.4955029 32.951639,38.2221926 C36.2594281,37.441634 39.7439692,36.7617926 43.3547618,36.2330271 Z M20.5032421,67.7575232 C11.5646365,63.9554474 5.78231826,58.969944 5.78231826,55.0167924 C5.78231826,51.0636407 11.5646365,46.052958 20.5032421,42.2760615 C22.6747677,41.344427 25.0482957,40.5135098 27.4975746,39.7329512 C28.9368416,44.6680959 30.830614,49.8046752 33.1788917,55.067151 C30.8558643,60.3044475 28.9873422,65.4158474 27.5733255,70.3258128 C25.073546,69.5452542 22.700018,68.6891577 20.5032421,67.7575232 Z M34.0879024,103.738757 C30.6538619,101.774771 29.1640943,94.296516 30.325608,84.6780195 C30.6033613,82.3111644 31.0578667,79.8184127 31.6133732,77.2753024 C36.5624316,78.4839093 41.9659954,79.4155438 47.6473125,80.0198472 C51.0561027,84.6780195 54.5911445,88.9081436 58.1514365,92.6095022 C49.9198393,100.238833 42.1932481,104.418599 36.9411861,104.418599 C35.8049227,104.393419 34.8454114,104.166805 34.0879024,103.738757 Z M93.9816095,84.552123 C95.1683735,94.1706194 93.7038562,101.648874 90.295066,103.63804 C89.537557,104.091268 88.5527954,104.292702 87.3912817,104.292702 C82.16447,104.292702 74.4126285,100.138116 66.1810313,92.5591436 C69.716073,88.857785 73.2511148,84.6528402 76.6094044,79.9946679 C82.3159718,79.3903644 87.7195356,78.45873 92.668594,77.2249438 C93.2493509,79.7680541 93.7038562,82.2104472 93.9816095,84.552123 Z M103.702974,67.7575232 C101.531449,68.6891577 99.1579206,69.5200749 96.7086417,70.3006335 C95.2693747,65.3654888 93.3756023,60.2289095 91.0273246,54.9664337 C93.3503521,49.7291373 95.2188741,44.6177373 96.6328908,39.7077719 C99.1326703,40.4883305 101.506198,41.344427 103.728225,42.2760615 C112.66683,46.0781373 118.449148,51.0636407 118.449148,55.0167924 C118.423898,58.969944 112.64158,63.9806267 103.702974,67.7575232 Z" ></path>
                    <ellipse id="Oval" cx="62.090483" cy="55.0167924" rx="11.5393862" ry="11.5069447"></ellipse>
                </g>
                <path d="M65.9979666,-2.03125277e-15 L131.852495,-2.03125277e-15 L131.852495,-3.55271368e-15 C142.345905,-5.48031672e-15 150.852495,8.50658975 150.852495,19 L150.852495,239.105238 L131.934633,239.105238 L65.9979666,-2.03125277e-15 Z" id="Rectangle-10" fill="#FFFFFF" opacity="0.101505888"></path>
                <circle id="Oval-2" fill="#000000" cx="34.6073371" cy="49.9883759" r="1"></circle>
                <circle id="Oval-2-Copy" fill="#FFFFFF" cx="65.960993" cy="71.2851987" r="1"></circle>
                <circle id="Oval-2-Copy-4" fill="#7A2DBD" cx="126.301991" cy="49.3967974" r="1.47894603"></circle>
                <circle id="Oval-2-Copy-2" fill="#000000" cx="65.960993" cy="201.432449" r="1"></circle>
                <circle id="Oval-2-Copy-6" fill="#FFFFFF" cx="53.5378463" cy="222.729272" r="1"></circle>
                <circle id="Oval-2-Copy-5" fill="#000000" cx="20.4094552" cy="223.320851" r="1"></circle>
                <circle id="Oval-2-Copy-3" fill="#000000" cx="108.850428" cy="201.13666" r="1"></circle>
            </g>
        </g>
    </g>
</svg>