<?xml version="1.0" encoding="UTF-8"?>
<svg width="1440px" height="562px" viewBox="0 0 1440 562" version="1.1" xmlns="http://www.w3.org/2000/svg" xmlns:xlink="http://www.w3.org/1999/xlink">
    <!-- Generator: Sketch 46 (44423) - http://www.bohemiancoding.com/sketch -->
    <title>Artboard</title>
    <desc>Created with Sketch.</desc>
    <defs>
        <rect id="path-1" x="0" y="0" width="1440" height="562"></rect>
    </defs>
    <g id="redesing-v6" stroke="none" stroke-width="1" fill="none" fill-rule="evenodd">
        <g id="Artboard">
            <g id="bgn">
                <mask id="mask-2" fill="white">
                    <use xlink:href="#path-1"></use>
                </mask>
                <use fill="#3DA2BE" xlink:href="#path-1"></use>
                <g id="Group-2" mask="url(#mask-2)" stroke="#1B7E99" stroke-width="1.5">
                    <g transform="translate(0.000000, 331.000000)" id="Shape">
                        <path d="M12.8615385,255.409048 L157.829915,255.409048 C157.829915,255.409048 130.120769,128.928333 221.872906,77.7119048 C241.874872,67.982619 305.550855,31.6354762 409.781282,108.735476 C413.084359,105.981905 416.203932,103.779048 416.203932,103.779048 C416.203932,103.779048 320.781709,8.50547619 214.532735,19.152619 C160.949487,23.9254762 95.2549573,72.5719048 56.7190598,136.821905 C18.1831624,201.071905 12.8615385,255.409048 12.8615385,255.409048 Z M314.909573,29.432619 L315.64359,17.1333333 C313.992051,16.2154762 309.404444,14.012619 297.843675,10.7083333 L297.109658,22.8240476 C303.165299,24.8433333 309.037436,27.0461905 314.909573,29.432619 Z"></path>
                        <path d="M297.460427,68.4721429 L296.72641,80.0371429 C302.782051,80.2207143 308.837692,80.955 314.893333,82.24 L315.62735,70.8585714 C309.388205,69.5735714 303.332564,68.8392857 297.460427,68.4721429 Z M229.563846,11.1978571 L231.398889,11.1978571 L227.728803,0 C222.040171,0 216.168034,0.367142857 210.112393,1.10142857 L213.598974,11.9321429 C218.920598,11.3814286 224.242222,11.1978571 229.563846,11.1978571 Z M238.372051,78.7521429 L242.59265,91.4185714 C247.914274,88.8485714 253.235897,86.6457143 258.557521,84.9935714 L254.520427,72.8778571 C248.281282,74.7135714 242.959658,76.7328571 238.372051,78.7521429 Z M155.061111,30.4728571 L146.803419,17.8064286 C142.215812,20.1928571 137.444701,22.7628571 132.490085,25.7 L140.931282,38.55 C145.702393,35.6128571 150.29,32.8592857 155.061111,30.4728571 Z M192.679487,113.08 L201.487692,126.297143 C204.607265,121.707857 208.27735,117.485714 212.314444,113.263571 L204.056752,100.780714 C199.836154,104.635714 195.982564,108.857857 192.679487,113.08 Z M166.071368,172.19 L180.935214,183.938571 C181.669231,176.779286 182.953761,169.62 184.788803,162.460714 L171.576496,151.997143 C169.19094,158.789286 167.539402,165.581429 166.071368,172.19 Z M85.6964957,84.9935714 L72.6676923,73.6121429 C67.8965812,78.2014286 63.3089744,82.7907143 59.0883761,87.38 L73.2182051,99.4957143 C77.0717949,94.5392857 81.2923932,89.5828571 85.6964957,84.9935714 Z M30.2782051,167.05 L9.17521368,159.34 C5.68863248,167.233571 1.83504274,176.412143 0,181.368571 L21.1029915,189.078571 C23.488547,182.837143 27.3421368,173.842143 30.2782051,167.05 Z M163.318803,218.817143 C163.685812,228.546429 164.603333,236.44 165.520855,241.947143 L187.541368,249.840714 C185.889829,242.681429 184.238291,234.604286 183.137265,225.976429 L163.318803,218.817143 Z"></path>
                    </g>
                </g>
                <g id="Group-2-Copy" mask="url(#mask-2)" stroke="#1B7E99" stroke-width="1.5">
                    <g transform="translate(272.000000, 458.000000)" id="Shape">
                        <path d="M10.42494,207.519851 L127.929283,207.519851 C127.929283,207.519851 105.469592,104.754271 179.83943,63.1409226 C196.052054,55.235878 247.664722,25.7038244 332.148857,88.3475744 C334.826171,86.1102976 337.354746,84.3204762 337.354746,84.3204762 C337.354746,84.3204762 260.010115,6.9106994 173.889843,15.561503 C130.457858,19.4394494 77.2090541,58.9646726 45.9737224,111.167798 C14.7383906,163.370923 10.42494,207.519851 10.42494,207.519851 Z M255.250445,23.914003 L255.845404,13.9208333 C254.506747,13.1750744 250.788255,11.385253 241.417655,8.70052083 L240.822697,18.5445387 C245.731106,20.1852083 250.490775,21.9750298 255.250445,23.914003 Z"></path>
                        <path d="M241.107013,55.6336161 L240.512054,65.0301786 C245.420464,65.1793304 250.328873,65.7759375 255.237282,66.82 L255.832241,57.5725893 C250.775092,56.5285268 245.866683,55.9319196 241.107013,55.6336161 Z M186.073333,9.09825893 L187.56073,9.09825893 L184.585937,0 C179.975007,0 175.215337,0.298303571 170.306928,0.894910714 L173.132982,9.69486607 C177.446432,9.24741071 181.759883,9.09825893 186.073333,9.09825893 Z M193.212838,63.9861161 L196.63385,74.2775893 C200.947301,72.1894643 205.260751,70.3996429 209.574202,69.0572768 L206.301929,59.2132589 C201.24478,60.7047768 196.93133,62.3454464 193.212838,63.9861161 Z M125.685025,24.7591964 L118.99174,14.4677232 C115.273248,16.4066964 111.406017,18.4948214 107.390045,20.88125 L114.23207,31.321875 C118.099302,28.9354464 121.817794,26.6981696 125.685025,24.7591964 Z M156.176659,91.8775 L163.316163,102.616429 C165.844738,98.8876339 168.819531,95.4571429 172.091804,92.0266518 L165.398519,81.8843304 C161.977506,85.0165179 158.853973,88.4470089 156.176659,91.8775 Z M134.609406,139.904375 L146.657319,149.450089 C147.252278,143.63317 148.293456,137.81625 149.780853,131.99933 L139.071596,123.497679 C137.13798,129.016295 135.799323,134.534911 134.609406,139.904375 Z M69.4614282,69.0572768 L58.9009113,59.8098661 C55.0336797,63.5386607 51.3151878,67.2674554 47.8941753,70.99625 L59.3471303,80.8402679 C62.4706635,76.8131696 65.891676,72.7860714 69.4614282,69.0572768 Z M24.5420464,135.728125 L7.43698375,129.46375 C4.61092992,135.877277 1.48739675,143.334866 0,147.361964 L17.1050626,153.626339 C19.0386784,148.555179 22.1622116,141.246741 24.5420464,135.728125 Z M132.378311,177.788929 C132.67579,185.693973 133.419488,192.1075 134.163187,196.582054 L152.011948,202.99558 C150.673291,197.178661 149.334634,190.615982 148.442196,183.605848 L132.378311,177.788929 Z"></path>
                    </g>
                </g>
                <g id="Group-2-Copy-3" mask="url(#mask-2)" stroke="#1B7E99" stroke-width="1.5">
                    <g transform="translate(720.000000, 80.000000)" id="Shape">
                        <path d="M26.2474082,520.795011 L322.094142,520.795011 C322.094142,520.795011 265.546222,262.89293 452.79099,158.459431 C493.61035,138.620809 623.558219,64.5067132 836.268276,221.718432 C843.009087,216.103728 849.37541,211.611964 849.37541,211.611964 C849.37541,211.611964 654.640851,17.3431975 437.811409,39.0533873 C328.460464,48.7855413 194.39321,147.97865 115.750407,278.988415 C37.1076048,409.998181 26.2474082,520.795011 26.2474082,520.795011 Z M642.657185,60.0149498 L644.155144,34.9359375 C640.784738,33.0643694 631.422499,28.572606 607.829659,21.8349609 L606.3317,46.5396596 C618.689855,50.6571094 630.67352,55.1488728 642.657185,60.0149498 Z"></path>
                        <path d="M607.047539,139.618979 L605.549581,163.200737 C617.907735,163.57505 630.26589,165.072305 642.624045,167.6925 L644.122003,144.485056 C631.389359,141.86486 619.031204,140.367606 607.047539,139.618979 Z M468.48641,22.8331306 L472.231306,22.8331306 L464.741515,0 C453.132339,0 441.148674,0.748627232 428.790519,2.2458817 L435.905821,24.330385 C446.766017,23.2074442 457.626214,22.8331306 468.48641,22.8331306 Z M486.461908,160.580541 L495.075167,186.408181 C505.935364,181.16779 516.79556,176.676027 527.655757,173.307204 L519.416987,148.602506 C506.684343,152.345642 495.824146,156.463092 486.461908,160.580541 Z M316.443658,62.1360603 L299.591629,36.3084208 C290.229391,41.1744978 280.492663,46.4148884 270.381445,52.4039063 L287.607964,78.6058594 C297.344692,72.6168415 306.70693,67.0021373 316.443658,62.1360603 Z M393.214013,230.577188 L411.189511,257.527768 C417.555833,248.169927 425.045624,239.560714 433.284394,230.951501 L416.432365,205.498175 C407.819105,213.358761 399.954825,221.967974 393.214013,230.577188 Z M338.913031,351.106172 L369.246683,375.062243 C370.744641,360.464012 373.366068,345.865781 377.110963,331.26755 L350.147717,309.931674 C345.279353,323.781278 341.908947,337.630882 338.913031,351.106172 Z M174.886614,173.307204 L148.297856,150.09976 C138.561129,159.4576 129.19889,168.815441 120.585631,178.173281 L149.421325,202.87798 C157.285605,192.771512 165.898865,182.665045 174.886614,173.307204 Z M61.7907735,340.625391 L18.7244768,324.904219 C11.6091756,340.999704 3.74489537,359.715385 0,369.821853 L43.0662967,385.543025 C47.9346607,372.816362 55.7989409,354.474994 61.7907735,340.625391 Z M333.295688,446.18183 C334.044667,466.020452 335.917114,482.115937 337.789562,493.345346 L382.728306,509.440831 C379.357901,494.8426 375.987495,478.372801 373.740558,460.780061 L333.295688,446.18183 Z"></path>
                    </g>
                </g>
            </g>
        </g>
    </g>
</svg>