<svg id="step-path-3" class="step-path step-path-3" xmlns="http://www.w3.org/2000/svg" width="355" height="158" viewBox="0 0 355 158">
    <path class="default" fill="none" fill-rule="evenodd" stroke="#9B9B9B" stroke-dasharray="4,10" stroke-linecap="round" stroke-width="2" d="M2.57 1.597c-8.767 46.585 34.744 97.901 93.937 107.126 59.193 9.225 102.265-44.458 175.184-33.517 48.613 7.294 75.728 34.323 81.344 81.087"/>
    <path class="fill" fill="none" fill-rule="evenodd" stroke="#81BB46" stroke-dasharray="4,10" stroke-linecap="round" stroke-width="2" d="M2.57 1.597c-8.767 46.585 34.744 97.901 93.937 107.126 59.193 9.225 102.265-44.458 175.184-33.517 48.613 7.294 75.728 34.323 81.344 81.087"/>
    <path fill="none" fill-rule="evenodd" stroke="#FFFFFF" stroke-dasharray="10" stroke-linecap="round" stroke-width="3" d="M2.57 1.597c-8.767 46.585 34.744 97.901 93.937 107.126 59.193 9.225 102.265-44.458 175.184-33.517 48.613 7.294 75.728 34.323 81.344 81.087"/>
</svg>
