<svg id="step-path-1" class="step-path step-path-1" xmlns="http://www.w3.org/2000/svg" width="603" height="149" viewBox="0 0 603 149">
    <path class="default" fill="none" fill-rule="evenodd" stroke="#9B9B9B" stroke-dasharray="6,10" stroke-linecap="round" stroke-width="2" d="M3.204 1.241C-8.33 65.34 25.408 111.381 104.42 139.37c118.516 41.98 263.455-89.666 362.006-80.971 65.7 5.796 112.379 32.787 140.036 80.97"/>
    <path class="fill" fill="none" fill-rule="evenodd" stroke="#81BB46" stroke-dasharray="6,10" stroke-linecap="round" stroke-width="2" d="M3.204 1.241C-8.33 65.34 25.408 111.381 104.42 139.37c118.516 41.98 263.455-89.666 362.006-80.971 65.7 5.796 112.379 32.787 140.036 80.97"/>
    <path fill="none" fill-rule="evenodd" stroke="#FFFFFF" stroke-dasharray="10" stroke-linecap="round" stroke-width="3" d="M3.204 1.241C-8.33 65.34 25.408 111.381 104.42 139.37c118.516 41.98 263.455-89.666 362.006-80.971 65.7 5.796 112.379 32.787 140.036 80.97"/>
</svg>
