<svg class="gopher-svg" width="764px" height="1121px" viewBox="0 0 764 1121" version="1.1" xmlns="http://www.w3.org/2000/svg" xmlns:xlink="http://www.w3.org/1999/xlink">
  <!-- Generator: Sketch 46 (44423) - http://www.bohemiancoding.com/sketch -->
  <title>Artboard Copy</title>
  <desc>Created with Sketch.</desc>
  <defs></defs>
  <g id="redesing-v6" stroke="none" stroke-width="1" fill="none" fill-rule="evenodd">
    <g id="Artboard-Copy">
      <g id="gopher-" transform="translate(24.000000, 136.000000)">
        <g id="ear_right" transform="translate(559.000000, 44.000000)" fill-rule="nonzero">
          <path d="M5,19.4378243 C91.9568506,-41.7306028 170.536314,96.2765213 69.4756442,131 L5,19.4378243 L5,19.4378243 Z"  fill="#6AD7E5"></path>
          <path d="M47.5906711,89 C62.0177023,81.4487944 72.601757,71.193295 63.7768749,54.6822103 C55.6066964,39.396761 40.4288439,41.0566623 26,48.6078683 L47.5906711,89 L47.5906711,89 Z"  fill="#000000"></path>
          <path d="M103.7075,41.4875832 C122.801089,75.0118068 110.846411,111.999031 68.1024009,126.779891 L73.1508489,128.681164 L9.28548907,17.464454 L8.05324608,23.0963101 C44.9333188,-3.01319713 84.5049607,7.77206464 103.7075,41.4875832 Z M0,18.3566596 L1.94313611,21.740484 L65.8084959,132.957194 L67.5558038,136 L70.856941,134.858468 C118.819971,118.272873 132.7215,75.2621844 111.064885,37.237841 C89.4635734,-0.689406505 44.2927728,-13.0007204 3.17537911,16.1086276 L0,18.3566596 Z"  fill="#000000"></path>
        </g>
        <g id="ear_left" transform="translate(21.000000, 58.000000)" fill-rule="nonzero">
          <path d="M56.4575751,131 C-52.4725989,100.080123 28.5263444,-39.7996814 116,17.7347047 L56.4575751,131 L56.4575751,131 Z"  fill="#6AD7E5"></path>
          <path d="M62.409328,91 C47.9822976,83.4487943 37.3982434,73.193295 46.2231247,56.6822102 C54.3933035,41.3967609 69.5711561,43.0566625 84,50.6078682 L62.409328,91 L62.409328,91 Z"  fill="#000000"></path>
          <path d="M16.7481191,43.4091777 C35.770034,9.20123825 76.6174014,-3.14172063 114.116489,21.483393 L112.685291,15.902492 L53.1619452,128.951045 L58.0611459,126.839287 C11.5821586,113.667231 -2.27643081,77.6218556 16.7481191,43.4091777 Z M59.0571918,136 L60.6608463,132.95429 L120.184192,19.9057378 L122,16.4570994 L118.752993,14.3248368 C76.9662464,-13.1159212 30.6739205,0.872355737 9.34234674,39.2338555 C-12.3176721,78.1860121 3.90057575,120.368721 55.7616453,135.066048 L59.0571918,136 Z"  fill="#000000"></path>
        </g>
        <g id="paw_left" transform="translate(0.000000, 477.000000)" fill-rule="nonzero">
          <path d="M10.7078921,49.4817436 C12.0933353,78.2719356 40.6273002,64.9506926 53.5514545,55.9504418 C65.8191552,47.4053248 69.4060749,54.5082829 70.483239,37.6446989 C71.1886543,26.5607193 72.4562263,15.4767426 71.8324139,4.34889846 C53.2812568,2.65449526 33.1034729,7.10709831 17.8944255,18.2440805 C10.0605057,23.9816485 -4.62809396,42.2947041 10.7078921,49.4817436"  fill="#F6D2A2"></path>
          <path d="M28.2734096,70.8687892 C36.8333741,70.0478142 47.1405507,65.3382309 55.8414606,59.2850379 C57.771688,57.941868 59.5394692,56.9699721 61.3534674,56.1897046 C62.0520362,55.8892276 62.7355761,55.6250542 63.5697491,55.3260698 C63.6921566,55.2821984 65.2358141,54.7404471 65.6738606,54.5781107 C71.8610834,52.2851635 73.7795676,48.6530814 74.4670053,37.9015845 C74.5993397,35.8243226 74.7197253,34.1621464 75.0036166,30.3931468 C75.9750608,17.4960426 76.220339,11.7052069 75.8084646,4.36531417 L75.6026782,0.698060636 L71.9667308,0.366296773 C51.7721508,-1.47637328 30.9567448,3.67147003 15.5471258,14.9440949 C10.398633,18.7110998 4.72890418,25.3792445 1.97579683,31.6092709 C-2.02494043,40.662569 -0.0982497896,48.913844 9.11540903,53.2274241 L12.6851485,45.5094756 C8.15045893,43.386461 7.41774721,40.2485388 9.70725446,35.0675954 C11.8213004,30.2837052 16.5190412,24.7587113 20.523302,21.8289095 C34.2011807,11.8231073 52.9726016,7.18075983 71.2024938,8.84415896 L67.3607604,4.84514155 C67.7446352,11.6860591 67.509983,17.226021 66.5666516,29.7498933 C66.2802778,33.551854 66.15831,35.2358737 66.0232384,37.3561018 C65.5282884,45.0970969 65.224105,45.6729782 62.7492772,46.590135 C62.3930149,46.7221635 60.913467,47.2414158 60.7302607,47.3070796 C59.7444621,47.6604089 58.9054198,47.9846788 58.0272778,48.3623997 C55.7023967,49.3624129 53.4362222,50.60832 51.0287613,52.2835773 C43.4103694,57.5836667 34.3190158,61.737711 27.4704611,62.3945477 C19.6624608,63.1434035 15.631442,59.6574271 15.1258973,49.1624165 L6.67466018,49.5744831 C7.41458235,64.9351281 15.6733872,72.0772406 28.2734096,70.8687892 Z"  fill="#000000"></path>
          <path d="M13,49 C17.3820762,47.5510205 22.0263116,46.5221089 25,43"  stroke="#000000" stroke-width="3" fill="#C6B198"></path>
          <path d="M13,49 C17.3820762,47.5510205 22.0263116,46.5221089 25,43"  stroke="#000000" stroke-width="3" fill="#C6B198"></path>
        </g>
        <g id="paw_lower_right" transform="translate(529.000000, 874.000000)" fill-rule="nonzero">
          <path d="M55.1824542,4 C77.2287262,17.6920483 117.525954,59.0931046 84.4538205,79.1684454 C52.6764947,108.372429 34.8910864,47.113247 7,38.6253101 C19.0115144,22.2518054 34.2364067,7.32216224 55.1824542,4 L55.1824542,4 Z"  fill="#F6D2A2"></path>
          <path d="M87.4100375,41.5208398 C96.4062656,56.3712736 95.5252333,67.7348768 82.8004388,75.3444193 L82.4358792,75.5624273 L82.121704,75.8468766 C68.8055182,87.9031102 59.7138518,83.9800367 42.0693524,63.7272672 C41.5212456,63.0981346 40.9480311,62.4364159 40.2628732,61.6425455 C39.8384063,61.1507292 39.3552966,60.5900267 38.442851,59.5309096 C24.9764151,43.9066636 18.0877254,37.6406081 8.31767407,34.7114627 L10.5333021,41.2963327 C24.6392284,22.3531694 38.9372041,11.3446442 56.2372679,8.64147623 L53.3008249,8.05696169 C65.6461203,15.6103526 79.8960542,29.1172003 87.4100375,41.5208398 Z M56.471601,0 L54.8935021,0.246582421 C34.9255518,3.36661484 18.9230072,15.6875483 3.60412356,36.2596168 L0,41.0996775 L5.81974868,42.8444868 C13.3710952,45.108443 19.5851449,50.7608373 31.8933437,65.0412534 C32.8039857,66.0982797 33.2899198,66.6622573 33.7170908,67.1572098 C34.4102174,67.9603131 34.9916644,68.6315396 35.5495722,69.2719167 C45.0270892,80.150435 51.1615951,85.7590129 58.4165649,88.8895475 C68.2059057,93.1136664 78.0434259,91.0673867 87.9335758,82.1130256 L87.254841,82.6154829 C104.672408,72.1996201 105.959983,55.5924299 94.7913741,37.1559567 C86.5242365,23.5090559 71.281992,9.0616412 57.829945,0.831094127 L56.471601,0 Z"  fill="#000000"></path>
          <path d="M84.1149921,67.3895317 C84.0209745,67.1497267 84.0209745,67.1497267 83.9267383,66.9092749 C79.8165204,56.422333 77.3490432,51.8257741 72.0555565,47 L66,52.979745 C70.0317693,56.6552827 72.0739866,60.4596417 75.7346964,69.7996974 C75.8289383,70.0401575 75.8289383,70.0401575 75.9234833,70.2813087 C77.743669,74.9229162 78.7609684,77.3010002 80.1902807,80 L88,76.2768291 C86.7575431,73.9306747 85.8275664,71.7567205 84.1149921,67.3895317 Z"  fill="#000000"></path>
        </g>
        <g id="paw_lower_left" transform="translate(81.000000, 881.000000)">
          <path d="M109,42.4749155 C83.0836636,46.4654699 68.4962759,69.7292166 46.8911327,81.5432197 C26.5318099,93.6218104 18.7436129,77.6758949 16.9094887,74.4392325 C13.7184408,72.9912522 13.9861828,75.7875412 9.06118636,70.8528057 C-9.81189502,41.215406 28.7265658,19.5518704 48.7944692,4.8292214 C76.7452805,-0.792352133 94.2614383,23.3177109 109,42.4749155 L109,42.4749155 Z"  fill="#F6D2A2" fill-rule="nonzero"></path>
          <path d="M66.5253188,62.0297203 C66.2486488,62.2678811 66.2486488,62.2678811 65.9722567,62.5058142 C55.8214436,71.243979 51.0310267,74.956023 44.7056008,78.4596212 C34.6747649,84.4845676 28.5401371,83.2998649 23.8881365,77.8205152 C23.1852962,76.9926764 22.5534302,76.099446 21.9572895,75.1260533 C21.726798,74.7497011 21.5104932,74.3764009 21.2768636,73.9566992 C21.1708741,73.7662952 20.8130041,73.1121367 20.736372,72.9751553 L20.0586024,71.7636189 L18.8023856,71.1862175 C17.1912156,70.4456644 16.0360572,70.2783816 14.4579403,70.3276389 C14.1091371,70.1832408 13.3809777,69.5859042 12.2752738,68.4636749 L12.8479781,69.1872594 C2.48262046,52.6993237 10.4912983,38.6393578 34.4771564,20.6743559 C37.8357814,18.1588044 49.2135671,10.0816681 51.1536986,8.63988572 L49.4764305,9.38946974 C67.5598963,5.70538113 80.9607374,14.6780454 98.5092748,37.1859907 C99.5019773,38.4592404 100.523501,39.789144 101.752364,41.4041567 C102.41786,42.2787729 104.650374,45.2240509 104.923093,45.5831185 L107.642581,38.7683674 C93.355424,40.9967543 84.2144625,46.8036915 66.5253188,62.0297203 Z M116,46.1079258 L111.660323,40.3942019 C111.392021,40.0409508 109.156332,37.091482 108.485067,36.2092869 C107.237546,34.5697551 106.196721,33.2147203 105.180668,31.9115223 C85.8322381,7.09501358 69.9995523,-3.50591373 47.7945282,1.01784609 L46.8734193,1.20549975 L46.1172602,1.7674301 C44.2805159,3.13238124 32.88535,11.2218568 29.4151726,13.8209615 C17.5108551,22.7370914 9.57655502,30.4325657 4.71519518,38.9671275 C-1.69699854,50.2243173 -1.75359752,61.9291046 5.68145146,73.7558664 L5.92865145,74.1490818 L6.25415583,74.4794509 C9.50187947,77.7757136 11.6345176,78.9220434 14.4192268,78.8727206 C15.1066587,78.8527228 15.0313489,78.8418156 15.2804362,78.9563051 L17.0414107,75.0712613 L13.3464497,77.1673673 C13.3980269,77.2595642 13.7500558,77.9030434 13.8781165,78.1330985 C14.1654997,78.6493646 14.4394574,79.1221644 14.7379405,79.6095355 C15.5501459,80.9357237 16.4311034,82.1810805 17.4412288,83.3708539 C24.7187368,91.9426498 35.3872754,94.0029339 48.9228056,85.8687679 C55.7941441,82.0658081 60.8952467,78.1130153 71.4836677,68.9981452 C71.7602102,68.7600784 71.7602102,68.7600784 72.03644,68.5222991 C88.5652573,54.2950276 96.7190587,49.1151988 108.940835,47.2089529 L116,46.1079258 Z"  fill="#000000" fill-rule="nonzero"></path>
          <path d="M16,76 C17.0372544,64.8675141 26.4950242,57.4125167 31,48"  stroke="#000000" stroke-width="3"></path>
        </g>
        <g id="paw_right" transform="translate(641.000000, 474.000000)" fill-rule="nonzero">
          <path d="M65.292444,49.4817424 C63.9069938,78.2719369 35.3728721,64.9506912 22.448647,55.9504433 C10.1808792,47.4053235 6.59393923,54.5082816 5.51677062,37.6446977 C4.81135118,26.5607211 3.54377113,15.4767416 4.1675869,4.34889757 C22.7188468,2.65449725 42.8967401,7.1070974 58.1058711,18.2440823 C65.9380207,23.9816474 80.6285159,42.2947057 65.292444,49.4817424"  fill="#F6D2A2"></path>
          <path d="M48.5297733,62.3945476 C41.6811847,61.7377136 32.5897867,57.5836664 24.9709753,52.2833102 C22.5638861,50.6083197 20.2977012,49.3624154 17.9728097,48.3623992 C17.0946615,47.9846784 16.2556154,47.6604085 15.2698127,47.3070792 C15.0866052,47.2414154 13.6070493,46.7221659 13.2507878,46.5901374 C10.7759469,45.6729806 10.4717613,45.0970992 9.9767474,37.3551109 C9.84173772,35.2358758 9.71976957,33.5518562 9.43339472,29.7498926 C8.49005871,17.22602 8.25540433,11.686058 8.63928037,4.84514033 L4.79753036,8.84416064 C23.0275089,7.18075865 41.799021,11.8231062 55.4772762,21.8291355 C59.4806689,24.7589687 64.1782915,30.2840052 66.2924428,35.0677139 C68.5822119,40.2487964 67.8496951,43.3865428 63.3151564,45.509478 L66.8849127,53.2274237 C76.0986795,48.9138153 78.024964,40.6625457 74.0238332,31.609151 C71.2707064,25.3796295 65.6014084,18.7117714 60.4538532,14.944599 C45.0434726,3.67147162 24.2279666,-1.47637462 4.03328968,0.366295464 L0.397324432,0.698059333 L0.191536843,4.36531294 C-0.220340117,11.7052058 0.0249386979,17.4960416 0.996388449,30.3931488 C1.28028135,34.1621457 1.40066725,35.8243219 1.53293832,37.9005936 C2.22044441,48.653081 4.13893618,52.2851632 10.3261892,54.5781103 C10.7642366,54.7404468 12.307903,55.2821981 12.4303112,55.3260723 C13.2644864,55.6250568 13.9480299,55.8892273 14.6466032,56.1897071 C16.4606105,56.9699718 18.2283999,57.9418706 20.1582522,59.284771 C28.8595891,65.3382337 39.166816,70.0478142 47.7268199,70.8687892 C60.3269042,72.0772406 68.5857487,64.935128 69.3256747,49.5744856 L60.8743972,49.1624161 C60.3688492,59.6574268 56.3378109,63.1434034 48.5297733,62.3945476 Z"  fill="#000000"></path>
          <path d="M64,49 C59.6179239,47.5510205 54.9736879,46.5221089 52,43"  stroke="#000000" stroke-width="3" fill="#C6B198"></path>
        </g>
        <g id="body" transform="translate(58.000000, 0.000000)" fill-rule="nonzero">
          <path d="M290.922802,4 C400.57899,4 503.374062,19.6691182 556.960542,124.933357 C605.059218,242.920927 587.954562,370.150608 595.289801,494.846516 C601.589603,601.918519 615.557075,725.617977 565.843484,824.839995 C513.54494,929.229391 382.862155,955.489185 275.195089,951.643146 C190.625491,948.619312 88.4643965,921.0527 40.7344805,843.850576 C-15.2625657,753.280786 11.2482011,618.609498 15.315462,517.832002 C20.1329591,398.455937 -17.0464203,278.716867 22.203829,161.903619 C62.9218522,40.727048 172.736082,13.341938 290.922802,4 L290.922802,4 Z"  fill="#6AD7E5"></path>
          <path d="M443.365483,29.2331791 C491.952409,47.2347799 528.227562,78.50034 552.935993,127.05529 C568.852636,166.153486 578.416666,208.468388 583.384051,257.314122 C587.159798,294.442164 588.037665,324.526585 588.402922,392.598257 C588.460882,403.399749 588.489402,408.188711 588.535748,414.186485 C588.794769,447.707202 589.386317,471.480445 590.774305,495.084518 C591.320287,504.36754 591.556335,508.079319 592.981969,530.135222 C596.03774,577.410888 597.241711,601.909999 597.447321,630.168599 C598.022954,709.281821 587.955359,770.515578 561.798435,822.741032 C537.892134,870.476574 495.963451,904.132352 439.708576,924.576512 C391.652816,942.040948 334.528729,949.236646 275.385839,947.123175 C173.747314,943.487673 85.8542428,908.131688 44.618939,841.409472 C17.1230393,796.920861 7.92188049,740.200505 10.4608617,662.049742 C11.1568352,640.627427 12.42791,621.43213 15.1880001,586.646308 C18.320528,547.166597 19.1404258,535.705361 19.8555689,517.979103 C20.3683268,505.268362 20.4280898,492.115953 20.0770088,478.184949 C19.4616726,453.768214 18.0968659,434.154874 14.4112634,390.528506 C9.54317901,332.905136 8.0542043,307.583386 8.65632362,275.979962 C9.44838943,234.406789 14.9175812,197.971948 26.5196048,163.430057 C45.2971178,107.527365 79.6749448,69.5064977 129.565069,45.0765639 C171.323422,24.6285534 222.153494,13.9711448 291.283103,8.50482446 C355.519624,8.51811249 402.807851,14.2064558 443.365483,29.2331791 Z M125.809999,37.4283611 C73.9134505,62.8407899 37.9508664,102.614352 18.4330349,160.721052 C6.53177782,196.15383 0.936012175,233.431884 0.128459517,275.817916 C-0.481129571,307.813412 1.01916651,333.327694 5.91205153,391.244627 C9.58356803,434.704258 10.94059,454.205727 11.5503013,478.399265 C11.8968952,492.152229 11.8379695,505.120385 11.3330752,517.636198 C10.6242086,535.206884 9.80774389,546.620126 6.68524489,585.97344 C3.91516908,620.885117 2.63745187,640.180723 1.93593994,661.773513 C-0.652546782,741.448073 8.78983472,799.655442 37.3607201,845.883389 C80.3882953,915.505653 170.884692,951.908852 275.080685,955.635836 C335.247357,957.78589 393.441882,950.455355 442.625324,932.581096 C500.805252,911.437329 544.467241,876.390245 569.426872,826.551445 C596.289827,772.916309 606.561045,710.444075 605.976504,630.106703 C605.769353,601.636474 604.559557,577.018788 601.493661,529.586505 C600.069358,507.551184 599.833622,503.844323 599.289042,494.585098 C597.911281,471.154968 597.3229,447.508983 597.064902,414.120753 C597.018625,408.13191 596.990131,403.347402 596.932208,392.552611 C596.565483,324.207732 595.682371,293.943511 591.869805,256.453444 C586.825536,206.85164 577.085922,163.759904 560.688025,123.520273 C534.83721,72.6875105 496.885821,39.9772001 446.332255,21.2469535 C404.630506,5.79633142 356.444553,0 290.946484,0 C220.502474,5.55692504 168.728557,16.4122271 125.809999,37.4283611 Z"  fill="#000000"></path>
        </g>
        <g id="snout" transform="translate(281.000000, 201.000000)" fill-rule="nonzero">
          <path d="M110.279284,89.8905394 C110.363809,104.733205 113.69891,121.397001 110.85259,137.187378 C107.010331,144.348678 99.4728189,145.106123 92.9753434,148 C83.9898617,146.610142 76.4339721,140.791586 72.8305926,132.503176 C70.5245038,114.48033 73.6905517,97.0300961 74.2730464,79 L110.279284,89.8905394 L110.279284,89.8905394 Z"  fill="#FFFFFF"></path>
          <path d="M106.639772,106.168092 C107.211073,113.835634 107.425927,117.559304 107.471181,121.944345 C107.528415,127.490348 107.205743,132.343411 106.410947,136.86214 L106.839295,135.603625 C105.118259,138.890976 103.74228,142.320747 97.3253298,144.6292 C97.0215384,144.738462 93.822885,145.270376 90.2761369,144.6292 C86.7293888,143.988024 79.6653039,137.463226 77.0010863,131.182908 L77.3118576,132.33895 C76.346906,124.610294 76.3105013,116.737176 76.9688434,106.266271 C77.1380551,103.574984 77.2931822,101.475693 77.6782941,96.5036007 C78.3485192,87.850448 78.6100425,83.8713844 78.7666667,78.9030422 L73.2571531,82.8795 L108.790217,93.8937658 L105.779581,89.8045534 C105.804185,94.2320405 106.002645,97.6170622 106.639772,106.168092 Z M114.284254,86.5948219 L111.291185,85.6670549 L75.7581207,74.6527894 L70.4260628,73 L70.2486071,78.6292478 C70.0975225,83.4218422 69.841945,87.3104178 69.1818643,95.8325991 C68.7934684,100.84712 68.6363443,102.973418 68.4635929,105.72102 C67.7741669,116.686297 67.8128755,125.057255 68.8564147,133.415364 L68.9313377,134.015439 L69.1671888,134.571406 C73.3006996,144.31527 78.9956176,150.60641 89.3116085,152.241687 C92.6415014,152.701282 95.5376319,152.701282 98,152.241687 C101.693552,151.552294 111.343342,145.41373 114.373654,139.625522 L114.685369,139.030115 L114.802003,138.367007 C115.698287,133.271287 116.055471,127.899145 115.993093,121.854672 C115.945319,117.225478 115.722928,113.371175 115.138128,105.52246 C114.516515,97.1796424 114.324912,93.9116052 114.301822,89.7562673 L114.284254,86.5948219 Z"  fill="#000000"></path>
          <path d="M31.5435568,86.1188848 C19.9122817,114.360979 38.0297437,170.83617 69.5887874,129.180877 C67.3326447,111.266598 70.4301212,93.9214829 71,76 L31.5435568,86.1188848 L31.5435568,86.1188848 Z"  fill="#FFFFFF"></path>
          <path d="M30.9632723,136.640815 C40.7563374,153.925151 57.4357802,153.584998 73.5355132,132.422756 L74.5839172,131.044684 L74.3669019,129.328692 C73.4032808,121.709029 73.3669262,113.946945 74.0243635,103.623702 C74.1933391,100.970369 74.3482523,98.900684 74.7328332,93.9987132 C75.4021343,85.4675886 75.6632998,81.5446408 75.8197053,76.6463643 L76,71 L70.5104882,72.4019899 L30.7654287,82.5526551 L28.7000447,83.080143 L27.8873964,85.0451723 C21.6404561,100.150622 23.106502,122.773954 30.9632723,136.640815 Z M32.8775416,90.771472 L72.622604,80.6208054 L67.3133898,76.3764311 C67.1625163,81.1014368 66.9072884,84.9351742 66.2481178,93.3371715 C65.8602574,98.2809753 65.7033499,100.377287 65.5308367,103.086141 C64.8423612,113.89678 64.8810164,122.14969 65.9231197,130.389926 L66.7545085,127.295865 C54.133567,143.885423 44.9484782,144.072739 38.3735384,132.468254 C31.7971603,120.861233 30.508022,100.967835 35.7555738,88.2789548 L32.8775416,90.771472 Z"  fill="#000000"></path>
          <path d="M35.7733696,32.864419 C13.9934882,34.7423674 -3.80933917,60.9349963 7.51496973,81.6563655 C22.5111014,109.102178 55.9837395,79.2285508 76.8316664,82.0272041 C100.82584,82.5240958 120.485346,107.688236 139.756541,86.5759316 C161.189649,63.0942716 130.529124,40.224588 106.565658,30 L35.7733696,32.864419 L35.7733696,32.864419 Z"  fill="#F6D2A2"></path>
          <path d="M4.0075454,83.5706232 C8.89168062,92.4036345 15.986771,96.7964477 24.9953168,97.3075975 C31.6750539,97.68661 38.3963472,96.1718442 49.0134429,92.5776218 C49.9838158,92.2491191 50.9050284,91.9327384 52.3882686,91.4201567 C66.0464553,86.7001225 71.3690544,85.3860606 76.7388971,86.0983765 L77.2124856,86.1345214 C83.5553362,86.2643164 89.0785941,87.9373094 99.3620091,92.2344592 C111.126347,97.1504421 114.924272,98.4600748 120.942296,98.9154434 C129.404755,99.5557757 136.833299,96.580117 143.579608,89.2768432 C154.994378,76.9192153 154.417461,63.3097131 144.184847,50.7288494 C136.41087,41.1708494 123.177733,32.4329788 108.7964,26.369531 L107.919944,26 L106.969334,26.0380082 L35.9246891,28.8785836 C10.0322871,31.0803414 -8.51844742,60.9219279 4.0075454,83.5706232 Z M107.310127,34.5378844 L105.483061,34.2063618 C118.688924,39.7742083 130.810599,47.7781788 137.572619,56.0919902 C145.288216,65.5782161 145.665253,74.4725599 137.3182,83.5090801 C128.480819,93.0760626 122.329833,92.6106334 102.650304,84.3871148 C91.419039,79.6938871 85.1269131,77.7880043 77.3870097,77.6296195 L77.8605982,77.6657627 C70.6086738,76.7037869 64.7124762,78.1594598 49.6024371,83.3812303 C48.1349761,83.8883592 47.2276372,84.1999733 46.2785379,84.5212737 C26.5133067,91.2124291 17.686946,90.7116177 11.4645469,79.4583373 C2.07052226,62.4726668 16.627251,39.0560271 36.4571717,37.3664673 L107.310127,34.5378844 Z"  fill="#231F20"></path>
          <path d="M33.2612254,31.6637841 C31.6419808,-5.96079439 103.866135,-10.6649922 112.395735,20.8290007 C120.903572,52.2491527 36.8170403,59.546783 33.2612254,31.6637841 C30.4234682,9.39808786 33.2612254,31.6637841 33.2612254,31.6637841 L33.2612254,31.6637841 Z" id="nose" fill="#000000"></path>
        </g>
        <g id="eye_left" transform="translate(136.000000, 63.000000)">
          <g id="globe_left">
            <path d="M7.0951562,108.1367 C32.5710711,207.307658 191.837707,181.917362 185.834626,82.4390371 C178.64181,-36.7017152 -17.2617555,-13.7124951 7.0951562,108.1367"  fill="#FFFFFF" fill-rule="nonzero"></path>
            <path d="M93.2476664,175.981504 C41.1583258,175.981504 0.041890923,138.170373 0.041890923,91.2188432 C0.041890923,66.1973098 10.1521779,42.3335621 30.0407632,25.0883659 C47.472013,9.97390104 73.412694,0.494366066 96.5554607,0.021928928 C146.103499,-0.989546228 191.398228,33.0575712 189.966965,88.1060269 C188.535702,143.154483 145.337007,175.981504 93.2476664,175.981504 Z M93.3387767,168.117925 C140.835265,168.117925 180.225019,138.385146 181.530084,88.5255017 C182.835149,38.6658578 141.534174,7.82798732 96.3549141,8.74412185 C75.2527051,9.17202754 51.586608,17.7032555 35.6923167,31.3930461 C17.5573595,47.0127275 8.44306206,68.604246 8.44306206,91.2672749 C8.44306206,133.793201 45.8422882,168.117925 93.3387767,168.117925 Z" fill="#000000"></path>
          </g>
          <ellipse id="pupil_left" class="pupil" fill="#000000" fill-rule="nonzero" cx="50.5" cy="93.5" rx="26.5" ry="29.5"></ellipse>
          <ellipse id="shine_left" class="shine" fill="#FFFFFF" fill-rule="nonzero" cx="63.5" cy="99.5" rx="6.5" ry="7.5"></ellipse>
        </g>
        <g id="eye_right" transform="translate(364.000000, 51.000000)">
          <g id="globe_right">
            <path d="M4.19166705,100.283848 C23.8018725,214.108829 210.140467,184.013492 183.375916,69.2147213 C159.376118,-33.728748 -2.32577046,-5.23411131 4.19166705,100.283848"  fill="#FFFFFF" fill-rule="nonzero"></path>
            <path d="M94.2476664,176.723272 C42.1583258,176.723272 0,139.735745 0,92.7842152 C0,67.7626818 11.295909,43.6564482 31.1844943,26.411252 C48.615744,11.2967872 74.412694,1.23613388 97.5554607,0.763696737 C147.103499,-0.247778419 192.398228,33.799339 190.966965,88.8477948 C189.535702,143.896251 146.337007,176.723272 94.2476664,176.723272 Z M94.3387767,168.859693 C141.835265,168.859693 181.225019,139.126913 182.530084,89.2672695 C183.835149,39.4076256 142.534174,8.56975513 97.3549141,9.48588966 C76.2527051,9.91379535 52.7303391,19.0261416 36.8360477,32.7159322 C18.7010906,48.3356136 8.40117114,70.169618 8.40117114,92.8326469 C8.40117114,135.358573 46.8422882,168.859693 94.3387767,168.859693 Z" fill="#000000"></path>
          </g>
          <ellipse id="pupil_right" class="pupil" fill="#000000" fill-rule="nonzero" cx="47.5" cy="96.5" rx="26.5" ry="29.5"></ellipse>
          <ellipse id="shine_right" class="shine" fill="#FFFFFF" fill-rule="nonzero" cx="60.5" cy="102.5" rx="6.5" ry="7.5"></ellipse>
        </g>
      </g>
      <g id="globe_text" transform="translate(506.000000, 12.000000)">
        <circle class="small-cloud" id="Oval-6" fill="#FFFFFF" cx="59" cy="178" r="18"></circle>
        <ellipse class="big-cloud" id="Oval-2" fill="#FFFFFF" cx="117.5" cy="71.5" rx="117.5" ry="71.5"></ellipse>
        <path class="go-text" d="M102.983,88.221 C98.8789795,91.6770173 94.1540267,93.405 88.808,93.405 C85.0819814,93.405 81.518017,92.7435066 78.116,91.4205 C74.713983,90.0974934 71.7440127,88.1670127 69.206,85.629 C66.6679873,83.0909873 64.6430076,79.9860184 63.131,76.314 C61.6189924,72.6419816 60.863,68.4570235 60.863,63.759 C60.863,59.7089798 61.6189924,55.9425174 63.131,52.4595 C64.6430076,48.9764826 66.7219868,45.9525128 69.368,43.3875 C72.0140132,40.8224872 75.132482,38.7975074 78.7235,37.3125 C82.314518,35.8274926 86.1889792,35.085 90.347,35.085 C92.939013,35.085 95.4229881,35.3684972 97.799,35.9355 C100.175012,36.5025028 102.37549,37.3394945 104.4005,38.4465 C106.42551,39.5535055 108.247992,40.8764923 109.868,42.4155 C111.488008,43.9545077 112.810995,45.6959903 113.837,47.64 L102.092,56.631 C100.957994,54.3629887 99.2570113,52.5405069 96.989,51.1635 C94.7209887,49.7864931 92.3180127,49.098 89.78,49.098 C87.8899905,49.098 86.1620078,49.4759962 84.596,50.232 C83.0299922,50.9880038 81.6800057,52.0409933 80.546,53.391 C79.4119943,54.7410068 78.5210032,56.3474907 77.873,58.2105 C77.2249968,60.0735093 76.901,62.1119889 76.901,64.326 C76.901,66.5940113 77.2249968,68.6459908 77.873,70.482 C78.5210032,72.3180092 79.4254942,73.8974934 80.5865,75.2205 C81.7475058,76.5435066 83.1379919,77.5694964 84.758,78.2985 C86.3780081,79.0275036 88.18699,79.392 90.185,79.392 C94.7750229,79.392 98.8249824,77.5020189 102.335,73.722 L92.372,73.722 L92.372,62.382 L116.024,62.382 L116.024,93 L102.983,93 L102.983,88.221 Z M151.089636,93.81 C147.255617,93.81 143.894151,93.2025061 141.005136,91.9875 C138.116122,90.7724939 135.686146,89.1525101 133.715136,87.1275 C131.744127,85.1024899 130.259141,82.7535134 129.260136,80.0805 C128.261131,77.4074866 127.761636,74.6130146 127.761636,71.697 C127.761636,68.7809854 128.261131,65.9865134 129.260136,63.3135 C130.259141,60.6404866 131.744127,58.2915101 133.715136,56.2665 C135.686146,54.2414899 138.116122,52.6215061 141.005136,51.4065 C143.894151,50.1914939 147.255617,49.584 151.089636,49.584 C154.869655,49.584 158.217622,50.1914939 161.133636,51.4065 C164.049651,52.6215061 166.493127,54.2414899 168.464136,56.2665 C170.435146,58.2915101 171.920131,60.6404866 172.919136,63.3135 C173.918141,65.9865134 174.417636,68.7809854 174.417636,71.697 C174.417636,74.6130146 173.918141,77.4074866 172.919136,80.0805 C171.920131,82.7535134 170.435146,85.1024899 168.464136,87.1275 C166.493127,89.1525101 164.049651,90.7724939 161.133636,91.9875 C158.217622,93.2025061 154.869655,93.81 151.089636,93.81 Z M143.556636,71.697 C143.556636,74.5590143 144.258629,76.7999919 145.662636,78.42 C147.066644,80.0400081 148.875625,80.85 151.089636,80.85 C153.303648,80.85 155.112629,80.0400081 156.516636,78.42 C157.920644,76.7999919 158.622636,74.5590143 158.622636,71.697 C158.622636,68.8349857 157.920644,66.5940081 156.516636,64.974 C155.112629,63.3539919 153.303648,62.544 151.089636,62.544 C148.875625,62.544 147.066644,63.3539919 145.662636,64.974 C144.258629,66.5940081 143.556636,68.8349857 143.556636,71.697 Z" id="Go" fill="#6AD7E5"></path>
      </g>
    </g>
  </g>
</svg>
