<svg width="1610" height="737" viewBox="0 0 1610 737" xmlns="http://www.w3.org/2000/svg"><title>Artboard Copy 2</title><g fill="none"><g stroke="#61DAFB"><path d="M345.326 120.896C390.687 136.483 420 160.9 420 186.146c0 26.33-31.326 52.073-79.475 67.996a246.737 246.737 0 0 1-7.81 2.434 237.09 237.09 0 0 1 2.518 11.207c9.505 47.926 2.186 87.318-20.343 100.335-21.812 12.604-57.066.223-92.762-30.437a275.548 275.548 0 0 1-11.353-10.34 237.764 237.764 0 0 1-8.764 8.063c-36.852 32.154-74.696 45.494-97.245 32.516-21.831-12.57-28.692-49.239-19.908-95.42a273.82 273.82 0 0 1 3.3-14.966A239.061 239.061 0 0 1 76.8 253.99C30.484 238.19 0 212.129 0 186.146c0-25.155 28.398-49.409 72.864-64.883a278.954 278.954 0 0 1 15.545-4.88 279.558 279.558 0 0 1-3.105-13.885c-9.213-46.997-2.73-84.555 19.159-97.204 22.827-13.19 60.845.974 98.773 34.59a255.54 255.54 0 0 1 6.96 6.416 280.737 280.737 0 0 1 10.457-9.58c36.19-31.435 72.023-44.586 93.932-31.973 22.852 13.151 29.544 53.101 19.31 102.692a256.11 256.11 0 0 1-2.09 9.204 281.726 281.726 0 0 1 13.52 4.253zM334.88 237.143h.002c41.572-13.75 67.176-34.79 67.176-50.997 0-15.214-23.707-34.961-62.573-48.314A264.505 264.505 0 0 0 327 133.898c-5.167 16.69-12.063 34.321-20.44 52.337 8.776 18.452 15.951 36.313 21.267 53.11a231.41 231.41 0 0 0 7.054-2.202zm-17.249 34.119a221.127 221.127 0 0 0-2.273-10.142c-17.396 4.013-36.579 6.954-56.884 8.752-11.543 16.68-23.37 31.7-35.205 44.622a257.065 257.065 0 0 0 10.561 9.61c30.525 26.221 58.832 36.162 72.068 28.514 6.22-3.594 11.25-12.566 13.752-26.025 2.784-14.979 2.184-34.14-2.019-55.331zm-174.445 80.035h.001c14.391-5.074 30.72-15.16 47.016-29.38a220.788 220.788 0 0 0 8.002-7.355c-12.264-13.137-24.433-28.14-36.053-44.462-20.353-1.647-39.396-4.38-56.6-8.178a256.58 256.58 0 0 0-3.066 13.919c-7.511 39.491-2.006 68.936 11.244 76.562 6.225 3.583 16.524 3.453 29.456-1.106zM82.604 237.043a221.32 221.32 0 0 0 10.368 3.24c5.305-17.265 12.298-35.39 20.725-53.701-8.32-18.042-15.214-35.883-20.47-52.947a259.227 259.227 0 0 0-14.456 4.54c-38.029 13.234-60.83 32.707-60.83 47.97 0 7.176 5.26 16.017 15.677 24.922 11.593 9.908 28.506 18.988 48.986 25.976zm20.309-137.985v-.002c.853 4.33 1.815 8.636 2.886 12.917 17.383-3.931 36.293-6.866 56.046-8.694 11.519-16.227 23.576-31.117 35.777-44.195a234.4 234.4 0 0 0-6.3-5.808c-32.749-29.023-63.818-40.6-77.87-32.482-13.192 7.622-18.434 37.997-10.54 78.264zm181.168 44.653a624.314 624.314 0 0 1 12.082 21.816c5.313-12.412 9.824-24.52 13.443-36.1-12.056-2.748-24.895-4.993-38.296-6.681a569.374 569.374 0 0 1 12.771 20.965zm-73.88-71.829c-8.406 9.053-16.764 19.03-24.924 29.772a529.309 529.309 0 0 1 49.64.01c-8.153-10.84-16.441-20.833-24.716-29.782zm-74.355 71.952a526.357 526.357 0 0 1 12.876-21.122c-13.314 1.66-26.093 3.848-38.077 6.526 3.65 11.744 8.121 23.906 13.346 36.276a528.93 528.93 0 0 1 11.855-21.68zm13.259 107.024a525.696 525.696 0 0 1-25.093-43.223c-5.337 12.635-9.906 25.059-13.614 37.011 11.98 2.603 24.952 4.68 38.707 6.212zm61.592 50.817c8.22-9.034 16.478-19.18 24.657-30.274-8.33.37-16.793.562-25.354.562-8.333 0-16.532-.16-24.573-.475 8.285 10.897 16.766 21.027 25.27 30.187zm85.637-94.684a568.6 568.6 0 0 1-12.18 22.213 626.035 626.035 0 0 1-12.895 21.333c13.854-1.659 27-3.893 39.18-6.666-3.759-11.75-8.491-24.107-14.105-36.88zm-27.723 13.266h.002a539.223 539.223 0 0 0 18.046-33.935 586.727 586.727 0 0 0-18.106-33.638 539.216 539.216 0 0 0-20.236-32.252 509.266 509.266 0 0 0-76.559-.011 503.138 503.138 0 0 0-20.365 32.361v-.003a507.802 507.802 0 0 0-17.865 33.797 503.115 503.115 0 0 0 17.919 33.78 507.865 507.865 0 0 0 20.526 32.5c12.244.792 24.958 1.199 38.027 1.199 13.123 0 26-.459 38.462-1.347a587.01 587.01 0 0 0 20.149-32.45zm37.013-199.995c-13.204-7.602-42.184 3.033-73.192 29.97a263.62 263.62 0 0 0-9.659 8.842c12.004 12.91 23.962 27.826 35.503 44.23 19.81 1.854 38.733 4.842 56.157 8.855a235.06 235.06 0 0 0 1.889-8.335c8.836-42.816 3.366-75.465-10.698-83.562z"/><path d="M210.5 149c20.712 0 37.5 16.79 37.5 37.5S231.212 224 210.5 224c-20.71 0-37.5-16.79-37.5-37.5s16.79-37.5 37.5-37.5"/></g><g stroke="#64AFDD"><path d="M1121.529 76.816c28.836 9.904 47.471 25.418 47.471 41.459 0 16.73-19.914 33.087-50.524 43.204a155.44 155.44 0 0 1-4.965 1.547c.603 2.419 1.14 4.794 1.601 7.12 6.043 30.452 1.39 55.481-12.932 63.752-13.866 8.008-36.277.142-58.97-19.34a175.138 175.138 0 0 1-7.217-6.57 151.12 151.12 0 0 1-5.572 5.124c-23.427 20.43-47.485 28.906-61.82 20.66-13.878-7.987-18.24-31.285-12.655-60.628.61-3.189 1.31-6.36 2.097-9.51a152.03 152.03 0 0 1-7.22-2.252C921.38 151.342 902 134.784 902 118.275c0-15.983 18.053-31.394 46.32-41.226a177.401 177.401 0 0 1 9.883-3.1 177.55 177.55 0 0 1-1.974-8.823c-5.857-29.861-1.736-53.726 12.18-61.762 14.511-8.38 38.68.619 62.791 21.978 1.5 1.332 2.975 2.69 4.424 4.077a178.435 178.435 0 0 1 6.648-6.087c23.007-19.974 45.786-28.33 59.714-20.316 14.528 8.356 18.782 33.74 12.275 65.25a160.424 160.424 0 0 1-1.328 5.848c2.888.828 5.754 1.73 8.596 2.702zm-6.64 73.862h.001c26.428-8.737 42.705-22.105 42.705-32.403 0-9.667-15.071-22.214-39.78-30.698a168.212 168.212 0 0 0-7.936-2.5c-3.285 10.605-7.67 21.808-12.995 33.255 5.58 11.724 10.141 23.073 13.52 33.745a149.13 149.13 0 0 0 4.485-1.4zm-10.966 21.679a140.44 140.44 0 0 0-1.445-6.444c-11.059 2.55-23.254 4.418-36.162 5.56-7.338 10.599-14.857 20.143-22.38 28.353a163.39 163.39 0 0 0 6.714 6.106c19.405 16.66 37.4 22.977 45.815 18.118 3.953-2.284 7.151-7.985 8.741-16.537 1.77-9.517 1.389-21.691-1.283-35.156zM993.026 223.21c9.15-3.224 19.53-9.632 29.89-18.667a140.33 140.33 0 0 0 5.086-4.674c-7.796-8.347-15.532-17.88-22.919-28.25-12.939-1.047-25.045-2.784-35.98-5.197a162.956 162.956 0 0 0-1.95 8.844c-4.776 25.093-1.276 43.802 7.147 48.647 3.958 2.276 10.505 2.194 18.726-.703zm-38.514-72.596c2.18.74 4.378 1.426 6.592 2.059 3.372-10.97 7.817-22.486 13.175-34.121-5.29-11.463-9.672-22.8-13.014-33.642-3.09.872-6.155 1.834-9.19 2.885-24.175 8.409-38.67 20.781-38.67 30.48 0 4.559 3.344 10.176 9.966 15.835 7.37 6.295 18.122 12.065 31.141 16.504zm12.911-87.674c.542 2.75 1.154 5.487 1.835 8.207 11.05-2.499 23.072-4.364 35.63-5.525 7.322-10.31 14.987-19.77 22.743-28.08a148.984 148.984 0 0 0-4.005-3.69c-20.819-18.442-40.57-25.798-49.503-20.64-8.386 4.843-11.718 24.143-6.7 49.728zm115.172 28.373a396.328 396.328 0 0 1 7.68 13.861c3.377-7.887 6.245-15.58 8.546-22.938-7.664-1.746-15.826-3.172-24.346-4.245a361.738 361.738 0 0 1 8.12 13.322zm-46.967-45.64c-5.344 5.752-10.658 12.092-15.845 18.917a336.662 336.662 0 0 1 31.557.007c-5.183-6.889-10.452-13.238-15.712-18.924zM988.359 91.39a334.41 334.41 0 0 1 8.186-13.42c-8.464 1.055-16.588 2.445-24.206 4.146 2.32 7.462 5.162 15.19 8.484 23.05a336.023 336.023 0 0 1 7.536-13.776zm8.43 68.002a333.969 333.969 0 0 1-15.952-27.463c-3.394 8.028-6.298 15.922-8.656 23.516 7.616 1.654 15.863 2.974 24.607 3.947zm39.154 32.289c5.225-5.74 10.475-12.186 15.675-19.236-5.295.236-10.675.357-16.118.357-5.297 0-10.51-.101-15.621-.302 5.266 6.924 10.658 13.36 16.064 19.18zm54.44-60.161a361.226 361.226 0 0 1-7.742 14.113 397.734 397.734 0 0 1-8.197 13.555c8.806-1.054 17.164-2.473 24.906-4.235-2.389-7.466-5.398-15.318-8.966-23.433zm-17.623 8.429a342.557 342.557 0 0 0 11.473-21.562 372.737 372.737 0 0 0-11.51-21.373 342.585 342.585 0 0 0-12.865-20.493 323.913 323.913 0 0 0-48.67-.007 319.664 319.664 0 0 0-12.945 20.562v-.002a322.595 322.595 0 0 0-11.357 21.475 322.668 322.668 0 0 0 24.44 42.113c7.783.503 15.866.762 24.174.762 8.342 0 16.529-.292 24.45-.856a372.948 372.948 0 0 0 12.81-20.62zm23.53-127.075c-8.395-4.83-26.818 1.928-46.53 19.043a167.555 167.555 0 0 0-6.14 5.618c7.631 8.203 15.233 17.68 22.57 28.103 12.594 1.179 24.623 3.077 35.7 5.626.432-1.757.832-3.523 1.2-5.295 5.618-27.205 2.14-47.95-6.8-53.095z"/><path d="M1036 94c13.255 0 24 10.745 24 24s-10.745 24-24 24c-13.254 0-24-10.745-24-24s10.746-24 24-24"/></g><g stroke="#63388A"><path d="M1559.253 472.074c41.671 47.845 59.121 95.179 42.44 124.073-17.399 30.134-70.3 38.876-135.986 25.25a326.674 326.674 0 0 1-10.557-2.38 313.037 313.037 0 0 1-4.52 14.491c-20.777 61.14-55.192 101.38-89.604 101.377-33.32-.004-65.528-37.493-86.166-96.195a364.395 364.395 0 0 1-6.175-19.344 314.423 314.423 0 0 1-15.37 3.431c-63.467 12.423-115.64 2.658-132.899-27.111-16.706-28.827-.337-75.331 40.242-122.374a361.534 361.534 0 0 1 13.67-14.947 316.51 316.51 0 0 1-10.67-11.569c-42.625-48.72-60.33-98.71-43.162-128.448 16.622-28.79 65.184-37.763 126.353-26.06 6.837 1.309 13.864 2.885 21.035 4.698a369.112 369.112 0 0 1 5.618-17.945c20.498-59.882 52.744-98.58 86.18-98.576 34.868.004 69.066 41.362 90.308 104.924a337.93 337.93 0 0 1 3.734 11.946 371.255 371.255 0 0 1 18.31-4.046c62.236-12.04 111.98-3.388 128.748 25.54 17.491 30.167-1.24 80.316-45.734 130.302a336.317 336.317 0 0 1-8.476 9.152 372.995 372.995 0 0 1 12.681 13.811zm-88.779 126.135l.002.001c56.715 11.761 99.952 4.618 110.661-13.93 10.053-17.413-4.06-55.694-39.766-96.686a350.196 350.196 0 0 0-11.705-12.76c-16.948 15.682-36.5 31.3-58.002 46.377-2.136 26.924-5.719 52.112-10.727 74.852 3.221.776 6.406 1.496 9.537 2.146zm-42.307 27.638a291.964 291.964 0 0 0 4.097-13.11c-22.583-6.914-46.504-16.237-70.955-27.611-24.247 11.454-47.723 20.823-69.82 27.782a339.953 339.953 0 0 0 5.75 17.986c17.647 50.2 43.51 80.302 63.728 80.304 9.5.001 21.192-6.94 32.951-20.69 13.088-15.3 25.06-37.627 34.249-64.66zm-252.748-23.79h.002c19.84 3.712 45.213 2.97 73.28-2.525a291.975 291.975 0 0 0 14.027-3.124c-5.37-23.149-9.399-48.369-11.926-74.735-22.23-15.349-42.242-31.073-59.442-46.8a338.772 338.772 0 0 0-12.712 13.902c-34.7 40.23-47.849 77.571-37.708 95.062 4.765 8.219 16.65 14.883 34.479 18.22zm6.086-170.838a293.02 293.02 0 0 0 9.738 10.566c17.486-16.25 37.474-32.368 59.229-47.75 2.389-26.152 6.28-51.131 11.532-74.138-6.477-1.646-13-3.102-19.562-4.366-52.314-10.008-91.305-2.805-101.39 14.665-4.742 8.211-4.557 21.809 1.493 38.892 6.736 19.008 20.113 40.587 38.96 62.131zm114.444-144.488l.001-.002a346.156 346.156 0 0 0-5.228 16.693c22.514 6.999 46.118 16.148 69.957 27.122 23.92-10.952 47.573-20.017 70.193-26.915a309.978 309.978 0 0 0-3.382-10.814c-18.341-54.88-46.287-88.682-67.752-88.684-20.15-.003-46.226 31.293-63.789 82.6zm178.06 170.944a824.186 824.186 0 0 1-.573 32.96c14.289-10.693 27.458-21.566 39.256-32.425-11.997-11.12-25.223-22.181-39.462-32.979a752.3 752.3 0 0 1 .779 32.444zm-37.183-131.078c-15.611 4.8-31.781 10.691-48.227 17.586a700.99 700.99 0 0 1 56.865 32.849c-2.177-17.8-5.07-34.72-8.638-50.435zm-132.731 33.164a695.467 695.467 0 0 1 28.708-15.656c-16.352-6.907-32.438-12.856-47.937-17.719-3.578 15.857-6.492 32.733-8.68 50.346a698.773 698.773 0 0 1 27.909-16.97zm-55.528 131.258a694.504 694.504 0 0 1-.19-66.067c-14.462 10.931-27.906 22.128-40.053 33.354 12.006 10.904 25.496 21.86 40.243 32.713zm36.988 98.901c15.386-4.902 31.552-11.05 48.253-18.338a754.856 754.856 0 0 1-29.419-16.128 830.743 830.743 0 0 1-27.84-16.798c2.292 17.951 5.315 35.156 9.006 51.264zm160.679-51.717c-9.414 6-18.96 11.79-28.633 17.365a827.158 827.158 0 0 1-28.87 15.886c16.969 7.265 33.508 13.405 49.294 18.286 3.458-15.934 6.2-33.206 8.209-51.537zm-40.529-3.156l.002.001a712.35 712.35 0 0 0 43.1-26.9 775.116 775.116 0 0 0 1.482-50.476 712.483 712.483 0 0 0-1.873-50.298 674.445 674.445 0 0 0-87.707-50.654 664.814 664.814 0 0 0-44.715 23.567l.002-.005a670.837 670.837 0 0 0-42.8 26.864 664.647 664.647 0 0 0-1.79 50.513 671.14 671.14 0 0 0 2.04 50.774c13.505 9.006 27.803 17.88 42.776 26.526 15.035 8.68 30.092 16.674 44.956 23.9a775.623 775.623 0 0 0 44.527-23.812zm174.558-204.409c-10.106-17.434-50.336-24.432-103.66-14.115a348.617 348.617 0 0 0-16.909 3.732c5.223 22.715 9.067 47.696 11.45 74.103 21.472 15.228 41.177 31.163 58.488 47.282a311.918 311.918 0 0 0 7.671-8.29c38.416-43.157 53.722-84.143 42.96-102.712z"/><path d="M1387.018 414.266c23.993 13.853 32.32 44.344 18.602 68.104-13.719 23.761-44.288 31.796-68.282 17.943-23.99-13.85-32.32-44.343-18.6-68.105 13.717-23.76 44.289-31.793 68.28-17.942"/></g></g></svg>