<svg width="720" height="444" viewBox="0 0 720 444" xmlns="http://www.w3.org/2000/svg" xmlns:xlink="http://www.w3.org/1999/xlink"><title>Artboard</title><defs><path id="a" d="M0 0h720v443.301H0z"/></defs><g fill="none" fill-rule="evenodd"><mask id="b" fill="#fff"><use xlink:href="#a"/></mask><use fill="#FFF" xlink:href="#a"/><g mask="url(#b)" stroke="#E1E4E8" fill="#FFF"><path d="M269.342 76.632V98.28h39.063c8.004 0 21.741-5.86 22.22-22.247V67.66c0-13.994-11.469-22.247-22.22-22.247h-19.472V35.367h38.585V13.598h-37.032c-9.556 0-22.338 7.894-22.338 22.606v7.535c0 14.712 12.662 22.248 22.338 22.248 26.878.12-6.45 0 18.397 0v10.525l-39.54.12zm-209.29-5.263s20.906-1.794 20.906-28.826C80.958 15.512 55.633 13 55.633 13H10v85.28h22.936V77.709l19.83 20.573h33.926L60.052 71.37zm-8.84-17.463H32.937V34.41h18.396s5.137 1.914 5.137 9.688c0 7.775-5.256 9.808-5.256 9.808zm86.369-40.308h-23.295c-16.604 0-22.219 15.07-22.219 22.247v62.436h23.295V83.33h21.86v14.95H159.8V35.846c0-18.18-16.485-22.247-22.22-22.247zm-.359 45.57h-21.98v-20.69s0-4.665 7.287-4.665h8.004c6.45 0 6.57 4.665 6.57 4.665V59.17h.12zM170.475 13h24.25v84.683h-24.25V13zm59.016 62.794h32.612v21.889h-56.742V13h24.13v62.794zm8.057 94.216v18.995h34.273c7.023 0 19.076-5.142 19.496-19.52v-7.346c0-12.279-10.062-19.52-19.496-19.52h-17.084v-8.815h33.854v-19.1H256.1c-8.385 0-19.6 6.926-19.6 19.835v6.611c0 12.908 11.11 19.52 19.6 19.52 23.582.105-5.66 0 16.14 0v9.235l-34.692.105zm-183.632-4.618s18.343-1.574 18.343-25.291c0-23.718-22.22-25.922-22.22-25.922H10v74.826h20.124v-18.05l17.399 18.05H77.29l-23.374-23.613zM46.16 150.07H30.124v-17.106h16.141s4.507 1.68 4.507 8.5c0 6.822-4.612 8.606-4.612 8.606zm75.78-35.366H101.5c-14.569 0-19.495 13.223-19.495 19.52v54.78h20.439v-13.117h19.18v13.118h19.81v-54.781c0-15.952-14.464-19.52-19.495-19.52zm-.315 39.984H102.34v-18.156s0-4.092 6.393-4.092h7.023c5.66 0 5.764 4.092 5.764 4.092v18.156h.105zm29.176-40.509h21.277v74.301h-21.277v-74.3zm51.781 55.096h28.614v19.205H181.41v-74.3h21.172v55.096zm15.646 89.703v17.382h31.363c6.426 0 17.457-4.706 17.84-17.862v-6.723c0-11.236-9.208-17.862-17.84-17.862h-15.634v-8.067h30.98v-17.478h-29.733c-7.673 0-17.935 6.338-17.935 18.15v6.05c0 11.813 10.166 17.863 17.935 17.863 21.58.096-5.179 0 14.771 0v8.45l-31.747.097zm-168.04-4.226s16.784-1.44 16.784-23.144c0-21.704-20.333-23.72-20.333-23.72H10v68.472h18.415v-16.518l15.922 16.518h27.24l-21.39-21.608zm-7.098-14.02H28.415v-15.654h14.771s4.124 1.536 4.124 7.779c0 6.242-4.22 7.874-4.22 7.874zm69.345-32.364H93.732c-13.332 0-17.84 12.1-17.84 17.862v50.13h18.703v-12.004h17.553v12.004h18.127v-50.13c0-14.597-13.236-17.862-17.84-17.862zm-.287 36.589H94.5v-16.614s0-3.745 5.85-3.745h6.426c5.18 0 5.276 3.745 5.276 3.745v16.614h.096zm26.698-37.07h19.47v67.993h-19.47v-67.992zm47.385 50.419h26.184v17.574h-45.559v-67.992h19.375v50.418zm4.089 74.937v15.053h27.161c5.565 0 15.117-4.075 15.45-15.469v-5.821c0-9.73-7.975-15.469-15.45-15.469h-13.538v-6.985h26.828v-15.136h-25.749c-6.644 0-15.532 5.489-15.532 15.718v5.24c0 10.228 8.805 15.468 15.532 15.468 18.689.083-4.485 0 12.791 0v7.318l-27.492.083zm-145.518-3.659s14.535-1.247 14.535-20.043c0-18.795-17.609-20.541-17.609-20.541H10v59.296h15.947v-14.304l13.788 14.304h23.589l-18.522-18.712zm-6.147-12.142H25.947v-13.556h12.791s3.572 1.331 3.572 6.737c0 5.405-3.655 6.82-3.655 6.82zm60.052-28.026H82.51c-11.545 0-15.449 10.478-15.449 15.468v43.412h16.197V337.9h15.2v10.396h15.698v-43.412c0-12.64-11.462-15.468-15.45-15.468zm-.25 31.685H83.176v-14.387s0-3.243 5.066-3.243h5.565c4.486 0 4.569 3.243 4.569 3.243V321.1h.083zM121.579 289h16.861v58.88h-16.86V289zm41.034 43.661h22.675v15.219h-39.453V289h16.778v43.661zm27.707 72.518v15.053h27.161c5.565 0 15.117-4.075 15.45-15.469v-5.821c0-9.73-7.975-15.469-15.45-15.469h-13.538v-6.986h26.828v-15.136h-25.749c-6.644 0-15.532 5.49-15.532 15.718v5.24c0 10.229 8.805 15.468 15.532 15.468 18.689.083-4.485 0 12.791 0v7.319l-27.492.083zm-145.518-3.66s14.535-1.247 14.535-20.042-17.609-20.541-17.609-20.541H10v59.296h15.947v-14.305l13.788 14.305h23.589L44.802 401.52zm-6.147-12.141H25.947v-13.556h12.791s3.572 1.33 3.572 6.736-3.655 6.82-3.655 6.82zm60.052-28.027H82.51c-11.545 0-15.449 10.48-15.449 15.469v43.412h16.197v-10.396h15.2v10.396h15.698V376.82c0-12.64-11.462-15.469-15.45-15.469zm-.25 31.686H83.176V378.65s0-3.244 5.066-3.244h5.565c4.486 0 4.569 3.244 4.569 3.244v14.387h.083zm23.121-32.101h16.861v58.88h-16.86v-58.88zm41.034 43.66h22.675v15.22h-39.453v-58.88h16.778v43.66zm175.998-31.281v6.988h12.61c2.583 0 7.018-1.892 7.172-7.182v-2.702c0-4.518-3.702-7.182-7.172-7.182h-6.286v-3.244h12.456v-7.027h-11.955c-3.085 0-7.211 2.548-7.211 7.298v2.432c0 4.75 4.087 7.182 7.211 7.182 8.677.039-2.082 0 5.939 0v3.398l-12.765.039zm-67.563-1.7s6.748-.579 6.748-9.305c0-8.726-8.175-9.537-8.175-9.537h-14.73v27.53h7.404v-6.641l6.402 6.641h10.951l-8.6-8.687zm-2.854-5.637h-5.9v-6.293h5.939s1.658.617 1.658 3.127-1.697 3.166-1.697 3.166zm27.881-13.012h-7.52c-5.36 0-7.172 4.865-7.172 7.182v20.155h7.52v-4.826h7.057v4.826h7.288v-20.155c0-5.87-5.322-7.182-7.173-7.182zm-.115 14.711h-7.096v-6.68s0-1.505 2.352-1.505h2.584c2.083 0 2.121 1.505 2.121 1.505v6.68h.039zm10.734-14.904h7.828v27.337h-7.828v-27.337zm19.052 20.271h10.527v7.066h-18.317v-27.336h7.79v20.27zm126.515.271v6.988h12.61c2.584 0 7.018-1.892 7.173-7.182v-2.702c0-4.518-3.702-7.182-7.173-7.182h-6.286v-3.244h12.456v-7.027h-11.955c-3.085 0-7.21 2.548-7.21 7.298v2.432c0 4.75 4.087 7.182 7.21 7.182 8.677.039-2.082 0 5.94 0v3.398l-12.765.039zm-67.563-1.7s6.749-.579 6.749-9.305c0-8.726-8.176-9.537-8.176-9.537h-14.73v27.53h7.404v-6.641l6.401 6.641h10.952l-8.6-8.687zm-2.853-5.637h-5.9v-6.293h5.938s1.658.617 1.658 3.127-1.696 3.166-1.696 3.166zm27.88-13.012h-7.519c-5.36 0-7.173 4.865-7.173 7.182v20.155h7.52v-4.826h7.057v4.826h7.288v-20.155c0-5.87-5.321-7.182-7.172-7.182zm-.115 14.711h-7.096v-6.68s0-1.505 2.353-1.505h2.584c2.082 0 2.12 1.505 2.12 1.505v6.68h.04zm10.735-14.904h7.828v27.337h-7.828v-27.337zm19.051 20.271h10.528v7.066h-18.318v-27.336h7.79v20.27zm127.221.271v6.988h12.61c2.584 0 7.019-1.892 7.173-7.182v-2.702c0-4.518-3.702-7.182-7.173-7.182h-6.286v-3.244h12.456v-7.027h-11.954c-3.085 0-7.212 2.548-7.212 7.298v2.432c0 4.75 4.088 7.182 7.212 7.182 8.676.039-2.083 0 5.938 0v3.398l-12.764.039zm-67.562-1.7s6.748-.579 6.748-9.305c0-8.726-8.175-9.537-8.175-9.537h-14.731v27.53h7.404v-6.641l6.401 6.641h10.952l-8.6-8.687zm-2.854-5.637h-5.9v-6.293h5.939s1.658.617 1.658 3.127-1.697 3.166-1.697 3.166zm27.881-13.012h-7.52c-5.36 0-7.172 4.865-7.172 7.182v20.155h7.52v-4.826h7.056v4.826h7.289v-20.155c0-5.87-5.322-7.182-7.173-7.182zm-.116 14.711h-7.095v-6.68s0-1.505 2.352-1.505h2.584c2.082 0 2.12 1.505 2.12 1.505v6.68h.04zm10.735-14.904h7.828v27.337H534.7v-27.337zm19.051 20.271h10.528v7.066h-18.318v-27.336h7.79v20.27zm19.101-200.579v18.995h34.273c7.023 0 19.076-5.142 19.496-19.52v-7.346c0-12.278-10.062-19.52-19.496-19.52h-17.084v-8.815h33.854v-19.1h-32.491c-8.385 0-19.6 6.926-19.6 19.835v6.611c0 12.908 11.11 19.52 19.6 19.52 23.582.105-5.66 0 16.14 0v9.235l-34.692.105zm-183.632-4.617s18.343-1.575 18.343-25.292c0-23.718-22.22-25.922-22.22-25.922h-40.039v74.826h20.124v-18.05l17.399 18.05h29.767l-23.374-23.612zm-7.756-15.322h-16.036V135.42h16.141s4.507 1.679 4.507 8.5-4.612 8.606-4.612 8.606zm75.78-35.367h-20.439c-14.569 0-19.495 13.223-19.495 19.52v54.781h20.439v-13.118h19.18v13.118h19.81v-54.78c0-15.952-14.464-19.52-19.495-19.52zm-.315 39.984h-19.285v-18.155s0-4.093 6.393-4.093h7.023c5.66 0 5.764 4.093 5.764 4.093v18.155h.105zm29.176-40.509h21.277v74.301h-21.277v-74.3zm51.781 55.096H566.5v19.205h-49.786v-74.301h21.172v55.096zm156.746-79.448h21.649V53.219c0-8.004-5.86-21.741-22.247-22.219h-8.373c-13.994 0-22.247 11.468-22.247 22.22v19.47h-10.047V34.107h-21.769v37.032c0 9.556 7.894 22.338 22.606 22.338h7.535c14.712 0 22.248-12.662 22.248-22.338.12-26.878 0 6.45 0-18.397h10.525l.12 39.54zm-5.263 209.29s-1.794-20.906-28.826-20.906c-27.031 0-29.543 25.325-29.543 25.325v45.633h85.28v-22.936h-20.572l20.573-19.83v-33.926l-26.912 26.64zm-17.463 8.84v18.276H652.41v-18.396s1.914-5.137 9.688-5.137c7.775 0 9.808 5.256 9.808 5.256zm-40.308-86.369v23.295c0 16.604 15.07 22.219 22.247 22.219h62.436v-23.295H701.33v-21.86h14.95v-22.578h-62.435c-18.18 0-22.247 16.485-22.247 22.22zm45.57.359v21.98h-20.691s-4.665 0-4.665-7.287v-8.004c0-6.45 4.665-6.57 4.665-6.57h20.692v-.12zM631 191.149V166.9h84.683v24.25H631zm62.794-59.016V99.521h21.889v56.742H631v-24.13h62.794z"/></g></g></svg>