<svg width="320" height="563" viewBox="0 0 320 563" xmlns="http://www.w3.org/2000/svg" xmlns:xlink="http://www.w3.org/1999/xlink"><title>Artboard</title><defs><path id="a" d="M0 0h320v563H0z"/></defs><g fill="none" fill-rule="evenodd"><mask id="b" fill="#fff"><use xlink:href="#a"/></mask><use fill="#FFF" xlink:href="#a"/><path d="M254.99 85.337v20.869h37.655c7.715 0 20.957-5.65 21.417-21.445v-8.07c0-13.49-11.054-21.446-21.417-21.446h-18.77V45.56h37.194V24.576h-35.697c-9.212 0-21.533 7.61-21.533 21.791v7.264c0 14.181 12.206 21.445 21.533 21.445 25.909.115-6.218 0 17.733 0v10.146l-38.114.115zM53.249 80.264S73.4 78.534 73.4 52.478C73.4 26.421 48.987 24 48.987 24H5v82.206h22.109V86.375l19.115 19.83h32.702l-25.678-25.94zm-8.521-16.833H27.109V44.638h17.733s4.951 1.845 4.951 9.339c0 7.494-5.066 9.454-5.066 9.454zm83.253-38.855h-22.454c-16.006 0-21.418 14.528-21.418 21.445v60.185h22.454V91.794h21.073v14.412h21.763V46.02c0-17.524-15.89-21.445-21.418-21.445zm-.345 43.928h-21.188V48.558s0-4.497 7.024-4.497h7.715c6.218 0 6.334 4.497 6.334 4.497v19.946h.115zM159.688 24h23.376v81.63h-23.376V24zm56.888 60.53h31.436v21.1h-54.696V24h23.26v60.53zm-63.213 73.099v12.802h23.1c4.733 0 12.856-3.466 13.139-13.156v-4.951c0-8.276-6.782-13.156-13.14-13.156h-11.514v-5.941h22.817v-12.873h-21.899c-5.651 0-13.21 4.668-13.21 13.368v4.456c0 8.7 7.488 13.156 13.21 13.156 15.895.07-3.814 0 10.88 0v6.224l-23.383.07zm-123.764-3.112s12.362-1.061 12.362-17.046c0-15.986-14.976-17.471-14.976-17.471H0v50.431h13.563v-12.166l11.727 12.166h20.062l-15.753-15.914zM24.37 144.19H13.563v-11.53h10.879s3.038 1.133 3.038 5.73c0 4.598-3.109 5.8-3.109 5.8zm51.074-23.836H61.67c-9.82 0-13.14 8.912-13.14 13.156v36.921h13.776v-8.841h12.927v8.841h13.351V133.51c0-10.751-9.748-13.156-13.139-13.156zm-.212 26.948H62.235v-12.236s0-2.759 4.31-2.759h4.732c3.815 0 3.886 2.759 3.886 2.759v12.236h.07zM94.897 120h14.34v50.077h-14.34V120zm34.9 37.134h19.285v12.943h-33.555V120h14.27v37.134zm140.566 68.529v12.802h23.1c4.733 0 12.856-3.465 13.139-13.155v-4.952c0-8.275-6.782-13.156-13.14-13.156h-11.514v-5.94h22.817v-12.874h-21.899c-5.651 0-13.21 4.668-13.21 13.368v4.456c0 8.7 7.488 13.156 13.21 13.156 15.895.07-3.814 0 10.88 0v6.224l-23.383.071zm-123.764-3.112s12.362-1.06 12.362-17.046c0-15.985-14.976-17.47-14.976-17.47H117v50.43h13.563V226.3l11.727 12.165h20.062l-15.753-15.914zm-5.228-10.327h-10.808v-11.529h10.879s3.038 1.132 3.038 5.73c0 4.597-3.109 5.8-3.109 5.8zm51.074-23.836H178.67c-9.82 0-13.14 8.912-13.14 13.156v36.921h13.776v-8.84h12.927v8.84h13.351v-36.921c0-10.751-9.748-13.156-13.139-13.156zm-.212 26.949h-12.998V203.1s0-2.758 4.31-2.758h4.732c3.815 0 3.886 2.758 3.886 2.758v12.237h.07zm19.664-27.303h14.34v50.078h-14.34v-50.078zm34.9 37.134h19.285v12.944h-33.555v-50.078h14.27v37.134zM74.734 244.11v5.821h10.503c2.152 0 5.846-1.576 5.975-5.982v-2.251c0-3.763-3.084-5.982-5.975-5.982h-5.235v-2.702h10.375v-5.853h-9.958c-2.57 0-6.006 2.122-6.006 6.078v2.026c0 3.956 3.404 5.982 6.006 5.982 7.227.033-1.734 0 4.947 0v2.83l-10.632.033zm-56.275-1.415s5.62-.483 5.62-7.751c0-7.269-6.809-7.944-6.809-7.944H5v22.931h6.167v-5.532l5.332 5.532h9.122l-7.162-7.236zm-2.377-4.696h-4.915v-5.242h4.947s1.38.514 1.38 2.605c0 2.09-1.412 2.637-1.412 2.637zm23.223-10.838H33.04c-4.464 0-5.974 4.052-5.974 5.982v16.788h6.263v-4.02h5.878v4.02h6.071v-16.788c0-4.889-4.432-5.982-5.974-5.982zm-.097 12.253h-5.91v-5.564s0-1.254 1.96-1.254h2.152c1.734 0 1.766 1.254 1.766 1.254v5.564h.032zM48.15 227h6.52v22.77h-6.52V227zm15.868 16.885h8.77v5.885H57.53V227h6.488v16.885zm57.716 32.225v5.821h10.503c2.152 0 5.846-1.576 5.975-5.982v-2.251c0-3.763-3.084-5.982-5.975-5.982h-5.235v-2.702h10.375v-5.853h-9.958c-2.57 0-6.006 2.122-6.006 6.078v2.026c0 3.956 3.404 5.982 6.006 5.982 7.227.033-1.734 0 4.947 0v2.83l-10.632.033zm-56.275-1.415s5.62-.483 5.62-7.751c0-7.269-6.809-7.944-6.809-7.944H52v22.931h6.167v-5.532l5.332 5.532h9.122l-7.162-7.236zm-2.377-4.696h-4.915v-5.242h4.947s1.38.514 1.38 2.605c0 2.09-1.412 2.637-1.412 2.637zm23.223-10.838H80.04c-4.464 0-5.974 4.052-5.974 5.982v16.788h6.263v-4.02h5.878v4.02h6.071v-16.788c0-4.889-4.432-5.982-5.974-5.982zm-.097 12.253h-5.91v-5.564s0-1.254 1.96-1.254h2.152c1.734 0 1.766 1.254 1.766 1.254v5.564h.032zM95.15 259h6.52v22.77h-6.52V259zm15.868 16.885h8.77v5.885H104.53V259h6.488v16.885zm37.122 99.963v11.531h20.807c4.263 0 11.58-3.122 11.835-11.85v-4.46c0-7.454-6.108-11.85-11.835-11.85h-10.372v-5.351h20.553v-11.596h-19.725c-5.09 0-11.9 4.205-11.9 12.042v4.013c0 7.837 6.746 11.85 11.9 11.85 14.316.064-3.436 0 9.799 0v5.607l-21.062.064zm-111.48-2.804s11.136-.955 11.136-15.354c0-14.398-13.49-15.736-13.49-15.736H10v45.425h12.217v-10.958l10.562 10.958H50.85l-14.19-14.335zm-4.708-9.301h-9.735v-10.385h9.799s2.736 1.02 2.736 5.16c0 4.142-2.8 5.225-2.8 5.225zm46.005-21.47H65.549c-8.845 0-11.835 8.027-11.835 11.85v33.256H66.12v-7.964h11.645v7.964h12.026v-33.257c0-9.684-8.781-11.85-11.835-11.85zm-.191 24.273H66.058v-11.022s0-2.485 3.881-2.485h4.263c3.436 0 3.5 2.485 3.5 2.485v11.022h.064zm17.712-24.592h12.917v45.107H95.478v-45.107zm31.435 33.448h17.371v11.659H114.06v-45.107h12.853v33.448zm69.32 80.26v15.546h28.051c5.748 0 15.612-4.208 15.956-15.975v-6.013c0-10.049-8.235-15.975-15.956-15.975h-13.982v-7.215h27.707v-15.632h-26.592c-6.863 0-16.042 5.668-16.042 16.233v5.411c0 10.565 9.093 15.976 16.042 15.976 19.3.086-4.632 0 13.21 0v7.558l-28.394.086zm-150.29-3.78s15.012-1.288 15.012-20.699-18.186-21.215-18.186-21.215H10v61.24h16.47v-14.773l14.24 14.773h24.362l-19.13-19.325zm-6.348-12.54H26.47v-14h13.21s3.69 1.375 3.69 6.958-3.775 7.043-3.775 7.043zm62.02-28.944H84.888c-11.924 0-15.956 10.822-15.956 15.975v44.835H85.66v-10.736h15.698v10.736h16.213v-44.835c0-13.055-11.838-15.975-15.956-15.975zm-.257 32.724H85.574v-14.86s0-3.349 5.233-3.349h5.747c4.633 0 4.718 3.35 4.718 3.35v14.859h.086zm23.879-33.154h17.414v60.81h-17.414v-60.81zm42.38 45.093h23.418v15.718h-40.747v-60.811h17.328v45.093zm-46.89 76.107v9.243h16.678c3.417 0 9.282-2.502 9.486-9.499v-3.574c0-5.975-4.896-9.499-9.486-9.499h-8.314v-4.29h16.474v-9.294h-15.81c-4.08 0-9.538 3.37-9.538 9.652v3.217c0 6.282 5.406 9.499 9.537 9.499 11.476.05-2.754 0 7.855 0v4.494l-16.882.05zM31.37 528.92s8.926-.766 8.926-12.307c0-11.542-10.813-12.614-10.813-12.614H10v36.41h9.793v-8.783l8.466 8.784h14.485L31.37 528.92zm-3.774-7.456h-7.803v-8.324h7.854s2.193.817 2.193 4.136c0 3.32-2.244 4.188-2.244 4.188zm36.875-17.21h-9.946c-7.089 0-9.486 6.435-9.486 9.499v26.657h9.945v-6.383h9.334v6.383h9.64v-26.657c0-7.762-7.039-9.499-9.487-9.499zm-.153 19.457h-9.385v-8.835s0-1.991 3.112-1.991h3.417c2.754 0 2.805 1.991 2.805 1.991v8.835h.05zM78.515 504H88.87v36.156H78.515V504zm25.197 26.81h13.924v9.346H93.41V504h10.302v26.81z" stroke="#E1E4E8" fill="#FFF" mask="url(#b)"/><path d="M292.574 369.51h14.88v-26.85c0-5.502-4.028-14.945-15.291-15.273h-5.756c-9.619 0-15.292 7.883-15.292 15.273v13.384h-6.906v-26.522h-14.964v25.455c0 6.569 5.427 15.355 15.54 15.355h5.18c10.112 0 15.291-8.704 15.291-15.355.083-18.476 0 4.434 0-12.646h7.235l.083 27.18zm-3.618 143.862s-1.233-14.37-19.814-14.37-20.308 17.409-20.308 17.409v31.367h58.62v-15.766h-14.14l14.14-13.63v-23.32l-18.498 18.31zm-12.004 6.077v12.563h-13.4v-12.645s1.315-3.531 6.659-3.531c5.344 0 6.741 3.613 6.741 3.613zm-27.707-59.368v16.012c0 11.414 10.36 15.273 15.293 15.273h42.917v-16.012h-10.277v-15.026h10.277v-15.52h-42.917c-12.497 0-15.293 11.332-15.293 15.273zm31.325.247v15.108h-14.223s-3.207 0-3.207-5.009v-5.501c0-4.434 3.207-4.516 3.207-4.516h14.223v-.082zm-31.736-22.858v-16.669h58.21v16.67h-58.21zm43.164-40.566v-22.417h15.046v39.003h-58.21v-16.587h43.164z" stroke="#E1E4E8" fill="#FFF"/></g></svg>