<svg width="932" height="470" viewBox="0 0 932 470" xmlns="http://www.w3.org/2000/svg"><title>Artboard 4</title><g fill="none"><g stroke="#63388A"><path d="M905.324 324.213c22.412 25.725 31.8 51.174 22.833 66.705-9.352 16.198-37.796 20.892-73.118 13.56a175.734 175.734 0 0 1-5.676-1.281 168.839 168.839 0 0 1-2.429 7.79c-11.166 32.865-29.667 54.495-48.17 54.489-17.917-.006-35.24-20.163-46.343-51.722a195.928 195.928 0 0 1-3.322-10.4 169.058 169.058 0 0 1-8.264 1.843c-34.126 6.672-62.181 1.417-71.464-14.589-8.986-15.499-.19-40.497 21.625-65.782a194.257 194.257 0 0 1 7.35-8.034 170.266 170.266 0 0 1-5.74-6.22c-22.925-26.196-32.45-53.072-23.222-69.057 8.935-15.475 35.046-20.294 67.939-13.996 3.676.704 7.455 1.553 11.31 2.528a198.33 198.33 0 0 1 3.02-9.647c11.015-32.19 28.35-52.989 46.329-52.983 18.75.005 37.142 22.243 48.57 56.415.71 2.128 1.38 4.27 2.01 6.422a199.616 199.616 0 0 1 9.845-2.173c33.463-6.465 60.212-1.81 69.231 13.744 9.409 16.219-.658 43.176-24.577 70.043a180.71 180.71 0 0 1-4.557 4.92 200.653 200.653 0 0 1 6.82 7.425zm-47.724 67.8h.001c30.497 6.329 53.746 2.493 59.502-7.477 5.404-9.36-2.189-29.94-21.393-51.981a188.387 188.387 0 0 0-6.295-6.861c-9.111 8.429-19.623 16.822-31.183 24.926-1.146 14.473-3.07 28.014-5.76 40.238 1.732.417 3.444.805 5.128 1.154zm-22.746 14.853c.77-2.269 1.503-4.62 2.202-7.048-12.144-3.719-25.007-8.733-38.156-14.85-13.037 6.155-25.66 11.189-37.54 14.928a182.787 182.787 0 0 0 3.094 9.669c9.494 26.989 23.403 43.174 34.275 43.177 5.109.002 11.394-3.729 17.716-11.119 7.036-8.224 13.471-20.225 18.41-34.757zm-135.907-12.817v.001c10.67 1.997 24.313 1.601 39.404-1.35a156.988 156.988 0 0 0 7.542-1.678c-2.89-12.445-5.059-26.003-6.42-40.177-11.956-8.254-22.718-16.71-31.968-25.165a182.027 182.027 0 0 0-6.834 7.472c-18.654 21.623-25.72 41.695-20.266 51.1 2.563 4.418 8.955 8.002 18.542 9.797zm3.254-91.838a157.63 157.63 0 0 0 5.238 5.68c9.4-8.733 20.146-17.396 31.842-25.663 1.282-14.059 3.372-27.487 6.194-39.854a184.629 184.629 0 0 0-10.52-2.35c-28.13-5.385-49.095-1.517-54.517 7.873-2.548 4.414-2.447 11.724.808 20.908 3.623 10.22 10.819 21.822 20.955 33.406zm61.523-77.663v-.001a185.996 185.996 0 0 0-2.81 8.973c12.107 3.765 24.8 8.686 37.62 14.588 12.86-5.886 25.578-10.756 37.74-14.462a166.667 166.667 0 0 0-1.819-5.814c-9.868-29.504-24.898-47.679-36.44-47.682-10.835-.004-24.853 16.817-34.291 44.398zm95.762 91.916a442.96 442.96 0 0 1-.304 17.718c7.681-5.746 14.761-11.59 21.104-17.427-6.452-5.979-13.565-11.927-21.222-17.733.266 5.81.407 11.626.422 17.442zm-20.007-70.47c-8.394 2.579-17.088 5.744-25.93 9.45a377.143 377.143 0 0 1 30.58 17.664c-1.173-9.57-2.73-18.665-4.65-27.114zm-71.368 17.815a373.8 373.8 0 0 1 15.435-8.414c-8.793-3.715-17.443-6.915-25.778-9.53-1.922 8.523-3.487 17.596-4.661 27.064a375.556 375.556 0 0 1 15.004-9.12zm-29.844 70.556a373.262 373.262 0 0 1-.109-35.517c-7.775 5.875-15.003 11.893-21.533 17.927 6.457 5.863 13.712 11.755 21.642 17.59zm19.9 53.172c8.272-2.634 16.964-5.937 25.944-9.854a406.124 406.124 0 0 1-15.82-8.672 446.951 446.951 0 0 1-14.972-9.034c1.234 9.65 2.862 18.9 4.848 27.56zm86.393-27.786a403.726 403.726 0 0 1-15.395 9.332 444.579 444.579 0 0 1-15.521 8.538c9.124 3.907 18.018 7.21 26.507 9.835 1.858-8.565 3.33-17.85 4.409-27.705zm-21.793-1.7a382.847 382.847 0 0 0 23.173-14.457c.559-9.033.823-18.082.792-27.134a382.95 382.95 0 0 0-1.013-27.04 362.86 362.86 0 0 0-47.166-27.24 357.33 357.33 0 0 0-24.041 12.664l.001-.002a360.535 360.535 0 0 0-23.011 14.437 360.69 360.69 0 0 0 .146 54.45 420.35 420.35 0 0 0 23.003 14.265 386.056 386.056 0 0 0 24.176 12.853 416.886 416.886 0 0 0 23.94-12.796zm93.84-109.87c-5.437-9.373-27.07-13.14-55.741-7.598a187.444 187.444 0 0 0-9.092 2.004c2.81 12.212 4.88 25.641 6.165 39.838 11.547 8.189 22.144 16.757 31.454 25.424a167.6 167.6 0 0 0 4.124-4.455c20.652-23.197 28.878-45.229 23.09-55.212z"/><path d="M812.706 293.119c12.902 7.449 17.383 23.842 10.01 36.613-7.375 12.773-23.812 17.089-36.714 9.64-12.902-7.45-17.384-23.843-10.01-36.615 7.374-12.772 23.812-17.087 36.714-9.638"/></g><g stroke="#64AFDD"><path d="M615.397 42.163C630.95 47.47 641 55.783 641 64.379c0 8.965-10.74 17.73-27.249 23.152a85.03 85.03 0 0 1-2.678.829c.325 1.296.615 2.569.864 3.815 3.259 16.318.75 29.73-6.975 34.163-7.478 4.291-19.565.076-31.804-10.364a94.24 94.24 0 0 1-3.892-3.52 81.309 81.309 0 0 1-3.005 2.745c-12.635 10.948-25.61 15.49-33.341 11.071-7.485-4.28-9.838-16.765-6.826-32.488.33-1.709.707-3.408 1.131-5.096a82.383 82.383 0 0 1-3.893-1.207C507.452 82.1 497 73.226 497 64.38c0-8.564 9.737-16.822 24.982-22.091a96.13 96.13 0 0 1 5.33-1.661 94.62 94.62 0 0 1-1.065-4.728c-3.159-16.002-.936-28.79 6.569-33.096 7.826-4.491 20.86.331 33.865 11.777a87.387 87.387 0 0 1 2.386 2.184 96.01 96.01 0 0 1 3.585-3.261C585.06 2.799 597.346-1.678 604.858 2.616c7.835 4.478 10.129 18.08 6.62 34.965a86.214 86.214 0 0 1-.716 3.134 97.11 97.11 0 0 1 4.635 1.448zm-3.58 39.58c14.253-4.682 23.032-11.845 23.032-17.364 0-5.18-8.128-11.903-21.454-16.45a91.149 91.149 0 0 0-4.28-1.339c-1.772 5.682-4.137 11.686-7.009 17.82 3.01 6.282 5.47 12.364 7.292 18.083a80.813 80.813 0 0 0 2.418-.75zm-5.915 11.617a74.843 74.843 0 0 0-.779-3.453c-5.964 1.366-12.541 2.368-19.503 2.98-3.958 5.679-8.013 10.793-12.07 15.193a87.92 87.92 0 0 0 3.62 3.272c10.466 8.928 20.172 12.312 24.71 9.708 2.132-1.223 3.857-4.278 4.715-8.86.954-5.1.748-11.625-.693-18.84zm-59.81 27.25h.001c4.934-1.727 10.533-5.161 16.12-10.003a75.504 75.504 0 0 0 2.743-2.504c-4.204-4.473-8.377-9.581-12.36-15.139-6.979-.56-13.508-1.491-19.406-2.784a86.84 86.84 0 0 0-1.052 4.739c-2.575 13.446-.687 23.472 3.855 26.068 2.135 1.22 5.666 1.176 10.1-.376zm-20.77-38.901c1.175.396 2.36.764 3.554 1.103 1.819-5.878 4.216-12.05 7.106-18.284-2.853-6.143-5.216-12.218-7.019-18.028a89.93 89.93 0 0 0-4.956 1.546c-13.038 4.506-20.856 11.136-20.856 16.333 0 2.443 1.804 5.453 5.375 8.486 3.975 3.373 9.774 6.465 16.795 8.844zm6.962-46.981v-.001c.293 1.474.623 2.94.99 4.398 5.96-1.339 12.443-2.338 19.216-2.96 3.949-5.525 8.083-10.595 12.266-15.048a80.158 80.158 0 0 0-2.16-1.977c-11.228-9.882-21.88-13.824-26.698-11.06-4.523 2.595-6.32 12.937-3.614 26.648zM594.4 49.93a211.98 211.98 0 0 1 4.143 7.428c1.821-4.226 3.368-8.349 4.609-12.291-4.134-.936-8.536-1.7-13.13-2.275a193.614 193.614 0 0 1 4.378 7.138zm-25.33-24.456c-2.882 3.082-5.748 6.48-8.546 10.136 5.67-.263 11.35-.262 17.02.004-2.795-3.691-5.637-7.094-8.474-10.14zm-25.493 24.498a178.988 178.988 0 0 1 4.414-7.192c-4.565.566-8.946 1.31-13.055 2.222 1.252 3.999 2.785 8.14 4.576 12.352a179.71 179.71 0 0 1 4.065-7.382zm4.546 36.44a178.616 178.616 0 0 1-8.603-14.717c-1.83 4.302-3.397 8.532-4.668 12.602 4.107.886 8.555 1.593 13.27 2.115zm21.117 17.302c2.818-3.076 5.65-6.53 8.454-10.308-2.856.127-5.758.192-8.693.192-2.857 0-5.668-.055-8.425-.162 2.84 3.71 5.748 7.16 8.664 10.278zm29.36-32.237a193.193 193.193 0 0 1-4.176 7.563 212.868 212.868 0 0 1-4.42 7.263c4.749-.564 9.257-1.325 13.432-2.27-1.289-4-2.911-8.207-4.836-12.556zm-9.505 4.517a183.17 183.17 0 0 0 6.188-11.555 199.323 199.323 0 0 0-6.208-11.453 183.405 183.405 0 0 0-6.938-10.981 175.818 175.818 0 0 0-26.249-.004 171.138 171.138 0 0 0-6.982 11.019v-.002a172.489 172.489 0 0 0-6.125 11.508 172.751 172.751 0 0 0 13.181 22.567c4.198.27 8.557.408 13.038.408 4.5 0 8.914-.156 13.187-.458a199.643 199.643 0 0 0 6.908-11.05zm12.69-68.095c-4.527-2.588-14.463 1.033-25.094 10.204a90.156 90.156 0 0 0-3.312 3.01c4.116 4.396 8.216 9.475 12.173 15.06 6.792.632 13.28 1.649 19.254 3.015.233-.942.449-1.888.647-2.838 3.03-14.578 1.154-25.694-3.668-28.451z"/><path d="M569.27 51.371c7.149 0 12.943 5.758 12.943 12.86 0 7.104-5.794 12.862-12.943 12.862s-12.944-5.758-12.944-12.861c0-7.103 5.795-12.86 12.944-12.86"/></g><g stroke="#61DAFB"><path d="M211.307 77.223c27.756 9.57 45.693 24.56 45.693 40.06 0 16.165-19.168 31.97-48.631 41.745a150.613 150.613 0 0 1-4.78 1.495c.58 2.337 1.098 4.632 1.541 6.88 5.817 29.424 1.338 53.608-12.447 61.6-13.347 7.738-34.92.136-56.762-18.687a168.813 168.813 0 0 1-6.947-6.348 145.67 145.67 0 0 1-5.362 4.95c-22.55 19.74-45.708 27.93-59.505 19.963-13.359-7.717-17.557-30.23-12.182-58.581a168.59 168.59 0 0 1 2.02-9.19 145.926 145.926 0 0 1-6.95-2.175C18.653 149.235 0 133.235 0 117.283c0-15.444 17.377-30.335 44.586-39.835a170.28 170.28 0 0 1 9.512-2.995 172.122 172.122 0 0 1-1.9-8.525C46.56 37.074 50.528 14.016 63.921 6.25c13.969-8.097 37.232.598 60.44 21.237 1.444 1.286 2.863 2.6 4.258 3.939a171.996 171.996 0 0 1 6.4-5.882c22.144-19.3 44.071-27.373 57.477-19.63 13.983 8.074 18.078 32.601 11.816 63.047a156.827 156.827 0 0 1-1.279 5.651c2.78.8 5.538 1.671 8.274 2.61zm-6.391 71.369c25.438-8.442 41.106-21.36 41.106-31.31 0-9.34-14.506-21.463-38.29-29.661a161.46 161.46 0 0 0-7.639-2.415c-3.162 10.246-7.382 21.07-12.508 32.131 5.37 11.329 9.761 22.295 13.014 32.607 1.47-.436 2.912-.886 4.317-1.352zm-10.555 20.947a136.147 136.147 0 0 0-1.391-6.227c-10.645 2.464-22.383 4.27-34.808 5.373-7.063 10.24-14.3 19.463-21.542 27.396a157.487 157.487 0 0 0 6.462 5.9c18.679 16.098 36 22.201 44.1 17.506 3.805-2.207 6.883-7.715 8.414-15.978 1.704-9.196 1.336-20.96-1.235-33.97zM87.617 218.676c8.806-3.116 18.798-9.308 28.77-18.038a135.27 135.27 0 0 0 4.896-4.515c-7.504-8.066-14.95-17.277-22.06-27.297-12.455-1.012-24.108-2.69-34.634-5.022-.704 2.831-1.33 5.68-1.877 8.546-4.596 24.246-1.227 42.323 6.88 47.005 3.81 2.2 10.112 2.12 18.025-.68zM50.546 148.53c2.098.715 4.213 1.378 6.344 1.99 3.246-10.6 7.525-21.728 12.682-32.97-5.091-11.076-9.31-22.03-12.526-32.506A158.238 158.238 0 0 0 48.2 87.83c-23.27 8.125-37.222 20.08-37.222 29.452 0 4.404 3.219 9.832 9.593 15.3 7.094 6.083 17.443 11.657 29.975 15.947zm12.427-84.714v-.001a161.418 161.418 0 0 0 1.766 7.93c10.637-2.414 22.208-4.216 34.295-5.338 7.048-9.962 14.426-19.104 21.892-27.133a143.613 143.613 0 0 0-3.856-3.565c-20.038-17.82-39.05-24.927-47.648-19.943-8.072 4.68-11.28 23.328-6.45 48.05zM173.83 91.23a383.386 383.386 0 0 1 7.393 13.394c3.25-7.62 6.01-15.054 8.225-22.164-7.377-1.687-15.233-3.065-23.433-4.101a349.782 349.782 0 0 1 7.815 12.871zm-45.208-44.099c-5.143 5.558-10.258 11.684-15.251 18.278a322.814 322.814 0 0 1 30.375.007c-4.989-6.656-10.06-12.79-15.124-18.285zM83.125 91.306a323.356 323.356 0 0 1 7.879-12.968c-8.147 1.02-15.967 2.363-23.3 4.006 2.234 7.21 4.97 14.678 8.167 22.272a325.067 325.067 0 0 1 7.254-13.31zm8.113 65.706a323.076 323.076 0 0 1-15.355-26.536c-3.265 7.757-6.06 15.384-8.33 22.722 7.33 1.598 15.268 2.873 23.685 3.814zm37.689 31.199c5.03-5.547 10.082-11.775 15.087-18.587a347.62 347.62 0 0 1-15.514.345c-5.099 0-10.116-.098-15.036-.291 5.07 6.69 10.259 12.909 15.463 18.533zm52.401-58.13a349.444 349.444 0 0 1-7.453 13.637 384.6 384.6 0 0 1-7.89 13.097c8.477-1.018 16.522-2.39 23.974-4.093-2.3-7.214-5.196-14.8-8.63-22.642zm-16.964 8.144h.001a331.425 331.425 0 0 0 11.043-20.834 360.608 360.608 0 0 0-11.08-20.652 331.217 331.217 0 0 0-12.382-19.8 310.594 310.594 0 0 0-46.847-.007 309.052 309.052 0 0 0-12.46 19.867v-.002a312.12 312.12 0 0 0-10.932 20.75 311.95 311.95 0 0 0 23.525 40.692 359.8 359.8 0 0 0 23.268.736c8.03 0 15.91-.282 23.535-.827a360.589 360.589 0 0 0 12.33-19.923zM187.013 15.44c-8.08-4.667-25.813 1.862-44.787 18.4a161.509 161.509 0 0 0-5.91 5.428c7.345 7.926 14.662 17.083 21.724 27.154 12.123 1.14 23.701 2.973 34.363 5.437a145.45 145.45 0 0 0 1.156-5.117c5.407-26.287 2.06-46.331-6.546-51.302z"/><path d="M129 94c12.703 0 23 10.298 23 23s-10.297 23-23 23c-12.702 0-23-10.298-23-23s10.298-23 23-23"/></g></g></svg>