<svg width="1440" height="470" viewBox="0 0 1440 470" xmlns="http://www.w3.org/2000/svg" xmlns:xlink="http://www.w3.org/1999/xlink"><title>Artboard</title><defs><path id="a" d="M0 .653h1440V469H0z"/></defs><g fill="none" fill-rule="evenodd"><mask id="b" fill="#fff"><use xlink:href="#a"/></mask><use fill="#FFF" xlink:href="#a"/><path d="M385.39 94.142v30.67h55.338c11.338 0 30.8-8.304 31.476-31.517v-11.86c0-19.825-16.246-31.517-31.476-31.517h-27.584V35.685h54.66V4.847h-52.46c-13.538 0-31.645 11.183-31.645 32.024v10.675c0 20.841 17.938 31.516 31.645 31.516 38.076.17-9.138 0 26.06 0v14.91l-56.013.17zM88.907 86.687s29.615-2.542 29.615-40.835C118.52 7.558 82.645 4 82.645 4H18v120.811h32.491V95.667l28.092 29.144h48.06L88.906 86.687zM76.383 61.949H50.491v-27.62h26.061s7.277 2.712 7.277 13.726c0 11.013-7.446 13.894-7.446 13.894zm122.35-57.102h-32.998c-23.523 0-31.476 21.35-31.476 31.516v88.448h32.999v-21.18h30.968v21.18h31.984V36.363c0-25.755-23.353-31.516-31.476-31.516zm-.507 64.557H167.09V40.091s0-6.608 10.322-6.608h11.339c9.138 0 9.307 6.608 9.307 6.608v29.313h.17zM245.333 4h34.353v119.964h-34.353V4zm83.604 88.956h46.198v31.008h-80.382V4h34.184v88.956zm11.413 122.135V242h48.553c9.948 0 27.023-7.285 27.617-27.652V203.94c0-17.394-14.254-27.652-27.617-27.652H364.7V163.8h47.959v-27.058h-46.03c-11.878 0-27.765 9.812-27.765 28.099v9.366c0 18.286 15.739 27.652 27.766 27.652 33.408.148-8.018 0 22.866 0v13.082l-49.147.15zM80.213 208.55s25.984-2.23 25.984-35.83c0-33.598-31.478-36.72-31.478-36.72H18v106h28.508v-25.57L71.156 242h42.168l-33.11-33.45zm-10.987-21.706H46.508v-24.232h22.866s6.385 2.378 6.385 12.042c0 9.663-6.533 12.19-6.533 12.19zm107.35-50.1h-28.953c-20.639 0-27.617 18.731-27.617 27.652V242h28.953v-18.583h27.172V242h28.063v-77.604c0-22.598-20.49-27.653-27.617-27.653zm-.445 56.642h-27.32v-25.72s0-5.798 9.057-5.798h9.948c8.018 0 8.167 5.798 8.167 5.798v25.72h.148zM217.462 136h30.142v105.257h-30.142V136zm73.355 78.05h40.535v27.207h-70.528V136h29.993v78.05zm22.163 114.326V353h44.431c9.104 0 24.729-6.666 25.272-25.304v-9.523c0-15.918-13.043-25.305-25.272-25.305h-22.147V281.44h43.887v-24.76h-42.12c-10.87 0-25.41 8.98-25.41 25.713v8.57c0 16.734 14.403 25.305 25.41 25.305 30.57.136-7.338 0 20.924 0v11.972l-44.974.136zM74.93 322.39s23.779-2.04 23.779-32.787c0-30.746-28.805-33.603-28.805-33.603H18v97h26.088v-23.4L66.643 353h38.588l-30.3-30.61zm-10.054-19.863H44.088v-22.175h20.924s5.843 2.177 5.843 11.02-5.979 11.155-5.979 11.155zm98.236-45.847h-26.495c-18.886 0-25.272 17.142-25.272 25.305V353h26.495v-17.006h24.865V353h25.68v-71.015c0-20.68-18.75-25.305-25.273-25.305zm-.407 51.833h-25v-23.535s0-5.306 8.287-5.306h9.104c7.337 0 7.473 5.306 7.473 5.306v23.535h.136zM200.527 256h27.582v96.32h-27.582V256zm67.126 71.424h37.093v24.896h-64.539V256h27.446v71.424zm5.794 96.252V445h38.476c7.883 0 21.415-5.773 21.885-21.913v-8.247c0-13.784-11.295-21.913-21.885-21.913h-19.18v-9.896h38.006v-21.442h-36.476c-9.413 0-22.003 7.776-22.003 22.267v7.422c0 14.49 12.473 21.913 22.003 21.913 26.475.118-6.353 0 18.12 0v10.367l-38.946.118zm-206.146-5.184s20.591-1.767 20.591-28.392c0-26.626-24.945-29.1-24.945-29.1H18v84h22.591v-20.264L60.123 445H93.54L67.3 418.492zm-8.707-17.2H40.59v-19.204h18.12s5.06 1.885 5.06 9.543c0 7.658-5.177 9.66-5.177 9.66zm85.07-39.703H120.72c-16.355 0-21.885 14.844-21.885 21.913V445h22.944v-14.727h21.532V445h22.239v-61.498c0-17.907-16.238-21.913-21.886-21.913zm-.353 44.886h-21.65v-20.381s0-4.595 7.178-4.595h7.883c6.354 0 6.472 4.595 6.472 4.595v20.381h.117zM176.065 361h23.885v83.41h-23.885V361zm58.13 61.851h32.121v21.56h-55.89V361h23.768v61.851zM456.6 435.1v9.9h17.864c3.66 0 9.943-2.68 10.161-10.174v-3.829c0-6.4-5.244-10.174-10.16-10.174h-8.905v-4.594h17.645v-9.956H466.27c-4.37 0-10.216 3.61-10.216 10.339v3.446c0 6.727 5.79 10.173 10.216 10.173 12.291.055-2.95 0 8.413 0v4.814l-18.083.055zm-95.71-2.407s9.56-.82 9.56-13.182S358.868 406 358.868 406H338v39h10.489v-9.408l9.068 9.408h15.515l-12.182-12.307zm-4.043-7.986h-8.358v-8.916h8.413s2.349.875 2.349 4.43c0 3.556-2.404 4.486-2.404 4.486zm39.497-18.434h-10.653c-7.593 0-10.16 6.892-10.16 10.174V445h10.652v-6.837h9.997V445h10.325v-28.553c0-8.314-7.539-10.174-10.16-10.174zm-.164 20.84h-10.052v-9.462s0-2.133 3.333-2.133h3.66c2.95 0 3.005 2.133 3.005 2.133v9.463h.054zM411.387 406h11.09v38.727h-11.09V406zm26.989 28.717h14.914v10.01h-25.95V406h11.035v28.717zm179.224.383v9.9h17.864c3.66 0 9.943-2.68 10.161-10.174v-3.829c0-6.4-5.244-10.174-10.16-10.174h-8.905v-4.594h17.645v-9.956H627.27c-4.37 0-10.216 3.61-10.216 10.339v3.446c0 6.727 5.79 10.173 10.216 10.173 12.291.055-2.95 0 8.413 0v4.814l-18.083.055zm-95.71-2.407s9.56-.82 9.56-13.182S519.868 406 519.868 406H499v39h10.489v-9.408l9.068 9.408h15.515l-12.182-12.307zm-4.043-7.986h-8.358v-8.916h8.413s2.349.875 2.349 4.43c0 3.556-2.404 4.486-2.404 4.486zm39.497-18.434h-10.653c-7.593 0-10.16 6.892-10.16 10.174V445h10.652v-6.837h9.997V445h10.325v-28.553c0-8.314-7.539-10.174-10.16-10.174zm-.164 20.84h-10.052v-9.462s0-2.133 3.333-2.133h3.66c2.95 0 3.005 2.133 3.005 2.133v9.463h.054zM572.387 406h11.09v38.727h-11.09V406zm26.989 28.717h14.914v10.01h-25.95V406h11.035v28.717zm180.224.383v9.9h17.864c3.66 0 9.943-2.68 10.161-10.174v-3.829c0-6.4-5.244-10.174-10.16-10.174h-8.905v-4.594h17.645v-9.956H789.27c-4.37 0-10.216 3.61-10.216 10.339v3.446c0 6.727 5.79 10.173 10.216 10.173 12.291.055-2.95 0 8.413 0v4.814l-18.083.055zm-95.71-2.407s9.56-.82 9.56-13.182S681.868 406 681.868 406H661v39h10.489v-9.408l9.068 9.408h15.515l-12.182-12.307zm-4.043-7.986h-8.358v-8.916h8.413s2.349.875 2.349 4.43c0 3.556-2.404 4.486-2.404 4.486zm39.497-18.434h-10.653c-7.593 0-10.16 6.892-10.16 10.174V445h10.652v-6.837h9.997V445h10.325v-28.553c0-8.314-7.539-10.174-10.16-10.174zm-.164 20.84h-10.052v-9.462s0-2.133 3.333-2.133h3.66c2.95 0 3.005 2.133 3.005 2.133v9.463h.054zM734.387 406h11.09v38.727h-11.09V406zm26.989 28.717h14.914v10.01h-25.95V406h11.035v28.717zm179.224.383v9.9h17.864c3.66 0 9.943-2.68 10.161-10.174v-3.829c0-6.4-5.244-10.174-10.16-10.174h-8.905v-4.594h17.645v-9.956H950.27c-4.37 0-10.216 3.61-10.216 10.339v3.446c0 6.727 5.79 10.173 10.216 10.173 12.291.055-2.95 0 8.413 0v4.814l-18.083.055zm-95.71-2.407s9.56-.82 9.56-13.182S842.868 406 842.868 406H822v39h10.489v-9.408l9.068 9.408h15.515l-12.182-12.307zm-4.043-7.986h-8.358v-8.916h8.413s2.349.875 2.349 4.43c0 3.556-2.404 4.486-2.404 4.486zm39.497-18.434h-10.653c-7.593 0-10.16 6.892-10.16 10.174V445h10.652v-6.837h9.997V445h10.325v-28.553c0-8.314-7.539-10.174-10.16-10.174zm-.164 20.84h-10.052v-9.462s0-2.133 3.333-2.133h3.66c2.95 0 3.005 2.133 3.005 2.133v9.463h.054zM895.387 406h11.09v38.727h-11.09V406zm26.989 28.717h14.914v10.01h-25.95V406h11.035v28.717zm180.224.383v9.9h17.864c3.66 0 9.943-2.68 10.161-10.174v-3.829c0-6.4-5.244-10.174-10.16-10.174h-8.905v-4.594h17.645v-9.956h-16.935c-4.37 0-10.216 3.61-10.216 10.339v3.446c0 6.727 5.79 10.173 10.216 10.173 12.291.055-2.95 0 8.413 0v4.814l-18.083.055zm-95.71-2.407s9.56-.82 9.56-13.182S1004.868 406 1004.868 406H984v39h10.489v-9.408l9.068 9.408h15.515l-12.182-12.307zm-4.043-7.986h-8.358v-8.916h8.413s2.349.875 2.349 4.43c0 3.556-2.404 4.486-2.404 4.486zm39.497-18.434h-10.653c-7.593 0-10.16 6.892-10.16 10.174V445h10.652v-6.837h9.997V445h10.325v-28.553c0-8.314-7.539-10.174-10.16-10.174zm-.164 20.84h-10.052v-9.462s0-2.133 3.333-2.133h3.66c2.95 0 3.005 2.133 3.005 2.133v9.463h.054zM1057.387 406h11.09v38.727h-11.09V406zm26.989 28.717h14.914v10.01h-25.95V406h11.035v28.717zm179.224.383v9.9h17.864c3.66 0 9.943-2.68 10.161-10.174v-3.829c0-6.4-5.244-10.174-10.16-10.174h-8.905v-4.594h17.645v-9.956h-16.935c-4.37 0-10.216 3.61-10.216 10.339v3.446c0 6.727 5.79 10.173 10.216 10.173 12.291.055-2.95 0 8.413 0v4.814l-18.083.055zm-95.71-2.407s9.56-.82 9.56-13.182S1165.868 406 1165.868 406H1145v39h10.489v-9.408l9.068 9.408h15.515l-12.182-12.307zm-4.043-7.986h-8.358v-8.916h8.413s2.349.875 2.349 4.43c0 3.556-2.404 4.486-2.404 4.486zm39.497-18.434h-10.653c-7.593 0-10.16 6.892-10.16 10.174V445h10.652v-6.837h9.997V445h10.325v-28.553c0-8.314-7.539-10.174-10.16-10.174zm-.164 20.84h-10.052v-9.462s0-2.133 3.333-2.133h3.66c2.95 0 3.005 2.133 3.005 2.133v9.463h.054zM1218.387 406h11.09v38.727h-11.09V406zm26.989 28.717h14.914v10.01h-25.95V406h11.035v28.717zM860.39 226.142v30.67h55.338c11.338 0 30.8-8.304 31.476-31.517v-11.86c0-19.825-16.246-31.517-31.476-31.517h-27.584v-14.233h54.66v-30.838h-52.46c-13.538 0-31.645 11.183-31.645 32.024v10.675c0 20.841 17.938 31.516 31.645 31.516 38.076.17-9.138 0 26.06 0v14.91l-56.013.17zm-296.484-7.455s29.615-2.542 29.615-40.835c0-38.294-35.876-41.852-35.876-41.852H493v120.811h32.491v-29.144l28.092 29.144h48.06l-37.737-38.124zm-12.523-24.738h-25.892v-27.62h26.061s7.277 2.712 7.277 13.726c0 11.013-7.446 13.894-7.446 13.894zm122.35-57.102h-32.998c-23.523 0-31.476 21.35-31.476 31.516v88.448h32.999v-21.18h30.968v21.18h31.984v-88.448c0-25.755-23.353-31.516-31.476-31.516zm-.507 64.557H642.09v-29.313s0-6.608 10.322-6.608h11.339c9.138 0 9.307 6.608 9.307 6.608v29.313h.17zM720.333 136h34.353v119.964h-34.353V136zm83.604 88.956h46.198v31.008h-80.382V136h34.184v88.956zm418.18 8.338v22.215h40.083c8.213 0 22.31-6.014 22.8-22.829v-8.59c0-14.36-11.768-22.83-22.8-22.83h-19.98v-10.309h39.593v-22.337h-38c-9.806 0-22.921 8.1-22.921 23.196v7.732c0 15.097 12.993 22.829 22.922 22.829 27.58.123-6.62 0 18.877 0v10.8l-40.574.123zm-214.757-5.4s21.451-1.841 21.451-29.579S1002.825 168 1002.825 168H956v87.509h23.535v-21.11l20.348 21.11h34.812l-27.335-27.615zm-9.07-17.92h-18.755V189.97h18.877s5.27 1.964 5.27 9.942c0 7.977-5.393 10.064-5.393 10.064zm88.624-41.36h-23.903c-17.039 0-22.8 15.464-22.8 22.828v64.067h23.903v-15.342h22.432v15.342h23.167v-64.067c0-18.655-16.916-22.828-22.8-22.828zm-.368 46.761h-22.555v-21.233s0-4.786 7.478-4.786h8.212c6.62 0 6.742 4.786 6.742 4.786v21.233h.123zM1120.667 168h24.883v86.895h-24.883V168zm60.558 64.435h33.464v22.46h-58.224V168h24.76v64.435z" stroke="#E1E4E8" fill="#FFF" mask="url(#b)"/><path d="M1400.142 90.813h30.67V35.476c0-11.338-8.304-30.8-31.517-31.476h-11.86c-19.825 0-31.517 16.246-31.517 31.476V63.06h-14.233V8.4h-30.838v52.46c0 13.538 11.183 31.645 32.024 31.645h10.675c20.841 0 31.516-17.938 31.516-31.645.17-38.076 0 9.138 0-26.06h14.91l.17 56.013zm-7.455 296.485s-2.542-29.615-40.835-29.615c-38.294 0-41.852 35.877-41.852 35.877v64.644h120.811v-32.491h-29.144l29.144-28.092v-48.06l-38.124 37.737zm-24.738 12.523v25.892h-27.62v-26.061s2.712-7.277 13.726-7.277c11.013 0 13.894 7.446 13.894 7.446zm-57.102-122.35v32.998c0 23.523 21.35 31.476 31.516 31.476h88.448v-32.999h-21.18v-30.968h21.18v-31.984h-88.448c-25.755 0-31.516 23.353-31.516 31.476zm64.557.507v31.137h-29.313s-6.608 0-6.608-10.322v-11.339c0-9.138 6.608-9.307 6.608-9.307h29.313v-.17zM1310 230.87v-34.353h119.964v34.353H1310zm88.956-83.604V101.07h31.008v80.382H1310v-34.184h88.956z" stroke="#E1E4E8" fill="#FFF"/></g></svg>