<svg width="454" height="530" viewBox="0 0 454 530" xmlns="http://www.w3.org/2000/svg"><title>Artboard 3</title><g fill="none"><g stroke="#61DAFB"><path d="M175.84 130.286c22.573 7.772 37.16 19.948 37.16 32.537 0 13.13-15.588 25.967-39.548 33.907-1.267.42-2.564.824-3.887 1.214a118.67 118.67 0 0 1 1.253 5.588c4.73 23.9 1.088 43.542-10.123 50.034-10.854 6.284-28.397.11-46.16-15.178a137.222 137.222 0 0 1-5.65-5.157 118.41 118.41 0 0 1-4.36 4.021c-18.339 16.034-37.17 22.686-48.392 16.215-10.863-6.269-14.277-24.553-9.906-47.582a136.789 136.789 0 0 1 1.642-7.463 118.78 118.78 0 0 1-5.652-1.768C19.17 188.775 4 175.78 4 162.824c0-12.544 14.132-24.639 36.258-32.355a138.601 138.601 0 0 1 7.736-2.433 139.654 139.654 0 0 1-1.545-6.924c-4.585-23.436-1.359-42.165 9.534-48.472 11.36-6.577 30.277.486 49.151 17.249a127.262 127.262 0 0 1 3.463 3.199 139.808 139.808 0 0 1 5.204-4.777c18.009-15.676 35.84-22.233 46.743-15.944 11.371 6.558 14.701 26.48 9.608 51.208a127.246 127.246 0 0 1-1.04 4.59c2.26.65 4.504 1.358 6.729 2.12zm-5.197 57.968h.001c20.687-6.857 33.428-17.349 33.428-25.43 0-7.587-11.797-17.434-31.138-24.093-2-.69-4.075-1.341-6.212-1.961-2.572 8.322-6.003 17.114-10.172 26.098 4.367 9.201 7.938 18.108 10.583 26.484 1.195-.355 2.368-.72 3.51-1.098zm-8.583 17.013c-.327-1.65-.706-3.336-1.131-5.057-8.657 2.001-18.203 3.468-28.307 4.364-5.744 8.318-11.63 15.808-17.519 22.251a128.017 128.017 0 0 0 5.256 4.793c15.19 13.075 29.276 18.032 35.862 14.218 3.095-1.792 5.598-6.266 6.843-12.977 1.386-7.47 1.087-17.024-1.004-27.592zm-86.808 39.91h.001c7.161-2.53 15.287-7.56 23.396-14.65a109.955 109.955 0 0 0 3.982-3.667c-6.103-6.552-12.158-14.033-17.94-22.172-10.129-.822-19.605-2.184-28.165-4.078a128.485 128.485 0 0 0-1.527 6.94c-3.737 19.694-.998 34.377 5.596 38.18 3.097 1.786 8.222 1.72 14.657-.552zm-30.147-56.973c1.706.58 3.427 1.119 5.16 1.615 2.64-8.609 6.12-17.647 10.313-26.778-4.14-8.997-7.57-17.894-10.187-26.403a128.8 128.8 0 0 0-7.193 2.264c-18.924 6.6-30.27 16.31-30.27 23.921 0 3.578 2.617 7.987 7.8 12.428 5.77 4.94 14.186 9.468 24.377 12.953zm10.106-68.808a130.97 130.97 0 0 0 1.437 6.44c8.65-1.96 18.06-3.424 27.89-4.335 5.731-8.092 11.731-15.517 17.803-22.038a116.735 116.735 0 0 0-3.136-2.896C82.91 82.094 67.448 76.32 60.455 80.369c-6.564 3.801-9.172 18.947-5.244 39.027zm90.153 22.267a311.281 311.281 0 0 1 6.012 10.879c2.644-6.19 4.889-12.228 6.69-18.002-6-1.37-12.388-2.49-19.057-3.332a284.035 284.035 0 0 1 6.355 10.455zM108.6 105.845c-4.183 4.514-8.342 9.49-12.403 14.846 8.23-.386 16.473-.384 24.702.005-4.057-5.406-8.181-10.389-12.3-14.851zm-37 35.88a261.927 261.927 0 0 1 6.407-10.533c-6.626.828-12.985 1.918-18.948 3.254 1.817 5.856 4.041 11.92 6.641 18.09 1.882-3.65 3.85-7.255 5.9-10.812zm6.597 53.368a262.311 262.311 0 0 1-12.487-21.554c-2.655 6.3-4.929 12.496-6.774 18.456 5.961 1.298 12.417 2.333 19.261 3.098zm30.65 25.34c4.09-4.505 8.2-9.564 12.27-15.096-4.145.185-8.357.28-12.617.28-4.147 0-8.227-.08-12.228-.237 4.123 5.434 8.343 10.485 12.575 15.053zm42.615-47.215a283.72 283.72 0 0 1-6.062 11.077 312.308 312.308 0 0 1-6.416 10.638c6.894-.828 13.436-1.941 19.496-3.325-1.87-5.859-4.225-12.02-7.018-18.39zm-13.796 6.615a269.08 269.08 0 0 0 8.981-16.922 292.776 292.776 0 0 0-9.01-16.774 268.972 268.972 0 0 0-10.07-16.082 252.895 252.895 0 0 0-38.097-.006 250.974 250.974 0 0 0-10.134 16.137v-.001a253.403 253.403 0 0 0-8.89 16.853 253.329 253.329 0 0 0 19.13 33.051c6.094.395 12.42.598 18.924.598 6.53 0 12.938-.229 19.14-.672a292.82 292.82 0 0 0 10.026-16.182zm18.419-99.73c-6.571-3.79-20.992 1.513-36.423 14.946-1.638 1.43-3.24 2.9-4.806 4.41 5.974 6.437 11.924 13.874 17.667 22.054 9.858.925 19.274 2.415 27.945 4.416.338-1.38.651-2.765.94-4.156 4.397-21.35 1.675-37.632-5.323-41.67z"/><path d="M108.5 144c10.218 0 18.5 8.283 18.5 18.5s-8.282 18.5-18.5 18.5c-10.217 0-18.5-8.283-18.5-18.5s8.283-18.5 18.5-18.5"/></g><g stroke="#64AFDD"><path d="M402.487 105.68C415.555 110.153 424 117.157 424 124.399c0 7.553-9.025 14.938-22.896 19.506-.734.242-1.485.474-2.25.698.272 1.092.516 2.165.725 3.215 2.739 13.748.63 25.048-5.86 28.783-6.285 3.615-16.441.063-26.725-8.732a79.263 79.263 0 0 1-3.27-2.966 68.39 68.39 0 0 1-2.526 2.313c-10.616 9.224-21.52 13.05-28.015 9.328-6.29-3.606-8.266-14.125-5.736-27.372a78.26 78.26 0 0 1 .95-4.294 69.09 69.09 0 0 1-3.271-1.017C311.782 139.328 303 131.852 303 124.398c0-7.216 8.181-14.173 20.992-18.612a80.618 80.618 0 0 1 4.478-1.4 79.901 79.901 0 0 1-.894-3.983c-2.655-13.482-.787-24.256 5.52-27.884 6.576-3.784 17.528.28 28.455 9.922.68.601 1.348 1.215 2.005 1.84a80.752 80.752 0 0 1 3.013-2.747c10.426-9.018 20.75-12.79 27.062-9.172 6.583 3.772 8.51 15.232 5.562 29.458a72.803 72.803 0 0 1-.602 2.64c1.309.375 2.608.781 3.896 1.22zm-3.01 33.348h.001c11.977-3.945 19.353-9.98 19.353-14.63 0-4.364-6.83-10.029-18.027-13.86a76.441 76.441 0 0 0-3.597-1.127c-1.488 4.787-3.475 9.845-5.889 15.013 2.529 5.293 4.596 10.417 6.128 15.235.691-.203 1.37-.414 2.032-.631zm-4.969 9.787a63.201 63.201 0 0 0-.655-2.91c-5.011 1.152-10.538 1.996-16.388 2.511-3.325 4.785-6.733 9.094-10.142 12.8a73.946 73.946 0 0 0 3.043 2.758c8.794 7.521 16.949 10.373 20.762 8.18 1.792-1.032 3.241-3.606 3.962-7.467.802-4.296.629-9.793-.582-15.872zm-50.257 22.96c4.147-1.456 8.851-4.35 13.546-8.429a63.507 63.507 0 0 0 2.305-2.11c-3.533-3.768-7.039-8.072-10.386-12.754-5.864-.473-11.35-1.257-16.306-2.346a73.333 73.333 0 0 0-.884 3.993c-2.164 11.328-.578 19.775 3.24 21.962 1.793 1.028 4.76.991 8.485-.317zm-17.453-32.776c.988.334 1.984.644 2.987.93 1.528-4.953 3.543-10.153 5.97-15.406-2.396-5.175-4.382-10.293-5.897-15.188-1.4.394-2.79.828-4.164 1.302-10.956 3.797-17.525 9.383-17.525 13.761 0 2.059 1.515 4.595 4.516 7.15 3.34 2.842 8.213 5.446 14.113 7.45zm5.85-39.583c.246 1.241.524 2.477.832 3.705 5.008-1.128 10.456-1.97 16.147-2.494 3.318-4.655 6.792-8.926 10.307-12.678a67.421 67.421 0 0 0-1.815-1.666c-9.435-8.326-18.386-11.647-22.434-9.318-3.8 2.187-5.31 10.9-3.036 22.451zm52.194 12.81a178.735 178.735 0 0 1 3.481 6.258c1.53-3.561 2.83-7.034 3.873-10.356a114.288 114.288 0 0 0-11.033-1.917 163.202 163.202 0 0 1 3.68 6.015zM363.558 91.62a113.463 113.463 0 0 0-7.18 8.54c4.764-.22 9.536-.22 14.3.004-2.348-3.11-4.736-5.977-7.12-8.544zm-21.421 20.64a150.873 150.873 0 0 1 3.71-6.058 117.279 117.279 0 0 0-10.97 1.872 112.94 112.94 0 0 0 3.844 10.406 151.88 151.88 0 0 1 3.416-6.22zm3.82 30.702a151.665 151.665 0 0 1-7.23-12.4 114.749 114.749 0 0 0-3.922 10.618c3.451.747 7.189 1.342 11.151 1.782zm17.744 14.577c2.368-2.591 4.747-5.501 7.103-8.684-2.4.106-4.837.161-7.304.161-2.4 0-4.763-.046-7.08-.136a115.644 115.644 0 0 0 7.28 8.66zm24.671-27.16a162.898 162.898 0 0 1-3.509 6.371 179.436 179.436 0 0 1-3.714 6.12c3.99-.476 7.778-1.117 11.287-1.912-1.083-3.371-2.446-6.916-4.064-10.58zm-7.987 3.805h.001a154.46 154.46 0 0 0 5.2-9.735 168.077 168.077 0 0 0-5.217-9.65 154.582 154.582 0 0 0-5.83-9.251 147.344 147.344 0 0 0-22.056-.003 144.242 144.242 0 0 0-5.867 9.283v-.001a145.456 145.456 0 0 0-5.147 9.695 145.6 145.6 0 0 0 11.076 19.013c3.527.227 7.19.344 10.955.344 3.78 0 7.49-.131 11.08-.386a168.274 168.274 0 0 0 5.805-9.31zm10.664-57.372c-3.804-2.18-12.153.87-21.087 8.598a75.829 75.829 0 0 0-2.782 2.536c3.458 3.704 6.903 7.982 10.228 12.688 5.707.532 11.159 1.389 16.179 2.54.195-.793.377-1.59.544-2.39 2.546-12.283.97-21.649-3.082-23.972z"/><path d="M364 113c6.075 0 11 4.925 11 11s-4.925 11-11 11-11-4.925-11-11 4.925-11 11-11"/></g><g stroke="#63388A"><path d="M427.862 423.34c16.338 18.754 23.182 37.306 16.645 48.628-6.817 11.808-27.554 15.23-53.303 9.885a128.111 128.111 0 0 1-4.139-.934 122.62 122.62 0 0 1-1.77 5.68c-8.14 23.959-21.628 39.727-35.117 39.723-13.061-.004-25.69-14.699-33.784-37.706a142.835 142.835 0 0 1-2.422-7.582c-2.047.508-4.058.96-6.024 1.344-24.879 4.864-45.331 1.032-52.098-10.636-6.551-11.298-.139-29.522 15.765-47.955a141.615 141.615 0 0 1 5.357-5.857 124.124 124.124 0 0 1-4.183-4.535c-16.713-19.097-23.657-38.69-16.93-50.343 6.514-11.281 25.55-14.794 49.528-10.203 2.68.513 5.435 1.132 8.246 1.843a144.584 144.584 0 0 1 2.201-7.033c8.03-23.466 20.667-38.63 33.774-38.625 13.669.004 27.077 16.215 35.409 41.127a132.46 132.46 0 0 1 1.464 4.682 145.521 145.521 0 0 1 7.178-1.585c24.395-4.713 43.895-1.318 50.47 10.02 6.859 11.824-.48 31.476-17.917 51.062a131.738 131.738 0 0 1-3.322 3.587 146.278 146.278 0 0 1 4.972 5.413zm-34.792 49.426h.001c22.233 4.614 39.181 1.818 43.378-5.45 3.94-6.824-1.596-21.827-15.596-37.895a137.336 137.336 0 0 0-4.59-5.002c-6.642 6.145-14.304 12.264-22.732 18.171-.835 10.552-2.238 20.423-4.2 29.334 1.264.305 2.512.587 3.74.842zm-16.582 10.828a114.364 114.364 0 0 0 1.605-5.137c-8.853-2.712-18.23-6.367-27.816-10.827-9.503 4.488-18.705 8.157-27.367 10.883.71 2.44 1.462 4.793 2.256 7.049 6.921 19.675 17.061 31.474 24.987 31.477 3.724 0 8.306-2.719 12.915-8.106 5.13-5.996 9.82-14.744 13.42-25.339zm-99.077-9.343c7.778 1.457 17.724 1.168 28.725-.984 1.843-.362 3.677-.77 5.499-1.223-2.107-9.072-3.688-18.957-4.68-29.29-8.716-6.017-16.562-12.18-23.305-18.345a132.7 132.7 0 0 0-4.982 5.447c-13.6 15.763-18.75 30.397-14.774 37.252 1.868 3.221 6.528 5.834 13.517 7.143zm2.372-66.951a114.912 114.912 0 0 0 3.818 4.141c6.853-6.367 14.687-12.682 23.214-18.709.935-10.249 2.458-20.038 4.515-29.054a134.596 134.596 0 0 0-7.669-1.713c-20.507-3.926-35.79-1.106-39.743 5.74-1.858 3.218-1.784 8.547.588 15.242 2.642 7.45 7.888 15.908 15.277 24.353zm44.85-56.617l.001-.001a135.593 135.593 0 0 0-2.048 6.542c8.826 2.744 18.08 6.331 27.425 10.634 9.375-4.29 18.646-7.84 27.513-10.542a121.503 121.503 0 0 0-1.327-4.239c-7.193-21.509-18.15-34.758-26.565-34.76-7.899-.004-18.118 12.26-24.998 32.366zm69.812 67.007c.012 4.307-.062 8.614-.222 12.917 5.6-4.189 10.762-8.45 15.386-12.704-4.704-4.359-9.89-8.695-15.472-12.928.195 4.236.297 8.476.308 12.715zm-14.585-51.373c-6.12 1.88-12.458 4.188-18.904 6.889a274.94 274.94 0 0 1 22.294 12.878c-.855-6.977-1.99-13.608-3.39-19.767zm-52.028 12.987a272.503 272.503 0 0 1 11.253-6.133c-6.41-2.708-12.717-5.041-18.793-6.948-1.401 6.214-2.542 12.828-3.398 19.73a273.784 273.784 0 0 1 10.938-6.649zm-21.756 51.437a272.111 272.111 0 0 1-.08-25.892c-5.668 4.283-10.937 8.67-15.698 13.068 4.707 4.274 9.996 8.57 15.778 12.824zm14.506 38.763c6.031-1.92 12.368-4.329 18.914-7.184a296.067 296.067 0 0 1-11.533-6.323 325.831 325.831 0 0 1-10.915-6.585c.9 7.035 2.087 13.778 3.534 20.092zm62.982-20.257a294.32 294.32 0 0 1-11.223 6.804 324.101 324.101 0 0 1-11.315 6.223c6.652 2.849 13.135 5.256 19.324 7.17 1.354-6.244 2.428-13.013 3.214-20.197zm-15.887-1.24v.001a279.099 279.099 0 0 0 16.893-10.54c.407-6.584.6-13.182.577-19.78a279.175 279.175 0 0 0-.738-19.713 264.528 264.528 0 0 0-34.384-19.859 260.497 260.497 0 0 0-17.527 9.233l.001-.001a262.834 262.834 0 0 0-16.775 10.524 262.946 262.946 0 0 0 .106 39.695 306.56 306.56 0 0 0 16.77 10.399 281.438 281.438 0 0 0 17.624 9.37 303.913 303.913 0 0 0 17.453-9.328zm68.41-80.095c-3.963-6.833-19.734-9.579-40.636-5.54-2.221.433-4.431.92-6.628 1.462 2.05 8.902 3.558 18.692 4.494 29.042 8.418 5.97 16.144 12.216 22.931 18.534a122.18 122.18 0 0 0 3.006-3.248c15.056-16.91 21.053-32.972 16.832-40.25z"/><path d="M360.342 400.671c9.406 5.431 12.672 17.382 7.297 26.692-5.376 9.311-17.358 12.458-26.765 7.027-9.405-5.43-12.672-17.381-7.296-26.692 5.375-9.31 17.358-12.457 26.764-7.027"/></g></g></svg>