<svg width="24" height="22" viewBox="0 0 24 22" xmlns="http://www.w3.org/2000/svg"><title>Group 2</title><g transform="translate(-.935 -.184)" fill="#61DAFB"><path d="M24.583 11.604c0-1.577-1.955-3.072-4.954-3.999.692-3.086.384-5.542-.97-6.328a2.09 2.09 0 0 0-1.077-.272v1.082c.22 0 .399.044.548.126.653.379.937 1.82.716 3.674-.053.456-.14.937-.245 1.427a23.08 23.08 0 0 0-3.052-.529 23.623 23.623 0 0 0-2-2.427c1.568-1.47 3.038-2.276 4.038-2.276V1c-1.322 0-3.052.951-4.801 2.601-1.75-1.64-3.48-2.582-4.8-2.582v1.083c.994 0 2.47.8 4.036 2.261a22.874 22.874 0 0 0-1.985 2.422 22.24 22.24 0 0 0-3.056.534c-.11-.485-.192-.956-.25-1.407-.226-1.854.053-3.296.702-3.68.144-.087.331-.125.552-.125V1.024c-.404 0-.769.088-1.086.272-1.35.786-1.653 3.237-.956 6.314-2.99.932-4.935 2.422-4.935 3.994 0 1.578 1.955 3.073 4.954 4-.692 3.086-.384 5.542.97 6.328.313.185.678.272 1.082.272 1.321 0 3.051-.951 4.8-2.601 1.75 1.64 3.48 2.582 4.801 2.582.404 0 .77-.088 1.086-.272 1.35-.786 1.654-3.237.957-6.314 2.98-.927 4.925-2.422 4.925-3.995zm-6.256-3.237a22.008 22.008 0 0 1-.65 1.917 26.307 26.307 0 0 0-1.322-2.3 21.59 21.59 0 0 1 1.972.383zm-2.201 5.17c-.375.654-.76 1.276-1.158 1.853a24.76 24.76 0 0 1-4.335.005 25.37 25.37 0 0 1-2.162-3.776 25.894 25.894 0 0 1 2.153-3.79 24.76 24.76 0 0 1 4.334-.005A25.37 25.37 0 0 1 17.12 11.6c-.302.65-.634 1.3-.994 1.936zm1.552-.632c.26.65.48 1.3.663 1.932-.63.155-1.293.286-1.98.388a26.864 26.864 0 0 0 1.317-2.32zm-4.873 5.179a19.952 19.952 0 0 1-1.336-1.553c.433.019.875.034 1.322.034.451 0 .898-.01 1.336-.034-.433.567-.88 1.087-1.322 1.553zM9.23 15.225a21.494 21.494 0 0 1-1.97-.383c.177-.626.398-1.272.648-1.917.197.388.404.776.63 1.164.226.389.456.767.692 1.136zm3.551-10.1c.447.466.894.986 1.336 1.553a30.082 30.082 0 0 0-1.322-.034c-.451 0-.898.01-1.335.034.432-.567.879-1.087 1.321-1.553zM9.225 7.984a26.864 26.864 0 0 0-1.317 2.315c-.26-.65-.48-1.3-.663-1.932.63-.15 1.293-.281 1.98-.383zM4.876 14.06c-1.701-.733-2.802-1.694-2.802-2.456 0-.761 1.1-1.727 2.802-2.455.413-.18.865-.34 1.331-.49.274.95.634 1.94 1.081 2.955a23.129 23.129 0 0 0-1.066 2.941c-.476-.15-.928-.315-1.346-.495zm2.585 6.936c-.653-.379-.937-1.82-.716-3.674.053-.457.14-.937.245-1.427.942.233 1.97.412 3.052.529a23.623 23.623 0 0 0 1.999 2.426c-1.567 1.471-3.037 2.277-4.037 2.277a1.138 1.138 0 0 1-.543-.131zm11.4-3.699c.225 1.854-.054 3.296-.703 3.68-.144.087-.331.125-.552.125-.995 0-2.47-.8-4.037-2.261a22.874 22.874 0 0 0 1.985-2.422 22.24 22.24 0 0 0 3.056-.534c.11.49.197.961.25 1.412zm1.85-3.237c-.414.18-.866.34-1.332.49a23.458 23.458 0 0 0-1.081-2.955 23.18 23.18 0 0 0 1.067-2.941c.475.15.927.315 1.35.495 1.701.733 2.802 1.694 2.802 2.455-.005.762-1.106 1.728-2.807 2.456z"/><ellipse cx="12.791" cy="11.604" rx="2.196" ry="2.218"/></g></svg>