<svg width="25" height="16" viewBox="0 0 25 16" xmlns="http://www.w3.org/2000/svg"><title>Group 3</title><g fill="#C00" fill-rule="evenodd"><path d="M.77 15.901h8.67S7.782 8.027 13.27 4.838c1.196-.606 5.005-2.868 11.238 1.932.198-.172.385-.309.385-.309S19.186.53 12.83 1.192c-3.205.298-7.134 3.326-9.439 7.326-2.304 4-2.623 7.383-2.623 7.383zM18.833 1.832l.044-.765c-.099-.057-.373-.195-1.064-.4l-.044.754c.362.126.713.263 1.064.411z"/><path d="M17.79 4.263l-.043.72a5.89 5.89 0 0 1 1.086.137l.044-.709a7.48 7.48 0 0 0-1.086-.148zM13.73.697h.11L13.62 0c-.34 0-.691.023-1.053.069l.208.674a8.9 8.9 0 0 1 .955-.046zm.527 4.206l.252.788c.318-.16.637-.297.955-.4l-.241-.754c-.374.114-.692.24-.966.366zM9.274 1.897L8.78 1.11c-.274.148-.56.308-.856.491l.505.8c.285-.183.56-.354.845-.503zm2.25 5.143l.527.823c.186-.286.406-.549.647-.812l-.494-.777a6.21 6.21 0 0 0-.68.766zm-1.592 3.68l.89.731c.043-.445.12-.891.23-1.337l-.79-.651c-.143.423-.242.846-.33 1.257zM5.125 5.291l-.779-.708c-.285.286-.56.571-.812.857l.845.754c.23-.308.483-.617.746-.903zM1.811 10.4L.549 9.92A30.259 30.259 0 0 0 0 11.291l1.262.48c.143-.388.373-.948.549-1.371zm7.957 3.223c.022.606.077 1.097.132 1.44l1.317.491a15.668 15.668 0 0 1-.264-1.485l-1.185-.446z"/></g></svg>