<svg width="24" height="21" viewBox="0 0 24 21" xmlns="http://www.w3.org/2000/svg"><title>React-icon Copy</title><g fill="#122689"><path d="M23.966 10.5c0-1.562-1.986-3.042-5.03-3.96.703-3.056.39-5.488-.985-6.266a2.164 2.164 0 0 0-1.092-.27v1.072c.224 0 .404.044.556.125.663.375.95 1.802.726 3.638a14.45 14.45 0 0 1-.248 1.413c-.956-.23-2-.409-3.098-.524a23.526 23.526 0 0 0-2.03-2.403c1.591-1.456 3.084-2.253 4.098-2.253V0c-1.341 0-3.097.942-4.873 2.576C10.215.95 8.46.019 7.117.019v1.072c1.01 0 2.507.793 4.098 2.24A22.776 22.776 0 0 0 9.2 5.727a23.093 23.093 0 0 0-3.102.529c-.113-.48-.196-.947-.254-1.394-.23-1.836.054-3.263.712-3.642.146-.087.337-.125.561-.125V.024c-.41 0-.78.087-1.102.27-1.371.778-1.678 3.204-.971 6.251C2.01 7.468.034 8.943.034 10.5c0 1.562 1.986 3.042 5.03 3.96-.703 3.056-.39 5.488.985 6.266.317.183.688.27 1.097.27 1.342 0 3.098-.943 4.874-2.577 1.775 1.625 3.531 2.557 4.873 2.557.41 0 .78-.087 1.102-.27 1.37-.778 1.678-3.204.97-6.251 3.025-.918 5-2.398 5-3.955zm-6.351-3.205c-.18.62-.405 1.259-.659 1.898a25.937 25.937 0 0 0-1.341-2.278c.692.101 1.36.226 2 .38zm-2.235 5.118c-.38.648-.77 1.263-1.175 1.835a25.762 25.762 0 0 1-4.4.005 24.9 24.9 0 0 1-2.195-3.739 25.549 25.549 0 0 1 2.185-3.753 25.762 25.762 0 0 1 4.4-.004c.405.571.8 1.182 1.18 1.826a24.9 24.9 0 0 1 1.015 1.912 26.763 26.763 0 0 1-1.01 1.918zm1.576-.625c.264.644.488 1.288.673 1.912-.639.154-1.312.284-2.01.385a26.475 26.475 0 0 0 1.337-2.297zm-4.946 5.127a19.902 19.902 0 0 1-1.356-1.537c.439.019.887.033 1.341.033.459 0 .912-.01 1.356-.033a18.838 18.838 0 0 1-1.341 1.537zm-3.63-2.83a22.37 22.37 0 0 1-2-.38c.181-.62.405-1.259.659-1.898.2.385.41.769.639 1.153.23.385.463.76.702 1.125zm3.605-10c.454.461.908.975 1.356 1.537A30.977 30.977 0 0 0 12 5.589c-.459 0-.912.01-1.356.033.439-.562.893-1.076 1.341-1.537zm-3.61 2.83A26.475 26.475 0 0 0 7.04 9.207a20.388 20.388 0 0 1-.673-1.912 24.01 24.01 0 0 1 2.01-.38zm-4.414 6.017c-1.727-.726-2.844-1.678-2.844-2.432s1.117-1.71 2.844-2.432c.42-.177.878-.336 1.351-.485.278.942.644 1.922 1.098 2.927-.449 1-.81 1.975-1.083 2.912a14.964 14.964 0 0 1-1.366-.49zm2.624 6.867c-.663-.375-.95-1.802-.726-3.638.053-.452.141-.928.248-1.413.956.23 2 .409 3.098.524a23.526 23.526 0 0 0 2.03 2.403c-1.591 1.456-3.084 2.253-4.098 2.253a1.178 1.178 0 0 1-.552-.13zm11.571-3.662c.23 1.836-.054 3.263-.712 3.642-.146.087-.337.125-.561.125-1.01 0-2.507-.793-4.098-2.239a22.776 22.776 0 0 0 2.015-2.398 23.093 23.093 0 0 0 3.102-.529c.113.486.2.952.254 1.399zm1.878-3.205c-.42.177-.878.336-1.351.485a22.862 22.862 0 0 0-1.098-2.927c.45-1 .81-1.975 1.083-2.912.483.15.942.313 1.371.49 1.727.726 2.844 1.678 2.844 2.432-.005.754-1.122 1.71-2.849 2.432z"/><ellipse cx="11.995" cy="10.5" rx="2.229" ry="2.196"/></g></svg>