<svg width="671" height="610" viewBox="0 0 671 610" xmlns="http://www.w3.org/2000/svg"><title>Artboard</title><g stroke="#FF5824" fill="none" opacity=".7"><path d="M624.75 6.42H47.25C23.875 6.42 6 23.913 6 46.79v405.04c0 21.53 17.875 40.37 41.25 40.37h218.625L231.5 554.1h-28.875c-15.125 0-26.125 12.11-26.125 25.567 0 14.803 12.375 25.568 26.125 25.568h264c15.125 0 26.125-12.111 26.125-25.568 0-14.802-12.375-25.567-26.125-25.567H437.75l-34.375-61.9H624.75c23.375 0 41.25-18.84 41.25-40.37V46.79c0-22.877-17.875-40.37-41.25-40.37zm-313.5 441.373c0-13.456 11-24.221 24.75-24.221s24.75 10.765 24.75 24.221c0 13.457-11 24.222-24.75 24.222s-24.75-10.765-24.75-24.222zM611 398.004H61V60.246h550v337.758z"/><path d="M242.5 258.057l-88-40.37v-2.691l88-39.024v-28.259l-118.25 53.826v30.95l118.25 52.48zm160.875-142.64h-24.75l-110 227.416h26.125zM547.75 201.54L429.5 147.712v28.259l88 39.024v2.691l-88 40.37v26.913l118.25-52.48z"/></g></svg>