<svg xmlns="http://www.w3.org/2000/svg" width="480" height="360" viewBox="0 0 480 360"><g fill="none" fill-rule="evenodd"><path fill="#000" fill-rule="nonzero" d="M334.204 331.052c-5.524-4.297-12.276-6.752-18.721-6.445 2.148-14.425-3.376-29.157-15.04-38.364-10.741-8.594-24.86-11.356-37.75-7.06-.614.308-1.227.308-1.841.614l25.474-44.195c4.297 1.841 8.593 3.069 13.197 3.376l8.287 27.622c.614 1.535 1.841 2.762 3.376 3.07h.92c1.228 0 2.763-.615 3.377-1.842l19.95-25.167c8.593-10.742 9.513-23.019 2.761-32.226l2.763-3.376c31.305-39.285 22.404-86.55 22.097-88.699-.307-2.148-2.455-3.683-4.91-3.683-2.149.307-51.255 4.911-85.016 44.503-10.435-4.91-22.097-1.535-30.998 9.821l-19.643 25.167c-.92 1.228-1.227 3.07-.613 4.604.613 1.535 2.148 2.455 3.99 2.762l29.463 1.228c1.535 5.217 4.604 10.435 8.287 15.346l-56.78 45.73c-19.642-13.197-46.65-9.514-61.689 9.514-5.524 7.06-8.9 15.653-9.821 24.553-14.425-2.148-28.85 3.683-38.058 15.346-4.296 5.218-6.445 12.277-7.673 15.96-1.841 7.059-2.455 22.711 2.149 27.929.92.92 2.148 1.535 3.376 1.535h244.918c1.227 0 2.455-.614 3.376-1.228.92-.92 1.227-2.149 1.227-3.376 0-4.297-3.376-17.187-10.435-23.019zm-24.553-152.23c.307.308.614.614 1.228.921.307.307.614.307.92.614-.306-.307-.613-.307-.92-.614-.307 0-.92-.613-1.228-.92zm0 0c.307.308.614.614 1.228.921.307.307.614.307.92.614-.306-.307-.613-.307-.92-.614-.307 0-.92-.613-1.228-.92zm0 0c.307.308.614.614 1.228.921.307.307.614.307.92.614-.306-.307-.613-.307-.92-.614-.307 0-.92-.613-1.228-.92z"/><path fill="#A5CCFA" d="M98.187 349.467c-.92-3.683-1.228-11.97.307-18.108 1.228-4.91 3.376-9.514 5.831-12.583 8.287-10.129 21.484-14.732 34.068-11.05 1.534.308 2.762 0 3.99-.92 1.227-.92 1.841-2.148 1.841-3.683-.307-8.594 2.456-17.187 7.98-24.246 12.584-15.96 35.91-18.415 51.869-5.832 1.534 1.228 3.99 1.228 5.524 0l59.848-48.185c2.456 2.455 5.218 4.297 8.287 6.445l-35.295 61.69c-1.228 2.148-.614 4.604 1.535 6.138 1.841 1.228 4.603.92 6.138-.92 3.99-4.911 9.207-8.594 15.346-10.436 10.128-3.069 20.87-.92 29.463 5.525 10.435 8.286 14.732 22.711 10.435 35.602-.613 1.534 0 3.376.921 4.604 1.228 1.227 3.07 1.534 4.604 1.227 5.831-1.841 12.583-.614 17.8 3.683 2.763 2.149 4.912 7.366 6.14 11.356H98.186v-.307z"/><path fill="#000" d="M291.236 333.508l-8.286 3.376c-2.456-6.446-7.673-11.05-14.425-12.584-5.525-1.228-11.05-.307-15.653 2.762-1.841 1.228-4.604.614-6.138-1.227-6.445-8.594-15.96-14.732-26.395-17.188-22.405-5.217-45.73 6.753-54.324 28.237l-8.286-3.376c10.128-25.781 37.75-40.206 64.758-33.761a57.184 57.184 0 0 1 29.157 17.494c5.832-2.762 12.584-3.376 19.03-1.841 9.207 2.455 17.186 9.207 20.562 18.108z"/><path fill="#FF5824" d="M263.307 198.158c-.307-2.148-2.148-3.683-4.297-3.683l-23.939-.92 14.118-18.108c3.376-3.99 11.97-12.89 22.405-5.832 1.841 1.228 4.604.92 6.138-.92 26.088-32.534 64.452-41.434 77.036-43.582 1.227 11.97 2.762 47.571-20.87 77.035l-4.911 6.445c-1.535 1.842-1.228 4.297.307 5.832 7.059 7.366 4.297 16.88-.921 23.632l-14.732 18.415-6.752-22.712c-.614-1.841-2.455-3.376-4.297-3.376-3.683 0-7.98-.92-11.97-2.455-2.762-1.228-5.524-2.455-7.98-4.297-1.84-1.228-3.682-2.762-5.524-4.297-2.455-1.841-4.603-4.296-6.445-6.445-3.683-4.604-6.445-9.821-7.366-14.732z"/><path fill="#000" d="M332.67 152.428c-4.604-3.683-10.435-5.218-16.267-4.604-5.831.614-11.049 3.683-14.732 8.287-7.672 9.514-6.138 23.325 3.377 30.998 3.99 3.376 8.9 4.91 13.81 4.91 3.377 0 6.446-.613 9.515-2.147 3.07-1.535 5.524-3.377 7.98-6.139 7.366-9.821 5.831-23.632-3.683-31.305z"/><path fill="#FFF" d="M329.294 177.902c-.307.307-.614.92-.921 1.228-.614.613-1.535 1.227-2.455 1.841-.921.614-1.535.92-2.763 1.228-.306 0-.613.307-.92.307-.307 0-.614 0-.921.306h-1.534c-1.535 0-3.377 0-4.911-.613-.307 0-.921-.307-1.228-.614-.307 0-.614-.307-.92-.614-.308-.307-.614-.307-.921-.614-.307-.307-.614-.307-.921-.614-.307-.307-.92-.613-1.228-.92l-.92-.921c-.307-.307-.614-.614-.614-.92 0-.308-.307-.308-.307-.615s-.307-.307-.307-.614c0-.306-.307-.613-.307-.92v-.307c0-.307-.307-.614-.307-.921v-.307c0-.307-.307-.614-.307-.92 0-.308 0-.614-.307-1.228v-1.535c0-2.762.92-5.831 2.762-7.98 2.149-2.762 5.218-4.603 8.594-4.91h1.535c.613 0 1.534 0 2.148.307.614 0 1.535.307 2.148.613 1.228.614 2.763 1.228 3.683 2.149 3.376 2.455 4.911 6.445 4.911 10.128 0 2.762-.92 5.525-2.762 7.98z"/><circle cx="156.556" cy="6.021" r="6.021" fill="#FFF"/><circle cx="387.377" cy="280.999" r="6.021" fill="#FFF"/><circle cx="417.484" cy="2.007" r="2.007" fill="#FFF"/><circle cx="88.314" cy="92.328" r="2.007" fill="#FFF"/><circle cx="88.314" cy="252.899" r="2.007" fill="#FFF"/><circle cx="154.549" cy="196.699" r="4.014" fill="#FFF"/><circle cx="475.69" cy="110.392" r="4.014" fill="#FFF"/><circle cx="4.014" cy="110.392" r="4.014" fill="#FFF"/></g></svg>