<svg width="195" height="168" viewBox="0 0 195 168" xmlns="http://www.w3.org/2000/svg"><title>icon_imac_contour</title><g stroke="#FF5824" stroke-width="1.5" fill="none" opacity=".7"><path d="M180.444 1.392H13.896C7.156 1.392 2 6.222 2 12.538v111.833c0 5.945 5.155 11.146 11.896 11.146h63.05l-9.913 17.09h-8.327c-4.362 0-7.535 3.345-7.535 7.06 0 4.087 3.57 7.06 7.535 7.06h76.136c4.362 0 7.534-3.344 7.534-7.06 0-4.087-3.569-7.06-7.534-7.06h-8.327l-9.914-17.09h63.843c6.742 0 11.897-5.201 11.897-11.146V12.538c0-6.316-5.155-11.146-11.897-11.146zM90.033 123.256c0-3.715 3.172-6.687 7.137-6.687 3.966 0 7.138 2.972 7.138 6.687 0 3.716-3.172 6.688-7.138 6.688-3.965 0-7.137-2.972-7.137-6.688zm86.446-13.746H17.862V16.253h158.617v93.257z"/><path d="M70.205 70.87L44.827 59.723v-.743l25.378-10.774v-7.803L36.103 55.265v8.545L70.205 78.3zm46.396-39.383h-7.138L77.74 94.277h7.534zm41.637 23.778l-34.103-14.862v7.803l25.38 10.774v.743l-25.38 11.147v7.43l34.103-14.49z"/></g></svg>