<svg width="533" height="766" viewBox="0 0 533 766" xmlns="http://www.w3.org/2000/svg"><title>Artboard</title><g stroke="#0FAFD3" fill="none" fill-rule="evenodd" opacity=".7"><path d="M206.196 335.272c-5.124-2.88-11.576-1.058-14.46 4.052L157.6 400.272a10.674 10.674 0 0 0 3.54 14.196l58.761 37.815a10.568 10.568 0 0 0 8.308 1.376 10.577 10.577 0 0 0 6.363-4.58c3.158-4.945 1.718-11.54-3.224-14.714l-50.32-32.388 29.234-52.186c2.855-5.133 1.046-11.628-4.065-14.519zm157.049 13.768l-58.776-37.811c-4.928-3.178-11.5-1.751-14.657 3.2-3.172 4.948-1.725 11.541 3.21 14.717l50.326 32.387-29.24 52.187c-2.864 5.128-1.048 11.622 4.07 14.51a10.577 10.577 0 0 0 7.77 1.057 10.584 10.584 0 0 0 6.683-5.107l34.152-60.951c2.75-4.91 1.197-11.139-3.538-14.189zm-102.826-29.973a10.63 10.63 0 0 0-10.54 10.709l.751 103.346c.053 5.887 4.837 10.623 10.701 10.595.865-.01 1.7-.116 2.503-.317a10.62 10.62 0 0 0 8.036-10.391l-.75-103.347c-.046-5.888-4.83-10.624-10.701-10.595z"/><path d="M47.09 79.691c-23.31 5.812-37.496 29.421-31.684 52.732l147.089 589.94c5.812 23.31 29.42 37.496 52.731 31.684l271.683-67.738c23.311-5.812 37.497-29.421 31.685-52.732L371.505 43.637c-5.812-23.31-29.42-37.496-52.731-31.684L47.09 79.691zm126.895 575.877L55.191 179.113l303.106-75.572L477.09 579.996l-303.105 75.572zm168.737 45.763c-17.334 4.322-34.901-6.276-39.238-23.67-4.337-17.394 6.199-34.998 23.533-39.32 17.334-4.322 34.901 6.276 39.238 23.67 4.337 17.393-6.199 34.998-23.533 39.32zM138.09 99.889l75.485-18.82a7.602 7.602 0 1 1 3.678 14.752l-75.485 18.82a7.602 7.602 0 0 1-3.678-14.752zm106.654-10.923c-4.06 1.013-8.175-1.47-9.19-5.543-1.016-4.073 1.451-8.197 5.512-9.209 4.06-1.012 8.175 1.47 9.191 5.543 1.016 4.074-1.452 8.197-5.513 9.21z"/></g></svg>