<svg xmlns="http://www.w3.org/2000/svg" width="524" height="351" viewBox="0 0 524 351"><g fill="none" fill-rule="evenodd"><path fill="#FF5824" d="M254.556 270.677c.335 2.346 2.346 4.02 4.691 4.02l26.134 1.006-15.412 19.768c-3.686 4.355-13.067 14.072-24.459 6.366-2.01-1.34-5.026-1.005-6.7 1.005-28.48 35.515-70.361 45.231-84.098 47.577-1.34-13.067-3.015-51.933 22.783-84.097l5.361-7.036c1.675-2.01 1.34-4.691-.335-6.366-7.706-8.041-4.69-18.428 1.005-25.799l16.082-20.103 7.372 24.794c.67 2.01 2.68 3.685 4.69 3.685 4.02 0 8.711 1.005 13.067 2.68 3.016 1.34 6.03 2.681 8.711 4.691 2.01 1.34 4.02 3.016 6.031 4.69 2.68 2.011 5.026 4.692 7.036 7.037 4.02 5.026 7.036 10.722 8.041 16.082z"/><path fill="#000" d="M178.835 320.6c5.026 4.02 11.392 5.695 17.758 5.025 6.366-.67 12.062-4.02 16.082-9.046 8.377-10.387 6.701-25.464-3.685-33.84-4.356-3.686-9.717-5.36-15.077-5.36-3.686 0-7.036.67-10.387 2.345-3.35 1.675-6.03 3.685-8.711 6.7-8.041 10.722-6.366 25.8 4.02 34.175z"/><path fill="#FFF" d="M182.521 292.79c.335-.335.67-1.005 1.005-1.34.67-.67 1.675-1.34 2.68-2.01 1.006-.67 1.676-1.005 3.016-1.34.335 0 .67-.335 1.005-.335.335 0 .67 0 1.005-.335h1.675c1.676 0 3.686 0 5.361.67.335 0 1.005.335 1.34.67.335 0 .67.335 1.006.67.335.335.67.335 1.005.67.335.335.67.335 1.005.67.335.335 1.005.67 1.34 1.005l1.005 1.005c.335.336.67.67.67 1.006 0 .335.335.335.335.67s.335.335.335.67.335.67.335 1.005v.335c0 .335.336.67.336 1.005v.335c0 .335.335.67.335 1.005 0 .335 0 .67.335 1.34v1.676c0 3.015-1.006 6.366-3.016 8.711-2.345 3.015-5.696 5.026-9.381 5.36h-1.675c-.67 0-1.676 0-2.346-.334-.67 0-1.675-.335-2.345-.67-1.34-.67-3.016-1.34-4.02-2.346-3.686-2.68-5.361-7.036-5.361-11.056 0-3.016 1.005-6.031 3.015-8.712z"/><circle cx="170.907" cy="6.573" r="6.573" fill="#FFF"/><circle cx="422.886" cy="306.757" r="6.573" fill="#FFF"/><circle cx="455.753" cy="2.191" r="2.191" fill="#FFF"/><circle cx="96.409" cy="100.791" r="2.191" fill="#FFF"/><circle cx="96.409" cy="276.081" r="2.191" fill="#FFF"/><circle cx="256.382" cy="65.382" r="4.382" fill="#FFF"/><circle cx="519.295" cy="120.512" r="4.382" fill="#FFF"/><circle cx="4.382" cy="120.512" r="4.382" fill="#FFF"/><rect width="4" height="80" x="310.752" y="122.501" fill="#F8CE1C" rx="2" transform="rotate(41 312.752 162.5)"/><rect width="4" height="30" x="355.174" y="96.776" fill="#F1C81C" rx="2" transform="rotate(40 357.174 111.776)"/><rect width="4" height="124" x="262.445" y="109.087" fill="#F8CE1C" rx="2" transform="rotate(33 264.445 171.087)"/><rect width="4" height="124" x="310.708" y="148.747" fill="#F8CE1C" rx="2" transform="rotate(47 312.708 210.747)"/></g></svg>