<svg width="21" height="20" viewBox="0 0 21 20" xmlns="http://www.w3.org/2000/svg"><title>logo_js_label</title><g fill="none" fill-rule="evenodd"><path fill="#FFF" d="M0 0h21v20H0z"/><path d="M0 20V0l20.975.005c.05.142.01 2.155.01 2.492V15c0 .322.034 4.804-.01 4.999H0zm14.093-4.372l-1.589.875c.077.252.491.726.63.863.85.822 2.13 1.164 3.437 1.043 1.744-.158 3.035-1.216 2.754-3.097-.353-2.312-3.482-2.423-4.128-3.287a.822.822 0 0 1 .072-1.074c.26-.258.767-.327 1.197-.18.193.07.342.18.447.29.199.206.243.332.337.432l1.517-.921c-.027-.116-.21-.348-.287-.443-.115-.147-.231-.253-.358-.374-1.131-1.08-4.282-1.053-4.934 1.075-.253.837-.027 1.759.403 2.322 1 1.28 3.151 1.423 3.67 2.223a.822.822 0 0 1-.155 1.059c-.287.248-.678.342-1.186.327a1.947 1.947 0 0 1-1.115-.37c-.463-.331-.607-.673-.712-.763zm-6.963.163c-.094.032-.668.374-.8.453l-.795.464c.027.147.314.542.403.643.53.616 1.203.98 2.14 1.064 1.237.11 2.418-.222 3.008-1.286.276-.5.337-1.09.337-1.743v-5.183c0-.327.022-.711 0-1.038h-1.97c-.022.432 0 .911 0 1.343v4.035c0 .822.165 1.896-.58 2.144-.397.132-.844.068-1.136-.132-.276-.19-.414-.469-.607-.764z" fill="#F8DC3D"/></g></svg>