<svg width="43" height="16" viewBox="0 0 43 16" xmlns="http://www.w3.org/2000/svg"><title>logo_aws</title><g fill="none" fill-rule="evenodd"><path d="M11.714 5.505l-2.45-.826V1.1l2.453.734-.003 3.67m.639-3.669l2.452-.734-.008 3.575-2.444.829v-3.67M14.306.713L12.02 0 9.764.713l2.26.612 2.282-.612m3.584 4.792l-2.449-.826V1.1l2.453.734-.003 3.67m.639-3.669l2.452-.734-.009 3.575-2.444.829v-3.67M20.482.713L18.197 0 15.94.713l2.259.612 2.282-.612M2.452 7.064L0 6.33v3.578l2.45.826.002-3.67m.636 0l2.453-.734-.009 3.576-2.444.828v-3.67m1.953-1.121l-2.286-.714L.5 5.943l2.259.611 2.282-.611m3.585 4.791l-2.45-.826V6.33l2.453.734-.003 3.67m.639-3.67l2.452-.734-.008 3.576-2.444.828v-3.67m1.953-1.121l-2.286-.714-2.256.714 2.26.611 2.282-.611m-5.68 10.02l-2.45-.825V11.56l2.453.734-.003 3.67m.638-3.67l2.453-.734-.009 3.575-2.444.828v-3.67m1.954-1.121l-2.286-.713-2.256.713 2.259.612 2.282-.612" fill-rule="nonzero" fill="#F68D11"/><g fill="#100F0D"><path d="M16.675 12.77l-.184.001c-.068 0-.154.046-.175.12l-.559 1.963-.552-1.959c-.017-.061-.075-.124-.154-.124h-.218c-.079 0-.136.064-.152.125l-.514 1.94-.53-1.946c-.022-.07-.11-.119-.18-.119h-.264a.17.17 0 0 0-.138.063.091.091 0 0 0-.015.083l.82 2.898c.018.06.071.122.149.122h.263a.16.16 0 0 0 .152-.125l.505-1.93.55 1.932c.016.06.069.123.147.123h.259c.072 0 .133-.05.15-.123l.79-2.896a.094.094 0 0 0-.014-.085.168.168 0 0 0-.136-.062m2.278 1.23h-1.392c.032-.39.286-.794.716-.81.457.016.666.41.676.81zm-.677-1.25c-.94 0-1.369.828-1.369 1.599 0 .961.532 1.583 1.356 1.583.59 0 1.04-.297 1.234-.817a.11.11 0 0 0-.01-.09.154.154 0 0 0-.1-.072l-.262-.05c-.07-.01-.15.03-.177.09-.127.29-.358.453-.648.462a.752.752 0 0 1-.653-.421c-.095-.202-.11-.401-.11-.604h1.89a.16.16 0 0 0 .109-.047.12.12 0 0 0 .037-.085c-.005-.749-.348-1.549-1.297-1.549zm3.622 1.604c0 .177-.032 1.063-.663 1.085a.704.704 0 0 1-.545-.315c-.087-.139-.139-.33-.152-.567v-.522c.01-.399.292-.837.695-.854.633.025.665.981.665 1.173zm-.564-1.632h-.05a.867.867 0 0 0-.746.395v-1.222c0-.068-.071-.131-.15-.131h-.271c-.071 0-.15.056-.151.131v3.813c0 .07.071.133.15.133h.08c.075 0 .128-.061.146-.118l.086-.269a1 1 0 0 0 .813.444h.049c.838 0 1.214-.813 1.214-1.62 0-.401-.1-.785-.273-1.053-.2-.31-.543-.503-.897-.503zm4.146 1.546c-.177-.127-.39-.17-.602-.212l-.409-.075c-.292-.048-.462-.127-.462-.384 0-.273.283-.377.523-.383.293.007.514.137.62.367a.16.16 0 0 0 .141.09c.01 0 .02 0 .03-.003l.255-.056a.158.158 0 0 0 .1-.075.109.109 0 0 0 .011-.09c-.156-.452-.551-.692-1.15-.692-.54.001-1.119.241-1.119.911 0 .458.289.75.858.865l.457.087c.25.048.507.133.507.401 0 .398-.464.439-.604.442-.314-.007-.67-.147-.757-.444-.018-.065-.1-.111-.172-.096l-.266.055a.154.154 0 0 0-.098.07.116.116 0 0 0-.015.091c.137.492.613.789 1.273.794h.015c.59 0 1.22-.252 1.22-.958a.852.852 0 0 0-.356-.705m2.694-.265h-1.392c.031-.39.285-.794.715-.81.457.015.666.41.677.81zm-.678-1.251c-.94 0-1.369.83-1.369 1.6 0 .961.533 1.582 1.357 1.582.59 0 1.04-.297 1.233-.816a.11.11 0 0 0-.009-.091.153.153 0 0 0-.102-.071l-.26-.05c-.062-.01-.147.022-.177.09-.127.289-.359.453-.648.462a.752.752 0 0 1-.653-.422c-.095-.201-.11-.4-.111-.603h1.89a.16.16 0 0 0 .109-.047.12.12 0 0 0 .037-.085c-.004-.749-.347-1.55-1.297-1.55zm3.082.035a.976.976 0 0 0-.107-.006c-.317 0-.575.172-.754.5v-.287c0-.07-.069-.131-.148-.131h-.236c-.078 0-.146.061-.147.132v2.796c0 .07.068.131.146.131h.276c.071 0 .152-.056.153-.131v-1.41c0-.232.022-.407.133-.614.159-.295.381-.44.679-.443.074 0 .14-.065.14-.139v-.261c0-.069-.06-.129-.135-.137m2.892-.055h-.218c-.069 0-.156.049-.177.12l-.705 2.21-.72-2.207c-.021-.073-.109-.123-.177-.123h-.31a.176.176 0 0 0-.141.064.09.09 0 0 0-.015.084l.985 2.916c.02.058.07.125.149.125h.376c.069 0 .125-.047.151-.125l.956-2.915a.09.09 0 0 0-.015-.084.175.175 0 0 0-.14-.065m.715-1.121a.364.364 0 1 0 0 .728.364.364 0 0 0 0-.728m.149 1.103h-.298c-.081 0-.155.066-.155.137l-.002 2.969a.13.13 0 0 0 .051.098.17.17 0 0 0 .105.038h.3c.083 0 .155-.064.155-.136v-2.969c0-.073-.073-.137-.156-.137m2.787 2.013l-.249.001a.16.16 0 0 0-.153.114c-.091.392-.297.595-.61.604-.608-.018-.656-.864-.656-1.123 0-.517.18-1.074.68-1.089.302.01.522.226.588.578a.163.163 0 0 0 .143.135l.266.003c.08-.009.143-.069.142-.143-.094-.636-.536-1.048-1.127-1.048h-.043c-.86 0-1.244.8-1.244 1.593 0 .726.324 1.575 1.239 1.575h.044c.575 0 1.01-.403 1.135-1.056a.117.117 0 0 0-.03-.087.176.176 0 0 0-.125-.057m2.46-.724h-1.393c.032-.39.286-.794.716-.81.457.015.666.41.677.81zm-.678-1.251c-.94 0-1.369.83-1.369 1.6 0 .961.533 1.582 1.357 1.582.59 0 1.039-.297 1.233-.816a.111.111 0 0 0-.01-.091.152.152 0 0 0-.1-.071l-.262-.05c-.061-.01-.146.022-.176.09-.128.289-.359.453-.649.462a.752.752 0 0 1-.652-.422c-.096-.201-.11-.4-.111-.603h1.89c.04 0 .08-.018.11-.047a.12.12 0 0 0 .036-.085c-.004-.749-.347-1.55-1.297-1.55zm3.665 1.516c-.177-.127-.39-.17-.603-.212l-.408-.075c-.292-.048-.462-.127-.462-.384 0-.352.438-.381.523-.383.293.007.514.137.62.367a.16.16 0 0 0 .141.09c.01 0 .02 0 .03-.003l.255-.056a.158.158 0 0 0 .101-.075.109.109 0 0 0 .01-.09c-.155-.452-.551-.692-1.15-.692-.54.001-1.119.241-1.119.911 0 .458.289.75.858.865l.457.087c.251.048.508.133.508.401 0 .398-.464.439-.605.442-.291-.007-.665-.127-.757-.443-.017-.066-.099-.112-.172-.097l-.266.055a.155.155 0 0 0-.099.07.116.116 0 0 0-.014.091c.137.492.613.789 1.273.794h.015c.59 0 1.219-.252 1.219-.958a.851.851 0 0 0-.355-.705" fill-rule="nonzero"/><path d="M30.443 7v-.674c0-.102.078-.17.171-.17h3.028c.096 0 .174.07.174.17v.577c0 .097-.083.224-.228.425L32.02 9.56c.582-.014 1.198.073 1.727.37.119.067.15.166.16.263v.719c0 .099-.108.214-.223.154a3.496 3.496 0 0 0-3.199.005c-.105.057-.215-.056-.215-.156v-.683c0-.109.002-.296.113-.463l1.817-2.6h-1.582a.168.168 0 0 1-.175-.17M19.4 11.209h-.922a.173.173 0 0 1-.164-.156V6.338c0-.095.08-.17.178-.17h.858c.09.004.162.072.168.158v.616h.017c.223-.596.644-.873 1.212-.873.576 0 .937.277 1.195.873.224-.596.73-.873 1.273-.873.387 0 .807.158 1.065.515.293.397.232.973.232 1.479v2.976c0 .094-.08.17-.178.17h-.92a.173.173 0 0 1-.165-.17v-2.5c0-.198.017-.695-.026-.883-.069-.318-.275-.407-.542-.407a.611.611 0 0 0-.55.387c-.095.238-.086.635-.086.903v2.5c0 .094-.08.17-.178.17h-.92a.173.173 0 0 1-.165-.17l-.001-2.5c0-.526.086-1.3-.567-1.3-.662 0-.636.754-.636 1.3v2.5c0 .094-.08.17-.178.17m17.03-4.178c-.679 0-.721.923-.721 1.498 0 .576-.009 1.806.714 1.806.713 0 .748-.992.748-1.597 0-.397-.017-.873-.138-1.25-.103-.328-.31-.457-.602-.457zm-.007-.962c1.366 0 2.106 1.17 2.106 2.658 0 1.44-.817 2.58-2.106 2.58-1.342 0-2.073-1.17-2.073-2.629 0-1.468.74-2.61 2.073-2.61zm3.879 5.14h-.918a.173.173 0 0 1-.165-.17l-.001-4.717a.174.174 0 0 1 .176-.154h.855c.08.004.146.058.163.132v.721h.018c.257-.645.619-.952 1.255-.952.412 0 .817.148 1.074.555C43 7.001 43 7.636 43 8.092v2.968a.174.174 0 0 1-.176.149H41.9a.174.174 0 0 1-.164-.149V8.5c0-.516.06-1.27-.576-1.27-.223 0-.43.148-.533.376-.129.288-.146.576-.146.893v2.54a.176.176 0 0 1-.18.17m-11.343-.012a.191.191 0 0 1-.218.021c-.305-.253-.36-.371-.528-.612-.505.513-.863.668-1.518.668-.776 0-1.378-.478-1.378-1.433 0-.745.404-1.252.982-1.501.5-.219 1.197-.259 1.731-.319v-.119c0-.218.018-.477-.112-.666-.111-.17-.327-.238-.517-.238-.351 0-.663.18-.74.551-.016.083-.077.165-.16.17l-.892-.097c-.076-.017-.16-.077-.138-.192.205-1.08 1.183-1.407 2.06-1.407.448 0 1.034.119 1.387.457.448.418.405.975.405 1.581v1.432c0 .43.18.62.348.851.058.084.071.183-.004.245-.188.157-.522.446-.706.61l-.002-.002zm-.929-2.24c0 .357.009.656-.172.974-.147.259-.38.418-.638.418-.353 0-.56-.269-.56-.667 0-.782.704-.924 1.37-.924v.198zm-11.145 2.24a.192.192 0 0 1-.218.021c-.306-.253-.36-.371-.528-.612-.505.513-.863.668-1.518.668-.776 0-1.379-.478-1.379-1.433 0-.745.405-1.252.983-1.501.5-.219 1.197-.259 1.731-.319v-.119c0-.218.018-.477-.112-.666-.112-.17-.327-.238-.516-.238-.352 0-.664.18-.74.551-.017.083-.077.165-.16.17l-.894-.097c-.075-.017-.159-.077-.137-.192.205-1.08 1.183-1.407 2.06-1.407.448 0 1.034.119 1.387.457.448.418.405.975.405 1.581v1.432c0 .43.18.62.347.851.06.084.072.183-.002.245-.189.157-.523.446-.707.61l-.002-.002zm-.929-2.24c0 .357.009.656-.172.974-.146.259-.38.418-.637.418-.354 0-.56-.269-.56-.667 0-.782.703-.924 1.37-.924v.198z"/></g></g></svg>