<svg width="19" height="20" viewBox="0 0 19 20" xmlns="http://www.w3.org/2000/svg"><title>logo_rabbitmq</title><path d="M18.216 8h-6.315a.573.573 0 0 1-.574-.571V.879A.88.88 0 0 0 10.445 0H8.19a.88.88 0 0 0-.882.879v6.51a.615.615 0 0 1-.614.614l-2.07.01a.615.615 0 0 1-.62-.615L4.018.88A.88.88 0 0 0 3.135 0H.882A.88.88 0 0 0 0 .879V19.22c0 .43.35.78.783.78h17.433c.433 0 .784-.35.784-.78V8.78c0-.43-.35-.78-.784-.78zm-2.961 6.887c0 .564-.46 1.022-1.028 1.022h-1.781a1.025 1.025 0 0 1-1.028-1.022v-1.774c0-.564.46-1.022 1.028-1.022h1.781c.568 0 1.028.458 1.028 1.022v1.774z" fill="#F60"/></svg>