<svg width="146" height="209" viewBox="0 0 146 209" xmlns="http://www.w3.org/2000/svg"><title>icon_iphone_contour</title><g stroke-width="1.5" stroke="#0FAFD3" fill="none" fill-rule="evenodd" opacity=".7"><path d="M55.612 91.442c-1.466-.783-3.327-.26-4.171 1.163l-9.997 16.97a2.856 2.856 0 0 0 .977 3.92l16.796 10.298c.732.45 1.595.554 2.386.357a3.125 3.125 0 0 0 1.843-1.286 2.86 2.86 0 0 0-.885-4.064l-14.382-8.82 8.56-14.53a2.868 2.868 0 0 0-1.127-4.008zm45.139 3.358L83.952 84.503c-1.408-.866-3.303-.452-4.226.928a2.858 2.858 0 0 0 .881 4.065l14.385 8.82-8.563 14.53a2.862 2.862 0 0 0 1.13 4.006 3.125 3.125 0 0 0 2.231.27 3.119 3.119 0 0 0 1.938-1.433l10-16.971a2.86 2.86 0 0 0-.977-3.918zm-29.494-8c-1.693.036-3.056 1.368-3.063 2.994l-.082 28.607c-.002 1.629 1.36 2.926 3.048 2.902.249-.006.49-.037.72-.095 1.342-.334 2.34-1.513 2.343-2.9l.082-28.606c.004-1.63-1.359-2.927-3.048-2.902z"/><path d="M7.147 22.637a8.25 8.25 0 0 0-6.01 10l42.136 168.995a8.25 8.25 0 0 0 10 6.009l85.512-21.32a8.25 8.25 0 0 0 6.01-10.002L102.658 7.326a8.25 8.25 0 0 0-10-6.01L7.146 22.636zM44.982 180.94L11.886 48.202l88.59-22.088 33.095 132.738-88.59 22.088zm48.997 12.035c-5.317 1.326-10.675-1.75-11.955-6.886-1.281-5.138 2.005-10.368 7.323-11.693 5.317-1.326 10.674 1.749 11.955 6.886 1.28 5.137-2.006 10.367-7.323 11.693zM36.466 25.906l21.939-5.47a2.71 2.71 0 0 1 1.311 5.261l-21.939 5.47a2.71 2.71 0 0 1-1.311-5.26zm31.094-2.164c-1.49.37-3-.496-3.364-1.956-.364-1.459.563-2.934 2.052-3.305 1.49-.371 3 .496 3.364 1.955.364 1.46-.563 2.934-2.052 3.306z"/></g></svg>