<svg width="36" height="13" viewBox="0 0 36 13" xmlns="http://www.w3.org/2000/svg"><title>icon_label_rails</title><g fill="#B10419" fill-rule="evenodd"><path d="M30.961 11.297v1.682h2.899c.594 0 1.613-.455 1.648-1.728v-.65c0-1.087-.85-1.728-1.648-1.728h-1.445v-.78h2.863V6.4H32.53c-.709 0-1.657.614-1.657 1.756v.586c0 1.142.94 1.728 1.657 1.728 1.995.009-.478 0 1.365 0v.817l-2.934.01zm-15.53-.408s1.552-.14 1.552-2.24c0-2.099-1.88-2.294-1.88-2.294h-3.385v6.624h1.702v-1.598l1.471 1.598h2.517l-1.976-2.09zm-.655-1.357H13.42V8.018h1.365s.38.149.38.752c0 .604-.39.762-.39.762zm6.408-3.13h-1.728c-1.232 0-1.649 1.17-1.649 1.727v4.85h1.729v-1.161h1.622v1.161h1.675V8.13c0-1.412-1.223-1.728-1.649-1.728zm-.026 3.539h-1.631V8.334s0-.363.54-.363h.595c.478 0 .487.363.487.363V9.94h.009zm2.464-3.54h1.8v6.578h-1.8zm4.326 4.878V6.4h-1.79v6.578h4.21v-1.7z"/><path d="M1.037 12.98h7.002s-1.338-6.402 3.094-8.994c.966-.493 4.042-2.332 9.076 1.57.16-.14.31-.251.31-.251S15.912.483 10.78 1.022c-2.58.242-5.753 2.704-7.615 5.955-1.861 3.252-2.127 6.002-2.127 6.002z"/><path d="M1.037 12.98h7.002s-1.338-6.402 3.094-8.994c.966-.493 4.042-2.332 9.076 1.57.16-.14.31-.251.31-.251S15.912.483 10.78 1.022c-2.58.242-5.753 2.704-7.615 5.955-1.861 3.252-2.127 6.002-2.127 6.002z"/><path d="M1.037 12.98h7.002s-1.338-6.402 3.094-8.994c.966-.493 4.042-2.332 9.076 1.57.16-.14.31-.251.31-.251S15.912.483 10.78 1.022c-2.589.242-5.762 2.704-7.624 5.955-1.861 3.252-2.118 6.002-2.118 6.002zm14.59-11.438l.035-.622c-.08-.047-.301-.158-.86-.325l-.035.613c.293.102.576.214.86.334z"/><path d="M14.785 3.512l-.036.585c.293.01.585.047.878.112l.035-.576a6.004 6.004 0 0 0-.877-.121zM11.505.613h.089l-.177-.566a6.77 6.77 0 0 0-.851.055l.168.548a7.37 7.37 0 0 1 .771-.037zm.426 3.42l.204.64c.257-.13.514-.241.77-.325l-.194-.613a6.243 6.243 0 0 0-.78.297zM7.906 1.588l-.398-.64c-.222.12-.452.25-.692.4l.408.65c.23-.15.452-.288.682-.41zm1.818 4.18l.425.67a5.03 5.03 0 0 1 .523-.66l-.399-.632a5.06 5.06 0 0 0-.55.623zM8.438 8.762l.718.595c.036-.363.098-.725.186-1.087l-.638-.53a9.172 9.172 0 0 0-.266 1.022zM4.556 4.348l-.63-.576c-.23.232-.451.465-.655.697l.682.613c.186-.25.39-.502.603-.734zM1.879 8.501l-1.02-.39c-.168.4-.354.864-.443 1.115l1.02.39c.115-.316.301-.771.443-1.115zm6.426 2.62c.018.492.062.892.107 1.17l1.063.4c-.08-.362-.16-.771-.212-1.208l-.958-.362z"/></g></svg>