<svg width="693" height="217" viewBox="0 0 693 217" xmlns="http://www.w3.org/2000/svg"><title>production_line</title><g fill="none" fill-rule="evenodd"><g transform="translate(2)"><path fill="#000" d="M15 138h470v16H15z"/><g transform="translate(0 109)"><rect stroke="#FFC91C" stroke-width="4" fill="#000" width="500.547" height="27.214" rx="13.607"/><circle fill="#FFF" cx="25" cy="14" r="8"/><circle fill="#FFF" cx="50" cy="14" r="8"/><circle fill="#FFF" cx="75" cy="14" r="8"/><circle fill="#FFF" cx="100" cy="14" r="8"/><circle fill="#FFF" cx="125" cy="14" r="8"/><circle fill="#FFF" cx="150" cy="14" r="8"/><circle fill="#FFF" cx="175" cy="14" r="8"/><circle fill="#FFF" cx="200" cy="14" r="8"/><circle fill="#FFF" cx="225" cy="14" r="8"/><circle fill="#FFF" cx="250" cy="14" r="8"/><circle fill="#FFF" cx="275" cy="14" r="8"/><circle fill="#FFF" cx="300" cy="14" r="8"/><circle fill="#FFF" cx="325" cy="14" r="8"/><circle fill="#FFF" cx="350" cy="14" r="8"/><circle fill="#FFF" cx="375" cy="14" r="8"/><circle fill="#FFF" cx="400" cy="14" r="8"/><circle fill="#FFF" cx="425" cy="14" r="8"/><circle fill="#FFF" cx="450" cy="14" r="8"/><circle fill="#FFF" cx="475" cy="14" r="8"/></g><path d="M142 0h158.285v154H142V0zm15 15.969v87.828h129V15.969H157z" fill="#2F5681"/><path d="M154 13h134.835v93.14H154V13zm3 3v88h129V16H157z" fill="#000"/><path fill="#4A4A4A" d="M318.942 58h5L316 86h-5z"/><path fill="#2F5681" d="M299 79h32v75h-32z"/><path fill="#000" d="M41 154h16v63H41zm135 0h16v63h-16zm136 0h16v63h-16zm135 0h16v63h-16z"/><circle fill="#FF5824" cx="321.999" cy="56.999" r="5.999"/></g><path fill="#000" opacity=".2" d="M159 16h129v88H159z"/><g transform="translate(355 38)"><path fill="#B59574" d="M0 0h97v69H0z"/><path fill="#D3BBA6" d="M40 0h17v27H40zm0 42h17v27H40z"/><circle fill="#81BB46" cx="47.5" cy="34.5" r="19.5"/><path stroke="#FFF" stroke-width="4" stroke-linecap="round" d="M39 33.743l6.168 6.168L57.078 28"/></g><g transform="translate(499 148)"><path fill="#B59574" d="M0 0h97v69H0z"/><path fill="#D3BBA6" d="M40 0h17v27H40zm0 42h17v27H40z"/><circle fill="#81BB46" cx="47.5" cy="34.5" r="19.5"/><path stroke="#FFF" stroke-width="4" stroke-linecap="round" d="M39 33.743l6.168 6.168L57.078 28"/></g><g transform="translate(596 148)"><path fill="#B59574" d="M0 0h97v69H0z"/><path fill="#D3BBA6" d="M40 0h17v27H40zm0 42h17v27H40z"/><circle fill="#81BB46" cx="47.5" cy="34.5" r="19.5"/><path stroke="#FFF" stroke-width="4" stroke-linecap="round" d="M39 33.743l6.168 6.168L57.078 28"/></g><g transform="translate(596 80)"><path fill="#B59574" d="M0 0h97v69H0z"/><path fill="#D3BBA6" d="M40 0h17v27H40zm0 42h17v27H40z"/><circle fill="#81BB46" cx="47.5" cy="34.5" r="19.5"/><path stroke="#FFF" stroke-width="4" stroke-linecap="round" d="M39 33.743l6.168 6.168L57.078 28"/></g><path d="M303 87h10v7h-10zm0 10h10v7h-10zm0 10h10v7h-10zm15-20h10v7h-10zm0 10h10v7h-10zm0 10h10v7h-10z" fill="#5393DA"/></g></svg>