<svg width="468" height="352" viewBox="0 0 468 352" xmlns="http://www.w3.org/2000/svg"><title>image_Analitycs</title><g fill="none" fill-rule="evenodd"><path fill="#FFF" d="M-855-1962H585V679.716H-855z"/><path d="M105 111v49.602M410 161v49.602M220 285h149.429M185 70h149.429" stroke="#81BB46" stroke-width="4" stroke-linecap="round" stroke-dasharray="4,10"/><g fill-rule="nonzero"><path d="M419.596 238.51c-20.796 0-37.659 16.863-37.659 37.658s16.863 37.661 37.659 37.661c20.798 0 37.666-16.866 37.666-37.66h-37.666V238.51z" fill="#FF5824"/><path d="M425.715 232.124v37.662h37.663c-.003-20.795-16.867-37.662-37.663-37.662z" fill="#0FAFD3"/></g><g transform="translate(0 173)"><path d="M144.633 166.413h-11.266l-5.302-18.556h-46.39l-5.302 18.556H65.107a5.94 5.94 0 0 0-5.964 5.964 5.94 5.94 0 0 0 5.964 5.964h80.189a5.94 5.94 0 0 0 5.964-5.964c0-3.314-3.314-5.964-6.627-5.964z" fill="#000" fill-rule="nonzero"/><rect fill="#3E3E3E" width="209.198" height="149.413" rx="4"/><path fill="#FFF" d="M12.451 12.451h184.91v112.25H12.451z"/><path d="M105.346 140.655c-2.439 0-4.181-1.742-4.181-4.181 0-2.44 1.742-4.181 4.181-4.181 2.091 0 4.182 1.742 4.182 4.181 0 2.09-2.091 4.181-4.182 4.181z" stroke="#000" fill="#3E3E3E"/><circle fill="#110E2A" cx="105.834" cy="6.226" r="1.556"/></g><path fill="#0FAFD3" d="M86 275.753V248h11.647v27.753zm52 0V248h11.647v27.753z"/><path fill="#FF5824" d="M114.647 275.937H103V220h11.647z"/><path fill="#0FAFD3" d="M63.647 275.992H52V263h11.647z"/><path fill="#FF5824" d="M80.647 276.094H69V236h11.647v40.094zm52 0H121V236h11.647v40.094z"/><g transform="translate(371)"><rect fill="#3E3E3E" width="74.864" height="133.218" rx="4"/><path d="M37.58 129.491c-2.87 0-5.198-2.433-5.198-5.434 0-3.001 2.327-5.434 5.199-5.434 2.87 0 5.198 2.433 5.198 5.434 0 3.001-2.327 5.434-5.198 5.434zm0-1.552c2.051 0 3.714-1.738 3.714-3.882s-1.663-3.882-3.713-3.882c-2.051 0-3.714 1.738-3.714 3.882s1.663 3.882 3.714 3.882z" fill="#000"/><g transform="translate(26.769 7.648)" fill="#000"><ellipse cx="1.114" cy="1.165" rx="1.114" ry="1.165"/><rect x="6.536" width="12.774" height="2.484" rx="1.242"/></g><path fill="#FFF" d="M4.753 16.148h65.616v98.714H4.753z"/></g><path fill="#FF5824" d="M414.647 95.753H403V68h11.647v27.753z"/><path fill="#0FAFD3" d="M431.647 95.937H420V40h11.647zm-34 .157H386V56h11.647v40.094z"/><path d="M140.869 98.752l-64.052-.355C63.109 98.397 52 88.943 52 77.362c0-11.582 11.109-21.036 24.817-21.036h.236c.355 0 1.418.237 2.6.473 0-.473-.118-.945-.118-1.536 0-10.636 9.572-19.263 21.39-19.263 9.1 0 16.9 5.2 19.854 12.881 2.836-2.363 6.381-3.781 10.163-3.781 8.627 0 15.599 7.09 15.599 15.717 0 1.773-.236 3.427-.827 4.963 7.445 2.364 12.645 8.51 12.645 15.836 0 9.454-7.8 17.136-17.49 17.136z" fill-rule="nonzero" fill="#85BEFF"/><path d="M-242.43-154.403c-8.767 46.585 34.744 97.901 93.937 107.126C-89.3-38.052-46.228-91.735 26.69-80.794 75.304-73.5 102.42-46.471 108.035.293" stroke="#9B9B9B" stroke-width="2" stroke-linecap="round" stroke-dasharray="4,10"/></g></svg>