<svg width="669" height="380" viewBox="0 0 669 380" xmlns="http://www.w3.org/2000/svg"><title>image_roadmap</title><g fill="none" fill-rule="evenodd"><rect fill="#EFF1F3" width="668.198" height="379.849" rx="2"/><g transform="translate(23 31)"><path d="M126.07 277.18h.863v1.727h-.864v-1.727zm0-20.724h.863v1.727h-.864v-1.727zm0-20.724h.863v1.727h-.864v-1.727zm0-20.724h.863v1.727h-.864v-1.727zm0-20.723h.863v1.727h-.864v-1.727zm0-20.724h.863v1.727h-.864v-1.727zm0-20.724h.863v1.727h-.864v-1.727zm0-20.723h.863v1.727h-.864v-1.727zm0-20.724h.863v1.727h-.864v-1.727zm0-20.724h.863v1.727h-.864v-1.727zm0 196.875h.863v1.727h-.864v-1.727zm0-20.723h.863v1.727h-.864v-1.727zm0-20.724h.863v1.727h-.864v-1.727zm0-20.724h.863v1.727h-.864v-1.727zm0-20.723h.863v1.727h-.864v-1.727zm0-20.724h.863v1.727h-.864v-1.727zm0-20.724h.863v1.727h-.864V163.2zm0-20.723h.863v1.726h-.864v-1.726zm0-20.724h.863v1.727h-.864v-1.727zm0-20.724h.863v1.727h-.864v-1.727zm0-20.724h.863v1.727h-.864v-1.727zm0 214.145h.863v1.727h-.864v-1.727zm0-20.723h.863v1.727h-.864v-1.727zm0-20.724h.863v1.727h-.864v-1.727zm0-20.724h.863v1.727h-.864v-1.727zm0-20.723h.863v1.727h-.864v-1.727zm0-20.724h.863v1.727h-.864v-1.727zm0-20.724h.863v1.727h-.864v-1.727zm0-20.724h.863v1.727h-.864v-1.727zm0-20.723h.863v1.727h-.864v-1.727zm0-20.724h.863v1.727h-.864v-1.727zm0-20.724h.863v1.727h-.864v-1.727zm0 196.876h.863v1.726h-.864v-1.726zm0-20.724h.863v1.727h-.864v-1.727zm0-20.724h.863v1.727h-.864v-1.727zm0-20.724h.863v1.727h-.864v-1.727zm0-20.723h.863v1.727h-.864v-1.727zm0-20.724h.863v1.727h-.864v-1.727zm0-20.724h.863v1.727h-.864v-1.727zm0-20.723h.863v1.727h-.864v-1.727zm0-20.724h.863v1.727h-.864v-1.727zm0-20.724h.863v1.727h-.864v-1.727zm0 193.421h.863v1.727h-.864v-1.727zm0-20.723h.863v1.727h-.864v-1.727zm0-20.724h.863v1.727h-.864v-1.727zm0-20.724h.863v1.727h-.864v-1.727zm0-20.723h.863v1.727h-.864V208.1zm0-20.724h.863v1.727h-.864v-1.727zm0-20.724h.863v1.727h-.864v-1.727zm0-20.724h.863v1.727h-.864v-1.727zm0-20.723h.863v1.727h-.864v-1.727zm0-20.724h.863v1.727h-.864v-1.727zm0-20.724h.863v1.727h-.864v-1.727zm0 196.876h.863v1.727h-.864v-1.727zm0-20.724h.863v1.727h-.864v-1.727zm0-20.724h.863v1.727h-.864v-1.727zm0-20.724h.863v1.727h-.864v-1.727zm0-20.723h.863v1.727h-.864v-1.727zm0-20.724h.863v1.727h-.864v-1.727zm0-20.724h.863v1.727h-.864v-1.727zm0-20.723h.863v1.727h-.864v-1.727zm0-20.724h.863v1.727h-.864v-1.727zm0-20.724h.863v1.727h-.864V94.12zM29.359 277.18h.863v1.727h-.863v-1.727zm0-20.724h.863v1.727h-.863v-1.727zm0-20.724h.863v1.727h-.863v-1.727zm0-20.724h.863v1.727h-.863v-1.727zm0-20.723h.863v1.727h-.863v-1.727zm0-20.724h.863v1.727h-.863v-1.727zm0-20.724h.863v1.727h-.863v-1.727zm0-20.723h.863v1.727h-.863v-1.727zm0-20.724h.863v1.727h-.863v-1.727zm0-20.724h.863v1.727h-.863v-1.727zm0 196.875h.863v1.727h-.863v-1.727zm0-20.723h.863v1.727h-.863v-1.727zm0-20.724h.863v1.727h-.863v-1.727zm0-20.724h.863v1.727h-.863v-1.727zm0-20.723h.863v1.727h-.863v-1.727zm0-20.724h.863v1.727h-.863v-1.727zm0-20.724h.863v1.727h-.863V163.2zm0-20.723h.863v1.726h-.863v-1.726zm0-20.724h.863v1.727h-.863v-1.727zm0-20.724h.863v1.727h-.863v-1.727zm0-20.724h.863v1.727h-.863v-1.727zm0 214.145h.863v1.727h-.863v-1.727zm0-20.723h.863v1.727h-.863v-1.727zm0-20.724h.863v1.727h-.863v-1.727zm0-20.724h.863v1.727h-.863v-1.727zm0-20.723h.863v1.727h-.863v-1.727zm0-20.724h.863v1.727h-.863v-1.727zm0-20.724h.863v1.727h-.863v-1.727zm0-20.724h.863v1.727h-.863v-1.727zm0-20.723h.863v1.727h-.863v-1.727zm0-20.724h.863v1.727h-.863v-1.727zm0-20.724h.863v1.727h-.863v-1.727zm0 196.876h.863v1.726h-.863v-1.726zm0-20.724h.863v1.727h-.863v-1.727zm0-20.724h.863v1.727h-.863v-1.727zm0-20.724h.863v1.727h-.863v-1.727zm0-20.723h.863v1.727h-.863v-1.727zm0-20.724h.863v1.727h-.863v-1.727zm0-20.724h.863v1.727h-.863v-1.727zm0-20.723h.863v1.727h-.863v-1.727zm0-20.724h.863v1.727h-.863v-1.727zm0-20.724h.863v1.727h-.863v-1.727zm0 193.421h.863v1.727h-.863v-1.727zm0-20.723h.863v1.727h-.863v-1.727zm0-20.724h.863v1.727h-.863v-1.727zm0-20.724h.863v1.727h-.863v-1.727zm0-20.723h.863v1.727h-.863V208.1zm0-20.724h.863v1.727h-.863v-1.727zm0-20.724h.863v1.727h-.863v-1.727zm0-20.724h.863v1.727h-.863v-1.727zm0-20.723h.863v1.727h-.863v-1.727zm0-20.724h.863v1.727h-.863v-1.727zm0-20.724h.863v1.727h-.863v-1.727zm0 196.876h.863v1.727h-.863v-1.727zm0-20.724h.863v1.727h-.863v-1.727zm0-20.724h.863v1.727h-.863v-1.727zm0-20.724h.863v1.727h-.863v-1.727zm0-20.723h.863v1.727h-.863v-1.727zm0-20.724h.863v1.727h-.863v-1.727zm0-20.724h.863v1.727h-.863v-1.727zm0-20.723h.863v1.727h-.863v-1.727zm0-20.724h.863v1.727h-.863v-1.727zm0-20.724h.863v1.727h-.863V94.12zM225.37 277.18h.864v1.727h-.864v-1.727zm0-20.724h.864v1.727h-.864v-1.727zm0-20.724h.864v1.727h-.864v-1.727zm0-20.724h.864v1.727h-.864v-1.727zm0-20.723h.864v1.727h-.864v-1.727zm0-20.724h.864v1.727h-.864v-1.727zm0-20.724h.864v1.727h-.864v-1.727zm0-20.723h.864v1.727h-.864v-1.727zm0-20.724h.864v1.727h-.864v-1.727zm0-20.724h.864v1.727h-.864v-1.727zm0 196.875h.864v1.727h-.864v-1.727zm0-20.723h.864v1.727h-.864v-1.727zm0-20.724h.864v1.727h-.864v-1.727zm0-20.724h.864v1.727h-.864v-1.727zm0-20.723h.864v1.727h-.864v-1.727zm0-20.724h.864v1.727h-.864v-1.727zm0-20.724h.864v1.727h-.864V163.2zm0-20.723h.864v1.726h-.864v-1.726zm0-20.724h.864v1.727h-.864v-1.727zm0-20.724h.864v1.727h-.864v-1.727zm0-20.724h.864v1.727h-.864v-1.727zm0 214.145h.864v1.727h-.864v-1.727zm0-20.723h.864v1.727h-.864v-1.727zm0-20.724h.864v1.727h-.864v-1.727zm0-20.724h.864v1.727h-.864v-1.727zm0-20.723h.864v1.727h-.864v-1.727zm0-20.724h.864v1.727h-.864v-1.727zm0-20.724h.864v1.727h-.864v-1.727zm0-20.724h.864v1.727h-.864v-1.727zm0-20.723h.864v1.727h-.864v-1.727zm0-20.724h.864v1.727h-.864v-1.727zm0-20.724h.864v1.727h-.864v-1.727zm0 196.876h.864v1.726h-.864v-1.726zm0-20.724h.864v1.727h-.864v-1.727zm0-20.724h.864v1.727h-.864v-1.727zm0-20.724h.864v1.727h-.864v-1.727zm0-20.723h.864v1.727h-.864v-1.727zm0-20.724h.864v1.727h-.864v-1.727zm0-20.724h.864v1.727h-.864v-1.727zm0-20.723h.864v1.727h-.864v-1.727zm0-20.724h.864v1.727h-.864v-1.727zm0-20.724h.864v1.727h-.864v-1.727zm0 193.421h.864v1.727h-.864v-1.727zm0-20.723h.864v1.727h-.864v-1.727zm0-20.724h.864v1.727h-.864v-1.727zm0-20.724h.864v1.727h-.864v-1.727zm0-20.723h.864v1.727h-.864V208.1zm0-20.724h.864v1.727h-.864v-1.727zm0-20.724h.864v1.727h-.864v-1.727zm0-20.724h.864v1.727h-.864v-1.727zm0-20.723h.864v1.727h-.864v-1.727zm0-20.724h.864v1.727h-.864v-1.727zm0-20.724h.864v1.727h-.864v-1.727zm0 196.876h.864v1.727h-.864v-1.727zm0-20.724h.864v1.727h-.864v-1.727zm0-20.724h.864v1.727h-.864v-1.727zm0-20.724h.864v1.727h-.864v-1.727zm0-20.723h.864v1.727h-.864v-1.727zm0-20.724h.864v1.727h-.864v-1.727zm0-20.724h.864v1.727h-.864v-1.727zm0-20.723h.864v1.727h-.864v-1.727zm0-20.724h.864v1.727h-.864v-1.727zm0-20.724h.864v1.727h-.864V94.12zm98.438 183.06h.863v1.727h-.863v-1.727zm0-20.724h.863v1.727h-.863v-1.727zm0-20.724h.863v1.727h-.863v-1.727zm0-20.724h.863v1.727h-.863v-1.727zm0-20.723h.863v1.727h-.863v-1.727zm0-20.724h.863v1.727h-.863v-1.727zm0-20.724h.863v1.727h-.863v-1.727zm0-20.723h.863v1.727h-.863v-1.727zm0-20.724h.863v1.727h-.863v-1.727zm0-20.724h.863v1.727h-.863v-1.727zm0 196.875h.863v1.727h-.863v-1.727zm0-20.723h.863v1.727h-.863v-1.727zm0-20.724h.863v1.727h-.863v-1.727zm0-20.724h.863v1.727h-.863v-1.727zm0-20.723h.863v1.727h-.863v-1.727zm0-20.724h.863v1.727h-.863v-1.727zm0-20.724h.863v1.727h-.863V163.2zm0-20.723h.863v1.726h-.863v-1.726zm0-20.724h.863v1.727h-.863v-1.727zm0-20.724h.863v1.727h-.863v-1.727zm0-20.724h.863v1.727h-.863v-1.727zm0 214.145h.863v1.727h-.863v-1.727zm0-20.723h.863v1.727h-.863v-1.727zm0-20.724h.863v1.727h-.863v-1.727zm0-20.724h.863v1.727h-.863v-1.727zm0-20.723h.863v1.727h-.863v-1.727zm0-20.724h.863v1.727h-.863v-1.727zm0-20.724h.863v1.727h-.863v-1.727zm0-20.724h.863v1.727h-.863v-1.727zm0-20.723h.863v1.727h-.863v-1.727zm0-20.724h.863v1.727h-.863v-1.727zm0-20.724h.863v1.727h-.863v-1.727zm0 196.876h.863v1.726h-.863v-1.726zm0-20.724h.863v1.727h-.863v-1.727zm0-20.724h.863v1.727h-.863v-1.727zm0-20.724h.863v1.727h-.863v-1.727zm0-20.723h.863v1.727h-.863v-1.727zm0-20.724h.863v1.727h-.863v-1.727zm0-20.724h.863v1.727h-.863v-1.727zm0-20.723h.863v1.727h-.863v-1.727zm0-20.724h.863v1.727h-.863v-1.727zm0-20.724h.863v1.727h-.863v-1.727zm0 193.421h.863v1.727h-.863v-1.727zm0-20.723h.863v1.727h-.863v-1.727zm0-20.724h.863v1.727h-.863v-1.727zm0-20.724h.863v1.727h-.863v-1.727zm0-20.723h.863v1.727h-.863V208.1zm0-20.724h.863v1.727h-.863v-1.727zm0-20.724h.863v1.727h-.863v-1.727zm0-20.724h.863v1.727h-.863v-1.727zm0-20.723h.863v1.727h-.863v-1.727zm0-20.724h.863v1.727h-.863v-1.727zm0-20.724h.863v1.727h-.863v-1.727zm0 196.876h.863v1.727h-.863v-1.727zm0-20.724h.863v1.727h-.863v-1.727zm0-20.724h.863v1.727h-.863v-1.727zm0-20.724h.863v1.727h-.863v-1.727zm0-20.723h.863v1.727h-.863v-1.727zm0-20.724h.863v1.727h-.863v-1.727zm0-20.724h.863v1.727h-.863v-1.727zm0-20.723h.863v1.727h-.863v-1.727zm0-20.724h.863v1.727h-.863v-1.727zm0-20.724h.863v1.727h-.863V94.12zm99.302 183.06h.863v1.727h-.864v-1.727zm0-20.724h.863v1.727h-.864v-1.727zm0-20.724h.863v1.727h-.864v-1.727zm0-20.724h.863v1.727h-.864v-1.727zm0-20.723h.863v1.727h-.864v-1.727zm0-20.724h.863v1.727h-.864v-1.727zm0-20.724h.863v1.727h-.864v-1.727zm0-20.723h.863v1.727h-.864v-1.727zm0-20.724h.863v1.727h-.864v-1.727zm0-20.724h.863v1.727h-.864v-1.727zm0 196.875h.863v1.727h-.864v-1.727zm0-20.723h.863v1.727h-.864v-1.727zm0-20.724h.863v1.727h-.864v-1.727zm0-20.724h.863v1.727h-.864v-1.727zm0-20.723h.863v1.727h-.864v-1.727zm0-20.724h.863v1.727h-.864v-1.727zm0-20.724h.863v1.727h-.864V163.2zm0-20.723h.863v1.726h-.864v-1.726zm0-20.724h.863v1.727h-.864v-1.727zm0-20.724h.863v1.727h-.864v-1.727zm0-20.724h.863v1.727h-.864v-1.727zm0 214.145h.863v1.727h-.864v-1.727zm0-20.723h.863v1.727h-.864v-1.727zm0-20.724h.863v1.727h-.864v-1.727zm0-20.724h.863v1.727h-.864v-1.727zm0-20.723h.863v1.727h-.864v-1.727zm0-20.724h.863v1.727h-.864v-1.727zm0-20.724h.863v1.727h-.864v-1.727zm0-20.724h.863v1.727h-.864v-1.727zm0-20.723h.863v1.727h-.864v-1.727zm0-20.724h.863v1.727h-.864v-1.727zm0-20.724h.863v1.727h-.864v-1.727zm0 196.876h.863v1.726h-.864v-1.726zm0-20.724h.863v1.727h-.864v-1.727zm0-20.724h.863v1.727h-.864v-1.727zm0-20.724h.863v1.727h-.864v-1.727zm0-20.723h.863v1.727h-.864v-1.727zm0-20.724h.863v1.727h-.864v-1.727zm0-20.724h.863v1.727h-.864v-1.727zm0-20.723h.863v1.727h-.864v-1.727zm0-20.724h.863v1.727h-.864v-1.727zm0-20.724h.863v1.727h-.864v-1.727zm0 193.421h.863v1.727h-.864v-1.727zm0-20.723h.863v1.727h-.864v-1.727zm0-20.724h.863v1.727h-.864v-1.727zm0-20.724h.863v1.727h-.864v-1.727zm0-20.723h.863v1.727h-.864V208.1zm0-20.724h.863v1.727h-.864v-1.727zm0-20.724h.863v1.727h-.864v-1.727zm0-20.724h.863v1.727h-.864v-1.727zm0-20.723h.863v1.727h-.864v-1.727zm0-20.724h.863v1.727h-.864v-1.727zm0-20.724h.863v1.727h-.864v-1.727zm0 196.876h.863v1.727h-.864v-1.727zm0-20.724h.863v1.727h-.864v-1.727zm0-20.724h.863v1.727h-.864v-1.727zm0-20.724h.863v1.727h-.864v-1.727zm0-20.723h.863v1.727h-.864v-1.727zm0-20.724h.863v1.727h-.864v-1.727zm0-20.724h.863v1.727h-.864v-1.727zm0-20.723h.863v1.727h-.864v-1.727zm0-20.724h.863v1.727h-.864v-1.727zm0-20.724h.863v1.727h-.864V94.12zm98.437 183.06h.863v1.727h-.863v-1.727zm0-20.724h.863v1.727h-.863v-1.727zm0-20.724h.863v1.727h-.863v-1.727zm0-20.724h.863v1.727h-.863v-1.727zm0-20.723h.863v1.727h-.863v-1.727zm0-20.724h.863v1.727h-.863v-1.727zm0-20.724h.863v1.727h-.863v-1.727zm0-20.723h.863v1.727h-.863v-1.727zm0-20.724h.863v1.727h-.863v-1.727zm0-20.724h.863v1.727h-.863v-1.727zm0 196.875h.863v1.727h-.863v-1.727zm0-20.723h.863v1.727h-.863v-1.727zm0-20.724h.863v1.727h-.863v-1.727zm0-20.724h.863v1.727h-.863v-1.727zm0-20.723h.863v1.727h-.863v-1.727zm0-20.724h.863v1.727h-.863v-1.727zm0-20.724h.863v1.727h-.863V163.2zm0-20.723h.863v1.726h-.863v-1.726zm0-20.724h.863v1.727h-.863v-1.727zm0-20.724h.863v1.727h-.863v-1.727zm0-20.724h.863v1.727h-.863v-1.727zm0 214.145h.863v1.727h-.863v-1.727zm0-20.723h.863v1.727h-.863v-1.727zm0-20.724h.863v1.727h-.863v-1.727zm0-20.724h.863v1.727h-.863v-1.727zm0-20.723h.863v1.727h-.863v-1.727zm0-20.724h.863v1.727h-.863v-1.727zm0-20.724h.863v1.727h-.863v-1.727zm0-20.724h.863v1.727h-.863v-1.727zm0-20.723h.863v1.727h-.863v-1.727zm0-20.724h.863v1.727h-.863v-1.727zm0-20.724h.863v1.727h-.863v-1.727zm0 196.876h.863v1.726h-.863v-1.726zm0-20.724h.863v1.727h-.863v-1.727zm0-20.724h.863v1.727h-.863v-1.727zm0-20.724h.863v1.727h-.863v-1.727zm0-20.723h.863v1.727h-.863v-1.727zm0-20.724h.863v1.727h-.863v-1.727zm0-20.724h.863v1.727h-.863v-1.727zm0-20.723h.863v1.727h-.863v-1.727zm0-20.724h.863v1.727h-.863v-1.727zm0-20.724h.863v1.727h-.863v-1.727zm0 193.421h.863v1.727h-.863v-1.727zm0-20.723h.863v1.727h-.863v-1.727zm0-20.724h.863v1.727h-.863v-1.727zm0-20.724h.863v1.727h-.863v-1.727zm0-20.723h.863v1.727h-.863V208.1zm0-20.724h.863v1.727h-.863v-1.727zm0-20.724h.863v1.727h-.863v-1.727zm0-20.724h.863v1.727h-.863v-1.727zm0-20.723h.863v1.727h-.863v-1.727zm0-20.724h.863v1.727h-.863v-1.727zm0-20.724h.863v1.727h-.863v-1.727zm0 196.876h.863v1.727h-.863v-1.727zm0-20.724h.863v1.727h-.863v-1.727zm0-20.724h.863v1.727h-.863v-1.727zm0-20.724h.863v1.727h-.863v-1.727zm0-20.723h.863v1.727h-.863v-1.727zm0-20.724h.863v1.727h-.863v-1.727zm0-20.724h.863v1.727h-.863v-1.727zm0-20.723h.863v1.727h-.863v-1.727zm0-20.724h.863v1.727h-.863v-1.727zm0-20.724h.863v1.727h-.863V94.12zm97.052-15.549h3.454v219h-3.454z" fill="#C2C2C2"/><path fill="#C2C2C2" d="M0 76.714h622v3.454H0zm0 72.533h622v3.454H0zm0 73.396h622v3.454H0zm0 73.397h622v3.454H0z"/><rect fill="#FF5824" y="79.441" width="27.632" height="69.079" rx="2"/><rect fill="#0FAFD3" y="152.837" width="27.632" height="69.079" rx="2"/><rect fill="#54277C" y="226.234" width="27.632" height="69.079" rx="2"/><rect fill="#C2C2C2" width="108.799" height="22.451" rx="2"/><rect fill="#C2C2C2" x="535.196" width="85.761" height="22.451" rx="2"/><path fill="#717171" d="M608.074 9.11h6.907l-3.37 3.454z"/><rect fill="#C2C2C2" x="56.127" y="45.99" width="43.174" height="15.543" rx="2"/><rect fill="#C2C2C2" x="154.564" y="45.99" width="43.174" height="15.543" rx="2"/><rect fill="#C2C2C2" x="253.002" y="45.99" width="43.174" height="15.543" rx="2"/><rect fill="#C2C2C2" x="352.303" y="45.99" width="43.174" height="15.543" rx="2"/><rect fill="#C2C2C2" x="450.741" y="45.99" width="43.174" height="15.543" rx="2"/><rect fill="#C2C2C2" x="550.042" y="45.99" width="43.174" height="15.543" rx="2"/><path d="M14.567 130.508l-4.343-1.347v-.916l4.343-1.347-4.343-1.52v-1.096l6.035 2.107v1.01l-4.136 1.27v.068l4.136 1.27v1.01l-6.035 2.107v-1.097l4.343-1.52zM10.224 119.1h.958v3.22h1.598v-2.892h.906v2.893h1.615v-3.325h.958v4.344h-6.035v-4.24zm6.035-4.05v2.642h-6.035v-2.348c0-.409.049-.762.146-1.058.098-.297.23-.517.398-.66a1.54 1.54 0 0 1 1.053-.415c.472 0 .823.15 1.054.449.08.11.13.184.15.224.02.04.054.113.1.216.08-.374.249-.672.505-.893.256-.222.574-.333.954-.333.42 0 .792.144 1.114.432.374.34.561.92.561 1.744zm-3.531 1.623v-1.295c0-.737-.25-1.105-.751-1.105-.288 0-.495.09-.622.268-.127.178-.19.454-.19.829v1.303h1.563zm2.59 0v-1.597c0-.374-.059-.66-.177-.86-.118-.198-.34-.297-.669-.297-.535 0-.803.429-.803 1.287v1.467h1.65zm-4.119-6.173c.121.19.304.284.549.284a.638.638 0 0 0 .561-.284c.13-.19.27-.595.419-1.214.15-.618.36-1.085.63-1.399.27-.313.67-.47 1.196-.47.527 0 .954.198 1.282.596.328.397.493.918.493 1.563 0 .944-.326 1.781-.976 2.512l-.769-.639c.53-.61.795-1.243.795-1.9 0-.327-.07-.588-.212-.78a.662.662 0 0 0-.561-.29.63.63 0 0 0-.544.272c-.13.181-.248.494-.354.937-.107.443-.204.78-.294 1.01-.089.23-.206.435-.35.613-.27.357-.684.536-1.243.536-.558 0-.989-.203-1.29-.61-.303-.405-.454-.907-.454-1.506 0-.386.063-.768.19-1.148.127-.38.305-.708.535-.985l.769.544a2.05 2.05 0 0 0-.397.726 2.794 2.794 0 0 0-.156.902c0 .296.06.54.181.73zm-.975-4.344v-1.019h6.035v1.02h-6.035zm.932-4.973h5.103v1.018h-5.103v1.831h-.932v-4.68h.932v1.83zm-.932-7.176h.958v3.22h1.598v-2.892h.906v2.893h1.615v-3.325h.958v4.344h-6.035v-4.24zm6.406 108.762v1.018h-6.035V202.2l3.79-1.822-3.79-1.822v-1.58h6.036v1.018h-4.715l4.188 2.107v.57l-4.188 2.099h4.715zm-5.25-10.259c0 .599.214 1.104.64 1.516a2.15 2.15 0 0 0 1.55.617c.607 0 1.124-.206 1.55-.617.426-.412.639-.917.639-1.516 0-.598-.213-1.104-.64-1.515a2.148 2.148 0 0 0-1.55-.618 2.15 2.15 0 0 0-1.55.618 2.025 2.025 0 0 0-.638 1.515zm5.311 0c0 .898-.298 1.652-.893 2.263-.596.61-1.339.915-2.228.915-.89 0-1.632-.305-2.228-.915-.596-.61-.894-1.365-.894-2.263 0-.898.298-1.652.894-2.262.596-.61 1.338-.915 2.228-.915.89 0 1.632.305 2.228.915.595.61.893 1.364.893 2.262zm-.06-7.106v2.642h-6.036v-2.349c0-.408.049-.76.147-1.057.098-.297.23-.517.397-.661.31-.276.662-.414 1.053-.414.472 0 .824.15 1.054.449.08.109.13.184.151.224.02.04.053.112.1.216.08-.374.248-.672.504-.894.257-.221.575-.332.955-.332.42 0 .791.144 1.114.432.374.34.56.92.56 1.744zm-3.532 1.623v-1.295c0-.737-.25-1.105-.751-1.105-.288 0-.495.089-.622.267-.126.179-.19.455-.19.83v1.303H13.1zm2.59 0v-1.597c0-.374-.058-.66-.176-.86-.118-.198-.342-.297-.67-.297-.535 0-.803.428-.803 1.286v1.468h1.65zm-5.094-5.077v-1.02h6.036v1.02h-6.036zm6.036-2.694h-6.036v-1.02h5.069v-2.754h.967v3.774zm-6.036-9.127h.958v3.22h1.598v-2.892h.907v2.893h1.614v-3.325h.959v4.343h-6.036v-4.24zm.341 109.853c.351-.42.892-.63 1.623-.63.732 0 1.267.214 1.607.643.34.428.509 1.086.509 1.973v1.07h1.77v1.02H10.41v-2.073c0-.915.176-1.583.527-2.003zm2.491.72c-.216-.204-.532-.306-.95-.306-.417 0-.712.13-.885.389-.172.259-.259.665-.259 1.217v1.036h2.418v-1.183c0-.564-.108-.948-.324-1.152zm3.018-2.551H10.41v-1.019h5.069v-2.754h.967v3.773zm-1.373-5.742l1.373.604v1.088l-6.036-2.66v-1.087l6.036-2.66v1.088l-1.373.605v3.022zm-.941-2.608l-2.487 1.097 2.487 1.096v-2.193zm-2.79-4.75h5.104v1.02h-5.103v1.83h-.933v-4.68h.933v1.83zm.018-3.954h1.658v-2.677h.941v2.677h2.487v1.02H10.41v-4.025l.95.009v2.996zm-.164-6.985c0 .598.213 1.103.64 1.515.425.412.942.617 1.55.617.606 0 1.123-.205 1.549-.617.426-.412.639-.917.639-1.515 0-.6-.213-1.104-.639-1.516a2.148 2.148 0 0 0-1.55-.617c-.607 0-1.124.206-1.55.617a2.025 2.025 0 0 0-.639 1.516zm5.31 0c0 .898-.297 1.652-.893 2.262-.596.61-1.339.915-2.228.915-.89 0-1.632-.305-2.228-.915-.596-.61-.893-1.364-.893-2.262 0-.899.297-1.653.893-2.263.596-.61 1.339-.915 2.228-.915.89 0 1.632.305 2.228.915.596.61.894 1.364.894 2.263zm-4.136-9.283c.996 0 1.624.435 1.883 1.304l2.193-1.58v1.295l-2.03 1.442v1.338h2.03v1.02H10.41v-2.246c0-.92.156-1.58.467-1.977.31-.397.808-.596 1.493-.596zm.855 1.356c-.178-.208-.465-.311-.859-.311-.394 0-.665.106-.812.32-.146.212-.22.592-.22 1.14v1.294h2.159v-1.269c0-.576-.09-.967-.268-1.174zm3.221-3.843v1.02H10.41v-1.59l3.791-1.822-3.79-1.822v-1.58h6.035v1.02H11.73l4.188 2.106v.57l-4.188 2.098h4.715z" fill="#E1E4E8"/><rect fill="#F5B39F" x="32.813" y="87.349" width="194.285" height="24.178" rx="2"/><rect fill="#F5B39F" x="232.278" y="87.349" width="382.847" height="24.178" rx="2"/><rect fill="#8ECEDD" x="193.421" y="160.745" width="71.669" height="24.178" rx="2"/><rect fill="#8ECEDD" x="270.272" y="160.745" width="128.66" height="24.178" rx="2"/><rect fill="#8E6EAA" x="164.926" y="234.142" width="128.66" height="24.178" rx="2"/><rect fill="#8ECEDD" x="404.112" y="160.745" width="211.013" height="24.178" rx="2"/><rect fill="#F5B39F" x="204.647" y="117.571" width="272.074" height="24.178" rx="2"/><rect fill="#8ECEDD" x="324.947" y="190.967" width="290.178" height="24.178" rx="2"/><rect fill="#8E6EAA" x="296.176" y="264.364" width="85.485" height="24.178" rx="2"/><rect fill="#8E6EAA" x="389.44" y="264.043" width="80.595" height="24.178" rx="2"/><rect fill="#F5B39F" x="483.954" y="117.149" width="131.171" height="24.178" rx="2"/><rect fill="#8ECEDD" x="72.533" y="190.967" width="152.617" height="24.178" rx="2"/><rect fill="#8E6EAA" x="489.647" y="264.043" width="125.478" height="24.178" rx="2"/><g transform="translate(96 78)" fill="#6EBE15"><rect x="14" width="4" height="228.083" rx="2"/><path d="M3.7 242.45H0V234h3.288c.572 0 1.066.069 1.481.206.415.137.727.322.937.556.379.435.568.926.568 1.474 0 .661-.213 1.153-.64 1.475a2.309 2.309 0 0 1-.303.212 8.577 8.577 0 0 1-.302.139c.524.113.94.348 1.251.707.31.359.466.804.466 1.336 0 .588-.202 1.108-.605 1.56-.467.523-1.281.785-2.442.785zm-1.814-5.029h.894c.524 0 .913-.056 1.167-.17.254-.112.38-.356.38-.73 0-.375-.116-.623-.35-.744-.233-.12-.628-.181-1.184-.181h-.907v1.825zm0 3.433h1.293c.54 0 .945-.066 1.215-.2.27-.132.405-.394.405-.785 0-.39-.143-.649-.429-.774-.286-.124-.743-.187-1.372-.187H1.886v1.946zM14.422 234v1.68h-4.207v1.741H14v1.608h-3.784v1.753h4.34v1.668H8.329V234h6.093zm5.392 1.632v6.818h-1.886v-6.818h-2.394V234h6.673v1.632h-2.393zm9.175 6.818l-.786-1.825h-3.542l-.786 1.825H21.87l3.65-8.45h1.826l3.65 8.45H28.99zm-2.55-5.936l-1.065 2.455h2.116l-1.052-2.455z"/></g></g></g></svg>