<svg xmlns="http://www.w3.org/2000/svg" width="60" height="41" viewBox="0 0 60 41"><path fill="#E9E9E9" fill-rule="evenodd" d="M20.14 17.496c3.798 2.44 5.696 5.73 5.696 9.866 0 4.137-1.22 7.392-3.661 9.765-2.442 2.374-5.493 3.56-9.155 3.56-3.662 0-6.747-1.153-9.256-3.458C1.254 34.923 0 31.906 0 28.176c0-3.73 1.22-7.358 3.662-10.884L15.665 0h12.41L20.14 17.496zm31.126 0c3.797 2.44 5.696 5.73 5.696 9.866 0 4.137-1.22 7.392-3.662 9.765-2.44 2.374-5.492 3.56-9.154 3.56s-6.748-1.153-9.257-3.458c-2.509-2.306-3.763-5.323-3.763-9.053 0-3.73 1.22-7.358 3.662-10.884L46.79 0H59.2l-7.934 17.496z"/></svg>