<svg width="152" height="278" viewBox="0 0 152 278" xmlns="http://www.w3.org/2000/svg"><title>Artboard 4</title><defs><linearGradient x1="68.354%" y1="1.793%" x2="50%" y2="100%" id="a"><stop stop-color="#0F2085" offset="0%"/><stop stop-color="#61DAFB" offset="100%"/></linearGradient></defs><g transform="translate(1 1)" fill="none" fill-rule="evenodd"><rect fill="#333" width="150.852" height="276.859" rx="18"/><path fill="url(#a)" d="M6.286 34.607h138.281v204.498H6.286z"/><path d="M50.284 25.169a3.144 3.144 0 0 0 3.143-3.146 3.144 3.144 0 0 0-3.143-3.146 3.144 3.144 0 0 0-3.143 3.146 3.144 3.144 0 0 0 3.143 3.146zM76.998 267.42c6.075 0 11-4.93 11-11.011 0-6.082-4.925-11.012-11-11.012s-11 4.93-11 11.012c0 6.081 4.925 11.011 11 11.011z" fill="#5F6268"/><rect fill="#5F6268" x="59.712" y="18.877" width="31.428" height="3.146" rx="1.573"/><rect fill="#5F6268" x="65.998" y="9.438" width="18.857" height="3.146" rx="1.573"/><g transform="translate(12.423 79.272)" fill-rule="nonzero" fill="#FFF"><path d="M124.055 55.017c0-8.183-10.277-15.939-26.033-20.748 3.636-16.014 2.02-28.755-5.1-32.834C91.28.478 89.36.025 87.264.025V5.64c1.162 0 2.096.227 2.879.655 3.434 1.964 4.923 9.442 3.762 19.06-.278 2.367-.732 4.86-1.288 7.403-4.949-1.208-10.353-2.14-16.034-2.744-3.409-4.658-6.944-8.889-10.504-12.59 8.232-7.63 15.958-11.809 21.21-11.809V0c-6.944 0-16.034 4.935-25.225 13.496C52.875 4.986 43.784.101 36.84.101v5.615c5.227 0 12.979 4.154 21.21 11.733a119 119 0 0 0-10.428 12.565c-5.707.604-11.11 1.536-16.06 2.77a75.77 75.77 0 0 1-1.312-7.303c-1.187-9.618.278-17.096 3.686-19.085.758-.454 1.743-.655 2.904-.655V.126c-2.12 0-4.04.453-5.706 1.41-7.096 4.079-8.686 16.795-5.025 32.758C10.403 39.13.177 46.86.177 55.017c0 8.183 10.277 15.938 26.033 20.748-3.636 16.014-2.02 28.754 5.1 32.833 1.642.957 3.56 1.41 5.682 1.41 6.944 0 16.034-4.935 25.225-13.496 9.19 8.51 18.281 13.396 25.225 13.396 2.12 0 4.04-.454 5.706-1.41 7.096-4.08 8.686-16.795 5.025-32.759 15.655-4.809 25.882-12.564 25.882-20.722zM91.179 38.222c-.934 3.248-2.096 6.597-3.409 9.946a119.058 119.058 0 0 0-3.308-6.043c-1.161-2.014-2.399-3.978-3.636-5.892 3.586.529 7.045 1.183 10.353 1.99zM79.614 65.038c-1.97 3.4-3.99 6.622-6.085 9.619a131.75 131.75 0 0 1-11.413.503c-3.813 0-7.626-.176-11.363-.478a138.748 138.748 0 0 1-6.11-9.568 131.025 131.025 0 0 1-5.253-10.022 131.169 131.169 0 0 1 5.227-10.046c1.97-3.4 3.99-6.622 6.086-9.619a131.75 131.75 0 0 1 11.413-.503c3.813 0 7.625.176 11.362.478a138.748 138.748 0 0 1 6.11 9.568 131.025 131.025 0 0 1 5.253 10.022 140.837 140.837 0 0 1-5.227 10.046zm8.156-3.273a107.703 107.703 0 0 1 3.485 10.021 113.609 113.609 0 0 1-10.404 2.015c1.238-1.94 2.475-3.928 3.636-5.968a142.894 142.894 0 0 0 3.283-6.068zM62.166 88.63c-2.348-2.417-4.696-5.111-7.02-8.057 2.273.1 4.596.176 6.944.176 2.374 0 4.722-.05 7.02-.176a98.358 98.358 0 0 1-6.944 8.057zM43.38 73.801c-3.586-.53-7.045-1.184-10.353-1.99.935-3.248 2.096-6.597 3.41-9.945a119.058 119.058 0 0 0 3.307 6.043A166.682 166.682 0 0 0 43.38 73.8zm18.66-52.399c2.348 2.418 4.697 5.112 7.02 8.058a156.75 156.75 0 0 0-6.944-.176c-2.374 0-4.722.05-7.02.176a98.358 98.358 0 0 1 6.944-8.058zM43.355 36.233c-1.238 1.939-2.475 3.928-3.636 5.968a142.112 142.112 0 0 0-3.283 6.043 107.703 107.703 0 0 1-3.484-10.022c3.307-.78 6.792-1.46 10.403-1.989zM20.503 67.758c-8.938-3.803-14.72-8.788-14.72-12.741 0-3.953 5.782-8.964 14.72-12.74 2.172-.933 4.545-1.763 6.995-2.544 1.439 4.935 3.333 10.072 5.68 15.334-2.322 5.237-4.19 10.349-5.605 15.259a76.845 76.845 0 0 1-7.07-2.568zm13.585 35.98c-3.434-1.963-4.924-9.441-3.762-19.06.277-2.367.732-4.86 1.287-7.403 4.95 1.209 10.353 2.14 16.034 2.745 3.41 4.658 6.944 8.888 10.504 12.59-8.231 7.629-15.958 11.809-21.21 11.809-1.136-.026-2.096-.252-2.853-.68zm59.894-19.186c1.186 9.619-.278 17.097-3.687 19.086-.757.453-1.742.655-2.904.655-5.227 0-12.978-4.155-21.21-11.734a119 119 0 0 0 10.428-12.564c5.707-.605 11.11-1.536 16.06-2.77.58 2.543 1.035 4.985 1.313 7.327zm9.721-16.794c-2.172.931-4.545 1.762-6.994 2.543-1.44-4.936-3.333-10.072-5.682-15.335 2.323-5.237 4.192-10.348 5.606-15.258 2.5.78 4.873 1.636 7.095 2.568 8.939 3.802 14.721 8.788 14.721 12.74-.025 3.954-5.807 8.965-14.746 12.742z"/><ellipse cx="62.09" cy="55.017" rx="11.539" ry="11.507"/></g><path d="M65.998 0h65.854c10.494 0 19 8.507 19 19v220.105h-18.917L65.998 0z" fill="#FFF" opacity=".102"/><circle fill="#000" cx="34.607" cy="49.988" r="1"/><circle fill="#FFF" cx="65.961" cy="71.285" r="1"/><circle fill="#7A2DBD" cx="126.302" cy="49.397" r="1.479"/><circle fill="#000" cx="65.961" cy="201.432" r="1"/><circle fill="#FFF" cx="53.538" cy="222.729" r="1"/><circle fill="#000" cx="20.409" cy="223.321" r="1"/><circle fill="#000" cx="108.85" cy="201.137" r="1"/></g></svg>