<svg width="1440" height="562" viewBox="0 0 1440 562" xmlns="http://www.w3.org/2000/svg" xmlns:xlink="http://www.w3.org/1999/xlink"><title>Artboard</title><defs><path id="a" d="M0 0h1440v562H0z"/></defs><g fill="none" fill-rule="evenodd"><mask id="b" fill="#fff"><use xlink:href="#a"/></mask><use fill="#3DA2BE" xlink:href="#a"/><g mask="url(#b)" stroke="#1B7E99" stroke-width="1.5"><path d="M12.862 586.409H157.83s-27.71-126.48 64.043-177.697c20.002-9.73 83.678-46.077 187.908 31.023 3.303-2.753 6.423-4.956 6.423-4.956s-95.422-95.274-201.671-84.626c-53.584 4.772-119.278 53.419-157.814 117.669-38.536 64.25-43.857 118.587-43.857 118.587zM314.91 360.433l.734-12.3c-1.652-.918-6.24-3.12-17.8-6.425l-.734 12.116c6.055 2.02 11.927 4.222 17.8 6.609z"/><path d="M297.46 399.472l-.734 11.565c6.056.184 12.112.918 18.167 2.203l.734-11.381c-6.239-1.285-12.294-2.02-18.167-2.387zm-67.896-57.274h1.835L227.729 331c-5.689 0-11.561.367-17.617 1.101l3.487 10.831c5.322-.55 10.643-.734 15.965-.734zm8.808 67.554l4.22 12.667c5.322-2.57 10.644-4.773 15.966-6.425l-4.038-12.116c-6.239 1.836-11.56 3.855-16.148 5.874zm-83.31-48.28l-8.259-12.666c-4.587 2.387-9.358 4.957-14.313 7.894l8.441 12.85c4.771-2.937 9.359-5.69 14.13-8.077zm37.617 82.608l8.809 13.217c3.12-4.59 6.79-8.811 10.826-13.033l-8.257-12.483a101.542 101.542 0 0 0-11.378 12.299zm-26.608 59.11l14.864 11.749a146.652 146.652 0 0 1 3.854-21.478l-13.213-10.464c-2.385 6.792-4.037 13.584-5.505 20.193zm-80.375-87.196l-13.028-11.382c-4.771 4.59-9.359 9.179-13.58 13.768l14.13 12.116c3.854-4.957 8.074-9.913 12.478-14.502zM30.278 498.05l-21.103-7.71C5.69 498.234 1.835 507.412 0 512.369l21.103 7.71c2.386-6.242 6.24-15.237 9.175-22.029zm133.04 51.767c.368 9.73 1.285 17.623 2.203 23.13l22.02 7.894c-1.651-7.16-3.303-15.237-4.404-23.865l-19.818-7.159z"/></g><g mask="url(#b)" stroke="#1B7E99" stroke-width="1.5"><path d="M282.425 665.52h117.504s-22.46-102.766 51.91-144.38c16.213-7.904 67.826-37.436 152.31 25.208 2.677-2.238 5.206-4.028 5.206-4.028s-77.345-77.41-163.465-68.758c-43.432 3.877-96.68 43.403-127.916 95.606-31.236 52.203-35.55 96.352-35.55 96.352zM527.25 481.914l.595-9.993c-1.338-.746-5.057-2.536-14.427-5.22l-.595 9.844a238.4 238.4 0 0 1 14.427 5.369z"/><path d="M513.107 513.634l-.595 9.396c4.908.15 9.817.746 14.725 1.79l.595-9.247c-5.057-1.044-9.965-1.641-14.725-1.94zm-55.034-46.536h1.488L456.586 458c-4.611 0-9.37.298-14.28.895l2.827 8.8c4.313-.448 8.627-.597 12.94-.597zm7.14 54.888l3.42 10.292c4.314-2.089 8.628-3.878 12.941-5.22l-3.272-9.845a107.723 107.723 0 0 0-13.09 4.773zm-67.528-39.227l-6.693-10.291c-3.719 1.939-7.586 4.027-11.602 6.413l6.842 10.44c3.867-2.386 7.586-4.623 11.453-6.562zm30.492 67.118l7.14 10.74c2.528-3.73 5.503-7.16 8.775-10.59l-6.693-10.143a82.427 82.427 0 0 0-9.222 9.994zm-21.568 48.027l12.048 9.546a119.413 119.413 0 0 1 3.124-17.45l-10.71-8.502c-1.933 5.518-3.272 11.037-4.462 16.406zm-65.148-70.847l-10.56-9.247c-3.867 3.729-7.586 7.457-11.007 11.186l11.453 9.844c3.124-4.027 6.545-8.054 10.114-11.783zm-44.919 66.671l-17.105-6.264c-2.826 6.413-5.95 13.87-7.437 17.898l17.105 6.264c1.934-5.07 5.057-12.38 7.437-17.898zm107.836 42.06c.298 7.906 1.041 14.32 1.785 18.794l17.849 6.414c-1.339-5.817-2.677-12.38-3.57-19.39l-16.064-5.817z"/></g><g mask="url(#b)" stroke="#1B7E99" stroke-width="1.5"><path d="M746.247 600.795h295.847s-56.548-257.902 130.697-362.336c40.82-19.838 170.767-93.952 383.477 63.26 6.741-5.615 13.107-10.107 13.107-10.107s-194.734-194.269-411.564-172.559c-109.35 9.733-243.418 108.926-322.06 239.935-78.643 131.01-89.504 241.807-89.504 241.807zm616.41-460.78l1.498-25.08c-3.37-1.87-12.733-6.362-36.325-13.1l-1.498 24.705c12.358 4.117 24.342 8.609 36.325 13.475z"/><path d="M1327.048 219.619l-1.498 23.582c12.358.374 24.716 1.871 37.074 4.492l1.498-23.208c-12.733-2.62-25.09-4.117-37.074-4.866zm-138.562-116.786h3.745L1184.741 80c-11.609 0-23.592.749-35.95 2.246l7.115 22.084c10.86-1.123 21.72-1.497 32.58-1.497zm17.976 137.748l8.613 25.827c10.86-5.24 21.72-9.732 32.58-13.1l-8.238-24.705c-12.733 3.743-23.593 7.86-32.955 11.978zm-170.018-98.445l-16.852-25.828c-9.363 4.866-19.1 10.107-29.21 16.096l17.226 26.202c9.737-5.99 19.099-11.604 28.836-16.47zm76.77 168.441l17.976 26.95c6.366-9.357 13.856-17.966 22.094-26.575l-16.852-25.454c-8.613 7.86-16.477 16.47-23.218 25.08zm-54.301 120.53l30.334 23.955c1.498-14.598 4.12-29.196 7.864-43.794l-26.963-21.336c-4.869 13.85-8.24 27.699-11.235 41.174zm-164.026-177.8l-26.59-23.207c-9.736 9.358-19.098 18.715-27.711 28.073l28.835 24.705c7.865-10.106 16.478-20.213 25.466-29.57zM781.79 420.625l-43.067-15.72C731.61 421 723.744 439.714 720 449.821l43.066 15.721c4.869-12.727 12.733-31.068 18.725-44.918zm271.505 105.557c.749 19.838 2.621 35.934 4.494 47.163l44.938 16.096c-3.37-14.598-6.74-31.068-8.987-48.66l-40.445-14.6z"/></g></g></svg>