<svg width="90" height="90" viewBox="0 0 90 90" xmlns="http://www.w3.org/2000/svg"><title>E4C81B09-D9CD-442C-83ED-306B208113E9</title><g fill="#4A4A4A" fill-rule="evenodd"><path d="M75.4 60.2c-.3-.3-.8-.3-1.1 0-.3.3-.3.8 0 1.1l1.6 1.6c.1.1.3.2.5.2s.4-.1.5-.2c.3-.3.3-.8 0-1.1l-1.5-1.6zM82.1 66.9l-1.6-1.6c-.3-.3-.8-.3-1.1 0-.3.3-.3.8 0 1.1L81 68c.1.1.3.2.5.2s.4-.1.5-.2c.4-.4.4-.8.1-1.1zM75.9 65.3l-1.6 1.6c-.3.3-.3.8 0 1.1.1.1.3.2.5.2s.4-.1.5-.2l1.6-1.6c.3-.3.3-.8 0-1.1-.2-.3-.7-.3-1 0zM81 60.2l-1.6 1.6c-.3.3-.3.8 0 1.1.1.1.3.2.5.2s.4-.1.5-.2l1.6-1.6c.3-.3.3-.8 0-1.1-.2-.3-.7-.3-1 0zM5.8 76.3c-.3-.3-.8-.3-1.1 0-.3.3-.3.8 0 1.1L6.3 79c.1.1.3.2.5.2s.4-.1.5-.2c.3-.3.3-.8 0-1.1l-1.5-1.6zM10.9 81.4c-.3-.3-.8-.3-1.1 0-.3.3-.3.8 0 1.1l1.6 1.5c.1.1.3.2.5.2s.4-.1.5-.2c.3-.3.3-.8 0-1.1l-1.5-1.5zM6.3 81.4L4.7 83c-.3.3-.3.8 0 1.1.1.1.3.2.5.2s.4-.1.5-.2l1.6-1.6c.3-.3.3-.8 0-1.1-.2-.3-.7-.3-1 0zM11.4 76.3l-1.6 1.6c-.3.3-.3.8 0 1.1.1.1.3.2.5.2s.4-.1.5-.2l1.6-1.6c.3-.3.3-.8 0-1.1-.3-.3-.7-.3-1 0zM50.9 16.5c2.1 0 3.8-1.7 3.8-3.8 0-2.1-1.7-3.9-3.8-3.9-2.1 0-3.8 1.7-3.8 3.8 0 2.1 1.7 3.9 3.8 3.9zm0-6.2c1.3 0 2.3 1 2.3 2.3 0 1.3-1 2.3-2.3 2.3-1.3 0-2.3-1-2.3-2.3 0-1.3 1.1-2.3 2.3-2.3zM17.3 7.2h13.4c.4 0 .8-.3.8-.8 0-.4-.3-.8-.8-.8H17.3c-.4 0-.8.3-.8.8s.4.8.8.8zM8.6 7.2h4.3c.4 0 .8-.3.8-.8 0-.4-.3-.8-.8-.8H8.6c-.4 0-.8.3-.8.8s.4.8.8.8zM18.6 11.1c0-.4-.3-.8-.8-.8H8.6c-.4 0-.8.3-.8.8 0 .4.3.8.8.8h9.3c.4-.1.7-.4.7-.8zM21.9 10.3c-.4 0-.8.3-.8.8 0 .4.3.8.8.8h3c.4 0 .8-.3.8-.8 0-.4-.3-.8-.8-.8h-3z"/><path d="M58.5 71.1l.5-.5c1.6-1.6 2.9-3.4 4-5.3.5-.9 1-1.8 1.4-2.8.1-.1.1-.2.1-.3v-.1c1.4-3.4 2.2-7.1 2.2-10.8 0-3.6-.7-7.1-2.1-10.4-.7-1.7-1.6-3.4-2.6-4.9-.2-.3-.7-.4-1-.2-.3.2-.4.7-.2 1 1 1.5 1.8 3 2.5 4.6 1.3 3.1 1.9 6.5 2 9.8 0 3.5-.7 6.9-2 10.2l-.1.1c0 .1-.1.2-.1.3-.4 1-.9 1.9-1.4 2.7-1.1 1.8-2.3 3.5-3.8 5-.1.2-.3.3-.4.5-.5.5-1.1 1-1.7 1.5-2 1.7-4.3 3-6.7 4-3.1 1.3-6.4 1.9-9.8 2h-.1c-3.5 0-6.9-.7-10.1-2-3.3-1.4-6.1-3.3-8.6-5.8-2.4-2.4-4.2-5.2-5.5-8.4-1.3-3.1-1.9-6.5-2-9.8 0-3.5.7-6.9 2-10.2 1-2.4 2.3-4.6 3.9-6.5.6-.7 1.2-1.4 1.9-2.1 1.5-1.5 3.2-2.8 5-3.8.8-.5 1.7-1 2.7-1.4l.6-.3c3.2-1.3 6.5-1.9 9.8-1.9 3.5 0 6.9.7 10.2 2 3.1 1.3 5.8 3.1 8.2 5.5L53.1 37c-1.8-1.8-3.9-3.2-6.3-4.2-2.5-1.1-5.2-1.6-7.9-1.6-1.8 0-3.5.2-5.2.7-.8.2-1.6.5-2.4.8-.3.1-.5.2-.8.3-2.1 1-4 2.2-5.6 3.8l-.1.1c-.7.7-1.4 1.4-2 2.2-1 1.4-1.9 2.9-2.6 4.5-1.1 2.5-1.6 5.2-1.6 7.9 0 2.6.5 5.2 1.5 7.6 1 2.4 2.4 4.6 4.3 6.5 1.9 1.9 4.1 3.5 6.7 4.5 2.5 1.1 5.1 1.6 7.8 1.6h.1c2.6 0 5.2-.5 7.6-1.5 1.7-.7 3.2-1.6 4.6-2.6.6-.5 1.2-1 1.9-1.6.2-.1.3-.3.4-.4 1.6-1.6 2.9-3.5 3.8-5.6l.3-.6c.4-.8.6-1.7.9-2.6.5-1.7.7-3.5.7-5.3 0-2.6-.5-5.2-1.5-7.6-.2-.5-.4-.9-.6-1.3-.2-.4-.4-.8-.6-1.1-.2-.4-.7-.5-1-.3-.4.2-.5.7-.3 1 .2.4.4.7.6 1.1.2.4.4.8.6 1.3.9 2.3 1.4 4.6 1.4 7.1 0 1.6-.2 3.3-.7 4.9-.2.8-.5 1.6-.8 2.4-.1.2-.2.4-.2.5-.9 1.9-2.1 3.7-3.6 5.2-.1.1-.2.3-.4.4-.6.6-1.2 1.1-1.7 1.5-1.3 1-2.7 1.8-4.3 2.5-2.3.9-4.6 1.4-7.1 1.4h-.1c-2.5 0-4.9-.5-7.2-1.5s-4.4-2.4-6.2-4.2c-1.7-1.7-3-3.7-3.9-6-.9-2.2-1.4-4.6-1.4-7.1s.5-5 1.5-7.3c.6-1.5 1.4-2.9 2.4-4.1.5-.7 1.1-1.4 1.8-2l.1-.1c1.5-1.5 3.3-2.7 5.2-3.6.2-.1.5-.2.7-.3.8-.3 1.5-.6 2.2-.7 1.6-.4 3.2-.6 4.8-.7 2.5 0 5 .5 7.3 1.5 2.2.9 4.1 2.2 5.8 3.9L48.3 42c-1.2-1.2-2.6-2.1-4.1-2.7-1.3-.6-2.7-.9-4.1-1H39c-1 0-2 .1-2.9.3-.7.2-1.4.4-2.1.7-1.6.6-3 1.5-4.2 2.8l-.1.1c-.7.7-1.4 1.5-1.9 2.3-.5.7-.8 1.4-1.2 2.2-.7 1.7-1.1 3.4-1.1 5.3 0 1.7.3 3.4 1 5.1.7 1.6 1.6 3.1 2.8 4.3 1.3 1.3 2.8 2.3 4.4 3 1.7.7 3.4 1.1 5.2 1.1 1.7 0 3.5-.3 5.1-1 .8-.3 1.5-.7 2.2-1.2h.1c.7-.5 1.4-1 2-1.6l.4-.4c1.1-1.2 2-2.5 2.7-4.1.3-.7.5-1.5.7-2.2.2-1 .3-2 .3-3v-1.1c-.1-1.4-.4-2.8-1-4-.2-.4-.6-.6-1-.4-.4.2-.6.6-.4 1 .5 1.1.7 2.3.9 3.6v1c0 .9-.1 1.8-.3 2.7-.2.7-.4 1.3-.6 2-.6 1.3-1.4 2.6-2.4 3.6l-.3.3c-.5.5-1.1 1-1.8 1.4h-.1c-.6.4-1.3.8-2 1.1-1.5.6-3 .9-4.5.9h-.1c-1.6 0-3.1-.3-4.6-.9-1.5-.6-2.8-1.5-3.9-2.7-1.1-1.1-1.9-2.4-2.5-3.8-.6-1.5-.9-3-.9-4.5 0-1.6.3-3.2.9-4.7.3-.7.6-1.3 1-1.9.4-.7 1-1.4 1.7-2.1l.1-.1c1.1-1 2.3-1.8 3.7-2.4.6-.3 1.2-.4 1.9-.6.8-.2 1.7-.3 2.6-.3h1c1.2.1 2.5.4 3.7.9 1.4.6 2.6 1.4 3.7 2.4L42.6 48c-.7-.6-1.5-.9-2.4-1.1-2.9-.6-5.8 1-6.9 3.7-.3.7-.4 1.5-.4 2.2 0 3.3 2.7 6 6 6 .8 0 1.5-.1 2.2-.4 1.9-.7 3.3-2.4 3.7-4.4.1-.4-.2-.8-.6-.9-.4-.1-.8.2-.9.6-.3 1.5-1.3 2.7-2.8 3.3-.5.2-1.1.3-1.7.3-2.5 0-4.5-2-4.5-4.5 0-.6.1-1.1.3-1.7.8-2 2.9-3.2 5.2-2.8.6.1 1.2.4 1.7.7l-3.2 3.2c-.3.3-.3.8 0 1.1.1.1.3.2.5.2s.4-.1.5-.2l27.9-27.9 6.8 1.3h.1c.2 0 .4-.1.5-.2L86 15.1c.2-.2.3-.5.2-.8-.1-.3-.3-.5-.6-.5l-6.7-1.3-1.3-6.7c-.1-.3-.3-.5-.5-.6-.3-.1-.6 0-.8.2L65.4 16.1c-.2.2-.3.4-.2.7l1.3 6.8-8 8c-2.5-2.5-5.4-4.4-8.7-5.8-3.5-1.4-7.1-2.2-10.8-2.2-3.6 0-7.1.7-10.4 2.1-.2.1-.5.2-.7.3-1 .4-1.9.9-2.8 1.4-1.9 1.1-3.7 2.5-5.3 4.1-.7.7-1.4 1.5-2 2.2-1.7 2-3.1 4.3-4.2 6.9-1.4 3.4-2.2 7.1-2.2 10.8 0 3.6.7 7.1 2.1 10.4 1.4 3.3 3.3 6.3 5.8 8.9 2.6 2.7 5.6 4.7 9.1 6.2 3.4 1.4 7 2.2 10.7 2.2h.1c3.6 0 7.1-.7 10.4-2.1 2.6-1.1 5-2.5 7.1-4.2.6-.6 1.2-1.1 1.8-1.7zM76.9 6.7l1.2 5.8c.1.3.3.5.6.6l5.8 1.2-10.2 10.1-6.3-1.2-1.3-6.3L76.9 6.7z"/></g></svg>