<svg width="90" height="90" viewBox="0 0 90 90" xmlns="http://www.w3.org/2000/svg"><title>B764EABA-A3E5-49E0-AE5D-28D5FE15A977</title><g fill="#4A4A4A" fill-rule="evenodd"><path d="M65.826 69.132c-.198-.2-.528-.2-.66 0-.2.2-.2.531 0 .664l1.123 1.129a.504.504 0 0 0 .33.132.504.504 0 0 0 .331-.132c.199-.2.199-.532 0-.664l-1.124-1.129zM70.124 74.643a.504.504 0 0 0 .33-.133c.199-.2.199-.531 0-.664l-1.123-1.129c-.199-.199-.53-.199-.662 0-.198.2-.198.531 0 .664l1.124 1.129a.504.504 0 0 0 .331.133zM66.223 72.65L65.1 73.78c-.198.199-.198.53 0 .663a.504.504 0 0 0 .33.133.504.504 0 0 0 .331-.133l1.124-1.128c.199-.2.199-.531 0-.664-.198-.2-.463-.2-.66 0zM69.793 69.132l-1.124 1.129c-.198.199-.198.53 0 .664a.504.504 0 0 0 .331.132.504.504 0 0 0 .33-.132l1.125-1.13c.198-.198.198-.53 0-.663-.199-.133-.463-.2-.662 0zM15.71 78.029c-.198-.2-.528-.2-.66 0-.199.199-.199.53 0 .664l1.124 1.128a.504.504 0 0 0 .33.133.504.504 0 0 0 .33-.133c.2-.199.2-.53 0-.664l-1.123-1.128zM19.281 81.548c-.198-.2-.529-.2-.661 0-.199.199-.199.53 0 .663l1.124 1.13a.504.504 0 0 0 .33.132.504.504 0 0 0 .331-.133c.198-.199.198-.531 0-.664l-1.124-1.128zM16.107 81.548l-1.124 1.128c-.198.2-.198.531 0 .664a.504.504 0 0 0 .331.133.504.504 0 0 0 .33-.133l1.125-1.129c.198-.199.198-.53 0-.663-.133-.2-.463-.2-.662 0zM19.678 78.029l-1.124 1.128c-.199.2-.199.532 0 .664a.504.504 0 0 0 .33.133.504.504 0 0 0 .33-.133l1.125-1.128c.198-.2.198-.532 0-.664-.199-.2-.463-.2-.661 0zM9.562 8.98a.504.504 0 0 0 .33.132.504.504 0 0 0 .331-.132c.198-.2.198-.532 0-.664L9.1 7.186c-.198-.198-.529-.198-.661 0-.198.2-.198.532 0 .665L9.562 8.98zM13.132 12.498a.504.504 0 0 0 .33.133.504.504 0 0 0 .331-.133c.199-.199.199-.53 0-.664l-1.124-1.128c-.198-.2-.529-.2-.66 0-.2.199-.2.53 0 .664l1.123 1.128zM8.835 12.698a.504.504 0 0 0 .33-.133l1.124-1.129c.199-.2.199-.531 0-.664-.198-.199-.529-.199-.66 0l-1.125 1.129c-.198.199-.198.531 0 .664a.504.504 0 0 0 .33.133zM12.339 9.112a.504.504 0 0 0 .33-.132l1.124-1.13c.199-.198.199-.53 0-.663-.198-.2-.529-.2-.66 0l-1.125 1.129c-.198.199-.198.53 0 .664.132.066.265.132.33.132zM79.182 83.54h-9.653c-.265 0-.463.199-.463.464 0 .266.198.465.463.465h9.653c.264 0 .463-.2.463-.465.066-.265-.199-.465-.463-.465zM73.231 80.684c0 .266.199.465.463.465h2.182c.264 0 .463-.199.463-.465a.453.453 0 0 0-.463-.464h-2.182c-.264 0-.463.199-.463.464zM56.438 71.655c-.529-.066-1.058.066-1.388.398-.53.465-1.653.797-2.645.797s-2.116-.332-2.645-.797a1.808 1.808 0 0 0-1.388-.398 2.04 2.04 0 0 0-1.322.73c-.728.93-.992 2.258-.926 3.917l.264 4.449c0 .265.199.465.463.465h11.042c.264 0 .462-.2.462-.465l.265-4.449c.132-1.66-.199-2.987-.926-3.917a1.416 1.416 0 0 0-1.256-.73zm1.256 4.581l-.264 3.984H47.314l-.264-3.984c-.067-1.46.132-2.523.727-3.253.132-.2.397-.332.661-.332s.529.066.661.199c.86.73 2.248.996 3.306.996 1.058 0 2.446-.332 3.306-.996.198-.133.463-.2.66-.2.265 0 .53.134.662.333.529.73.793 1.792.661 3.253zM52.405 71.124c2.05 0 3.702-1.793 3.702-3.917 0-2.191-1.652-3.918-3.702-3.918s-3.703 1.793-3.703 3.918c0 2.124 1.653 3.917 3.703 3.917zm0-6.905c1.52 0 2.71 1.328 2.71 2.988s-1.255 2.987-2.71 2.987c-1.52 0-2.71-1.328-2.71-2.987-.067-1.66 1.19-2.988 2.71-2.988zM39.512 71.655c-.529-.066-1.057.066-1.388.398-.529.465-1.653.797-2.645.797-.991 0-2.115-.332-2.644-.797a1.808 1.808 0 0 0-1.389-.398 2.04 2.04 0 0 0-1.322.73c-.727.93-.992 2.258-.926 3.917l.265 4.449c0 .265.198.465.463.465h11.04c.265 0 .464-.2.464-.465l.264-4.449c.132-1.66-.198-2.987-.925-3.917a1.416 1.416 0 0 0-1.257-.73zm1.257 4.581l-.265 3.984H30.388l-.264-3.984c-.066-1.46.132-2.523.727-3.253.132-.2.397-.332.661-.332.265 0 .53.066.662.199.86.73 2.247.996 3.305.996 1.058 0 2.447-.332 3.306-.996.198-.133.463-.2.661-.2.265 0 .53.134.661.333.53.73.728 1.792.662 3.253zM35.413 71.124c2.05 0 3.703-1.793 3.703-3.917 0-2.191-1.653-3.918-3.703-3.918s-3.702 1.793-3.702 3.918c0 2.124 1.653 3.917 3.702 3.917zm0-6.905c1.52 0 2.711 1.328 2.711 2.988s-1.256 2.987-2.71 2.987c-1.521 0-2.712-1.328-2.712-2.987 0-1.66 1.257-2.988 2.711-2.988zM64.9 12.897c-.528-.067-1.057.066-1.388.398-.529.465-1.652.797-2.644.797-.992 0-2.116-.332-2.645-.797a1.808 1.808 0 0 0-1.388-.398 2.04 2.04 0 0 0-1.323.73c-.727.93-.991 2.257-.925 3.917l.264 4.449c0 .265.199.464.463.464h11.041c.265 0 .463-.199.463-.464l.265-4.449c.132-1.66-.199-2.987-.926-3.917-.198-.398-.727-.664-1.256-.73zm1.257 4.647l-.264 3.984H55.777l-.265-3.984c-.066-1.46.133-2.523.728-3.253.132-.2.396-.332.66-.332.265 0 .53.066.662.2.86.73 2.248.995 3.306.995 1.058 0 2.446-.332 3.306-.996.198-.133.462-.199.66-.199.265 0 .53.133.662.332.529.664.793 1.793.661 3.253zM60.868 12.366c2.05 0 3.702-1.793 3.702-3.918 0-2.19-1.653-3.917-3.702-3.917-2.05 0-3.703 1.793-3.703 3.917 0 2.191 1.653 3.918 3.703 3.918zm0-6.905c1.52 0 2.71 1.328 2.71 2.987 0 1.66-1.256 2.988-2.71 2.988-1.52 0-2.711-1.328-2.711-2.988s1.19-2.987 2.71-2.987zM37.926 21.993c0 .265.198.464.462.464H49.43c.264 0 .463-.199.463-.464l.264-4.449c.132-1.66-.198-2.987-.926-3.917a2.04 2.04 0 0 0-1.322-.73c-.529-.067-1.058.066-1.388.398-.53.465-1.653.797-2.645.797s-2.116-.332-2.645-.797a1.808 1.808 0 0 0-1.388-.398 2.04 2.04 0 0 0-1.322.73c-.728.93-.992 2.257-.926 3.917l.33 4.449zm1.388-7.768c.132-.2.397-.332.661-.332.265 0 .53.066.661.199.86.73 2.248.996 3.306.996 1.058 0 2.446-.332 3.306-.996.198-.133.397-.2.661-.2.265 0 .529.133.661.333.53.73.794 1.859.728 3.253l-.265 3.983H38.851l-.264-3.983c-.066-1.394.132-2.523.727-3.253zM43.876 12.366c2.05 0 3.703-1.793 3.703-3.918 0-2.19-1.653-3.917-3.703-3.917s-3.702 1.793-3.702 3.917c0 2.191 1.719 3.918 3.702 3.918zm0-6.905c1.52 0 2.71 1.328 2.71 2.987 0 1.66-1.255 2.988-2.71 2.988s-2.71-1.328-2.71-2.988 1.255-2.987 2.71-2.987zM32.967 21.993l.264-4.449c.133-1.66-.198-2.987-.925-3.917a2.04 2.04 0 0 0-1.323-.73c-.528-.067-1.057.066-1.388.398-.529.465-1.653.797-2.645.797-.991 0-2.115-.332-2.644-.797a1.808 1.808 0 0 0-1.389-.398 2.04 2.04 0 0 0-1.322.73c-.727.93-.992 2.257-.926 3.917l.265 4.449c0 .265.198.464.463.464h11.041c.33 0 .529-.199.529-.464zm-.661-4.449l-.265 3.984H21.926l-.265-3.984c-.066-1.46.132-2.523.727-3.253.133-.2.397-.332.662-.332.264 0 .529.066.66.2.86.73 2.249.995 3.307.995 1.057 0 2.446-.332 3.305-.996.199-.133.463-.199.661-.199.265 0 .53.133.662.332.529.664.727 1.793.66 3.253zM26.95 12.366c2.05 0 3.703-1.793 3.703-3.918 0-2.19-1.653-3.917-3.703-3.917s-3.702 1.793-3.702 3.917c0 2.191 1.653 3.918 3.702 3.918zm0-6.905c1.521 0 2.711 1.328 2.711 2.987 0 1.66-1.256 2.988-2.71 2.988-1.455 0-2.711-1.328-2.711-2.988s1.19-2.987 2.71-2.987zM75.149 45.695c.132-5.71-1.785-11.154-5.488-15.403l3.306.465c.264.066.529-.133.529-.399.066-.265-.132-.531-.397-.531l-4.628-.597c-.132 0-.264 0-.397.132-.132.133-.132.266-.132.399l.33 4.714c0 .265.265.464.464.464h.066c.264 0 .462-.265.462-.53L69 31.088c3.504 4.05 5.355 9.228 5.223 14.672-.198 5.71-2.512 11.022-6.678 15.005-.198.2-.198.465 0 .664.067.133.199.133.331.133a.504.504 0 0 0 .33-.133c4.232-4.182 6.744-9.76 6.943-15.735zM19.48 61.497a.504.504 0 0 0 .33-.133c.132-.133.132-.266.132-.398l-.33-4.714c0-.266-.265-.465-.53-.465-.264 0-.462.265-.462.531l.264 3.32c-3.504-4.05-5.355-9.229-5.223-14.673.199-5.71 2.513-11.022 6.678-15.005.198-.2.198-.465 0-.664-.199-.2-.463-.2-.661 0-4.364 4.116-6.81 9.693-7.009 15.669-.132 5.71 1.786 11.154 5.488 15.403l-3.306-.465c-.264-.066-.529.133-.529.399-.066.265.133.53.397.53l4.76.665c-.066 0-.066 0 0 0zM43.876 28.034c-8.661 0-15.736 7.105-15.736 15.802 0 8.698 7.075 15.802 15.736 15.802 8.727.066 15.802-7.038 15.802-15.802s-7.075-15.802-15.802-15.802zm13.09 8.897h-2.842c-.992-2.855-2.579-5.179-4.562-6.772 3.174 1.328 5.818 3.718 7.405 6.772zm-2.71 6.905c0 2.125-.33 4.183-.86 5.975h-4.561c.264-1.925.396-3.983.396-5.975 0-1.992-.132-4.05-.396-5.975h4.562c.529 1.859.86 3.85.86 5.975zm-20.694 0c0-2.125.33-4.183.86-5.975h4.561a44.608 44.608 0 0 0-.396 5.975c0 1.992.132 4.05.396 5.975h-4.562c-.595-1.792-.859-3.85-.859-5.975zm14.149-6.905h-7.604c.794-4.847 2.38-7.9 3.835-7.9s2.975 3.053 3.769 7.9zm.529 6.905c0 2.191-.133 4.183-.397 5.975h-7.934c-.264-1.792-.397-3.784-.397-5.975 0-2.19.133-4.183.397-5.975h7.934c.264 1.792.397 3.85.397 5.975zm-9.124-6.905h-4.364c1.388-3.784 3.9-6.573 6.942-7.502-1.256 1.527-2.115 4.249-2.578 7.502zm0 13.876c.529 3.187 1.388 5.976 2.578 7.503-2.975-.93-5.487-3.785-6.942-7.503h4.364zm.991 0h7.67c-.794 4.847-2.38 7.901-3.835 7.901-1.454 0-3.041-3.054-3.835-7.9zm8.595 0h4.364c-1.388 3.785-3.9 6.573-6.942 7.503 1.256-1.527 2.116-4.25 2.578-7.503zm0-13.876c-.528-3.187-1.388-5.975-2.578-7.502 2.975.93 5.488 3.784 6.942 7.502h-4.364zM38.256 30.16c-1.983 1.593-3.57 3.917-4.562 6.772h-2.843c1.587-3.054 4.232-5.444 7.405-6.772zm-7.868 7.702h3.042c-.53 1.859-.86 3.85-.86 5.975 0 2.125.33 4.116.86 5.975h-3.042c-.793-1.859-1.256-3.85-1.256-5.975 0-2.125.463-4.116 1.256-5.975zm.463 12.946h2.843c.992 2.855 2.579 5.18 4.562 6.773-3.173-1.328-5.818-3.719-7.405-6.773zm18.711 6.773c1.983-1.594 3.57-3.918 4.562-6.773h2.843c-1.587 3.054-4.231 5.445-7.405 6.773zm7.868-7.702h-3.042c.53-1.86.86-3.851.86-5.976 0-2.124-.33-4.116-.86-5.975h3.042c.793 1.86 1.256 3.85 1.256 5.975 0 2.059-.463 4.117-1.256 5.976zM82.157 47.687c1.455 0 2.579-1.195 2.579-2.59 0-1.46-1.19-2.589-2.579-2.589-1.455 0-2.578 1.195-2.578 2.59 0 1.46 1.19 2.589 2.578 2.589zm0-4.183c.86 0 1.587.73 1.587 1.594 0 .863-.727 1.593-1.587 1.593s-1.587-.73-1.587-1.593c0-.864.728-1.594 1.587-1.594zM7.71 69.53c-1.454 0-2.578 1.195-2.578 2.59 0 1.46 1.19 2.589 2.579 2.589 1.454 0 2.578-1.195 2.578-2.59 0-1.46-1.124-2.589-2.578-2.589zm0 4.183c-.859 0-1.586-.73-1.586-1.593s.727-1.594 1.587-1.594 1.587.73 1.587 1.594c.066.863-.662 1.593-1.587 1.593z"/></g></svg>