<svg width="90" height="90" viewBox="0 0 90 90" xmlns="http://www.w3.org/2000/svg"><title>8129FD61-3206-4F6C-9C9B-FBD6452E538A</title><g fill="#4A4A4A" fill-rule="evenodd"><path d="M12.581 33.968a.417.417 0 0 0 .427-.427v-6.766a.417.417 0 0 0-.427-.426.417.417 0 0 0-.426.426v6.766c0 .183.183.427.426.427zM12.581 38.356a.417.417 0 0 0 .427-.426v-2.195a.417.417 0 0 0-.427-.426.417.417 0 0 0-.426.426v2.195c0 .243.183.426.426.426zM21.234 16.291c0 .244.183.427.427.427h8.105a.417.417 0 0 0 .426-.427.417.417 0 0 0-.426-.426H21.66c-.244-.061-.427.183-.427.426zM16.36 16.718h2.62a.417.417 0 0 0 .426-.427.417.417 0 0 0-.426-.426h-2.62a.417.417 0 0 0-.427.426c0 .244.183.427.426.427zM16.36 13.975h5.667a.417.417 0 0 0 .426-.426.417.417 0 0 0-.426-.427h-5.668a.417.417 0 0 0-.426.427c0 .182.183.426.426.426zM24.464 13.975h1.828a.417.417 0 0 0 .427-.426.417.417 0 0 0-.427-.427h-1.828a.417.417 0 0 0-.426.427c-.061.182.182.426.426.426zM73.945 14.768c.061.06.183.122.305.122a.465.465 0 0 0 .305-.122c.182-.183.182-.488 0-.61l-.914-.975c-.183-.183-.488-.183-.61 0-.183.183-.183.487 0 .61l.914.975zM76.992 17.754c.061.061.183.122.305.122a.465.465 0 0 0 .305-.122c.182-.183.182-.487 0-.61l-.915-.914c-.182-.182-.487-.182-.609 0-.183.183-.183.488 0 .61l.914.914zM73.336 17.876a.465.465 0 0 0 .305-.122l.914-.914c.182-.183.182-.488 0-.61-.183-.182-.488-.182-.61 0l-.914.915c-.183.183-.183.487 0 .61.122.121.183.121.305.121zM76.383 14.89a.465.465 0 0 0 .305-.122l.914-.915c.182-.183.182-.487 0-.61-.183-.182-.488-.182-.61 0l-.914.854c-.183.183-.183.488 0 .61.061.122.183.183.305.183zM7.097 51.461c-.183-.183-.488-.183-.61 0-.121.183-.182.488 0 .61l.915.914c.06.06.182.122.304.122a.465.465 0 0 0 .305-.122c.183-.183.183-.488 0-.61l-.914-.914zM10.997 55.423l-.914-.914c-.183-.183-.488-.183-.61 0-.121.182-.182.487 0 .61l.914.913c.061.061.183.122.305.122a.465.465 0 0 0 .305-.122c.183-.182.183-.426 0-.61zM7.34 54.509l-.913.914c-.183.183-.183.487 0 .61.06.06.182.121.304.121a.465.465 0 0 0 .305-.122l.914-.914c.183-.183.183-.488 0-.61-.122-.182-.427-.182-.61 0zM9.778 53.168a.465.465 0 0 0 .305-.122l.914-.915c.183-.182.183-.487 0-.61-.183-.182-.488-.182-.61 0l-.914.915c-.182.183-.182.488 0 .61.061.06.183.122.305.122zM81.44 33.48c-1.218 0-2.254 1.036-2.254 2.255 0 1.22 1.036 2.255 2.255 2.255 1.218 0 2.254-1.036 2.254-2.255a2.25 2.25 0 0 0-2.254-2.255zm0 3.596c-.73 0-1.34-.61-1.34-1.34 0-.732.61-1.342 1.34-1.342.732 0 1.341.61 1.341 1.341 0 .732-.61 1.341-1.34 1.341zM21.173 65.236h-9.689a.417.417 0 0 0-.426.427v10.85c0 .243.183.426.426.426h9.69a.417.417 0 0 0 .426-.427v-10.85a.417.417 0 0 0-.427-.426zm-.426 10.789H11.91V66.09h8.836v9.935zM35.25 60.299h-9.69a.417.417 0 0 0-.426.427V76.45c0 .244.183.427.427.427h9.689a.417.417 0 0 0 .427-.427V60.726a.417.417 0 0 0-.427-.427zm-.427 15.726h-8.836V61.152h8.836v14.873zM49.327 57.739h-9.69a.417.417 0 0 0-.426.427V76.45c0 .244.183.427.427.427h9.689a.417.417 0 0 0 .426-.427V58.166c.061-.244-.183-.427-.426-.427zM48.9 76.025h-8.836V58.653H48.9v17.372zM63.89 76.512V49.39a.417.417 0 0 0-.426-.427h-9.75a.417.417 0 0 0-.426.427v27.123c0 .244.182.427.426.427h9.69c.243 0 .487-.183.487-.427zm-.913-.487H54.14v-26.21h8.836v26.21zM77.48 42.989h-9.69a.417.417 0 0 0-.426.426v33.036c0 .244.183.427.427.427h9.689a.417.417 0 0 0 .426-.427V43.415c.061-.244-.183-.426-.426-.426zm-.427 33.036h-8.836V43.903h8.836v32.122zM53.227 38.905l6.764 6.765c.06.061.182.122.304.122a.465.465 0 0 0 .305-.122l15.052-14.994c.182-.183.182-.487 0-.61-.183-.182-.488-.182-.61 0l-3.839 3.84c-.487-.975-1.401-1.645-2.437-1.889-1.036-.244-2.194-.06-3.047.549-1.219.914-3.23.914-4.449 0a3.564 3.564 0 0 0-3.047-.549c-1.096.305-2.071 1.036-2.559 2.073-.305.609-.975 3.108-.61 5.363l-1.34-1.34c.061-.123.061-.244.122-.366.183-1.22-.792-2.377-.853-2.438-1.767-1.707-4.449-1.95-6.338-.549a5.38 5.38 0 0 1-3.108.975 5.38 5.38 0 0 1-3.107-.975c-1.158-.853-2.56-1.097-3.961-.731-1.463.365-2.742 1.34-3.352 2.742-.304.61-.487 1.28-.61 1.95-1.4-.791-3.107-.73-4.387.245-.67.487-1.584.792-2.498.792-.914 0-1.828-.305-2.499-.792-.914-.67-2.132-.915-3.351-.61a4.353 4.353 0 0 0-2.803 2.255 11.764 11.764 0 0 0-1.097 3.597c-.792 5.607 2.437 10.666 3.29 11.885l-3.046 3.048c-.183.183-.183.427 0 .61.06.06.182.121.304.121a.465.465 0 0 0 .305-.122l12.188-11.946 4.387 4.388.06.061 2.987 2.987c.06.061.183.122.305.122a.465.465 0 0 0 .304-.122L52.74 39.392c.183-.243.366-.365.488-.487zm3.23-4.45c.365-.792 1.096-1.34 1.95-1.585.791-.182 1.645-.06 2.254.427.731.549 1.706.853 2.742.853s2.011-.304 2.742-.853c.67-.487 1.463-.61 2.255-.427.853.244 1.584.793 1.95 1.585 0 .061.06.061.06.061l-10.054 10.18-3.96-3.963c-1.098-2.255-.244-5.607.06-6.278zM16.724 44.27c.183-1.22.487-2.317 1.036-3.353.427-.914 1.219-1.524 2.194-1.767a2.937 2.937 0 0 1 2.56.487 5.19 5.19 0 0 0 3.046.975 5.332 5.332 0 0 0 3.047-.975c1.097-.792 2.56-.731 3.717.061-.06.488-.06 1.036-.122 1.524-.122 2.743.427 6.827.792 9.326l-3.778-3.78-.06-.06-.062-.061h-.365l-.061.06s-.061 0-.061.062l-8.836 8.594c-.914-1.341-3.778-6.034-3.047-11.093zm17.306 7.314c-.365-2.194-1.097-7.193-.975-10.362 0-.549.061-1.097.122-1.646v-.06c.122-.854.305-1.707.67-2.439a4.353 4.353 0 0 1 2.804-2.255 3.776 3.776 0 0 1 3.23.61c.974.73 2.315 1.158 3.656 1.158 1.34 0 2.62-.427 3.656-1.159 1.523-1.097 3.778-.914 5.18.427 0 0 .73.914.609 1.707 0 .122-.061.183-.122.305L36.65 54.204l-2.62-2.621zM43.477 31.651c3.595 0 6.459-3.108 6.459-6.887 0-3.78-2.925-6.888-6.46-6.888-3.595 0-6.459 3.109-6.459 6.888s2.925 6.887 6.46 6.887zm0-12.921c3.107 0 5.606 2.681 5.606 6.034 0 3.352-2.499 6.034-5.606 6.034-3.108 0-5.607-2.682-5.607-6.034 0-3.353 2.56-6.034 5.607-6.034zM63.464 30.493c2.681 0 4.875-2.316 4.875-5.18 0-2.865-2.194-5.182-4.875-5.182s-4.875 2.317-4.875 5.181c0 2.865 2.194 5.181 4.875 5.181zm0-9.508c2.194 0 3.961 1.95 3.961 4.266 0 2.317-1.767 4.267-3.96 4.267-2.195 0-3.962-1.95-3.962-4.267 0-2.316 1.767-4.266 3.961-4.266z"/><path d="M25.378 25.19c-2.986 0-5.362 2.56-5.362 5.73 0 3.17 2.437 5.73 5.362 5.73 2.986 0 5.363-2.56 5.363-5.73 0-3.17-2.438-5.73-5.363-5.73zm0 10.545c-2.437 0-4.448-2.133-4.448-4.815 0-2.682 2.01-4.815 4.448-4.815 2.499 0 4.449 2.133 4.449 4.815 0 2.621-2.011 4.815-4.449 4.815z"/></g></svg>