<svg width="90" height="90" viewBox="0 0 90 90" xmlns="http://www.w3.org/2000/svg"><title>AC294562-98C6-4037-8F46-D32C3569F071</title><g fill-rule="nonzero" fill="#4A4A4A"><path d="M37 72.676h16.065V45H37v27.676zm1.24-26.432h13.586v25.188H38.24V46.244zM58 72.595h16.109V35H58v37.595zm1.24-36.35h13.63V71.35H59.24V36.244zM17 55v17.684h16.065V55H17zm14.826 16.44H18.24V56.243h13.587V71.44zM73.33 22.23l-4.474-.622L66.86 17.5a.904.904 0 0 0-1.617 0l-2.001 4.07-4.474.622a.911.911 0 0 0-.502 1.543l3.235 3.167-.762 4.474a.904.904 0 0 0 .324.934c.284.22.67.248.983.074l4.002-2.128 4.003 2.128c.304.158.671.13.948-.074a.91.91 0 0 0 .359-.885l-.762-4.473 3.234-3.167a.911.911 0 0 0-.502-1.544v-.012zm-3.718 3.945a.905.905 0 0 0-.26.803l.675 3.976-3.556-1.867a.901.901 0 0 0-.837 0l-3.556 1.867.675-3.97a.905.905 0 0 0-.26-.822l-2.875-2.8 3.953-.584a.899.899 0 0 0 .681-.498l1.797-3.584 1.778 3.615a.905.905 0 0 0 .682.498l3.971.578-2.868 2.788z"/></g></svg>