<svg width="90" height="90" viewBox="0 0 90 90" xmlns="http://www.w3.org/2000/svg"><title>69F593E7-6747-49D7-8BFC-729E533842BE</title><path d="M53.875 70.168l.44-.44c1.411-1.408 2.557-2.992 3.527-4.664.44-.792.882-1.584 1.234-2.464.088-.088.088-.176.088-.264v-.088c1.235-2.992 1.94-6.248 1.94-9.504 0-3.168-.617-6.248-1.851-9.152a25.203 25.203 0 0 0-2.292-4.312c-.177-.264-.618-.352-.882-.176-.265.176-.353.616-.176.88a25.86 25.86 0 0 1 2.204 4.048c1.146 2.728 1.675 5.72 1.763 8.624 0 3.08-.617 6.072-1.763 8.976l-.089.088c0 .088-.088.176-.088.264-.352.88-.793 1.672-1.234 2.376-.97 1.584-2.028 3.08-3.35 4.4-.088.176-.264.264-.353.44-.44.44-.97.88-1.498 1.32-1.763 1.496-3.791 2.64-5.907 3.52-2.733 1.144-5.642 1.672-8.64 1.76h-.087c-3.086 0-6.083-.616-8.904-1.76a23.488 23.488 0 0 1-7.582-5.104c-2.116-2.112-3.703-4.576-4.849-7.392-1.146-2.728-1.675-5.72-1.763-8.624 0-3.08.617-6.072 1.763-8.976.882-2.112 2.028-4.048 3.438-5.72.53-.616 1.058-1.232 1.675-1.848a20.087 20.087 0 0 1 4.408-3.344c.706-.44 1.5-.88 2.38-1.232l.53-.264a22.855 22.855 0 0 1 8.64-1.672c3.085 0 6.082.616 8.991 1.76a22.197 22.197 0 0 1 7.23 4.84l-3.704 3.696a17.04 17.04 0 0 0-5.553-3.696c-2.204-.968-4.585-1.408-6.965-1.408-1.587 0-3.085.176-4.584.616-.705.176-1.41.44-2.116.704-.264.088-.44.176-.705.264-1.852.88-3.527 1.936-4.937 3.344l-.088.088c-.617.616-1.234 1.232-1.763 1.936-.882 1.232-1.675 2.552-2.292 3.96-.97 2.2-1.411 4.576-1.411 6.952 0 2.288.44 4.576 1.322 6.688.882 2.112 2.116 4.048 3.791 5.72 1.675 1.672 3.615 3.08 5.907 3.96 2.204.968 4.496 1.408 6.876 1.408h.088c2.292 0 4.584-.44 6.7-1.32 1.499-.616 2.821-1.408 4.055-2.288.53-.44 1.058-.88 1.675-1.408.177-.088.265-.264.353-.352a15.763 15.763 0 0 0 3.35-4.928l.265-.528c.352-.704.529-1.496.793-2.288.44-1.496.617-3.08.617-4.664 0-2.288-.44-4.576-1.322-6.688-.177-.44-.353-.792-.53-1.144-.176-.352-.352-.704-.528-.968-.176-.352-.617-.44-.882-.264-.352.176-.44.616-.264.88.176.352.352.616.529.968.176.352.352.704.529 1.144.793 2.024 1.234 4.048 1.234 6.248 0 1.408-.176 2.904-.617 4.312-.177.704-.441 1.408-.705 2.112-.089.176-.177.352-.177.44-.793 1.672-1.851 3.256-3.173 4.576-.089.088-.177.264-.353.352-.53.528-1.058.968-1.499 1.32-1.146.88-2.38 1.584-3.79 2.2-2.028.792-4.056 1.232-6.26 1.232h-.088c-2.204 0-4.32-.44-6.347-1.32a17.637 17.637 0 0 1-5.466-3.696 15.217 15.217 0 0 1-3.438-5.28 16.452 16.452 0 0 1-1.234-6.248c0-2.2.44-4.4 1.322-6.424.529-1.32 1.234-2.552 2.116-3.608.44-.616.97-1.232 1.587-1.76l.088-.088c1.322-1.32 2.909-2.376 4.584-3.168.176-.088.44-.176.617-.264.705-.264 1.322-.528 1.94-.616 1.41-.352 2.82-.528 4.231-.616 2.204 0 4.408.44 6.436 1.32 1.94.792 3.614 1.936 5.113 3.432l-3.262 3.256a10.742 10.742 0 0 0-3.615-2.376c-1.146-.528-2.38-.792-3.614-.88h-.97c-.881 0-1.763.088-2.556.264-.617.176-1.235.352-1.852.616-1.41.528-2.644 1.32-3.702 2.464l-.088.088c-.618.616-1.235 1.32-1.675 2.024-.441.616-.706 1.232-1.058 1.936-.617 1.496-.97 2.992-.97 4.664 0 1.496.264 2.992.881 4.488.618 1.408 1.411 2.728 2.469 3.784a12.646 12.646 0 0 0 3.879 2.64c1.499.616 2.997.968 4.584.968 1.499 0 3.086-.264 4.496-.88a8.3 8.3 0 0 0 1.94-1.056h.088c.617-.44 1.234-.88 1.763-1.408l.353-.352c.97-1.056 1.763-2.2 2.38-3.608.264-.616.44-1.32.617-1.936.176-.88.264-1.76.264-2.64v-.968c-.088-1.232-.352-2.464-.881-3.52-.177-.352-.53-.528-.882-.352-.352.176-.529.528-.352.88.44.968.617 2.024.793 3.168v.88c0 .792-.088 1.584-.264 2.376-.177.616-.353 1.144-.53 1.76-.528 1.144-1.234 2.288-2.115 3.168l-.265.264c-.44.44-.97.88-1.587 1.232h-.088a11.3 11.3 0 0 1-1.763.968c-1.322.528-2.645.792-3.967.792h-.088c-1.41 0-2.733-.264-4.055-.792a9.29 9.29 0 0 1-3.439-2.376c-.97-.968-1.675-2.112-2.203-3.344-.53-1.32-.794-2.64-.794-3.96 0-1.408.265-2.816.794-4.136.264-.616.528-1.144.881-1.672.353-.616.882-1.232 1.499-1.848l.088-.088c.97-.88 2.028-1.584 3.262-2.112.529-.264 1.058-.352 1.675-.528a9.625 9.625 0 0 1 2.292-.264h.881a11.04 11.04 0 0 1 3.262.792 11.542 11.542 0 0 1 3.262 2.112l-4.055 4.048c-.617-.528-1.322-.792-2.116-.968-2.556-.528-5.113.88-6.083 3.256-.264.616-.352 1.32-.352 1.936 0 2.904 2.38 5.28 5.29 5.28.704 0 1.321-.088 1.939-.352 1.675-.616 2.909-2.112 3.261-3.872.089-.352-.176-.704-.529-.792-.352-.088-.705.176-.793.528-.264 1.32-1.146 2.376-2.468 2.904-.441.176-.97.264-1.5.264a3.947 3.947 0 0 1-3.966-3.96c0-.528.088-.968.264-1.496.706-1.76 2.557-2.816 4.584-2.464.53.088 1.058.352 1.5.616l-2.822 2.816a.69.69 0 0 0 0 .968.674.674 0 0 0 .44.176.674.674 0 0 0 .442-.176l24.596-24.552 5.994 1.144h.089a.674.674 0 0 0 .44-.176l10.05-10.032c.177-.176.265-.44.177-.704-.088-.264-.265-.44-.53-.44L71.86 18.6l-1.146-5.896a.902.902 0 0 0-.44-.528.686.686 0 0 0-.706.176l-9.61 9.416c-.175.176-.264.352-.175.616l1.146 5.984-7.053 7.04c-2.204-2.2-4.76-3.872-7.67-5.104-3.085-1.232-6.259-1.936-9.52-1.936-3.174 0-6.26.616-9.17 1.848-.176.088-.44.176-.616.264-.882.352-1.675.792-2.469 1.232a22.876 22.876 0 0 0-4.672 3.608 35.069 35.069 0 0 0-1.763 1.936c-1.499 1.76-2.733 3.784-3.703 6.072-1.234 2.992-1.94 6.248-1.94 9.504 0 3.168.618 6.248 1.852 9.152 1.234 2.904 2.91 5.544 5.113 7.832 2.292 2.376 4.937 4.136 8.022 5.456 2.998 1.232 6.172 1.936 9.433 1.936h.089c3.173 0 6.259-.616 9.168-1.848 2.292-.968 4.408-2.2 6.26-3.696.528-.528 1.057-.968 1.586-1.496zm16.221-56.672l1.058 5.104c.088.264.264.44.529.528l5.113 1.056-8.992 8.888-5.554-1.056-1.146-5.544 8.992-8.976z" fill="#4A4A4A" fill-rule="evenodd"/></svg>