<svg width="99" height="74" viewBox="0 0 99 74" xmlns="http://www.w3.org/2000/svg" xmlns:xlink="http://www.w3.org/1999/xlink"><title>18C63C89-CACD-46F9-AB96-8B3911429434</title><defs><path id="a" d="M0 0h98.59v73.589H0z"/></defs><g fill="none" fill-rule="evenodd"><mask id="b" fill="#fff"><use xlink:href="#a"/></mask><path d="M41.754 9h7.537v7.626h-7.537V9zm-9.399 39.246c.172 0 .331.025.478.075a.747.747 0 0 0-.184.488c0 .414.331.74.723.74a.78.78 0 0 0 .466-.163c.037.125.049.275.049.413 0 .864-.686 1.565-1.532 1.565-.845 0-1.52-.701-1.52-1.565 0-.852.675-1.553 1.52-1.553zm3.517 15.716c-21.102.037-29.901-12.172-28.774-28h57.965c4.118-.139 7.145-1.053 9.118-3.182-3.076-5.184-2.942-10.018.036-14.538 3.358 2.392 5.43 5.635 5.76 10.018 4.02-1.353 7.745-1.34 11.017.739-2.488 5.272-7.132 6.85-12.965 6.386-7.464 18.834-21.716 28.063-42.157 28.577zm-7.561-10.857c-3.652 1.29-8.309 1.753-13.811 1.49 6.054 5.96 13.7 8.753 23.223 7.751-4.535-2.366-7.684-5.434-9.412-9.241zm4.044-5.51c1.201 0 2.157.99 2.157 2.204 0 1.227-.956 2.216-2.157 2.216-1.189 0-2.157-.989-2.157-2.216 0-1.215.968-2.204 2.157-2.204zM24.17 17.904h7.537v7.626h-7.537v-7.626zm8.75 0h7.536v7.626H32.92v-7.626zm17.512 9.191h7.537v7.626H50.43v-7.626zm-35.184 0h7.537v7.626h-7.537v-7.626zm8.836 0h7.537v7.626h-7.537v-7.626zm8.836 0h7.536v7.626H32.92v-7.626zm8.835 0h7.537v7.626h-7.537v-7.626zm0-9.191h7.537v7.626h-7.537v-7.626z" fill="#398CB4" mask="url(#b)"/></g></svg>