<svg width="99" height="74" viewBox="0 0 99 74" xmlns="http://www.w3.org/2000/svg" xmlns:xlink="http://www.w3.org/1999/xlink"><title>718F687D-6972-4A3E-ABE0-3CE061B173AA</title><defs><path id="a" d="M0 0h98.59v73.589H0z"/></defs><g fill="none" fill-rule="evenodd"><mask id="b" fill="#fff"><use xlink:href="#a"/></mask><g mask="url(#b)" fill="#F8DC3D"><path d="M16 69.93h66.807c.14-.65.035-15.612.035-16.684V11.509c0-1.125.123-7.84-.035-8.316L16 3.176V69.93zm44.89-14.592l-5.063 2.918c.246.844 1.565 2.426 2.004 2.883 2.707 2.743 6.784 3.886 10.95 3.481 5.554-.527 9.667-4.06 8.77-10.337-1.124-7.718-11.09-8.087-13.146-10.97-.844-1.178-.616-2.725.228-3.587.826-.861 2.443-1.09 3.814-.598.615.229 1.09.598 1.424.967.632.686.773 1.108 1.072 1.442l4.833-3.077c-.088-.387-.668-1.16-.914-1.477-.369-.492-.738-.843-1.142-1.248-3.603-3.604-13.64-3.516-15.713 3.587-.809 2.795-.088 5.872 1.283 7.753 3.181 4.272 10.036 4.747 11.688 7.419.79 1.283.334 2.795-.492 3.534-.914.826-2.162 1.142-3.779 1.09-1.459-.053-2.654-.528-3.55-1.231-1.477-1.108-1.934-2.25-2.268-2.55zm-22.182.545c-.299.105-2.126 1.248-2.548 1.512l-2.531 1.547c.088.492 1.002 1.81 1.283 2.145 1.687 2.057 3.831 3.27 6.82 3.55 3.936.37 7.698-.737 9.578-4.289.88-1.67 1.072-3.639 1.072-5.819v-17.3c0-1.09.07-2.373 0-3.463h-6.274c-.07 1.442 0 3.042 0 4.483v13.467c0 2.743.527 6.33-1.846 7.155-1.265.44-2.689.229-3.62-.44-.88-.632-1.319-1.564-1.934-2.548z"/></g></g></svg>