<svg width="99" height="74" viewBox="0 0 99 74" xmlns="http://www.w3.org/2000/svg" xmlns:xlink="http://www.w3.org/1999/xlink"><title>F38EE760-92CF-4430-9DC9-3526A84D9D46</title><defs><path id="a" d="M0 0h98.59v73.589H0z"/></defs><g transform="translate(-1)" fill="none" fill-rule="evenodd"><mask id="b" fill="#fff"><use xlink:href="#a"/></mask><path d="M75.521 63.63L62.333 41.757 77.75 18.582 75.521 63.63zm-1.771.952l-12.917-21.83-25.248 15.505 38.165 6.325zM77.505 17l-20.062-4.317L74.505 9l3 8zM54 20.075l2.762-6.493 17.249 3.828L54 20.075zm-.662 1.432l8.245 18.186 14.37-21.111-22.615 2.925zM40.523 33.132l11.628-11 7.995 17.999-19.623-6.999zm-.773 1.45L35 56.332l24.26-15-19.51-6.75zM28 39.332l9.5-4.75-3.979 20.736L28 39.332zm4.481 18.25L20 57.832l6.958-16.267 5.523 16.017zm-8.935-20.637L20.17 53.873l6.062-14.24-2.687-2.688zM23 60.207l43.75 4.5-32.92-5.392-10.83.892zm11.747-38.12C28.747 27.712 24 34.837 24 34.837l3.028 3.233 11.875-5.688 13-12.375 2.923-7.3-3.451-2.125s-10.628 5.88-16.628 11.505zM54 10.59l2.271 1.35 12.557-2.437L54 10.59z" fill="#B50100" mask="url(#b)"/></g></svg>