<svg width="320" height="284" viewBox="0 0 320 284" xmlns="http://www.w3.org/2000/svg"><title>DA39F6D5-3691-487A-AE5D-FC1AB1FCF98D</title><g fill="none" fill-rule="evenodd"><g fill="#F0F3F7"><path d="M147.406 163.6c-1.004-.503-2.007-.251-2.509.503-.501 1.005-.25 2.01.502 2.514l15.049 9.3-15.049 9.301c-1.003.503-1.254 1.76-.502 2.514.251.503 1.004 1.006 1.505 1.006.251 0 .753 0 1.004-.252l17.557-11.06c.501-.252 1.003-1.006 1.003-1.509 0-.754-.25-1.256-1.003-1.508L147.406 163.6zM111.539 164.103c-.502-1.006-1.756-1.257-2.508-.503l-17.557 11.06c-.502.252-1.004 1.006-1.004 1.509 0 .754.251 1.257 1.004 1.508l17.557 11.06c.25.252.752.252 1.003.252.752 0 1.254-.251 1.505-1.006.502-1.005.25-2.01-.502-2.513l-15.049-9.301 15.05-9.301c.752-.503 1.003-1.76.5-2.765zM135.116 157.567c-1.004-.251-2.007 0-2.509 1.005l-12.54 33.182c-.251 1.006 0 2.011 1.003 2.514h.752c.753 0 1.505-.503 1.756-1.257l12.54-33.182c.502-.754 0-2.01-1.002-2.262z"/><path d="M156.686 62.295l8.277 4.525c-.502 2.514-1.004 5.28-1.004 7.793H52.848c-7.274 0-13.293 6.033-13.293 13.323V216.64c0 1.006.752 2.011 2.006 2.011H280.59c1.003 0 2.006-.754 2.006-2.01V88.186c0-7.29-6.02-13.323-13.293-13.323h-19.564c0-2.262-.25-4.525-.752-6.787l8.528-4.525c.752-.502 1.254-1.508 1.003-2.262l-3.512-8.798c-.25-1.006-1.254-1.257-2.257-1.006L243.718 54c-3.26-5.279-7.775-9.804-12.79-13.323l2.758-9.05c.25-1.005-.25-2.01-1.003-2.262l-8.779-3.77c-1.003-.503-2.006 0-2.508.754l-4.515 8.295c-6.02-1.508-12.29-1.508-18.56-.251l-4.515-8.547c-.501-.754-1.504-1.257-2.257-1.006l-8.778 3.52c-1.004.251-1.505 1.257-1.004 2.262l2.508 9.05c-5.267 3.267-9.781 7.792-13.293 12.82l-9.03-2.765c-1.002-.252-2.006.251-2.257 1.005l-3.762 8.798c-.501 1.257-.25 2.263.753 2.765zm121.896 25.892v126.945H43.317V88.187c0-5.279 4.264-9.552 9.531-9.552h111.111c0 2.262.251 4.525.753 6.787l-8.528 4.525c-.752.503-1.254 1.508-1.003 2.262l3.511 8.798c.251 1.006 1.254 1.257 2.258 1.006l9.029-2.514c3.26 5.279 7.775 9.804 12.792 13.323l-2.509 9.05c-.25 1.005.251 2.01 1.004 2.262l8.778 3.77c1.003.503 2.007 0 2.508-.754l4.515-8.295c6.02 1.508 12.29 1.508 18.56.251l4.515 8.547c.25.754 1.003 1.006 1.756 1.006.25 0 .501 0 .752-.252l8.779-3.519c1.003-.251 1.505-1.257 1.003-2.262l-2.508-9.05c5.267-3.268 9.782-7.793 13.293-12.82l9.03 2.765c1.003.251 2.006-.251 2.257-1.005l3.762-8.799c.502-1.005 0-2.01-.752-2.513l-8.277-4.525c.501-2.514 1.003-5.279 1.003-7.793h19.062c4.765-.251 9.28 4.022 9.28 9.301zM162.204 54.251l8.778 2.766c.753.25 1.756 0 2.258-.755 3.51-5.53 8.276-10.306 14.045-13.574.753-.503 1.003-1.257.753-2.262l-2.509-8.798 5.518-2.263 4.264 8.296c.502.754 1.254 1.256 2.007 1.005 6.521-1.508 13.042-1.508 19.563.251.753.252 1.756-.25 2.258-1.005l4.514-8.044 5.518 2.262-2.759 8.798c-.25.755 0 1.76.753 2.263 5.518 3.52 10.283 8.295 13.544 14.077.502.754 1.254 1.005 2.257.754l8.779-2.514 2.257 5.53-8.277 4.274c-.752.503-1.254 1.257-1.003 2.01 1.505 6.537 1.505 13.072-.25 19.608-.252.754.25 1.76 1.002 2.263l8.027 4.524-2.258 5.53-8.778-2.764c-.753-.252-1.756 0-2.258.754-3.511 5.53-8.277 10.306-14.045 13.574-.753.503-1.004 1.257-.753 2.262l2.508 8.799-5.518 2.262-4.263-8.295c-.251-.755-1.004-1.006-1.756-1.006h-.502c-6.521 1.508-13.042 1.508-19.563-.251-.753-.252-1.756.251-2.258 1.005l-4.514 8.044-5.017-2.262 2.76-8.798c.25-.754 0-1.76-.753-2.263-5.518-3.519-10.284-8.295-13.544-14.077-.502-.754-1.254-1.005-2.258-.754l-8.778 2.514-2.508-5.53 8.277-4.274c.752-.503 1.254-1.257 1.003-2.01-.753-3.017-1.003-6.034-1.003-9.05v-.503c0-3.268.501-6.536 1.254-9.804.25-.754-.251-1.76-1.004-2.262l-8.026-4.525 2.258-5.782z"/><path d="M195.311 103.772c3.763 1.509 7.776 2.263 11.538 2.263 11.287 0 22.322-6.787 27.088-17.848 3.01-7.29 3.26-15.334.25-22.624-3.01-7.29-8.527-13.071-15.8-16.088-7.274-3.016-15.3-3.268-22.574-.251-7.274 3.016-13.042 8.547-16.052 15.837-3.01 7.29-3.26 15.333-.251 22.623 3.01 7.29 8.528 13.072 15.801 16.088zM183.272 66.57c2.76-6.285 7.775-11.06 14.046-13.826 3.01-1.257 6.27-1.76 9.53-1.76 3.512 0 6.773.755 10.033 2.011 6.27 2.766 11.036 7.793 13.795 14.078 2.508 6.284 2.508 13.322-.25 19.607-5.518 13.071-20.567 19.104-33.61 13.574-6.27-2.765-11.036-7.792-13.795-14.077-2.508-6.284-2.508-13.323.251-19.607zM274.569 8.25c.25.25.752.502 1.254.502s1.003-.251 1.254-.502a1.976 1.976 0 0 0 0-2.766l-4.013-4.022a1.965 1.965 0 0 0-2.759 0 1.976 1.976 0 0 0 0 2.766l4.264 4.022zM287.611 21.321c.251.251.753.503 1.255.503.501 0 1.003-.252 1.254-.503a1.976 1.976 0 0 0 0-2.765l-4.013-4.022a1.965 1.965 0 0 0-2.76 0 1.976 1.976 0 0 0 0 2.765l4.264 4.022zM271.81 21.824c.502 0 1.003-.252 1.254-.503l4.013-4.022a1.976 1.976 0 0 0 0-2.765 1.965 1.965 0 0 0-2.759 0l-4.013 4.022a1.976 1.976 0 0 0 0 2.765c.502.251 1.003.503 1.505.503zM284.852 8.752c.502 0 1.004-.251 1.255-.502l4.013-4.022a1.976 1.976 0 0 0 0-2.766 1.965 1.965 0 0 0-2.76 0l-4.012 4.022a1.976 1.976 0 0 0 0 2.766c.501.25 1.003.502 1.504.502zM3.437 260.883a1.965 1.965 0 0 0-2.759 0 1.976 1.976 0 0 0 0 2.765l4.013 4.022c.251.251.753.502 1.255.502.501 0 1.003-.25 1.254-.502a1.976 1.976 0 0 0 0-2.765l-3.763-4.022zM16.48 273.954a1.965 1.965 0 0 0-2.76 0 1.976 1.976 0 0 0 0 2.765l4.014 4.022c.25.252.752.503 1.254.503s1.003-.251 1.254-.503a1.976 1.976 0 0 0 0-2.765l-3.762-4.022zM4.691 273.954l-4.013 4.022a1.976 1.976 0 0 0 0 2.765c.251.252.753.503 1.254.503.502 0 1.004-.251 1.255-.503L7.2 276.72a1.976 1.976 0 0 0 0-2.765c-.502-.754-1.756-.754-2.509 0zM17.734 260.883l-4.013 4.022a1.976 1.976 0 0 0 0 2.765c.25.251.752.502 1.254.502s1.003-.25 1.254-.502l4.013-4.022a1.976 1.976 0 0 0 0-2.765c-.502-.755-1.756-.755-2.508 0zM10.711 81.149c1.003 0 2.007-.755 2.007-2.011V49.727c0-1.006-.753-2.011-2.007-2.011s-2.007.754-2.007 2.01v29.412c0 1.005.753 2.01 2.007 2.01zM10.711 105.532c1.003 0 2.007-.754 2.007-2.01V92.962c0-1.005-.753-2.01-2.007-2.01s-2.007.753-2.007 2.01v10.558c0 1.257.753 2.011 2.007 2.011zM303.413 141.228c1.003 0 2.006-.755 2.006-2.011v-29.663c0-1.005-.752-2.01-2.006-2.01-1.003 0-2.007.753-2.007 2.01v29.663c0 1.005 1.004 2.01 2.007 2.01zM303.413 165.611c1.003 0 2.006-.754 2.006-2.011v-10.558c0-1.005-.752-2.01-2.006-2.01-1.003 0-2.007.753-2.007 2.01V163.6c0 1.257 1.004 2.011 2.007 2.011zM141.386 31.628c4.765 0 8.778-4.022 8.778-8.799 0-4.776-4.013-8.798-8.778-8.798-4.766 0-8.779 4.022-8.779 8.798 0 4.777 3.763 8.799 8.779 8.799zm0-13.826c2.759 0 5.016 2.262 5.016 5.027s-2.257 5.028-5.016 5.028-5.016-2.263-5.016-5.028c0-2.765 2.257-5.027 5.016-5.027zM121.07 259.123c-4.766 0-8.779 4.022-8.779 8.798s4.013 8.798 8.779 8.798c4.765 0 8.778-4.022 8.778-8.798 0-5.027-4.013-8.798-8.778-8.798zm0 13.826c-2.76 0-5.016-2.263-5.016-5.028 0-2.765 2.257-5.027 5.016-5.027s5.016 2.262 5.016 5.027-2.257 5.028-5.016 5.028zM19.49 182.705c0-4.777-4.013-8.799-8.779-8.799-4.765 0-8.779 4.022-8.779 8.799 0 4.776 4.014 8.798 8.779 8.798 4.766 0 8.779-3.77 8.779-8.798zm-8.779 5.027c-2.759 0-5.016-2.262-5.016-5.027 0-2.766 2.257-5.028 5.016-5.028s5.016 2.262 5.016 5.028c0 2.765-2.257 5.027-5.016 5.027zM50.842 26.6c0 1.006.752 2.011 2.006 2.011h38.626c1.003 0 2.006-.754 2.006-2.011 0-1.006-.752-2.011-2.006-2.011H52.848c-1.003 0-2.006 1.005-2.006 2.011zM27.516 28.36h12.54c1.004 0 2.007-.754 2.007-2.011 0-1.006-.752-2.011-2.007-2.011h-12.54c-1.004 0-2.007.754-2.007 2.01.25 1.258 1.003 2.012 2.007 2.012zM27.516 15.288h27.088c1.003 0 2.006-.754 2.006-2.01 0-1.258-1.003-2.012-2.006-2.012H27.516c-1.004 0-2.007.754-2.007 2.011 0 1.257 1.003 2.011 2.007 2.011zM66.141 15.288h8.779c1.003 0 2.006-.754 2.006-2.01 0-1.258-1.003-2.012-2.006-2.012H66.14c-1.003 0-2.006.754-2.006 2.011 0 1.257 1.003 2.011 2.006 2.011zM293.38 267.921c0-1.005-.752-2.01-2.006-2.01h-38.626c-1.003 0-2.006.753-2.006 2.01 0 1.006.752 2.011 2.006 2.011h38.626c1.254-.251 2.006-1.005 2.006-2.01zM302.41 267.921c0 1.006.752 2.011 2.006 2.011h12.54c1.004 0 2.007-.754 2.007-2.01 0-1.006-.752-2.012-2.006-2.012h-12.54c-1.255 0-2.007.754-2.007 2.011zM316.706 279.233H289.87c-1.003 0-2.007.754-2.007 2.011 0 1.006.753 2.011 2.007 2.011h27.088c1.003 0 2.006-.754 2.006-2.011-.25-1.257-1.003-2.011-2.257-2.011zM278.331 279.233h-8.778c-1.004 0-2.007.754-2.007 2.011 0 1.006.753 2.011 2.007 2.011h8.778c1.004 0 2.007-.754 2.007-2.011-.251-1.257-1.003-2.011-2.007-2.011zM304.416 236.248l2.76-4.776c.5-1.006.752-2.263 0-3.268-.503-1.006-1.757-1.76-2.76-1.76H17.483c-1.254 0-2.257.754-2.759 1.76a3.736 3.736 0 0 0 0 3.268l2.759 4.776c4.766 8.044 13.795 13.071 23.075 13.071H281.09c9.531 0 18.31-5.027 23.326-13.071zm-283.923-2.011l-2.258-4.022h285.178l-2.258 4.022c-4.263 7.038-11.788 11.312-20.065 11.312H40.558c-8.026 0-15.801-4.274-20.065-11.312zM184.777 148.517H71.408c-4.514 0-8.026 3.52-8.026 8.044v38.461c0 4.525 3.512 8.044 8.026 8.044h113.369c4.515 0 8.026-3.52 8.026-8.044v-38.46c.251-4.274-3.511-8.045-8.026-8.045zm4.264 46.505c0 2.262-2.007 4.273-4.264 4.273H71.408c-2.257 0-4.263-2.01-4.263-4.273v-38.46c0-2.263 2.006-4.274 4.263-4.274h113.369c2.257 0 4.264 2.011 4.264 4.273v38.461z"/></g><g fill="#0FB0D3"><path d="M153.157 165.318c-.9-.45-1.8-.225-2.249.45-.45.9-.225 1.799.45 2.248l13.492 8.319-13.492 8.318c-.9.45-1.125 1.574-.45 2.248.225.45.9.9 1.35.9.224 0 .674 0 .899-.225l15.74-9.892c.45-.225.9-.9.9-1.35 0-.674-.225-1.124-.9-1.348l-15.74-9.668zM121 165.768c-.45-.9-1.574-1.124-2.248-.45l-15.741 9.892c-.45.225-.9.9-.9 1.35 0 .674.225 1.124.9 1.348l15.74 9.893c.226.224.675.224.9.224.675 0 1.125-.224 1.35-.899.45-.9.224-1.799-.45-2.248l-13.493-8.319 13.493-8.318c.674-.45.9-1.574.45-2.473zM142.138 159.923c-.9-.225-1.799 0-2.249.899l-11.243 29.676c-.225.9 0 1.799.9 2.249h.674c.675 0 1.35-.45 1.574-1.124l11.244-29.677c.45-.674 0-1.799-.9-2.023z"/><path d="M161.477 74.715l7.42 4.047c-.45 2.248-.899 4.721-.899 6.97H68.381c-6.521 0-11.918 5.395-11.918 11.915v115.109c0 .9.675 1.798 1.799 1.798h214.3c.9 0 1.8-.674 1.8-1.798V97.872c0-6.52-5.398-11.916-11.919-11.916h-17.54a27.9 27.9 0 0 0-.674-6.07l7.645-4.047c.675-.45 1.125-1.349.9-2.023l-3.148-7.87c-.225-.898-1.125-1.123-2.024-.898l-8.096 2.248c-2.923-4.721-6.97-8.768-11.468-11.916l2.474-8.093c.225-.9-.225-1.799-.9-2.024l-7.87-3.372c-.9-.45-1.8 0-2.249.674l-4.048 7.42c-5.396-1.35-11.018-1.35-16.64-.225l-4.048-7.644c-.45-.675-1.349-1.124-2.023-.9l-7.87 3.148c-.9.225-1.35 1.124-.9 2.023l2.248 8.094c-4.722 2.923-8.77 6.97-11.918 11.466l-8.095-2.473c-.9-.225-1.799.225-2.024.9l-3.373 7.868c-.45 1.124-.225 2.023.675 2.473zm109.286 23.157v113.535H59.836V97.872a8.54 8.54 0 0 1 8.545-8.544h99.617a27.9 27.9 0 0 0 .675 6.07l-7.646 4.047c-.675.45-1.124 1.35-.9 2.024l3.149 7.869c.225.899 1.124 1.124 2.024.899l8.095-2.248c2.923 4.72 6.97 8.768 11.468 11.915l-2.248 8.094c-.225.9.224 1.798.899 2.023l7.87 3.373c.9.45 1.8 0 2.25-.675l4.047-7.42c5.397 1.35 11.018 1.35 16.64.226l4.048 7.644c.225.674.9.899 1.574.899.225 0 .45 0 .674-.225l7.87-3.147c.9-.225 1.35-1.124.9-2.024l-2.248-8.093c4.722-2.923 8.77-6.97 11.918-11.466l8.095 2.473c.9.225 1.799-.225 2.024-.9l3.373-7.868c.45-.9 0-1.799-.675-2.249l-7.42-4.046c.45-2.249.899-4.722.899-6.97h17.09c4.273-.225 8.32 3.597 8.32 8.319zM166.424 67.52l7.87 2.473c.675.224 1.574 0 2.024-.675 3.148-4.946 7.42-9.218 12.593-12.14.674-.45.9-1.124.674-2.024l-2.248-7.868 4.947-2.024 3.823 7.42c.45.674 1.124 1.123 1.799.899 5.846-1.35 11.693-1.35 17.54.224.674.225 1.574-.224 2.023-.899l4.048-7.194 4.947 2.023-2.474 7.869c-.224.674 0 1.574.675 2.023 4.947 3.148 9.22 7.42 12.143 12.59.45.675 1.124.9 2.024.675l7.87-2.248 2.024 4.946-7.42 3.822c-.675.45-1.125 1.124-.9 1.798 1.35 5.846 1.35 11.691-.225 17.536-.225.675.225 1.574.9 2.024l7.195 4.047-2.023 4.946-7.87-2.473c-.676-.225-1.575 0-2.025.674-3.148 4.946-7.42 9.218-12.592 12.14-.675.45-.9 1.125-.675 2.024l2.249 7.869-4.947 2.023-3.823-7.419c-.225-.674-.9-.9-1.574-.9h-.45c-5.847 1.35-11.693 1.35-17.54-.224-.674-.225-1.574.225-2.024.9l-4.047 7.194-4.498-2.024 2.474-7.869c.225-.674 0-1.573-.675-2.023-4.947-3.148-9.22-7.42-12.143-12.59-.45-.675-1.124-.9-2.023-.675l-7.87 2.249-2.25-4.946 7.421-3.822c.675-.45 1.124-1.125.9-1.799-.675-2.698-.9-5.396-.9-8.094v-.449c0-2.923.45-5.846 1.124-8.768.225-.675-.224-1.574-.9-2.024l-7.195-4.046 2.024-5.171z"/><path d="M196.107 111.81c3.373 1.35 6.97 2.024 10.344 2.024 10.119 0 20.013-6.07 24.286-15.962 2.698-6.52 2.923-13.715.224-20.234-2.698-6.52-7.645-11.691-14.166-14.389-6.522-2.698-13.717-2.923-20.239-.225-6.52 2.698-11.693 7.644-14.391 14.164-2.699 6.52-2.924 13.714-.225 20.234 2.698 6.52 7.645 11.69 14.167 14.389zm-10.794-33.273c2.474-5.62 6.97-9.892 12.593-12.365 2.698-1.124 5.621-1.574 8.545-1.574 3.148 0 6.071.674 8.994 1.798 5.622 2.474 9.895 6.97 12.368 12.59 2.249 5.621 2.249 11.916-.225 17.537-4.947 11.69-18.439 17.086-30.132 12.14-5.622-2.473-9.894-6.97-12.368-12.59-2.249-5.62-2.249-11.916.225-17.536zM267.165 26.378c.225.225.675.45 1.125.45.45 0 .9-.225 1.124-.45a1.764 1.764 0 0 0 0-2.473l-3.598-3.597a1.765 1.765 0 0 0-2.473 0 1.764 1.764 0 0 0 0 2.473l3.822 3.597zM278.859 38.069c.224.225.674.45 1.124.45.45 0 .9-.225 1.124-.45a1.764 1.764 0 0 0 0-2.473l-3.598-3.597a1.765 1.765 0 0 0-2.473 0 1.764 1.764 0 0 0 0 2.473l3.823 3.597zM264.692 38.519c.45 0 .9-.225 1.124-.45l3.598-3.597a1.764 1.764 0 0 0 0-2.473 1.765 1.765 0 0 0-2.474 0l-3.597 3.597a1.764 1.764 0 0 0 0 2.473c.45.225.899.45 1.349.45zM276.385 26.828c.45 0 .9-.225 1.124-.45l3.598-3.597a1.764 1.764 0 0 0 0-2.473 1.765 1.765 0 0 0-2.473 0l-3.598 3.597a1.764 1.764 0 0 0 0 2.473c.45.225.9.45 1.349.45zM24.082 252.325a1.765 1.765 0 0 0-2.474 0 1.764 1.764 0 0 0 0 2.473l3.598 3.597c.225.225.675.45 1.124.45.45 0 .9-.225 1.125-.45a1.764 1.764 0 0 0 0-2.473l-3.373-3.597zM35.775 264.015a1.765 1.765 0 0 0-2.474 0 1.764 1.764 0 0 0 0 2.473l3.598 3.598c.225.224.675.45 1.125.45.45 0 .9-.226 1.124-.45a1.764 1.764 0 0 0 0-2.474l-3.373-3.597zM25.206 264.015l-3.598 3.597a1.764 1.764 0 0 0 0 2.474c.225.224.675.45 1.125.45.45 0 .899-.226 1.124-.45l3.598-3.598a1.764 1.764 0 0 0 0-2.473c-.45-.674-1.574-.674-2.249 0zM36.9 252.325l-3.599 3.597a1.764 1.764 0 0 0 0 2.473c.225.225.675.45 1.125.45.45 0 .9-.225 1.124-.45l3.598-3.597a1.764 1.764 0 0 0 0-2.473c-.45-.675-1.574-.675-2.249 0zM30.603 91.577c.9 0 1.799-.675 1.799-1.799V63.474c0-.9-.675-1.799-1.799-1.799-1.124 0-1.799.675-1.799 1.799v26.304c0 .9.675 1.799 1.799 1.799zM30.603 113.384c.9 0 1.799-.674 1.799-1.798v-9.443c0-.9-.675-1.798-1.799-1.798-1.124 0-1.799.674-1.799 1.798v9.443c0 1.124.675 1.798 1.799 1.798zM293.025 145.31c.9 0 1.8-.675 1.8-1.8v-26.528c0-.9-.675-1.8-1.8-1.8-.9 0-1.799.675-1.799 1.8v26.529c0 .899.9 1.798 1.8 1.798zM293.025 167.117c.9 0 1.8-.675 1.8-1.799v-9.442c0-.9-.675-1.799-1.8-1.799-.9 0-1.799.675-1.799 1.799v9.442c0 1.124.9 1.799 1.8 1.799zM147.76 47.287c4.272 0 7.87-3.598 7.87-7.87 0-4.27-3.598-7.868-7.87-7.868-4.273 0-7.87 3.597-7.87 7.869 0 4.271 3.372 7.869 7.87 7.869zm0-12.366a4.51 4.51 0 0 1 4.497 4.497 4.51 4.51 0 0 1-4.497 4.496 4.51 4.51 0 0 1-4.498-4.496 4.51 4.51 0 0 1 4.498-4.497zM129.545 250.75c-4.272 0-7.87 3.598-7.87 7.87 0 4.271 3.598 7.868 7.87 7.868 4.273 0 7.87-3.597 7.87-7.868 0-4.497-3.597-7.87-7.87-7.87zm0 12.366a4.51 4.51 0 0 1-4.497-4.496 4.51 4.51 0 0 1 4.497-4.497 4.51 4.51 0 0 1 4.498 4.497 4.51 4.51 0 0 1-4.498 4.496zM38.473 182.405c0-4.272-3.598-7.869-7.87-7.869-4.273 0-7.87 3.597-7.87 7.869 0 4.271 3.597 7.869 7.87 7.869 4.272 0 7.87-3.373 7.87-7.87zm-7.87 4.496a4.51 4.51 0 0 1-4.497-4.496 4.51 4.51 0 0 1 4.497-4.497 4.51 4.51 0 0 1 4.497 4.497 4.51 4.51 0 0 1-4.497 4.496zM66.582 42.79c0 .9.675 1.799 1.799 1.799h34.63c.9 0 1.799-.675 1.799-1.799 0-.9-.675-1.798-1.8-1.798H68.382c-.9 0-1.799.899-1.799 1.798zM45.67 44.364h11.243c.9 0 1.799-.675 1.799-1.799 0-.899-.675-1.798-1.8-1.798H45.67c-.9 0-1.799.674-1.799 1.798.225 1.124.9 1.799 1.8 1.799zM45.67 32.673h24.285c.9 0 1.799-.674 1.799-1.798 0-1.125-.9-1.799-1.799-1.799H45.67c-.9 0-1.799.674-1.799 1.799 0 1.124.9 1.798 1.8 1.798zM80.3 32.673h7.87c.899 0 1.798-.674 1.798-1.798 0-1.125-.899-1.799-1.799-1.799H80.3c-.9 0-1.799.674-1.799 1.799 0 1.124.9 1.798 1.8 1.798zM284.03 258.62c0-.9-.674-1.799-1.798-1.799h-34.63c-.9 0-1.8.674-1.8 1.799 0 .899.675 1.798 1.8 1.798h34.63c1.124-.225 1.799-.9 1.799-1.798zM292.126 258.62c0 .899.674 1.798 1.799 1.798h11.243c.9 0 1.8-.674 1.8-1.798 0-.9-.675-1.799-1.8-1.799h-11.243c-1.125 0-1.8.674-1.8 1.799zM304.943 268.737h-24.06c-.9 0-1.8.674-1.8 1.798 0 .9.675 1.799 1.8 1.799h24.285c.9 0 1.8-.675 1.8-1.799-.226-1.124-.9-1.798-2.025-1.798zM270.538 268.737h-7.87c-.9 0-1.799.674-1.799 1.798 0 .9.675 1.799 1.799 1.799h7.87c.9 0 1.8-.675 1.8-1.799-.226-1.124-.9-1.798-1.8-1.798zM293.925 230.292l2.473-4.272c.45-.899.675-2.023 0-2.922-.45-.9-1.574-1.574-2.473-1.574H36.675c-1.125 0-2.024.674-2.474 1.574-.45.899-.45 2.023 0 2.922l2.473 4.272c4.273 7.194 12.368 11.69 20.688 11.69h215.65c8.545 0 16.415-4.496 20.913-11.69zm-254.552-1.799l-2.024-3.597h255.676l-2.024 3.597c-3.822 6.295-10.568 10.117-17.99 10.117H57.363c-7.195 0-14.166-3.822-17.99-10.117zM186.662 151.829H85.022c-4.048 0-7.197 3.147-7.197 7.194v34.398c0 4.047 3.149 7.194 7.196 7.194h101.641c4.048 0 7.196-3.147 7.196-7.194v-34.398c.225-3.822-3.148-7.194-7.196-7.194zm3.823 41.592c0 2.024-1.799 3.822-3.823 3.822H85.022c-2.025 0-3.823-1.798-3.823-3.822v-34.398c0-2.023 1.798-3.822 3.822-3.822h101.641c2.024 0 3.823 1.799 3.823 3.822v34.398z"/></g></g></svg>