<?xml version="1.0" encoding="UTF-8"?>
<svg width="932px" height="470px" viewBox="0 0 932 470" version="1.1" xmlns="http://www.w3.org/2000/svg" xmlns:xlink="http://www.w3.org/1999/xlink">
    <!-- Generator: Sketch 46 (44423) - http://www.bohemiancoding.com/sketch -->
    <title>Artboard 4</title>
    <desc>Created with Sketch.</desc>
    <defs></defs>
    <g id="redesing-v6" stroke="none" stroke-width="1" fill="none" fill-rule="evenodd">
        <g id="Artboard-4" fill-rule="nonzero">
            <g id="Group-5" transform="translate(0.000000, 1.000000)">
                <g id="icon_react_contour_left" transform="translate(798.720798, 315.498366) rotate(30.000000) translate(-798.720798, -315.498366) translate(649.220798, 182.998366)" stroke="#63388A">
                    <path d="M245.678683,85.879824 C277.950607,96.9522865 298.804903,114.297079 298.804903,132.231015 C298.804903,150.93466 276.518445,169.221818 242.262916,180.532837 C240.452546,181.131206 238.597215,181.705851 236.706179,182.262044 C237.380604,184.966567 237.982298,187.622324 238.498035,190.222725 C245.260804,224.267812 240.053181,252.250129 224.025656,261.497171 C208.507256,270.4503 183.42656,261.65533 158.031132,239.875489 C155.270765,237.502374 152.577306,235.05303 149.953894,232.530312 C147.871109,234.537616 145.790969,236.452661 143.718763,238.258312 C117.500801,261.099137 90.5766745,270.575509 74.5346031,261.356146 C59.0029793,252.426741 54.1219896,226.379237 60.3716664,193.574382 C61.0545609,190.009197 61.8372882,186.463729 62.7189318,182.942129 C60.0050713,182.170042 57.3109405,181.330659 54.6390492,180.424762 C21.68741,169.20073 0,150.688195 0,132.231015 C0,114.361661 20.2036738,97.1328515 51.8381995,86.1407867 C55.3743053,84.9124168 59.0704218,83.7578546 62.8974562,82.6744641 C62.0776104,79.4056837 61.341235,76.116668 60.6890431,72.8106016 C54.1338912,39.425829 58.7464331,12.7456889 74.3190514,3.76092794 C90.5594832,-5.60868706 117.606593,4.45287447 144.590227,28.3322787 C146.268682,29.8208847 147.919324,31.3403524 149.541304,32.8898998 C151.963353,30.5595457 154.444091,28.2905551 156.981144,26.0851 C182.728331,3.75433797 208.221617,-5.58759917 223.808782,3.37211989 C240.066405,12.714057 244.827056,41.0930907 237.545905,76.3204179 C237.09094,78.5088881 236.595395,80.6887827 236.059524,82.8589831 C239.290858,83.7852491 242.498262,84.7925157 245.678683,85.879824 Z M238.248101,168.457382 L238.249423,168.457382 C267.824967,158.689733 286.041069,143.743688 286.041069,132.231015 C286.041069,121.42347 269.175141,107.396066 241.523693,97.9104676 C238.664658,96.9285626 235.697185,95.9993772 232.641112,95.1163217 C228.964831,106.971672 224.058716,119.496563 218.098645,132.294279 C224.343033,145.401723 229.447508,158.090046 233.229581,170.02184 C234.938126,169.517048 236.614933,168.996441 238.248101,168.457382 Z M225.9762,192.693962 L225.9762,192.693962 C225.509392,190.34398 224.967207,187.941278 224.358901,185.48981 C211.982531,188.34063 198.335332,190.42965 183.889401,191.706785 C175.677278,203.555546 167.262827,214.22602 158.843087,223.404526 C161.358298,225.816454 163.866896,228.096583 166.356981,230.231732 C188.073484,248.857614 208.21236,255.919423 217.629192,250.486654 C222.053953,247.933701 225.632375,241.559885 227.41233,231.999161 C229.39329,221.359 228.966154,207.748083 225.9762,192.693962 Z M101.868674,249.548243 L101.869997,249.548243 C112.108041,245.943531 123.725352,238.778919 135.318859,228.677818 C137.25924,226.983138 139.157464,225.241102 141.011804,223.453292 C132.286589,214.120581 123.628816,203.463286 115.362475,191.868898 C100.882161,190.69852 87.3341422,188.757116 75.095302,186.059183 C74.2764059,189.334307 73.5488045,192.631437 72.9133369,195.94677 C67.5695062,224.000259 71.486464,244.916814 80.912553,250.333767 C85.3412808,252.878812 92.6687161,252.786553 101.868674,249.548243 Z M58.7675915,168.38621 L58.7675915,168.38621 C61.2070897,169.213404 63.6666206,169.980708 66.1439557,170.687427 C69.918094,158.423498 74.8929743,145.548021 80.8887497,132.540744 C74.9696737,119.724576 70.0648808,107.050752 66.3251249,94.9291666 C62.8661727,95.903956 59.4365942,96.97946 56.0407964,98.1542964 C28.9857524,107.555543 12.7638342,121.387884 12.7638342,132.231015 C12.7638342,137.327696 16.5062349,143.607934 23.9169816,149.934303 C32.1648094,156.972387 44.1973547,163.422647 58.7675915,168.38621 Z M73.2161672,70.3670418 L73.2161672,70.3657238 C73.8232723,73.4410582 74.5080537,76.5006531 75.2698592,79.5415938 C87.6369725,76.7487658 101.089779,74.6637003 115.142956,73.3654768 C123.337888,61.8383066 131.916316,51.2614097 140.59657,41.9708743 C139.098287,40.5434874 137.602649,39.1635483 136.113623,37.845555 C112.815527,17.2281844 90.7115596,9.00390564 80.7141925,14.7714447 C71.3290981,20.1857615 67.5999215,41.7626313 73.2161672,70.3670418 Z M202.106825,102.087189 L202.106825,102.087189 C205.075248,107.195303 207.941026,112.361988 210.702445,117.584155 C214.481873,108.766779 217.691345,100.165554 220.266064,91.9399576 C211.688958,89.9880094 202.55512,88.3932374 193.020594,87.1938634 C196.156292,92.092699 199.185739,97.0582927 202.106825,102.087189 Z M149.545271,51.0623927 L149.545271,51.0623927 C143.565365,57.4928824 137.618518,64.5810508 131.813169,72.2109146 C143.578823,71.6620731 155.363859,71.6647119 167.129265,72.2188225 C161.329205,64.5177872 155.43261,57.4190748 149.545271,51.0623927 Z M96.6465045,102.174176 L96.6465045,102.174176 C99.5816795,97.1020597 102.63595,92.0993353 105.80679,87.1701395 C96.3344173,88.3497436 87.2428964,89.9036578 78.7173639,91.8055223 C81.3145635,100.14842 84.4949428,108.787867 88.2122178,117.574929 C90.9030529,112.376648 93.7152474,107.241666 96.6465045,102.174176 Z M106.079205,178.199989 L106.079205,178.199989 C102.830656,173.17702 99.7027252,168.077573 96.6980782,162.905994 C93.7534953,157.836229 90.9289431,152.698149 88.2267642,147.496015 C84.4301451,156.47155 81.1796784,165.296834 78.5414843,173.787347 C87.064372,175.636492 96.2934228,177.111326 106.079205,178.199989 Z M149.898353,214.29851 C155.746019,207.8812 161.621456,200.674412 167.440029,192.792812 C161.514341,193.05641 155.49344,193.192164 149.402452,193.192164 C143.474119,193.192164 137.640999,193.078816 131.920283,192.854757 C137.814234,200.595333 143.848359,207.791576 149.898353,214.29851 Z M210.824106,147.038671 L210.824106,147.038671 C208.053354,152.36177 205.16407,157.622745 202.158399,162.817688 C199.201694,167.929247 196.143252,172.981676 192.984889,177.971976 C202.840759,176.79369 212.194116,175.206826 220.8585,173.236426 C218.184602,164.889574 214.817763,156.111738 210.824106,147.038671 Z M191.100465,156.462324 L191.101787,156.462324 C195.6673,148.581418 199.949751,140.540955 203.940998,132.356225 C199.908268,124.254043 195.612153,116.284755 191.05947,108.461005 C186.532363,100.657703 181.730374,93.0160544 176.662468,85.5503256 C167.778564,84.875513 158.655306,84.5222908 149.403774,84.5222908 C140.193237,84.5222908 131.08188,84.872877 122.195331,85.5424177 C117.075641,93.0196525 112.242741,100.687993 107.707084,108.530858 L107.707084,108.528222 C103.170002,116.369418 98.9304664,124.377935 94.9974679,132.53679 C98.9404955,140.693201 103.192881,148.697431 107.745433,156.532178 C112.319364,164.408714 117.190613,172.109984 122.34873,179.619468 C131.059399,180.182251 140.104636,180.470891 149.402452,180.470891 C158.738617,180.470891 167.900226,180.145347 176.765616,179.514028 C181.793334,171.987019 186.574143,164.299055 191.100465,156.462324 Z M217.433477,14.3931806 L217.433477,14.3931806 C208.039125,8.99336169 187.421539,16.5480998 165.361212,35.6827278 C163.018968,37.7195429 160.727859,39.8140412 158.490005,41.9642843 C167.030084,51.1348823 175.537103,61.7302311 183.747904,73.3826107 C197.842075,74.7006041 211.304138,76.8225734 223.700345,79.6733931 C224.183919,77.7081392 224.631846,75.734342 225.043906,73.7529668 C231.33061,43.3376334 227.438778,20.1449037 217.433477,14.3931806 Z" id="Combined-Shape"></path>
                    <path d="M149.92121,105.260113 C164.820072,105.260113 176.896653,117.216164 176.896653,131.963372 C176.896653,146.711903 164.820072,158.667954 149.92121,158.667954 C135.023685,158.667954 122.945768,146.711903 122.945768,131.963372 C122.945768,117.216164 135.023685,105.260113 149.92121,105.260113" id="Shape"></path>
                </g>
                <g id="icon_react_contour_top" transform="translate(497.000000, 0.000000)" stroke="#64AFDD">
                    <path d="M118.397423,41.1629197 C133.949902,46.4700438 144,54.7835485 144,63.3794344 C144,72.3442479 133.259714,81.1094362 116.751297,86.5309026 C115.878844,86.8177058 114.984723,87.0931381 114.073395,87.3597261 C114.398414,88.6560264 114.688382,89.9289529 114.936926,91.1753468 C118.196038,107.493443 115.686381,120.905602 107.9624,125.337787 C100.483776,129.629096 88.3968914,125.413594 76.1583317,114.974333 C74.8280562,113.836879 73.5300251,112.662888 72.2657509,111.453728 C71.2620156,112.415846 70.259555,113.333743 69.2609181,114.199206 C56.6259626,125.147006 43.6506931,129.68911 35.9197012,125.270192 C28.4347041,120.990253 26.0824585,108.505467 29.0943015,92.7818242 C29.4234019,91.0730012 29.8006137,89.3736286 30.2254952,87.6856964 C28.9176321,87.3156285 27.6192771,86.9133051 26.3316398,86.4791011 C10.4515923,81.0993286 0,72.2261153 0,63.3794344 C0,54.8145031 9.73655048,46.5565902 24.9818549,41.2880013 C26.6859743,40.6992334 28.467206,40.145842 30.3115297,39.6265638 C29.9164297,38.05981 29.5615558,36.4833572 29.2472517,34.8987318 C26.0881942,18.8971304 28.3110694,6.10911554 35.8158225,1.8026443 C43.6424083,-2.68829073 56.676946,2.13430007 69.6808936,13.5798987 C70.4897742,14.2934001 71.2852513,15.0216937 72.0669157,15.7644048 C73.234149,14.6474465 74.4296658,13.5599003 75.6523217,12.5028071 C88.0604011,1.79948567 100.34612,-2.67818313 107.857884,1.61628534 C115.692754,6.09395414 117.987006,19.6962629 114.478075,36.5810162 C114.258819,37.6299683 114.020006,38.6748101 113.761759,39.7150054 C115.319003,40.1589724 116.864715,40.6417637 118.397423,41.1629197 Z M114.816478,80.7430355 L114.817115,80.7430355 C129.070155,76.0613195 137.848856,68.8975548 137.848856,63.3794344 C137.848856,58.1992871 129.720831,51.4758349 116.39505,46.9293081 C115.017225,46.4586728 113.587141,46.0133064 112.114359,45.5900505 C110.342686,51.2724194 107.978332,57.2757048 105.106056,63.4097572 C108.11535,69.6922652 110.575298,75.7738845 112.397954,81.4928934 C113.221335,81.2509427 114.029422,81.0014112 114.816478,80.7430355 Z M108.902406,92.3598317 L108.902406,92.3598317 C108.677442,91.2334656 108.416152,90.0818304 108.122997,88.9068214 C102.15858,90.2732431 95.5817239,91.2745277 88.6199437,91.8866695 C84.662359,97.5658798 80.6072687,102.680328 76.5496291,107.079663 C77.7617589,108.23572 78.9707023,109.328605 80.1707235,110.352 C90.6363363,119.279541 100.341659,122.664325 104.879817,120.060354 C107.012197,118.836702 108.73671,115.781678 109.594505,111.199143 C110.549169,106.099225 110.343323,99.5753979 108.902406,92.3598317 Z M49.0925313,119.610565 L49.0931686,119.610565 C54.0270849,117.882797 59.625697,114.448738 65.2128379,109.607195 C66.1479459,108.794921 67.0627374,107.959949 67.9563809,107.103036 C63.7515268,102.62979 59.5791747,97.521659 55.5954611,91.9643717 C48.6171113,91.4033997 42.0880525,90.4728683 36.1899131,89.1797267 C35.7952709,90.749521 35.4446253,92.3298629 35.1383809,93.9189297 C32.5630831,107.365202 34.4507426,117.390683 38.9933615,119.987074 C41.1276532,121.206935 44.6588893,121.162714 49.0925313,119.610565 Z M28.3212661,80.7089224 L28.3212661,80.7089224 C29.4969086,81.1054035 30.6822052,81.4731787 31.8760821,81.8119147 C33.6949141,75.933711 36.0924074,69.7623867 38.9818903,63.5278899 C36.1293703,57.3849932 33.7656535,51.3103229 31.9633911,45.5003455 C30.2964535,45.9675702 28.6436717,46.4830683 27.0071695,47.0461773 C13.9688081,51.5522737 6.15114447,58.1822305 6.15114447,63.3794344 C6.15114447,65.8223161 7.95468144,68.8324871 11.526067,71.8647684 C15.5008586,75.2381814 21.2995804,78.329845 28.3212661,80.7089224 Z M35.2843208,33.7275131 L35.2843208,33.7268814 C35.5768968,35.200915 35.9069065,36.6674044 36.2740357,38.1249528 C42.2339925,36.786327 48.7171662,35.7869376 55.4896706,35.1646882 C59.4389704,29.6396188 63.573085,24.5700235 67.7562711,20.1169919 C67.0342191,19.4328335 66.3134416,18.7714171 65.5958505,18.1396918 C54.3680363,8.25761323 43.7156969,4.31564747 38.8977677,7.0800773 C34.3749048,9.67520476 32.5777408,20.0171794 35.2843208,33.7275131 Z M97.3992813,48.9312455 L97.3992813,48.9312455 C98.8298229,51.3796074 100.210898,53.856043 101.541681,56.3590714 C103.363062,52.1328292 104.90977,48.01019 106.150578,44.0675926 C102.017101,43.1320074 97.6153233,42.3676198 93.0204465,41.7927498 C94.5316016,44.1408028 95.9915519,46.5208535 97.3992813,48.9312455 Z M72.0688276,24.4746329 L72.0688276,24.4746329 C69.1869922,27.5568206 66.3210891,30.9542392 63.5233762,34.6112968 C69.193478,34.3482325 74.8729202,34.3494973 80.5429022,34.6150872 C77.7477385,30.9239163 74.9060525,27.521444 72.0688276,24.4746329 Z M46.5758643,48.9729394 L46.5758643,48.9729394 C47.9903833,46.5418314 49.4622967,44.1439836 50.9903875,41.7813788 C46.4254634,42.3467729 42.0440794,43.091577 37.9354565,44.0031566 C39.1870984,48.0019776 40.7197862,52.1429368 42.5112146,56.3546493 C43.8079813,53.8630697 45.1632335,51.4018296 46.5758643,48.9729394 Z M51.1216697,85.4127488 L51.1216697,85.4127488 C49.5561296,83.0051977 48.0487176,80.5609898 46.6007187,78.0822087 C45.1816659,75.6522279 43.8204583,73.1895031 42.5182248,70.6960767 C40.6885588,74.9981258 39.1220946,79.2281583 37.8506966,83.2977326 C41.9580449,84.1840431 46.4057073,84.8909437 51.1216697,85.4127488 Z M72.2389846,102.715073 C75.0570908,99.6392022 77.8885801,96.1849283 80.6926658,92.4072111 C77.8369594,92.5335562 74.9353679,92.5986239 72,92.5986239 C69.143019,92.5986239 66.331923,92.5442955 63.5749969,92.4369022 C66.4154083,96.1470248 69.3233727,99.5962449 72.2389846,102.715073 Z M101.600312,70.476868 L101.600312,70.476868 C100.265031,73.028274 98.8726279,75.5499035 97.4241357,78.0398831 C95.999241,80.4898962 94.5253173,82.9115677 93.0032396,85.3034603 C97.7529785,84.7386979 102.260546,83.9781007 106.436085,83.0336714 C105.14748,79.0329552 103.524934,74.8256648 101.600312,70.476868 Z M92.0950982,74.9937037 L92.0957355,74.9937037 C94.2959463,71.2163193 96.3597444,67.3624583 98.2832056,63.4394483 C96.339753,59.5560045 94.2693702,55.736258 92.0753421,51.986269 C89.8936394,48.2460808 87.5794659,44.5833748 85.1371417,41.0049884 C80.8558126,40.6815451 76.4591336,40.5122427 72.0006373,40.5122427 C67.561897,40.5122427 63.1709536,40.6802816 58.8883499,41.001198 C56.4210697,44.5850994 54.0919998,48.2605993 51.9061764,52.0197504 L51.9061764,52.018487 C49.7196671,55.7768376 47.6765508,59.6153873 45.7811609,63.5259947 C47.681384,67.4354309 49.730693,71.2719254 51.9246579,75.0271852 C54.1289259,78.8024751 56.476477,82.4937583 58.9622758,86.093117 C63.1601197,86.3628636 67.5191984,86.5012115 72,86.5012115 C76.499283,86.5012115 80.9144435,86.3451753 85.1868505,86.0425789 C87.6098077,82.4348201 89.9137743,78.7499145 92.0950982,74.9937037 Z M104.785498,6.89877215 L104.785498,6.89877215 C100.258174,4.31059366 90.3221512,7.93164298 79.6908425,17.1030306 C78.5620691,18.0792932 77.4579383,19.0832038 76.3794721,20.1138333 C80.4951052,24.5093778 84.5948061,29.5878174 88.5517534,35.1729006 C95.3440139,35.8046259 101.831649,36.8217036 107.805626,38.1881254 C108.03867,37.2461627 108.254535,36.3001051 108.453115,35.3504154 C111.482802,20.7720911 109.607251,9.65562128 104.785498,6.89877215 Z" id="Combined-Shape"></path>
                    <path d="M72.2696629,50.371308 C79.4186907,50.371308 85.2134831,56.1294099 85.2134831,63.2317488 C85.2134831,70.3347251 79.4186907,76.092827 72.2696629,76.092827 C65.1212767,76.092827 59.3258427,70.3347251 59.3258427,63.2317488 C59.3258427,56.1294099 65.1212767,50.371308 72.2696629,50.371308" id="Shape"></path>
                </g>
                <g id="icon_react_contour_right" transform="translate(0.000000, 2.000000)" stroke="#61DAFB">
                    <path d="M211.306511,74.2229025 C239.063366,83.7924412 257,98.782934 257,114.282602 C257,130.447502 237.831573,146.252448 208.368634,156.028163 C206.811547,156.545312 205.21579,157.041958 203.589323,157.522656 C204.169391,159.860079 204.686904,162.155356 205.130486,164.402791 C210.947096,193.826759 206.468056,218.010889 192.682894,226.002781 C179.335627,233.740654 157.763897,226.139472 135.921467,207.315924 C133.547295,205.264924 131.23067,203.148042 128.974291,200.967746 C127.182903,202.702588 125.393789,204.357694 123.6115,205.918254 C101.061614,225.658774 77.9043619,233.848868 64.1066889,225.880897 C50.7480483,218.163528 46.5499434,195.651589 51.9252465,167.29951 C52.5125992,164.218246 53.1858175,161.154023 53.944113,158.110429 C51.6099406,157.443141 49.2927377,156.717692 46.9946627,155.934757 C18.6531891,146.234222 0,130.234491 0,114.282602 C0,98.8387496 17.377038,83.9484972 44.5856715,74.4484433 C47.6270513,73.3868066 50.8060552,72.3889592 54.0976606,71.452623 C53.3925169,68.6275314 52.7591656,65.7849512 52.19822,62.9276345 C46.5601799,34.0743533 50.5273947,11.0156493 63.9212944,3.25043735 C77.8895758,-4.84739038 101.152605,3.84846233 124.361039,24.486589 C125.804666,25.7731387 127.224372,27.0863611 128.619426,28.4255802 C130.702613,26.4115374 132.836279,24.4505288 135.01838,22.5444317 C157.163355,3.24474188 179.089951,-4.82916486 192.496362,2.91440427 C206.47943,10.988311 210.574032,35.5153087 204.311565,65.961045 C203.920253,67.8524626 203.494038,69.7364686 203.033139,71.6120963 C205.812387,72.4126353 208.571053,73.2831803 211.306511,74.2229025 Z M204.915519,145.591773 L204.916656,145.591773 C230.354374,137.149938 246.021916,124.232599 246.021916,114.282602 C246.021916,104.942022 231.515649,92.8186315 207.732833,84.6205634 C205.273797,83.7719375 202.721494,82.9688754 200.092987,82.2056816 C196.931044,92.4518429 192.711329,103.276664 187.585114,114.337279 C192.955868,125.665581 197.346191,136.63165 200.599125,146.943879 C202.068633,146.507605 203.510843,146.057663 204.915519,145.591773 Z M194.360544,166.538594 L194.360544,166.538594 C193.959045,164.507588 193.492715,162.431017 192.969516,160.3123 C182.324687,162.776163 170.586827,164.581629 158.161983,165.685412 C151.098794,175.925878 143.861584,185.147992 136.619824,193.080651 C138.783139,195.165196 140.940767,197.13583 143.082472,198.981164 C161.760683,215.078858 179.081989,221.18213 187.181341,216.486779 C190.987046,214.280352 194.064822,208.771688 195.595749,200.508691 C197.299558,191.312776 196.932181,179.54934 194.360544,166.538594 Z M87.6165315,215.675744 L87.6176689,215.675744 C96.4233391,212.560318 106.415307,206.368197 116.386801,197.638171 C118.055709,196.17352 119.688358,194.667939 121.283263,193.122798 C113.778767,185.056865 106.332277,175.846141 99.2224548,165.825521 C86.7680389,164.814004 75.1154827,163.136117 64.5889421,160.804389 C63.8846154,163.634963 63.2588105,166.484556 62.7122493,169.349881 C58.116058,193.595522 61.4850059,211.672963 69.5923189,216.354644 C73.4014366,218.554237 79.7037122,218.474501 87.6165315,215.675744 Z M50.5455929,145.530262 L50.5455929,145.530262 C52.6437882,146.245176 54.7592134,146.90833 56.889952,147.519122 C60.1360619,136.919841 64.4149215,125.79202 69.5718458,114.55029 C64.4808901,103.473728 60.2623121,92.5201886 57.0457744,82.0439301 C54.0707538,82.8864062 51.1209974,83.8159263 48.2002956,84.831296 C24.9304422,92.956462 10.9780842,104.911266 10.9780842,114.282602 C10.9780842,118.687483 14.1968967,124.115272 20.5708279,129.582929 C27.6647268,135.665697 38.0138346,141.240429 50.5455929,145.530262 Z M62.9727115,60.8157521 L62.9727115,60.814613 C63.4948783,63.472516 64.083854,66.1168159 64.7390775,68.7449937 C75.3759449,66.331251 86.9466091,64.5292024 99.0336481,63.4071936 C106.082051,53.4446671 113.460298,44.3034281 120.926123,36.2739461 C119.63746,35.040306 118.351073,33.8476733 117.070372,32.7085782 C97.0318425,14.889712 78.0203756,7.78175803 69.4217104,12.7664386 C61.3496566,17.4458417 58.142218,36.0939691 62.9727115,60.8157521 Z M173.830662,88.2303561 L173.830662,88.2303561 C176.383781,92.6451188 178.848617,97.1105028 181.223694,101.623837 C184.474353,94.0032905 187.234798,86.5695553 189.449295,79.4604622 C182.072187,77.7734622 174.216237,76.395157 166.015658,75.3585804 C168.71265,79.5924712 171.318256,83.8840587 173.830662,88.2303561 Z M128.622838,44.1314248 L128.622838,44.1314248 C123.479562,49.6890702 118.364721,55.8151242 113.371581,62.4093462 C123.491138,61.9350019 133.627364,61.9372826 143.746707,62.4161808 C138.758117,55.7604476 133.686496,49.6252809 128.622838,44.1314248 Z M83.1249801,88.3055364 L83.1249801,88.3055364 C85.6495035,83.9218849 88.2764601,79.5982067 91.0036777,75.3380767 C82.8565561,76.3575669 75.0370028,77.7005601 67.7042522,79.3442745 C69.9380853,86.554747 72.6735072,94.021516 75.8707093,101.615864 C78.1850777,97.1231729 80.6038265,92.6851888 83.1249801,88.3055364 Z M91.23798,154.011964 L91.23798,154.011964 C88.4439257,149.67079 85.7536141,145.263517 83.1693383,140.793904 C80.6367232,136.412285 78.2073457,131.971624 75.8832206,127.475603 C72.6177751,135.232841 69.8220716,142.860222 67.5529793,150.198274 C74.8834552,151.796424 82.8212971,153.071072 91.23798,154.011964 Z M128.926521,185.210643 C133.956058,179.664388 139.00948,173.435816 144.013994,166.624026 C138.917351,166.851845 133.738816,166.969172 128.5,166.969172 C123.401083,166.969172 118.384057,166.87121 113.46371,166.677564 C118.533055,173.36747 123.722964,179.58693 128.926521,185.210643 Z M181.328334,127.080337 L181.328334,127.080337 C178.94523,131.680904 176.460176,136.227779 173.87502,140.717584 C171.331979,145.135325 168.701434,149.501961 165.984948,153.814901 C174.461913,152.79655 182.506669,151.425079 189.958846,149.722132 C187.659044,142.508242 184.76325,134.921868 181.328334,127.080337 Z M164.364168,135.224867 L164.365306,135.224867 C168.292071,128.413678 171.975377,121.46459 175.408221,114.390816 C171.939698,107.388386 168.24464,100.500812 164.328909,93.7390204 C160.435176,86.9949016 156.305019,80.3904947 151.946149,73.9381287 C144.305166,73.3549119 136.458315,73.0496344 128.501137,73.0496344 C120.579219,73.0496344 112.742605,73.3526338 105.099347,73.9312941 C100.695937,80.3936044 96.539194,87.0210807 92.6381065,93.7993925 L92.6381065,93.7971143 C88.7357947,100.573983 85.0893997,107.495462 81.7066553,114.546872 C85.0980257,121.596171 88.7554729,128.513944 92.6710908,135.285239 C96.6050969,142.092652 100.794823,148.748588 105.231284,155.23877 C112.723269,155.725164 120.503014,155.974625 128.5,155.974625 C136.52997,155.974625 144.409805,155.693269 152.034865,155.147642 C156.359171,148.642313 160.471111,141.997877 164.364168,135.224867 Z M187.013007,12.4395183 L187.013007,12.4395183 C178.932991,7.77264527 161.19995,14.3019389 142.226017,30.8393229 C140.21147,32.5996703 138.240904,34.4098714 136.316141,36.2682506 C143.661403,44.194075 150.97823,53.3512613 158.040282,63.4220019 C170.16258,64.5610971 181.741206,66.3950403 192.403096,68.8589032 C192.819015,67.1604036 193.204274,65.4545203 193.558684,63.7420876 C198.965834,37.4551878 195.618497,17.4105297 187.013007,12.4395183 Z" id="Combined-Shape"></path>
                    <path d="M129,91 C141.703177,91 152,101.297708 152,113.99943 C152,126.702292 141.703177,137 129,137 C116.297963,137 106,126.702292 106,113.99943 C106,101.297708 116.297963,91 129,91" id="Shape"></path>
                </g>
            </g>
        </g>
    </g>
</svg>