<?xml version="1.0" encoding="UTF-8"?>
<svg width="671px" height="610px" viewBox="0 0 671 610" version="1.1" xmlns="http://www.w3.org/2000/svg" xmlns:xlink="http://www.w3.org/1999/xlink">
    <!-- Generator: Sketch 45.2 (43514) - http://www.bohemiancoding.com/sketch -->
    <title>Artboard</title>
    <desc>Created with Sketch.</desc>
    <defs></defs>
    <g id="redesing-v6" stroke="none" stroke-width="1" fill="none" fill-rule="evenodd" opacity="0.7">
        <g id="Artboard" stroke="#FF5824" fill-rule="nonzero">
            <g id="icon_imac_contour" transform="translate(1.000000, 5.000000)">
                <g id="Group" transform="translate(5.000000, 1.000000)">
                    <path d="M618.75,0.419565217 L41.25,0.419565217 C17.875,0.419565217 0,17.9130435 0,40.7891304 L0,445.830435 C0,467.36087 17.875,486.2 41.25,486.2 L259.875,486.2 L225.5,548.1 L196.625,548.1 C181.5,548.1 170.5,560.21087 170.5,573.667391 C170.5,588.469565 182.875,599.234783 196.625,599.234783 L460.625,599.234783 C475.75,599.234783 486.75,587.123913 486.75,573.667391 C486.75,558.865217 474.375,548.1 460.625,548.1 L431.75,548.1 L397.375,486.2 L618.75,486.2 C642.125,486.2 660,467.36087 660,445.830435 L660,40.7891304 C660,17.9130435 642.125,0.419565217 618.75,0.419565217 Z M305.25,441.793478 C305.25,428.336957 316.25,417.571739 330,417.571739 C343.75,417.571739 354.75,428.336957 354.75,441.793478 C354.75,455.25 343.75,466.015217 330,466.015217 C316.25,466.015217 305.25,455.25 305.25,441.793478 Z M605,392.004348 L55,392.004348 L55,54.2456522 L605,54.2456522 L605,392.004348 Z" id="Shape"></path>
                    <polygon id="Shape" points="236.5 252.056522 148.5 211.686957 148.5 208.995652 236.5 169.971739 236.5 141.713043 118.25 195.53913 118.25 226.48913 236.5 278.969565"></polygon>
                    <polygon id="Shape" points="397.375 109.417391 372.625 109.417391 262.625 336.832609 288.75 336.832609"></polygon>
                    <polygon id="Shape" points="541.75 195.53913 423.5 141.713043 423.5 169.971739 511.5 208.995652 511.5 211.686957 423.5 252.056522 423.5 278.969565 541.75 226.48913"></polygon>
                </g>
            </g>
        </g>
    </g>
</svg>