<?xml version="1.0" encoding="UTF-8"?>
<svg width="195px" height="168px" viewBox="0 0 195 168" version="1.1" xmlns="http://www.w3.org/2000/svg" xmlns:xlink="http://www.w3.org/1999/xlink">
    <!-- Generator: Sketch 45.2 (43514) - http://www.bohemiancoding.com/sketch -->
    <title>icon_imac_contour</title>
    <desc>Created with Sketch.</desc>
    <defs></defs>
    <g id="redesing-v6" stroke="none" stroke-width="1" fill="none" fill-rule="evenodd" opacity="0.7">
        <g id="Artboard" stroke="#FF5824" stroke-width="1.5" fill-rule="nonzero">
            <g id="icon_imac_contour">
                <path d="M180.444486,1.39194568 L13.896299,1.39194568 C7.15506292,1.39194568 2,6.2219409 2,12.5380885 L2,124.371055 C2,130.315664 7.15506292,135.517197 13.896299,135.517197 L76.946684,135.517197 L67.0331015,152.60795 L58.7056921,152.60795 C54.3437158,152.60795 51.1713694,155.951793 51.1713694,159.667174 C51.1713694,163.754093 54.7402591,166.726397 58.7056921,166.726397 L134.842006,166.726397 C139.203982,166.726397 142.376329,163.382555 142.376329,159.667174 C142.376329,155.580255 138.807439,152.60795 134.842006,152.60795 L126.514597,152.60795 L116.601014,135.517197 L180.444486,135.517197 C187.185722,135.517197 192.340785,130.315664 192.340785,124.371055 L192.340785,12.5380885 C192.340785,6.2219409 187.185722,1.39194568 180.444486,1.39194568 Z M90.032613,123.25644 C90.032613,119.541059 93.2049594,116.568755 97.1703924,116.568755 C101.135825,116.568755 104.308172,119.541059 104.308172,123.25644 C104.308172,126.971821 101.135825,129.944126 97.1703924,129.944126 C93.2049594,129.944126 90.032613,126.971821 90.032613,123.25644 Z M176.479053,109.509531 L17.8617321,109.509531 L17.8617321,16.2534694 L176.479053,16.2534694 L176.479053,109.509531 Z" id="Shape"></path>
                <polygon id="Shape" points="70.2054479 70.8695692 44.8266766 59.7234264 44.8266766 58.9803502 70.2054479 48.2057455 70.2054479 40.4034455 36.1027239 55.2649693 36.1027239 63.8103454 70.2054479 78.3003311"></polygon>
                <polygon id="Shape" points="116.601014 31.4865313 109.463235 31.4865313 77.7397706 94.2764691 85.2740933 94.2764691"></polygon>
                <polygon id="Shape" points="158.238061 55.2649693 124.135337 40.4034455 124.135337 48.2057455 149.514108 58.9803502 149.514108 59.7234264 124.135337 70.8695692 124.135337 78.3003311 158.238061 63.8103454"></polygon>
            </g>
        </g>
    </g>
</svg>