<?xml version="1.0" encoding="UTF-8"?>
<svg width="693px" height="217px" viewBox="0 0 693 217" version="1.1" xmlns="http://www.w3.org/2000/svg" xmlns:xlink="http://www.w3.org/1999/xlink">
    <!-- Generator: Sketch 45.2 (43514) - http://www.bohemiancoding.com/sketch -->
    <title>image_continuos_integrations</title>
    <desc>Created with Sketch.</desc>
    <defs></defs>
    <g id="animacio" stroke="none" stroke-width="1" fill="none" fill-rule="evenodd">
        <g id="boceto_animacion-" transform="translate(-38.000000, -1549.000000)">
            <g id="content" transform="translate(38.000000, 139.000000)">
                <g id="continuos" transform="translate(0.000000, 1410.000000)">
                    <rect id="Rectangle-38" fill="#000000" x="17" y="138" width="470" height="16"></rect>
                    <g id="table" transform="translate(2.000000, 109.000000)">
                        <rect id="Rectangle-38-Copy" stroke="#FFC91C" stroke-width="4" fill="#000000" x="0" y="0" width="500.547028" height="27.2136564" rx="13.6068282"></rect>
                        <circle id="Oval-4" fill="#FFFFFF" cx="25" cy="14" r="8"></circle>
                        <circle id="Oval-4-Copy" fill="#FFFFFF" cx="50" cy="14" r="8"></circle>
                        <circle id="Oval-4-Copy-2" fill="#FFFFFF" cx="75" cy="14" r="8"></circle>
                        <circle id="Oval-4-Copy-3" fill="#FFFFFF" cx="100" cy="14" r="8"></circle>
                        <circle id="Oval-4-Copy-4" fill="#FFFFFF" cx="125" cy="14" r="8"></circle>
                        <circle id="Oval-4-Copy-5" fill="#FFFFFF" cx="150" cy="14" r="8"></circle>
                        <circle id="Oval-4-Copy-6" fill="#FFFFFF" cx="175" cy="14" r="8"></circle>
                        <circle id="Oval-4-Copy-7" fill="#FFFFFF" cx="200" cy="14" r="8"></circle>
                        <circle id="Oval-4-Copy-8" fill="#FFFFFF" cx="225" cy="14" r="8"></circle>
                        <circle id="Oval-4-Copy-9" fill="#FFFFFF" cx="250" cy="14" r="8"></circle>
                        <circle id="Oval-4-Copy-10" fill="#FFFFFF" cx="275" cy="14" r="8"></circle>
                        <circle id="Oval-4-Copy-11" fill="#FFFFFF" cx="300" cy="14" r="8"></circle>
                        <circle id="Oval-4-Copy-12" fill="#FFFFFF" cx="325" cy="14" r="8"></circle>
                        <circle id="Oval-4-Copy-13" fill="#FFFFFF" cx="350" cy="14" r="8"></circle>
                        <circle id="Oval-4-Copy-14" fill="#FFFFFF" cx="375" cy="14" r="8"></circle>
                        <circle id="Oval-4-Copy-15" fill="#FFFFFF" cx="400" cy="14" r="8"></circle>
                        <circle id="Oval-4-Copy-16" fill="#FFFFFF" cx="425" cy="14" r="8"></circle>
                        <circle id="Oval-4-Copy-17" fill="#FFFFFF" cx="450" cy="14" r="8"></circle>
                        <circle id="Oval-4-Copy-18" fill="#FFFFFF" cx="475" cy="14" r="8"></circle>
                    </g>
                    <g id="Group-3" transform="translate(43.000000, 0.000000)">
                        <path d="M101,0 L259.284754,0 L259.284754,154 L101,154 L101,0 Z M116,15.9687181 L116,103.796668 L245,103.796668 L245,15.9687181 L116,15.9687181 Z" id="Combined-Shape" fill="#2F5681"></path>
                        <path d="M113,13 L247.835161,13 L247.835161,106.13937 L113,106.13937 L113,13 Z M116,16 L116,104 L245,104 L245,16 L116,16 Z" id="Combined-Shape" fill="#000000"></path>
                        <polygon id="Rectangle-23" fill="#4A4A4A" points="277.941927 58 282.941927 58 275 86 270 86"></polygon>
                        <rect id="Rectangle-22" fill="#2F5681" x="258" y="79" width="32" height="75"></rect>
                        <rect id="Rectangle-25" fill="#000000" x="0" y="154" width="16" height="63"></rect>
                        <rect id="Rectangle-25-Copy" fill="#000000" x="135" y="154" width="16" height="63"></rect>
                        <rect id="Rectangle-25-Copy-2" fill="#000000" x="271" y="154" width="16" height="63"></rect>
                        <rect id="Rectangle-25-Copy-3" fill="#000000" x="406" y="154" width="16" height="63"></rect>
                        <circle id="Oval-5" fill="#FF5824" cx="280.999219" cy="56.999219" r="5.99921901"></circle>
                    </g>
                    <rect id="Rectangle-21" fill="#000000" opacity="0.2" x="159" y="16" width="129" height="88"></rect>
                    <g id="Group-9" transform="translate(499.000000, 80.000000)">
                        <g id="Group-8-Copy" transform="translate(0.000000, 68.000000)">
                            <rect id="Rectangle-24-Copy-2" fill="#B59574" x="0" y="0" width="97" height="69"></rect>
                            <rect id="Rectangle-39-Copy-2" fill="#D3BBA6" x="40" y="0" width="17" height="27"></rect>
                            <rect id="Rectangle-39-Copy-3" fill="#D3BBA6" x="40" y="42" width="17" height="27"></rect>
                            <circle id="Oval-8" fill="#81BB46" cx="47.5" cy="34.5" r="19.5"></circle>
                            <polyline id="Path-8" stroke="#FFFFFF" stroke-width="4" stroke-linecap="round" points="39 33.7430378 45.1677844 39.9108222 57.0786066 28"></polyline>
                        </g>
                        <g id="Group-8-Copy-2" transform="translate(97.000000, 68.000000)">
                            <rect id="Rectangle-24-Copy-2" fill="#B59574" x="0" y="0" width="97" height="69"></rect>
                            <rect id="Rectangle-39-Copy-2" fill="#D3BBA6" x="40" y="0" width="17" height="27"></rect>
                            <rect id="Rectangle-39-Copy-3" fill="#D3BBA6" x="40" y="42" width="17" height="27"></rect>
                            <circle id="Oval-8" fill="#81BB46" cx="47.5" cy="34.5" r="19.5"></circle>
                            <polyline id="Path-8" stroke="#FFFFFF" stroke-width="4" stroke-linecap="round" points="39 33.7430378 45.1677844 39.9108222 57.0786066 28"></polyline>
                        </g>
                        <g id="Group-8-Copy-3" transform="translate(97.000000, 0.000000)">
                            <rect id="Rectangle-24-Copy-2" fill="#B59574" x="0" y="0" width="97" height="69"></rect>
                            <rect id="Rectangle-39-Copy-2" fill="#D3BBA6" x="40" y="0" width="17" height="27"></rect>
                            <rect id="Rectangle-39-Copy-3" fill="#D3BBA6" x="40" y="42" width="17" height="27"></rect>
                            <circle id="Oval-8" fill="#81BB46" cx="47.5" cy="34.5" r="19.5"></circle>
                            <polyline id="Path-8" stroke="#FFFFFF" stroke-width="4" stroke-linecap="round" points="39 33.7430378 45.1677844 39.9108222 57.0786066 28"></polyline>
                        </g>
                    </g>
                    <rect id="Rectangle-40" fill="#5393DA" x="303" y="87" width="10" height="7"></rect>
                    <rect id="Rectangle-40-Copy-2" fill="#5393DA" x="303" y="97" width="10" height="7"></rect>
                    <rect id="Rectangle-40-Copy-4" fill="#5393DA" x="303" y="107" width="10" height="7"></rect>
                    <rect id="Rectangle-40-Copy" fill="#5393DA" x="318" y="87" width="10" height="7"></rect>
                    <rect id="Rectangle-40-Copy-3" fill="#5393DA" x="318" y="97" width="10" height="7"></rect>
                    <rect id="Rectangle-40-Copy-5" fill="#5393DA" x="318" y="107" width="10" height="7"></rect>
                </g>
            </g>
        </g>
    </g>
</svg>