<?xml version="1.0" encoding="UTF-8"?>
<svg width="468px" height="352px" viewBox="0 0 468 352" version="1.1" xmlns="http://www.w3.org/2000/svg" xmlns:xlink="http://www.w3.org/1999/xlink">
    <!-- Generator: Sketch 45.2 (43514) - http://www.bohemiancoding.com/sketch -->
    <title>image_Analitycs</title>
    <desc>Created with Sketch.</desc>
    <defs></defs>
    <g id="animacio" stroke="none" stroke-width="1" fill="none" fill-rule="evenodd">
        <g id="boceto_animacion-" transform="translate(-855.000000, -1962.000000)">
            <rect id="bgn" fill="#FFFFFF" x="0" y="0" width="1440" height="2641.71565"></rect>
            <g id="content" transform="translate(38.000000, 139.000000)">
                <g id="Analitycs" transform="translate(817.000000, 1823.000000)">
                    <path d="M105,111 L105,160.602121" id="Path-7" stroke="#81BB46" stroke-width="4" stroke-linecap="round" stroke-dasharray="4,10"></path>
                    <path d="M410,161 L410,210.602121" id="Path-7-Copy-3" stroke="#81BB46" stroke-width="4" stroke-linecap="round" stroke-dasharray="4,10"></path>
                    <path d="M369.429036,285 L220,285" id="Path-7-Copy" stroke="#81BB46" stroke-width="4" stroke-linecap="round" stroke-dasharray="4,10" transform="translate(294.714518, 285.000000) scale(-1, -1) translate(-294.714518, -285.000000) "></path>
                    <path d="M334.429036,70 L185,70" id="Path-7-Copy-2" stroke="#81BB46" stroke-width="4" stroke-linecap="round" stroke-dasharray="4,10" transform="translate(259.714518, 70.000000) scale(-1, -1) translate(-259.714518, -70.000000) "></path>
                    <g id="torta" transform="translate(381.000000, 232.000000)" fill-rule="nonzero">
                        <path d="M38.5956536,6.51062546 C17.8000212,6.51062546 0.937212535,23.3734341 0.937212535,44.1681353 C0.937212535,64.9628365 17.8000212,81.8293703 38.5956536,81.8293703 C59.39408,81.8293703 76.261545,64.9628365 76.261545,44.1681353 L38.5956536,44.1681353 L38.5956536,6.51062546 Z" id="Shape" fill="#FF5824"></path>
                        <path d="M44.7150348,0.123861134 L44.7150348,37.7860274 L82.3781323,37.7860274 C82.3753385,16.9913262 65.5106673,0.123861134 44.7150348,0.123861134 Z" id="Shape" fill="#0FAFD3"></path>
                    </g>
                    <g id="desktop" transform="translate(0.000000, 173.000000)">
                        <path d="M144.632786,166.412519 L133.366638,166.412519 L128.064921,147.856511 L81.6749003,147.856511 L76.3731836,166.412519 L65.1070357,166.412519 C61.7934628,166.412519 59.1426044,169.063378 59.1426044,172.376951 C59.1426044,175.690524 61.7934628,178.341382 65.1070357,178.341382 L145.2955,178.341382 C148.609073,178.341382 151.259931,175.690524 151.259931,172.376951 C151.259931,169.063378 147.946359,166.412519 144.632786,166.412519 Z" id="Shape" fill="#000000" fill-rule="nonzero"></path>
                        <rect id="Combined-Shape" fill="#3E3E3E" x="0" y="0" width="209.197926" height="149.412895" rx="4"></rect>
                        <rect id="Rectangle-37" fill="#FFFFFF" x="12.4510746" y="12.4510746" width="184.909632" height="112.250072"></rect>
                        <path d="M105.346332,140.655369 C102.907211,140.655369 101.164981,138.913139 101.164981,136.474018 C101.164981,134.034897 102.907211,132.292668 105.346332,132.292668 C107.437007,132.292668 109.527682,134.034897 109.527682,136.474018 C109.527682,138.564693 107.437007,140.655369 105.346332,140.655369 Z" id="Path" stroke="#000000" fill="#3E3E3E"></path>
                        <circle id="Oval-6" fill="#110E2A" cx="105.834134" cy="6.22553731" r="1.55638433"></circle>
                    </g>
                    <g id="graph_desktop" transform="translate(52.000000, 220.000000)">
                        <polygon id="Path" fill="#0FAFD3" points="34 55.7525205 34 28 45.6466183 28 45.6466183 55.7525205"></polygon>
                        <polygon id="Path-Copy" fill="#0FAFD3" points="86 55.7525205 86 28 97.6466183 28 97.6466183 55.7525205"></polygon>
                        <polygon id="Path" fill="#FF5824" points="62.6471308 55.9370806 51 55.9370806 51 0 62.6471308 0"></polygon>
                        <polygon id="Path" fill="#0FAFD3" points="11.6471308 55.9924498 0 55.9924498 0 43 11.6471308 43"></polygon>
                        <polygon id="Path" fill="#FF5824" points="28.6466183 56.0940922 17 56.0940922 17 16 28.6471308 16 28.6471308 56.0940922"></polygon>
                        <polygon id="Path-Copy-2" fill="#FF5824" points="80.6466183 56.0940922 69 56.0940922 69 16 80.6471308 16 80.6471308 56.0940922"></polygon>
                    </g>
                    <g id="mobile" transform="translate(371.000000, 0.000000)">
                        <g id="Group-5">
                            <rect id="Combined-Shape" fill="#3E3E3E" x="0" y="0" width="74.8640882" height="133.217647" rx="4"></rect>
                            <path d="M37.5805839,129.49128 C34.7093135,129.49128 32.3816889,127.058267 32.3816889,124.056993 C32.3816889,121.05572 34.7093135,118.622707 37.5805839,118.622707 C40.4518544,118.622707 42.779479,121.05572 42.779479,124.056993 C42.779479,127.058267 40.4518544,129.49128 37.5805839,129.49128 Z M37.5805839,127.938626 C39.6314914,127.938626 41.2940804,126.20076 41.2940804,124.056993 C41.2940804,121.913227 39.6314914,120.17536 37.5805839,120.17536 C35.5296765,120.17536 33.8670875,121.913227 33.8670875,124.056993 C33.8670875,126.20076 35.5296765,127.938626 37.5805839,127.938626 Z" id="Combined-Shape" fill="#000000"></path>
                            <g id="Group-2" transform="translate(26.768530, 7.648152)" fill="#000000">
                                <ellipse id="Oval-2" cx="1.11439566" cy="1.16485235" rx="1.11439566" ry="1.16485235"></ellipse>
                                <rect id="Rectangle-6" x="6.53575373" y="0" width="12.7744277" height="2.48424517" rx="1.24212259"></rect>
                            </g>
                            <rect id="Combined-Shape" fill="#FFFFFF" x="4.75327544" y="16.1475936" width="65.6158712" height="98.7140679"></rect>
                        </g>
                    </g>
                    <g id="graph_mobile" transform="translate(386.000000, 40.000000)">
                        <polygon id="Path" fill="#FF5824" points="28.6466183 55.7525205 17 55.7525205 17 28 28.6466183 28 28.6466183 55.7525205"></polygon>
                        <polygon id="Path" fill="#0FAFD3" points="45.6471308 55.9370806 34 55.9370806 34 0 45.6471308 0"></polygon>
                        <polygon id="Path" fill="#0FAFD3" points="11.6466183 56.0940922 0 56.0940922 0 16 11.6471308 16 11.6471308 56.0940922"></polygon>
                    </g>
                    <g id="cloud" transform="translate(52.000000, 36.000000)" fill-rule="nonzero" fill="#85BEFF">
                        <path d="M88.8685399,62.7515887 L24.8170125,62.3970599 C11.1085675,62.3970599 0,52.9429599 0,41.3616874 C0,29.780415 11.1085675,20.326315 24.8170125,20.326315 L25.053365,20.326315 C25.4078937,20.326315 26.47148,20.5626675 27.6532425,20.79902 C27.6532425,20.326315 27.5350662,19.85361 27.5350662,19.2627287 C27.5350662,8.62686624 37.1073425,0 48.9249674,0 C58.0245387,0 65.8241712,5.19975499 68.7785774,12.8812112 C71.6148074,10.5176862 75.1600949,9.09957124 78.9417349,9.09957124 C87.5686011,9.09957124 94.5409999,16.1901462 94.5409999,24.8170125 C94.5409999,26.5896562 94.3046474,28.2441237 93.7137661,29.780415 C101.15887,32.14394 106.358625,38.289105 106.358625,45.6160324 C106.358625,55.0701324 98.5589924,62.7515887 88.8685399,62.7515887 Z" id="Shape"></path>
                    </g>
                </g>
                <g id="line_03" transform="translate(572.000000, 1667.000000)" stroke="#9B9B9B" stroke-width="2" stroke-linecap="round" stroke-dasharray="4,10">
                    <path d="M2.57015043,1.59683243 C-6.19684492,48.1818772 37.3136394,99.498259 96.506777,108.723122 C155.699914,117.947984 198.771919,64.2649366 271.691172,75.2058267 C320.304008,82.4997534 347.418663,109.528956 353.03514,156.293434" id="Path-6"></path>
                </g>
            </g>
        </g>
    </g>
</svg>